<svg width="501" height="551" viewBox="0 0 501 551" fill="none" xmlns="http://www.w3.org/2000/svg">
<path d="M113.965 410.845C127.929 415.717 142.706 413.659 154.797 410.312C168.142 406.619 177.213 394.13 178.765 380.37L194.25 243.109C196.643 221.894 180.227 200.403 158.903 199.362C143.086 198.59 126.433 199.47 116.443 205.464C80.1507 227.24 83.1932 400.111 113.965 410.845Z" fill="#D8E0EE" stroke="black" stroke-width="20"/>
<mask id="mask0_1_873" style="mask-type:alpha" maskUnits="userSpaceOnUse" x="80" y="189" width="125" height="235">
<path d="M113.965 410.845C127.929 415.717 142.706 413.659 154.797 410.312C168.142 406.619 177.213 394.13 178.765 380.37L194.25 243.109C196.643 221.894 180.227 200.403 158.903 199.362C143.086 198.59 126.433 199.47 116.443 205.464C80.1507 227.24 83.1932 400.111 113.965 410.845Z" fill="#E453BD" stroke="#63114C" stroke-width="20"/>
</mask>
<g mask="url(#mask0_1_873)">
<path d="M173.692 250.548C128.465 236.808 70.8823 261.998 47.7441 276.31C47.7441 349.589 81.1394 427.543 97.8371 457.36H173.692V250.548Z" fill="#8897BD" fill-opacity="0.55"/>
<path d="M113.965 410.845C127.929 415.717 142.706 413.659 154.797 410.312C168.142 406.619 177.213 394.13 178.765 380.37L194.25 243.109C196.643 221.894 180.227 200.403 158.903 199.362C143.086 198.59 126.433 199.47 116.443 205.464C80.1507 227.24 83.1932 400.111 113.965 410.845Z" stroke="black" stroke-width="20"/>
</g>
<path d="M169.827 209.721C154.253 213.593 131.907 226.517 111.817 243.073C91.6948 259.654 72.4052 281.047 64.1254 302.836C58.5488 317.511 59.026 330.113 67.6322 337.954C65.0387 338.936 62.5723 339.945 60.3105 340.986C55.514 343.192 50.7113 345.932 47.3701 349.536C43.7008 353.494 41.4582 358.987 43.4995 365.306C48.6379 381.21 63.9517 390.459 78.3893 394.217C85.789 396.143 93.515 396.803 100.576 396.069C104.029 395.71 107.486 394.998 110.73 393.841C112.757 403.561 116.946 413.84 124.006 420.932C128.918 425.867 135.376 429.379 143.303 429.662C151.093 429.94 159.325 427.065 167.885 421.18C174.036 416.952 179.955 410.015 185.414 401.838C190.954 393.541 196.36 383.446 201.331 372.367C211.265 350.224 219.697 323.617 223.968 298.507C228.181 273.737 228.59 249.044 221.079 231.611C217.218 222.649 211.085 215.217 202.023 211.093C193.043 207.007 182.219 206.64 169.827 209.721Z" fill="#ACB8D3" stroke="black" stroke-width="15"/>
<path d="M121.297 331.878C124.267 330.408 125.483 326.809 124.014 323.839C122.545 320.869 118.946 319.653 115.976 321.122L121.297 331.878ZM60.1362 343C59.354 343 58.9598 342.732 59.5703 343.002C59.8269 343.115 60.1012 343.247 60.568 343.468C60.9981 343.671 61.5289 343.92 62.1295 344.178C64.6626 345.265 68.1058 346.369 73.0306 346.558C82.6273 346.927 97.1983 343.8 121.297 331.878L115.976 321.122C92.5742 332.7 80.1451 334.823 73.4918 334.567C70.2917 334.444 68.2974 333.766 66.8617 333.15C66.4702 332.982 66.1005 332.81 65.703 332.622C65.3421 332.451 64.8615 332.22 64.417 332.024C63.6251 331.674 62.0434 331 60.1362 331V343Z" fill="black"/>
<path d="M215.136 82.2744V138.274" stroke="black" stroke-width="14"/>
<path d="M273.136 104.785C293.935 104.785 312.959 101.961 326.945 97.2637C333.915 94.9233 339.89 92.0331 344.218 88.5967C348.498 85.1989 351.796 80.7303 351.796 75.2745C351.796 69.8186 348.498 65.35 344.218 61.9522C339.89 58.5158 333.915 55.6256 326.945 53.2852C312.959 48.5884 293.935 45.7642 273.136 45.7642C252.337 45.7642 233.313 48.5884 219.327 53.2852C212.358 55.6256 206.382 58.5158 202.054 61.9522C197.775 65.35 194.477 69.8186 194.477 75.2745C194.477 80.7303 197.775 85.1989 202.054 88.5967C206.382 92.0331 212.358 94.9233 219.327 97.2637C233.313 101.961 252.337 104.785 273.136 104.785Z" stroke="black" stroke-width="9.31903"/>
<path fill-rule="evenodd" clip-rule="evenodd" d="M273.136 100.125C314.005 100.125 347.136 88.9991 347.136 75.2745C347.136 61.5498 314.005 50.4237 273.136 50.4237C232.267 50.4237 199.136 61.5498 199.136 75.2745C199.136 88.9991 232.267 100.125 273.136 100.125ZM305.693 80.287C306.266 80.163 306.816 80.0358 307.343 79.9054C312.19 78.7054 315.037 77.242 315.037 75.6628C315.037 74.0835 312.19 72.6202 307.343 71.4201C306.816 71.2897 306.266 71.1625 305.693 71.0385C297.935 69.3595 286.044 68.2852 272.713 68.2852C259.382 68.2852 247.491 69.3595 239.733 71.0385C239.16 71.1625 238.61 71.2897 238.084 71.4201C233.236 72.6202 230.389 74.0835 230.389 75.6628C230.389 77.242 233.236 78.7054 238.084 79.9054C238.61 80.0358 239.16 80.163 239.733 80.287C247.491 81.966 259.382 83.0403 272.713 83.0403C286.044 83.0403 297.935 81.966 305.693 80.287Z" fill="#FCE703"/>
<path d="M307.343 79.9054L308.304 83.7882L308.304 83.7882L307.343 79.9054ZM305.693 80.287L306.539 84.1965H306.539L305.693 80.287ZM307.343 71.4201L306.382 75.3029L306.382 75.3029L307.343 71.4201ZM305.693 71.0385L306.539 67.1291L306.539 67.1291L305.693 71.0385ZM239.733 71.0385L238.887 67.1291L238.887 67.1291L239.733 71.0385ZM238.084 71.4201L239.045 75.3029L239.045 75.3029L238.084 71.4201ZM238.084 79.9054L237.123 83.7882L238.084 79.9054ZM239.733 80.287L238.887 84.1965H238.887L239.733 80.287ZM343.136 75.2745C343.136 76.9676 342.119 79.2063 338.834 81.8148C335.59 84.3901 330.65 86.885 324.189 89.0547C311.308 93.3803 293.258 96.1252 273.136 96.1252V104.125C293.884 104.125 312.834 101.307 326.736 96.6385C333.666 94.3111 339.563 91.451 343.808 88.0802C348.012 84.7425 351.136 80.4437 351.136 75.2745H343.136ZM273.136 54.4237C293.258 54.4237 311.308 57.1686 324.189 61.4942C330.65 63.6639 335.59 66.1588 338.834 68.7341C342.119 71.3426 343.136 73.5814 343.136 75.2745H351.136C351.136 70.1052 348.012 65.8064 343.808 62.4688C339.563 59.0979 333.666 56.2378 326.736 53.9104C312.834 49.2419 293.884 46.4237 273.136 46.4237V54.4237ZM203.136 75.2745C203.136 73.5814 204.153 71.3426 207.439 68.7341C210.682 66.1588 215.623 63.6639 222.084 61.4942C234.964 57.1686 253.014 54.4237 273.136 54.4237V46.4237C252.389 46.4237 233.439 49.2419 219.537 53.9104C212.606 56.2378 206.71 59.0979 202.464 62.4688C198.26 65.8064 195.136 70.1052 195.136 75.2745H203.136ZM273.136 96.1252C253.014 96.1252 234.964 93.3803 222.084 89.0547C215.623 86.885 210.682 84.3901 207.439 81.8148C204.153 79.2063 203.136 76.9676 203.136 75.2745H195.136C195.136 80.4437 198.26 84.7425 202.464 88.0802C206.71 91.451 212.606 94.3111 219.537 96.6385C233.439 101.307 252.389 104.125 273.136 104.125V96.1252ZM306.382 76.0226C305.896 76.1428 305.384 76.2612 304.847 76.3775L306.539 84.1965C307.147 84.0649 307.736 83.9288 308.304 83.7882L306.382 76.0226ZM311.037 75.6628C311.037 74.7693 311.458 74.2418 311.553 74.1369C311.627 74.0547 311.547 74.1686 311.104 74.4086C310.223 74.8853 308.678 75.4541 306.382 76.0226L308.304 83.7882C310.855 83.1567 313.157 82.3938 314.912 81.444C315.786 80.9708 316.721 80.3477 317.48 79.5094C318.261 78.6485 319.037 77.3458 319.037 75.6628H311.037ZM306.382 75.3029C308.678 75.8714 310.223 76.4402 311.104 76.9169C311.547 77.157 311.627 77.2709 311.553 77.1886C311.458 77.0837 311.037 76.5562 311.037 75.6628H319.037C319.037 73.9797 318.261 72.6771 317.48 71.8161C316.721 70.9778 315.786 70.3547 314.912 69.8815C313.157 68.9317 310.855 68.1688 308.304 67.5373L306.382 75.3029ZM304.847 74.948C305.384 75.0643 305.896 75.1828 306.382 75.3029L308.304 67.5373C307.736 67.3967 307.147 67.2607 306.539 67.1291L304.847 74.948ZM272.713 72.2852C285.886 72.2852 297.468 73.3511 304.847 74.948L306.539 67.1291C298.402 65.3679 286.202 64.2852 272.713 64.2852V72.2852ZM240.579 74.948C247.958 73.3511 259.54 72.2852 272.713 72.2852V64.2852C259.225 64.2852 247.024 65.3679 238.887 67.1291L240.579 74.948ZM239.045 75.3029C239.53 75.1828 240.042 75.0643 240.579 74.948L238.887 67.1291C238.279 67.2607 237.69 67.3967 237.122 67.5373L239.045 75.3029ZM234.389 75.6628C234.389 76.5562 233.969 77.0837 233.874 77.1886C233.799 77.2709 233.879 77.157 234.323 76.9169C235.203 76.4402 236.748 75.8714 239.045 75.3029L237.123 67.5373C234.571 68.1688 232.269 68.9317 230.514 69.8815C229.64 70.3547 228.706 70.9778 227.946 71.8161C227.166 72.6771 226.389 73.9797 226.389 75.6628H234.389ZM239.045 76.0226C236.748 75.4541 235.203 74.8853 234.323 74.4086C233.879 74.1686 233.799 74.0547 233.874 74.1369C233.969 74.2418 234.389 74.7693 234.389 75.6628H226.389C226.389 77.3458 227.166 78.6485 227.946 79.5094C228.706 80.3477 229.64 80.9708 230.514 81.444C232.269 82.3938 234.571 83.1567 237.123 83.7882L239.045 76.0226ZM240.579 76.3775C240.042 76.2612 239.53 76.1428 239.045 76.0226L237.123 83.7882C237.69 83.9288 238.279 84.0649 238.887 84.1965L240.579 76.3775ZM272.713 79.0403C259.54 79.0403 247.958 77.9745 240.579 76.3775L238.887 84.1965C247.024 85.9576 259.225 87.0403 272.713 87.0403V79.0403ZM304.847 76.3775C297.468 77.9745 285.886 79.0403 272.713 79.0403V87.0403C286.202 87.0403 298.402 85.9576 306.539 84.1965L304.847 76.3775Z" fill="black"/>
<path d="M167.252 186.143C149.984 230.176 142.772 377.019 151.133 462.071C151.758 468.437 155.279 474.185 161.048 476.948C182.05 487.008 219.215 495.517 250.263 472.076L260.997 412.276L282.823 409.056L303.755 406.73C307.047 447.664 307.154 468.125 311.09 472.076C321.927 487.484 351.227 479.559 368.856 473.383C376.494 470.708 381.913 463.671 382.888 455.637C407.439 253.338 368.148 168.831 340.825 143.61C312.916 117.847 195.876 113.15 167.252 186.143Z" fill="#D8E0EE"/>
<path d="M324.687 404.405L303.755 406.73M303.755 406.73L282.823 409.056L260.997 412.276L250.263 472.076C219.215 495.517 182.05 487.008 161.048 476.948C155.279 474.185 151.758 468.437 151.133 462.071C142.772 377.019 149.984 230.176 167.252 186.143C195.876 113.15 312.916 117.847 340.825 143.61C368.148 168.831 407.439 253.338 382.888 455.637C381.913 463.671 376.494 470.708 368.856 473.383C351.227 479.559 321.927 487.484 311.09 472.076C307.154 468.125 307.047 447.664 303.755 406.73Z" stroke="black" stroke-width="21.4684" stroke-linecap="round" stroke-linejoin="round"/>
<mask id="mask1_1_873" style="mask-type:alpha" maskUnits="userSpaceOnUse" x="136" y="115" width="266" height="383">
<path d="M167.252 186.143C149.984 230.176 142.772 377.019 151.133 462.071C151.758 468.437 155.279 474.185 161.048 476.948C182.05 487.008 219.215 495.517 250.263 472.076L260.997 412.276L282.823 409.056L303.755 406.73C307.047 447.664 307.154 468.125 311.09 472.076C321.927 487.484 351.227 479.559 368.856 473.383C376.494 470.708 381.913 463.671 382.888 455.637C407.439 253.338 368.148 168.831 340.825 143.61C312.916 117.847 195.876 113.15 167.252 186.143Z" fill="#E752BE"/>
<path d="M324.687 404.405L303.755 406.73M303.755 406.73L282.823 409.056L260.997 412.276L250.263 472.076C219.215 495.517 182.05 487.008 161.048 476.948C155.279 474.185 151.758 468.437 151.133 462.071C142.772 377.019 149.984 230.176 167.252 186.143C195.876 113.15 312.916 117.847 340.825 143.61C368.148 168.831 407.439 253.338 382.888 455.637C381.913 463.671 376.494 470.708 368.856 473.383C351.227 479.559 321.927 487.484 311.09 472.076C307.154 468.125 307.047 447.664 303.755 406.73Z" stroke="#63114C" stroke-width="21.4684" stroke-linecap="round" stroke-linejoin="round"/>
</mask>
<g mask="url(#mask1_1_873)">
<path d="M339.714 368.624C364.904 358.319 381.22 316.384 385.514 285.613L393.385 538.94H138.627V130.325H202.317C166.536 217.63 175.839 308.513 211.62 357.174C234.389 388.141 308.227 381.505 339.714 368.624Z" fill="#8897BD" fill-opacity="0.55"/>
<path d="M324.687 404.405L303.755 406.73M303.755 406.73L282.823 409.056L260.997 412.276L250.263 472.076C219.215 495.517 182.05 487.008 161.048 476.948C155.279 474.185 151.758 468.437 151.133 462.071C142.772 377.019 149.984 230.176 167.252 186.143C195.876 113.15 312.916 117.847 340.825 143.61C368.148 168.831 407.439 253.338 382.888 455.637C381.913 463.671 376.494 470.708 368.856 473.383C351.227 479.559 321.927 487.484 311.09 472.076C307.154 468.125 307.047 447.664 303.755 406.73Z" stroke="black" stroke-width="21.4684" stroke-linecap="round" stroke-linejoin="round"/>
</g>
<path d="M399.11 281.319C373.975 307.612 317.53 306.75 290.898 298.319C249.003 285.056 243.994 231.385 250.434 206.338C257.025 180.707 294.751 180.398 339.865 182.803C384.979 185.208 430.529 248.453 399.11 281.319Z" fill="#98C7DD" stroke="black" stroke-width="20"/>
<mask id="mask2_1_873" style="mask-type:alpha" maskUnits="userSpaceOnUse" x="238" y="171" width="182" height="143">
<path d="M399.11 281.319C373.975 307.612 317.53 306.75 290.898 298.319C249.003 285.056 243.994 231.385 250.434 206.338C257.025 180.707 294.751 180.398 339.865 182.803C384.979 185.208 430.529 248.453 399.11 281.319Z" fill="#98C7DD" stroke="#3D3436" stroke-width="20"/>
</mask>
<g mask="url(#mask2_1_873)">
<path d="M365.476 216.198C359.752 206.466 326.73 204.749 311.225 204.749C307.886 204.749 301.493 207.182 302.638 216.914C304.069 229.08 337.703 235.52 352.731 235.52C367.759 235.52 372.633 228.364 365.476 216.198Z" fill="#FBFDFD" fill-opacity="0.85"/>
<path d="M298.924 256.989C277.44 252.96 268.343 210.508 266.316 185.183C266.085 182.3 264.232 179.781 261.51 178.804L247.671 173.836C243.009 172.162 238.097 175.603 238.097 180.557V342.146C238.097 348.775 339.369 345.277 395.337 342.452C398.778 342.278 401.586 339.671 402.04 336.255L412.326 258.838C413.199 252.27 404.511 246.963 398.351 249.402C367.47 261.628 317.638 260.497 298.924 256.989Z" fill="#4B646E" fill-opacity="0.55"/>
<path d="M399.11 281.319C373.975 307.612 317.53 306.75 290.898 298.319C249.003 285.056 243.994 231.385 250.434 206.338C257.025 180.707 294.751 180.398 339.865 182.803C384.979 185.208 430.529 248.453 399.11 281.319Z" stroke="black" stroke-width="20"/>
</g>
</svg>
