<svg width="501" height="551" viewBox="0 0 501 551" fill="none" xmlns="http://www.w3.org/2000/svg">
<path d="M148.965 410.845C162.929 415.717 177.706 413.659 189.797 410.312C203.142 406.619 212.213 394.13 213.765 380.37L229.25 243.109C231.643 221.894 215.227 200.403 193.903 199.362C178.086 198.59 161.433 199.47 151.443 205.464C115.151 227.24 118.193 400.111 148.965 410.845Z" fill="#996A4C" stroke="black" stroke-width="20"/>
<mask id="mask0_1_692" style="mask-type:alpha" maskUnits="userSpaceOnUse" x="115" y="189" width="125" height="235">
<path d="M148.965 410.845C162.929 415.717 177.706 413.659 189.797 410.312C203.142 406.619 212.213 394.13 213.765 380.37L229.25 243.109C231.643 221.894 215.227 200.403 193.903 199.362C178.086 198.59 161.433 199.47 151.443 205.464C115.151 227.24 118.193 400.111 148.965 410.845Z" fill="#E453BD" stroke="#63114C" stroke-width="20"/>
</mask>
<g mask="url(#mask0_1_692)">
<path d="M208.692 250.548C163.465 236.808 105.882 261.998 82.7441 276.31C82.7441 349.589 116.139 427.543 132.837 457.36H208.692V250.548Z" fill="#6F482F" fill-opacity="0.55"/>
<path d="M148.965 410.845C162.929 415.717 177.706 413.659 189.797 410.312C203.142 406.619 212.213 394.13 213.765 380.37L229.25 243.109C231.643 221.894 215.227 200.403 193.903 199.362C178.086 198.59 161.433 199.47 151.443 205.464C115.151 227.24 118.193 400.111 148.965 410.845Z" stroke="black" stroke-width="20"/>
</g>
<mask id="path-5-outside-1_1_692" maskUnits="userSpaceOnUse" x="170.651" y="75.2744" width="287" height="434" fill="black">
<rect fill="white" x="170.651" y="75.2744" width="287" height="434"/>
<path fill-rule="evenodd" clip-rule="evenodd" d="M395.348 154.394C394.629 153.424 394.908 152.068 395.924 151.415C408.41 143.398 426.212 125.438 410.381 107.398C392.043 86.5018 364.949 104.782 362.34 129.225C362.202 130.522 360.944 131.436 359.684 131.101C336.217 124.864 303.532 124.215 274.328 133.204C273.002 133.612 271.648 132.602 271.577 131.216C270.278 105.797 242.211 85.9381 223.379 107.398C208.401 124.466 223.529 141.461 235.776 150.034C236.906 150.825 236.99 152.496 235.934 153.382C225.783 161.906 217.52 172.709 212.252 186.143C194.984 230.176 187.772 377.019 196.133 462.071C196.758 468.437 200.279 474.185 206.048 476.948C226.908 486.94 263.711 495.401 294.63 472.549C295.035 472.25 295.312 471.801 295.401 471.305L305.743 413.692C305.895 412.846 306.57 412.192 307.419 412.067L327.823 409.056L346.706 406.958C347.827 406.834 348.83 407.661 348.919 408.786C349.702 418.681 350.3 427.343 350.817 434.829C352.347 456.977 353.166 468.844 355.975 471.955C356.051 472.039 356.124 472.125 356.19 472.217C367.106 487.436 396.281 479.54 413.856 473.383C421.494 470.708 426.913 463.671 427.888 455.637C449.69 275.991 421.147 189.233 395.348 154.394Z"/>
</mask>
<path fill-rule="evenodd" clip-rule="evenodd" d="M395.348 154.394C394.629 153.424 394.908 152.068 395.924 151.415C408.41 143.398 426.212 125.438 410.381 107.398C392.043 86.5018 364.949 104.782 362.34 129.225C362.202 130.522 360.944 131.436 359.684 131.101C336.217 124.864 303.532 124.215 274.328 133.204C273.002 133.612 271.648 132.602 271.577 131.216C270.278 105.797 242.211 85.9381 223.379 107.398C208.401 124.466 223.529 141.461 235.776 150.034C236.906 150.825 236.99 152.496 235.934 153.382C225.783 161.906 217.52 172.709 212.252 186.143C194.984 230.176 187.772 377.019 196.133 462.071C196.758 468.437 200.279 474.185 206.048 476.948C226.908 486.94 263.711 495.401 294.63 472.549C295.035 472.25 295.312 471.801 295.401 471.305L305.743 413.692C305.895 412.846 306.57 412.192 307.419 412.067L327.823 409.056L346.706 406.958C347.827 406.834 348.83 407.661 348.919 408.786C349.702 418.681 350.3 427.343 350.817 434.829C352.347 456.977 353.166 468.844 355.975 471.955C356.051 472.039 356.124 472.125 356.19 472.217C367.106 487.436 396.281 479.54 413.856 473.383C421.494 470.708 426.913 463.671 427.888 455.637C449.69 275.991 421.147 189.233 395.348 154.394Z" fill="#9E6C4B"/>
<path d="M410.381 107.398L393.845 121.909L393.845 121.909L410.381 107.398ZM223.379 107.398L239.914 121.909V121.909L223.379 107.398ZM212.252 186.143L191.77 178.111H191.77L212.252 186.143ZM196.133 462.071L218.027 459.919L196.133 462.071ZM206.048 476.948L215.552 457.106L215.551 457.106L206.048 476.948ZM327.823 409.056L325.394 387.191L325.002 387.234L324.612 387.292L327.823 409.056ZM350.817 434.829L328.87 436.345L350.817 434.829ZM413.856 473.383L406.582 452.62L406.582 452.62L413.856 473.383ZM427.888 455.637L449.727 458.287L427.888 455.637ZM305.743 413.692L284.089 409.805L305.743 413.692ZM307.419 412.067L310.631 433.831L307.419 412.067ZM294.63 472.549L281.553 454.857L294.63 472.549ZM295.401 471.305L317.055 475.192L295.401 471.305ZM235.776 150.034L248.392 132.01L235.776 150.034ZM235.934 153.382L221.787 136.534L235.934 153.382ZM355.975 471.955L372.303 457.211L355.975 471.955ZM356.19 472.217L374.067 459.394L356.19 472.217ZM274.328 133.204L280.799 154.23L274.328 133.204ZM271.577 131.216L293.548 130.094L271.577 131.216ZM362.34 129.225L384.216 131.561L362.34 129.225ZM346.706 406.958L349.135 428.824L346.706 406.958ZM348.919 408.786L370.85 407.049L348.919 408.786ZM395.924 151.415L384.036 132.904L395.924 151.415ZM395.348 154.394L377.668 167.487L395.348 154.394ZM393.845 121.909C395.131 123.374 394.713 123.555 394.633 122.586C394.57 121.832 394.852 121.864 394.256 123.008C393.62 124.231 392.363 125.95 390.331 127.928C388.348 129.858 386.088 131.587 384.036 132.904L407.812 169.927C415.612 164.918 426.749 155.881 433.286 143.322C436.723 136.719 439.268 128.378 438.481 118.932C437.676 109.272 433.547 100.442 426.917 92.8873L393.845 121.909ZM384.216 131.561C384.475 129.133 385.364 126.746 386.714 124.707C388.089 122.63 389.654 121.341 390.822 120.717C391.927 120.128 392.256 120.317 391.958 120.268C391.49 120.191 392.205 120.04 393.845 121.909L426.917 92.8874C419.388 84.3082 409.84 78.6058 399.052 76.8435C388.435 75.1091 378.39 77.4774 370.102 81.9014C354.028 90.4817 342.512 107.711 340.464 126.89L384.216 131.561ZM280.799 154.23C305.86 146.517 334.337 147.128 354.034 152.363L365.335 109.839C338.096 102.6 301.204 101.913 267.856 112.177L280.799 154.23ZM239.914 121.909C241.588 120.002 242.295 120.197 241.79 120.27C241.493 120.312 241.904 120.122 243.12 120.818C244.389 121.545 246.009 122.985 247.359 125.2C248.682 127.371 249.479 129.856 249.605 132.339L293.548 130.094C292.523 110.028 281.121 91.8768 264.986 82.6363C256.669 77.873 246.451 75.1534 235.553 76.7139C224.449 78.304 214.585 84.0648 206.843 92.8874L239.914 121.909ZM248.392 132.01C246.325 130.564 244.255 128.837 242.531 127.019C240.765 125.156 239.788 123.647 239.343 122.681C238.947 121.824 239.206 121.943 239.117 122.683C239.013 123.553 238.677 123.319 239.914 121.909L206.843 92.8874C200.591 100.011 196.53 108.302 195.432 117.427C194.35 126.421 196.349 134.525 199.393 141.122C205.169 153.633 215.583 162.753 223.161 168.058L248.392 132.01ZM232.733 194.175C236.554 184.431 242.515 176.584 250.081 170.231L221.787 136.534C209.051 147.229 198.486 160.986 191.77 178.111L232.733 194.175ZM218.027 459.919C213.99 418.852 213.671 362.067 216.548 309.937C217.983 283.942 220.194 259.437 223.061 238.916C225.994 217.92 229.413 202.641 232.733 194.175L191.77 178.111C186.457 191.661 182.498 211.25 179.484 232.829C176.403 254.883 174.097 280.661 172.615 307.513C169.659 361.076 169.914 420.237 174.238 464.223L218.027 459.919ZM215.551 457.106C216.533 457.576 217.214 458.267 217.595 458.852C217.947 459.392 218.013 459.779 218.027 459.919L174.238 464.223C175.502 477.085 182.844 490.227 196.544 496.789L215.551 457.106ZM281.553 454.857C260.308 470.56 233.402 465.656 215.552 457.106L196.544 496.789C220.414 508.223 267.114 520.243 307.706 490.241L281.553 454.857ZM284.089 409.805L273.747 467.418L317.055 475.192L327.397 417.579L284.089 409.805ZM324.612 387.292L304.208 390.302L310.631 433.831L331.034 430.821L324.612 387.292ZM344.276 385.093L325.394 387.191L330.253 430.922L349.135 428.824L344.276 385.093ZM372.765 433.314C372.248 425.83 371.643 417.068 370.85 407.049L326.987 410.522C327.761 420.294 328.352 428.855 328.87 436.345L372.765 433.314ZM372.303 457.211C375.301 460.531 375.786 463.546 375.484 462.392C375.357 461.907 375.085 460.573 374.754 457.867C374.094 452.457 373.548 444.653 372.765 433.314L328.87 436.345C329.616 447.153 330.244 456.357 331.078 463.195C331.495 466.613 332.05 470.213 332.915 473.521C333.604 476.158 335.244 481.824 339.647 486.699L372.303 457.211ZM406.582 452.62C398.233 455.545 388.741 458.268 380.826 458.882C371.691 459.59 372.412 457.087 374.067 459.394L338.313 485.04C350.885 502.566 371.651 503.725 384.226 502.75C398.021 501.681 411.904 497.378 421.129 494.146L406.582 452.62ZM406.048 452.986C406.051 452.957 406.057 452.945 406.056 452.947C406.054 452.952 406.054 452.95 406.064 452.937C406.079 452.917 406.225 452.745 406.582 452.62L421.129 494.146C437.06 488.566 447.793 474.228 449.727 458.287L406.048 452.986ZM377.668 167.487C398.447 195.548 427.61 275.319 406.048 452.986L449.727 458.287C471.77 276.662 443.847 182.919 413.028 141.302L377.668 167.487ZM327.397 417.579C325.879 426.035 319.13 432.577 310.631 433.831L304.208 390.302C294.009 391.807 285.91 399.657 284.089 409.805L327.397 417.579ZM307.706 490.241C312.658 486.581 315.98 481.179 317.055 475.192L273.747 467.418C274.644 462.423 277.412 457.918 281.553 454.857L307.706 490.241ZM223.161 168.058C212.606 160.67 211.612 145.078 221.787 136.534L250.081 170.231C262.368 159.913 261.207 140.98 248.392 132.01L223.161 168.058ZM339.647 486.699C339.452 486.484 338.921 485.888 338.313 485.04L374.067 459.394C373.326 458.362 372.65 457.594 372.303 457.211L339.647 486.699ZM267.856 112.177C281.139 108.089 292.937 118.126 293.548 130.094L249.605 132.339C250.358 147.078 264.864 159.135 280.799 154.23L267.856 112.177ZM340.464 126.89C341.676 115.54 352.822 106.514 365.335 109.839L354.034 152.363C369.066 156.358 382.727 145.504 384.216 131.561L340.464 126.89ZM349.135 428.824C337.924 430.069 327.88 421.796 326.987 410.522L370.85 407.049C369.779 393.526 357.73 383.598 344.276 385.093L349.135 428.824ZM384.036 132.904C372.808 140.114 369.029 155.821 377.668 167.487L413.028 141.302C420.229 151.026 417.008 164.022 407.812 169.927L384.036 132.904Z" fill="black" mask="url(#path-5-outside-1_1_692)"/>
<mask id="mask1_1_692" style="mask-type:alpha" maskUnits="userSpaceOnUse" x="170" y="76" width="288" height="434">
<mask id="path-7-outside-2_1_692" maskUnits="userSpaceOnUse" x="170.651" y="75.2744" width="287" height="434" fill="black">
<rect fill="white" x="170.651" y="75.2744" width="287" height="434"/>
<path fill-rule="evenodd" clip-rule="evenodd" d="M395.348 154.394C394.629 153.424 394.908 152.068 395.924 151.415C408.41 143.398 426.212 125.438 410.381 107.398C392.043 86.5018 364.949 104.782 362.34 129.225C362.202 130.522 360.944 131.436 359.684 131.101C336.217 124.864 303.532 124.215 274.328 133.204C273.002 133.612 271.648 132.602 271.577 131.216C270.278 105.797 242.211 85.9381 223.379 107.398C208.401 124.466 223.529 141.461 235.776 150.034C236.906 150.825 236.99 152.496 235.934 153.382C225.783 161.906 217.52 172.709 212.252 186.143C194.984 230.176 187.772 377.019 196.133 462.071C196.758 468.437 200.279 474.185 206.048 476.948C226.908 486.94 263.711 495.401 294.63 472.549C295.035 472.25 295.312 471.801 295.401 471.305L305.743 413.692C305.895 412.846 306.57 412.192 307.419 412.067L327.823 409.056L346.706 406.958C347.827 406.834 348.83 407.661 348.919 408.786C349.702 418.681 350.3 427.343 350.817 434.829C352.347 456.977 353.166 468.844 355.975 471.955C356.051 472.039 356.124 472.125 356.19 472.217C367.106 487.436 396.281 479.54 413.856 473.383C421.494 470.708 426.913 463.671 427.888 455.637C449.69 275.991 421.147 189.233 395.348 154.394Z"/>
</mask>
<path fill-rule="evenodd" clip-rule="evenodd" d="M395.348 154.394C394.629 153.424 394.908 152.068 395.924 151.415C408.41 143.398 426.212 125.438 410.381 107.398C392.043 86.5018 364.949 104.782 362.34 129.225C362.202 130.522 360.944 131.436 359.684 131.101C336.217 124.864 303.532 124.215 274.328 133.204C273.002 133.612 271.648 132.602 271.577 131.216C270.278 105.797 242.211 85.9381 223.379 107.398C208.401 124.466 223.529 141.461 235.776 150.034C236.906 150.825 236.99 152.496 235.934 153.382C225.783 161.906 217.52 172.709 212.252 186.143C194.984 230.176 187.772 377.019 196.133 462.071C196.758 468.437 200.279 474.185 206.048 476.948C226.908 486.94 263.711 495.401 294.63 472.549C295.035 472.25 295.312 471.801 295.401 471.305L305.743 413.692C305.895 412.846 306.57 412.192 307.419 412.067L327.823 409.056L346.706 406.958C347.827 406.834 348.83 407.661 348.919 408.786C349.702 418.681 350.3 427.343 350.817 434.829C352.347 456.977 353.166 468.844 355.975 471.955C356.051 472.039 356.124 472.125 356.19 472.217C367.106 487.436 396.281 479.54 413.856 473.383C421.494 470.708 426.913 463.671 427.888 455.637C449.69 275.991 421.147 189.233 395.348 154.394Z" fill="#9E6C4B"/>
<path d="M410.381 107.398L393.845 121.909L393.845 121.909L410.381 107.398ZM223.379 107.398L239.914 121.909V121.909L223.379 107.398ZM212.252 186.143L191.77 178.111H191.77L212.252 186.143ZM196.133 462.071L218.027 459.919L196.133 462.071ZM206.048 476.948L215.552 457.106L215.551 457.106L206.048 476.948ZM327.823 409.056L325.394 387.191L325.002 387.234L324.612 387.292L327.823 409.056ZM350.817 434.829L328.87 436.345L350.817 434.829ZM413.856 473.383L406.582 452.62L406.582 452.62L413.856 473.383ZM427.888 455.637L449.727 458.287L427.888 455.637ZM305.743 413.692L284.089 409.805L305.743 413.692ZM307.419 412.067L310.631 433.831L307.419 412.067ZM294.63 472.549L281.553 454.857L294.63 472.549ZM295.401 471.305L317.055 475.192L295.401 471.305ZM235.776 150.034L248.392 132.01L235.776 150.034ZM235.934 153.382L221.787 136.534L235.934 153.382ZM355.975 471.955L372.303 457.211L355.975 471.955ZM356.19 472.217L374.067 459.394L356.19 472.217ZM274.328 133.204L280.799 154.23L274.328 133.204ZM271.577 131.216L293.548 130.094L271.577 131.216ZM362.34 129.225L384.216 131.561L362.34 129.225ZM346.706 406.958L349.135 428.824L346.706 406.958ZM348.919 408.786L370.85 407.049L348.919 408.786ZM395.924 151.415L384.036 132.904L395.924 151.415ZM395.348 154.394L377.668 167.487L395.348 154.394ZM393.845 121.909C395.131 123.374 394.713 123.555 394.633 122.586C394.57 121.832 394.852 121.864 394.256 123.008C393.62 124.231 392.363 125.95 390.331 127.928C388.348 129.858 386.088 131.587 384.036 132.904L407.812 169.927C415.612 164.918 426.749 155.881 433.286 143.322C436.723 136.719 439.268 128.378 438.481 118.932C437.676 109.272 433.547 100.442 426.917 92.8873L393.845 121.909ZM384.216 131.561C384.475 129.133 385.364 126.746 386.714 124.707C388.089 122.63 389.654 121.341 390.822 120.717C391.927 120.128 392.256 120.317 391.958 120.268C391.49 120.191 392.205 120.04 393.845 121.909L426.917 92.8874C419.388 84.3082 409.84 78.6058 399.052 76.8435C388.435 75.1091 378.39 77.4774 370.102 81.9014C354.028 90.4817 342.512 107.711 340.464 126.89L384.216 131.561ZM280.799 154.23C305.86 146.517 334.337 147.128 354.034 152.363L365.335 109.839C338.096 102.6 301.204 101.913 267.856 112.177L280.799 154.23ZM239.914 121.909C241.588 120.002 242.295 120.197 241.79 120.27C241.493 120.312 241.904 120.122 243.12 120.818C244.389 121.545 246.009 122.985 247.359 125.2C248.682 127.371 249.479 129.856 249.605 132.339L293.548 130.094C292.523 110.028 281.121 91.8768 264.986 82.6363C256.669 77.873 246.451 75.1534 235.553 76.7139C224.449 78.304 214.585 84.0648 206.843 92.8874L239.914 121.909ZM248.392 132.01C246.325 130.564 244.255 128.837 242.531 127.019C240.765 125.156 239.788 123.647 239.343 122.681C238.947 121.824 239.206 121.943 239.117 122.683C239.013 123.553 238.677 123.319 239.914 121.909L206.843 92.8874C200.591 100.011 196.53 108.302 195.432 117.427C194.35 126.421 196.349 134.525 199.393 141.122C205.169 153.633 215.583 162.753 223.161 168.058L248.392 132.01ZM232.733 194.175C236.554 184.431 242.515 176.584 250.081 170.231L221.787 136.534C209.051 147.229 198.486 160.986 191.77 178.111L232.733 194.175ZM218.027 459.919C213.99 418.852 213.671 362.067 216.548 309.937C217.983 283.942 220.194 259.437 223.061 238.916C225.994 217.92 229.413 202.641 232.733 194.175L191.77 178.111C186.457 191.661 182.498 211.25 179.484 232.829C176.403 254.883 174.097 280.661 172.615 307.513C169.659 361.076 169.914 420.237 174.238 464.223L218.027 459.919ZM215.551 457.106C216.533 457.576 217.214 458.267 217.595 458.852C217.947 459.392 218.013 459.779 218.027 459.919L174.238 464.223C175.502 477.085 182.844 490.227 196.544 496.789L215.551 457.106ZM281.553 454.857C260.308 470.56 233.402 465.656 215.552 457.106L196.544 496.789C220.414 508.223 267.114 520.243 307.706 490.241L281.553 454.857ZM284.089 409.805L273.747 467.418L317.055 475.192L327.397 417.579L284.089 409.805ZM324.612 387.292L304.208 390.302L310.631 433.831L331.034 430.821L324.612 387.292ZM344.276 385.093L325.394 387.191L330.253 430.922L349.135 428.824L344.276 385.093ZM372.765 433.314C372.248 425.83 371.643 417.068 370.85 407.049L326.987 410.522C327.761 420.294 328.352 428.855 328.87 436.345L372.765 433.314ZM372.303 457.211C375.301 460.531 375.786 463.546 375.484 462.392C375.357 461.907 375.085 460.573 374.754 457.867C374.094 452.457 373.548 444.653 372.765 433.314L328.87 436.345C329.616 447.153 330.244 456.357 331.078 463.195C331.495 466.613 332.05 470.213 332.915 473.521C333.604 476.158 335.244 481.824 339.647 486.699L372.303 457.211ZM406.582 452.62C398.233 455.545 388.741 458.268 380.826 458.882C371.691 459.59 372.412 457.087 374.067 459.394L338.313 485.04C350.885 502.566 371.651 503.725 384.226 502.75C398.021 501.681 411.904 497.378 421.129 494.146L406.582 452.62ZM406.048 452.986C406.051 452.957 406.057 452.945 406.056 452.947C406.054 452.952 406.054 452.95 406.064 452.937C406.079 452.917 406.225 452.745 406.582 452.62L421.129 494.146C437.06 488.566 447.793 474.228 449.727 458.287L406.048 452.986ZM377.668 167.487C398.447 195.548 427.61 275.319 406.048 452.986L449.727 458.287C471.77 276.662 443.847 182.919 413.028 141.302L377.668 167.487ZM327.397 417.579C325.879 426.035 319.13 432.577 310.631 433.831L304.208 390.302C294.009 391.807 285.91 399.657 284.089 409.805L327.397 417.579ZM307.706 490.241C312.658 486.581 315.98 481.179 317.055 475.192L273.747 467.418C274.644 462.423 277.412 457.918 281.553 454.857L307.706 490.241ZM223.161 168.058C212.606 160.67 211.612 145.078 221.787 136.534L250.081 170.231C262.368 159.913 261.207 140.98 248.392 132.01L223.161 168.058ZM339.647 486.699C339.452 486.484 338.921 485.888 338.313 485.04L374.067 459.394C373.326 458.362 372.65 457.594 372.303 457.211L339.647 486.699ZM267.856 112.177C281.139 108.089 292.937 118.126 293.548 130.094L249.605 132.339C250.358 147.078 264.864 159.135 280.799 154.23L267.856 112.177ZM340.464 126.89C341.676 115.54 352.822 106.514 365.335 109.839L354.034 152.363C369.066 156.358 382.727 145.504 384.216 131.561L340.464 126.89ZM349.135 428.824C337.924 430.069 327.88 421.796 326.987 410.522L370.85 407.049C369.779 393.526 357.73 383.598 344.276 385.093L349.135 428.824ZM384.036 132.904C372.808 140.114 369.029 155.821 377.668 167.487L413.028 141.302C420.229 151.026 417.008 164.022 407.812 169.927L384.036 132.904Z" fill="black" mask="url(#path-7-outside-2_1_692)"/>
</mask>
<g mask="url(#mask1_1_692)">
<path d="M388.224 368.624C413.413 358.319 429.729 316.384 434.023 285.613L441.895 538.94H187.136L192.636 103.274C221.218 112.158 245.883 133.255 254.749 142.349C255.296 142.91 255.442 143.748 255.147 144.475C219.897 231.293 224.512 308.736 260.129 357.174C282.899 388.141 356.737 381.505 388.224 368.624Z" fill="#6F482F" fill-opacity="0.55"/>
<mask id="path-10-outside-3_1_692" maskUnits="userSpaceOnUse" x="170.651" y="75.2744" width="287" height="434" fill="black">
<rect fill="white" x="170.651" y="75.2744" width="287" height="434"/>
<path fill-rule="evenodd" clip-rule="evenodd" d="M395.348 154.394C394.629 153.424 394.908 152.068 395.924 151.415C408.41 143.398 426.212 125.438 410.381 107.398C392.043 86.5018 364.949 104.782 362.34 129.225C362.202 130.522 360.944 131.436 359.684 131.101C336.217 124.864 303.532 124.215 274.328 133.204C273.002 133.612 271.648 132.602 271.577 131.216C270.278 105.797 242.211 85.9381 223.379 107.398C208.401 124.466 223.529 141.461 235.776 150.034C236.906 150.825 236.99 152.496 235.934 153.382C225.783 161.906 217.52 172.709 212.252 186.143C194.984 230.176 187.772 377.019 196.133 462.071C196.758 468.437 200.279 474.185 206.048 476.948C226.908 486.94 263.711 495.401 294.63 472.549C295.035 472.25 295.312 471.801 295.401 471.305L305.743 413.692C305.895 412.846 306.57 412.192 307.419 412.067L327.823 409.056L346.706 406.958C347.827 406.834 348.83 407.661 348.919 408.786C349.702 418.681 350.3 427.343 350.817 434.829C352.347 456.977 353.166 468.844 355.975 471.955C356.051 472.039 356.124 472.125 356.19 472.217C367.106 487.436 396.281 479.54 413.856 473.383C421.494 470.708 426.913 463.671 427.888 455.637C449.69 275.991 421.147 189.233 395.348 154.394Z"/>
</mask>
<path d="M410.381 107.398L393.845 121.909L393.845 121.909L410.381 107.398ZM223.379 107.398L239.914 121.909V121.909L223.379 107.398ZM212.252 186.143L191.77 178.111H191.77L212.252 186.143ZM196.133 462.071L218.027 459.919L196.133 462.071ZM206.048 476.948L215.552 457.106L215.551 457.106L206.048 476.948ZM327.823 409.056L325.394 387.191L325.002 387.234L324.612 387.292L327.823 409.056ZM350.817 434.829L328.87 436.345L350.817 434.829ZM413.856 473.383L406.582 452.62L406.582 452.62L413.856 473.383ZM427.888 455.637L449.727 458.287L427.888 455.637ZM305.743 413.692L284.089 409.805L305.743 413.692ZM307.419 412.067L310.631 433.831L307.419 412.067ZM294.63 472.549L281.553 454.857L294.63 472.549ZM295.401 471.305L317.055 475.192L295.401 471.305ZM235.776 150.034L248.392 132.01L235.776 150.034ZM235.934 153.382L221.787 136.534L235.934 153.382ZM355.975 471.955L372.303 457.211L355.975 471.955ZM356.19 472.217L374.067 459.394L356.19 472.217ZM274.328 133.204L280.799 154.23L274.328 133.204ZM271.577 131.216L293.548 130.094L271.577 131.216ZM362.34 129.225L384.216 131.561L362.34 129.225ZM346.706 406.958L349.135 428.824L346.706 406.958ZM348.919 408.786L370.85 407.049L348.919 408.786ZM395.924 151.415L384.036 132.904L395.924 151.415ZM395.348 154.394L377.668 167.487L395.348 154.394ZM393.845 121.909C395.131 123.374 394.713 123.555 394.633 122.586C394.57 121.832 394.852 121.864 394.256 123.008C393.62 124.231 392.363 125.95 390.331 127.928C388.348 129.858 386.088 131.587 384.036 132.904L407.812 169.927C415.612 164.918 426.749 155.881 433.286 143.322C436.723 136.719 439.268 128.378 438.481 118.932C437.676 109.272 433.547 100.442 426.917 92.8873L393.845 121.909ZM384.216 131.561C384.475 129.133 385.364 126.746 386.714 124.707C388.089 122.63 389.654 121.341 390.822 120.717C391.927 120.128 392.256 120.317 391.958 120.268C391.49 120.191 392.205 120.04 393.845 121.909L426.917 92.8874C419.388 84.3082 409.84 78.6058 399.052 76.8435C388.435 75.1091 378.39 77.4774 370.102 81.9014C354.028 90.4817 342.512 107.711 340.464 126.89L384.216 131.561ZM280.799 154.23C305.86 146.517 334.337 147.128 354.034 152.363L365.335 109.839C338.096 102.6 301.204 101.913 267.856 112.177L280.799 154.23ZM239.914 121.909C241.588 120.002 242.295 120.197 241.79 120.27C241.493 120.312 241.904 120.122 243.12 120.818C244.389 121.545 246.009 122.985 247.359 125.2C248.682 127.371 249.479 129.856 249.605 132.339L293.548 130.094C292.523 110.028 281.121 91.8768 264.986 82.6363C256.669 77.873 246.451 75.1534 235.553 76.7139C224.449 78.304 214.585 84.0648 206.843 92.8874L239.914 121.909ZM248.392 132.01C246.325 130.564 244.255 128.837 242.531 127.019C240.765 125.156 239.788 123.647 239.343 122.681C238.947 121.824 239.206 121.943 239.117 122.683C239.013 123.553 238.677 123.319 239.914 121.909L206.843 92.8874C200.591 100.011 196.53 108.302 195.432 117.427C194.35 126.421 196.349 134.525 199.393 141.122C205.169 153.633 215.583 162.753 223.161 168.058L248.392 132.01ZM232.733 194.175C236.554 184.431 242.515 176.584 250.081 170.231L221.787 136.534C209.051 147.229 198.486 160.986 191.77 178.111L232.733 194.175ZM218.027 459.919C213.99 418.852 213.671 362.067 216.548 309.937C217.983 283.942 220.194 259.437 223.061 238.916C225.994 217.92 229.413 202.641 232.733 194.175L191.77 178.111C186.457 191.661 182.498 211.25 179.484 232.829C176.403 254.883 174.097 280.661 172.615 307.513C169.659 361.076 169.914 420.237 174.238 464.223L218.027 459.919ZM215.551 457.106C216.533 457.576 217.214 458.267 217.595 458.852C217.947 459.392 218.013 459.779 218.027 459.919L174.238 464.223C175.502 477.085 182.844 490.227 196.544 496.789L215.551 457.106ZM281.553 454.857C260.308 470.56 233.402 465.656 215.552 457.106L196.544 496.789C220.414 508.223 267.114 520.243 307.706 490.241L281.553 454.857ZM284.089 409.805L273.747 467.418L317.055 475.192L327.397 417.579L284.089 409.805ZM324.612 387.292L304.208 390.302L310.631 433.831L331.034 430.821L324.612 387.292ZM344.276 385.093L325.394 387.191L330.253 430.922L349.135 428.824L344.276 385.093ZM372.765 433.314C372.248 425.83 371.643 417.068 370.85 407.049L326.987 410.522C327.761 420.294 328.352 428.855 328.87 436.345L372.765 433.314ZM372.303 457.211C375.301 460.531 375.786 463.546 375.484 462.392C375.357 461.907 375.085 460.573 374.754 457.867C374.094 452.457 373.548 444.653 372.765 433.314L328.87 436.345C329.616 447.153 330.244 456.357 331.078 463.195C331.495 466.613 332.05 470.213 332.915 473.521C333.604 476.158 335.244 481.824 339.647 486.699L372.303 457.211ZM406.582 452.62C398.233 455.545 388.741 458.268 380.826 458.882C371.691 459.59 372.412 457.087 374.067 459.394L338.313 485.04C350.885 502.566 371.651 503.725 384.226 502.75C398.021 501.681 411.904 497.378 421.129 494.146L406.582 452.62ZM406.048 452.986C406.051 452.957 406.057 452.945 406.056 452.947C406.054 452.952 406.054 452.95 406.064 452.937C406.079 452.917 406.225 452.745 406.582 452.62L421.129 494.146C437.06 488.566 447.793 474.228 449.727 458.287L406.048 452.986ZM377.668 167.487C398.447 195.548 427.61 275.319 406.048 452.986L449.727 458.287C471.77 276.662 443.847 182.919 413.028 141.302L377.668 167.487ZM327.397 417.579C325.879 426.035 319.13 432.577 310.631 433.831L304.208 390.302C294.009 391.807 285.91 399.657 284.089 409.805L327.397 417.579ZM307.706 490.241C312.658 486.581 315.98 481.179 317.055 475.192L273.747 467.418C274.644 462.423 277.412 457.918 281.553 454.857L307.706 490.241ZM223.161 168.058C212.606 160.67 211.612 145.078 221.787 136.534L250.081 170.231C262.368 159.913 261.207 140.98 248.392 132.01L223.161 168.058ZM339.647 486.699C339.452 486.484 338.921 485.888 338.313 485.04L374.067 459.394C373.326 458.362 372.65 457.594 372.303 457.211L339.647 486.699ZM267.856 112.177C281.139 108.089 292.937 118.126 293.548 130.094L249.605 132.339C250.358 147.078 264.864 159.135 280.799 154.23L267.856 112.177ZM340.464 126.89C341.676 115.54 352.822 106.514 365.335 109.839L354.034 152.363C369.066 156.358 382.727 145.504 384.216 131.561L340.464 126.89ZM349.135 428.824C337.924 430.069 327.88 421.796 326.987 410.522L370.85 407.049C369.779 393.526 357.73 383.598 344.276 385.093L349.135 428.824ZM384.036 132.904C372.808 140.114 369.029 155.821 377.668 167.487L413.028 141.302C420.229 151.026 417.008 164.022 407.812 169.927L384.036 132.904Z" fill="black" mask="url(#path-10-outside-3_1_692)"/>
</g>
<path d="M444.11 281.319C418.975 307.612 362.53 306.75 335.898 298.319C294.003 285.056 288.994 231.385 295.434 206.338C302.025 180.707 339.751 180.398 384.865 182.803C429.979 185.208 475.529 248.453 444.11 281.319Z" fill="#98C7DD" stroke="black" stroke-width="20"/>
<mask id="mask2_1_692" style="mask-type:alpha" maskUnits="userSpaceOnUse" x="283" y="171" width="182" height="143">
<path d="M444.11 281.319C418.975 307.612 362.53 306.75 335.898 298.319C294.003 285.056 288.994 231.385 295.434 206.338C302.025 180.707 339.751 180.398 384.865 182.803C429.979 185.208 475.529 248.453 444.11 281.319Z" fill="#98C7DD" stroke="#3D3436" stroke-width="20"/>
</mask>
<g mask="url(#mask2_1_692)">
<path d="M410.476 216.198C404.751 206.466 371.73 204.749 356.225 204.749C352.886 204.749 346.493 207.182 347.638 216.914C349.069 229.08 382.703 235.52 397.731 235.52C412.759 235.52 417.632 228.364 410.476 216.198Z" fill="#FBFDFD" fill-opacity="0.85"/>
<path d="M343.924 256.989C322.44 252.96 313.343 210.508 311.316 185.183C311.085 182.3 309.232 179.781 306.51 178.804L292.671 173.836C288.009 172.162 283.097 175.603 283.097 180.557V342.146C283.097 348.775 384.369 345.277 440.337 342.452C443.778 342.278 446.586 339.671 447.04 336.255L457.326 258.838C458.199 252.27 449.511 246.963 443.351 249.402C412.47 261.628 362.638 260.497 343.924 256.989Z" fill="#4B646E" fill-opacity="0.55"/>
<path d="M444.11 281.319C418.975 307.612 362.53 306.75 335.898 298.319C294.003 285.056 288.994 231.385 295.434 206.338C302.025 180.707 339.751 180.398 384.865 182.803C429.979 185.208 475.529 248.453 444.11 281.319Z" stroke="black" stroke-width="20"/>
</g>
<path d="M279.819 129.344C283.49 130.624 287.376 130.083 290.555 129.203C294.063 128.232 296.448 124.949 296.856 121.331L300.927 85.2422C301.557 79.6643 297.241 74.0138 291.634 73.7401C287.475 73.5371 283.097 73.7686 280.47 75.3446C270.928 81.0698 271.728 126.521 279.819 129.344Z" fill="#FEFFF5" stroke="black" stroke-width="5.25843"/>
<mask id="mask3_1_692" style="mask-type:alpha" maskUnits="userSpaceOnUse" x="270" y="71" width="34" height="62">
<path d="M279.819 129.344C283.49 130.624 287.376 130.083 290.555 129.203C294.063 128.232 296.448 124.949 296.856 121.331L300.927 85.2422C301.557 79.6643 297.241 74.0138 291.634 73.7401C287.475 73.5371 283.097 73.7686 280.47 75.3446C270.928 81.0698 271.728 126.521 279.819 129.344Z" fill="#E453BD" stroke="#63114C" stroke-width="5.25843"/>
</mask>
<g mask="url(#mask3_1_692)">
<path d="M295.523 87.1979C283.632 83.5854 268.492 90.2083 262.409 93.9713C262.409 113.238 271.189 133.734 275.579 141.573H295.523V87.1979Z" fill="#D8E7E0"/>
<path d="M279.819 129.344C283.49 130.624 287.376 130.083 290.555 129.203C294.063 128.232 296.448 124.949 296.856 121.331L300.927 85.2422C301.557 79.6643 297.241 74.0138 291.634 73.7401C287.475 73.5371 283.097 73.7686 280.47 75.3446C270.928 81.0698 271.728 126.521 279.819 129.344Z" stroke="black" stroke-width="5.25843"/>
</g>
<mask id="path-21-outside-4_1_692" maskUnits="userSpaceOnUse" x="283.676" y="42.1621" width="74" height="112" fill="black">
<rect fill="white" x="283.676" y="42.1621" width="74" height="112"/>
<path fill-rule="evenodd" clip-rule="evenodd" d="M342.106 62.104C341.848 61.7488 341.948 61.2506 342.314 61.008C345.582 58.8422 350.003 54.2117 345.922 49.561C341.165 44.1405 334.167 48.746 333.322 55.0422C333.259 55.5121 332.802 55.8456 332.343 55.7277C326.267 54.168 317.93 54.0176 310.425 56.2624C309.942 56.407 309.449 56.039 309.408 55.536C308.874 48.992 301.635 43.9997 296.755 49.561C292.91 53.9417 296.61 58.3046 299.784 60.6064C300.19 60.9009 300.219 61.5084 299.839 61.8356C297.269 64.0475 295.177 66.8286 293.83 70.2645C289.289 81.8418 287.393 120.45 289.592 142.812C289.756 144.486 290.682 145.997 292.198 146.723C297.653 149.336 307.252 151.55 315.353 145.666C315.543 145.528 315.783 145.483 316.007 145.55C321.848 147.289 335.113 149.383 347.007 145.688C348.94 145.088 350.256 143.324 350.501 141.315C356.239 94.2684 348.862 71.3981 342.106 62.104Z"/>
</mask>
<path fill-rule="evenodd" clip-rule="evenodd" d="M342.106 62.104C341.848 61.7488 341.948 61.2506 342.314 61.008C345.582 58.8422 350.003 54.2117 345.922 49.561C341.165 44.1405 334.167 48.746 333.322 55.0422C333.259 55.5121 332.802 55.8456 332.343 55.7277C326.267 54.168 317.93 54.0176 310.425 56.2624C309.942 56.407 309.449 56.039 309.408 55.536C308.874 48.992 301.635 43.9997 296.755 49.561C292.91 53.9417 296.61 58.3046 299.784 60.6064C300.19 60.9009 300.219 61.5084 299.839 61.8356C297.269 64.0475 295.177 66.8286 293.83 70.2645C289.289 81.8418 287.393 120.45 289.592 142.812C289.756 144.486 290.682 145.997 292.198 146.723C297.653 149.336 307.252 151.55 315.353 145.666C315.543 145.528 315.783 145.483 316.007 145.55C321.848 147.289 335.113 149.383 347.007 145.688C348.94 145.088 350.256 143.324 350.501 141.315C356.239 94.2684 348.862 71.3981 342.106 62.104Z" fill="#FEFFF5"/>
<path d="M345.922 49.561L349.202 46.6828V46.6828L345.922 49.561ZM296.755 49.561L293.475 46.6828L293.475 46.6828L296.755 49.561ZM293.83 70.2645L289.767 68.6714H289.767L293.83 70.2645ZM289.592 142.812L293.934 142.385L289.592 142.812ZM292.198 146.723L290.313 150.659H290.313L292.198 146.723ZM347.007 145.688L348.302 149.855L347.007 145.688ZM350.501 141.315L354.833 141.843V141.843L350.501 141.315ZM315.353 145.666L312.788 142.136L315.353 145.666ZM316.007 145.55L317.253 141.368L316.007 145.55ZM299.784 60.6064L302.346 57.074L299.784 60.6064ZM299.839 61.8356L296.993 58.5284L299.839 61.8356ZM310.425 56.2624L309.175 52.0817L310.425 56.2624ZM309.408 55.536L313.757 55.1812L309.408 55.536ZM333.322 55.0422L337.647 55.6231L333.322 55.0422ZM332.343 55.7277L333.428 51.5011L332.343 55.7277ZM342.314 61.008L344.724 64.6455L342.314 61.008ZM342.106 62.104L345.636 59.5383L342.106 62.104ZM342.642 52.4392C343.144 53.0115 343.187 53.3364 343.196 53.4267C343.208 53.553 343.196 53.8138 342.97 54.2668C342.452 55.3043 341.238 56.4864 339.903 57.3706L344.724 64.6455C346.658 63.3639 349.289 61.1477 350.778 58.1659C351.555 56.6092 352.087 54.705 351.883 52.5874C351.675 50.4337 350.74 48.4358 349.202 46.6828L342.642 52.4392ZM337.647 55.6231C337.889 53.8159 339.035 52.3625 340.152 51.7877C340.661 51.5259 341.049 51.4979 341.319 51.5447C341.559 51.5862 342.028 51.7395 342.642 52.4392L349.202 46.6828C347.437 44.6722 345.248 43.3685 342.811 42.9458C340.405 42.5284 338.099 43.029 336.158 44.028C332.376 45.9749 329.6 49.9723 328.997 54.4614L337.647 55.6231ZM311.676 60.443C318.381 58.4374 325.908 58.5812 331.258 59.9543L333.428 51.5011C326.625 49.7549 317.479 49.5977 309.175 52.0817L311.676 60.443ZM300.034 52.4392C300.663 51.7235 301.139 51.578 301.381 51.5408C301.659 51.498 302.07 51.5357 302.604 51.8304C303.773 52.4744 304.907 54.0347 305.059 55.8909L313.757 55.1812C313.375 50.4934 310.623 46.2855 306.818 44.1877C304.866 43.1114 302.519 42.5349 300.05 42.9155C297.545 43.3019 295.287 44.6178 293.475 46.6828L300.034 52.4392ZM302.346 57.074C301.042 56.1287 300.031 55.0203 299.636 54.1171C299.469 53.7337 299.468 53.5156 299.484 53.3989C299.497 53.3021 299.557 52.9829 300.034 52.4392L293.475 46.6828C292.03 48.3295 291.111 50.1984 290.836 52.2236C290.563 54.229 290.965 56.0669 291.638 57.6095C292.926 60.5583 295.351 62.7823 297.222 64.1389L302.346 57.074ZM297.892 71.8576C298.961 69.1325 300.614 66.9264 302.686 65.1429L296.993 58.5284C293.925 61.1685 291.393 64.5247 289.767 68.6714L297.892 71.8576ZM293.934 142.385C292.864 131.494 292.782 116.487 293.541 102.734C293.919 95.8721 294.504 89.3882 295.265 83.9433C296.038 78.404 296.955 74.2478 297.892 71.8576L289.767 68.6714C288.434 72.0698 287.411 77.0812 286.621 82.7358C285.818 88.4849 285.215 95.2214 284.827 102.254C284.052 116.29 284.121 131.768 285.249 143.239L293.934 142.385ZM294.084 142.788C294.082 142.787 294.082 142.787 294.079 142.785C294.076 142.782 294.062 142.769 294.044 142.741C294.006 142.682 293.952 142.563 293.934 142.385L285.249 143.239C285.54 146.201 287.224 149.179 290.313 150.659L294.084 142.788ZM312.788 142.136C306.6 146.631 298.942 145.115 294.084 142.788L290.313 150.659C296.363 153.557 307.904 156.47 317.917 149.197L312.788 142.136ZM345.713 141.521C334.941 144.867 322.622 142.966 317.253 141.368L314.762 149.732C321.074 151.611 335.284 153.899 348.302 149.855L345.713 141.521ZM346.17 140.787C346.141 141.019 346.053 141.21 345.953 141.338C345.859 141.458 345.773 141.502 345.713 141.521L348.302 149.855C352.073 148.684 354.406 145.34 354.833 141.843L346.17 140.787ZM338.577 64.6697C344.363 72.6291 351.859 94.1349 346.17 140.787L354.833 141.843C360.619 94.4019 353.362 70.167 345.636 59.5383L338.577 64.6697ZM317.917 149.197C317.06 149.82 315.9 150.071 314.762 149.732L317.253 141.368C315.665 140.895 314.025 141.237 312.788 142.136L317.917 149.197ZM297.222 64.1389C295.384 62.806 295.204 60.0678 296.993 58.5284L302.686 65.1429C305.235 62.9491 304.995 58.9958 302.346 57.074L297.222 64.1389ZM309.175 52.0817C311.592 51.3588 313.594 53.176 313.757 55.1812L305.059 55.8909C305.304 58.9019 308.292 61.4551 311.676 60.443L309.175 52.0817ZM328.997 54.4614C329.253 52.5566 331.15 50.9164 333.428 51.5011L331.258 59.9543C334.455 60.7747 337.265 58.4675 337.647 55.6231L328.997 54.4614ZM339.903 57.3706C337.549 58.9309 336.801 62.2263 338.577 64.6697L345.636 59.5383C346.896 61.2713 346.347 63.5703 344.724 64.6455L339.903 57.3706Z" fill="black" mask="url(#path-21-outside-4_1_692)"/>
<mask id="mask4_1_692" style="mask-type:alpha" maskUnits="userSpaceOnUse" x="284" y="42" width="73" height="112">
<mask id="path-23-outside-5_1_692" maskUnits="userSpaceOnUse" x="283.676" y="42.1621" width="74" height="112" fill="black">
<rect fill="white" x="283.676" y="42.1621" width="74" height="112"/>
<path fill-rule="evenodd" clip-rule="evenodd" d="M342.106 62.104C341.848 61.7488 341.948 61.2506 342.314 61.008C345.582 58.8422 350.003 54.2117 345.922 49.561C341.165 44.1405 334.167 48.746 333.322 55.0422C333.259 55.5121 332.802 55.8456 332.343 55.7277C326.267 54.168 317.93 54.0176 310.425 56.2624C309.942 56.407 309.449 56.039 309.408 55.536C308.874 48.992 301.635 43.9997 296.755 49.561C292.91 53.9417 296.61 58.3046 299.784 60.6064C300.19 60.9009 300.219 61.5084 299.839 61.8356C297.269 64.0475 295.177 66.8286 293.83 70.2645C289.289 81.8418 287.393 120.45 289.592 142.812C289.756 144.486 290.682 145.997 292.198 146.723C297.653 149.336 307.252 151.55 315.353 145.666C315.543 145.528 315.783 145.483 316.007 145.55C321.848 147.289 335.113 149.383 347.007 145.688C348.94 145.088 350.256 143.324 350.501 141.315C356.239 94.2684 348.862 71.3981 342.106 62.104Z"/>
</mask>
<path fill-rule="evenodd" clip-rule="evenodd" d="M342.106 62.104C341.848 61.7488 341.948 61.2506 342.314 61.008C345.582 58.8422 350.003 54.2117 345.922 49.561C341.165 44.1405 334.167 48.746 333.322 55.0422C333.259 55.5121 332.802 55.8456 332.343 55.7277C326.267 54.168 317.93 54.0176 310.425 56.2624C309.942 56.407 309.449 56.039 309.408 55.536C308.874 48.992 301.635 43.9997 296.755 49.561C292.91 53.9417 296.61 58.3046 299.784 60.6064C300.19 60.9009 300.219 61.5084 299.839 61.8356C297.269 64.0475 295.177 66.8286 293.83 70.2645C289.289 81.8418 287.393 120.45 289.592 142.812C289.756 144.486 290.682 145.997 292.198 146.723C297.653 149.336 307.252 151.55 315.353 145.666C315.543 145.528 315.783 145.483 316.007 145.55C321.848 147.289 335.113 149.383 347.007 145.688C348.94 145.088 350.256 143.324 350.501 141.315C356.239 94.2684 348.862 71.3981 342.106 62.104Z" fill="#D9D9D9"/>
<path d="M345.922 49.561L349.202 46.6828V46.6828L345.922 49.561ZM296.755 49.561L293.475 46.6828L293.475 46.6828L296.755 49.561ZM293.83 70.2645L289.767 68.6714H289.767L293.83 70.2645ZM289.592 142.812L293.934 142.385L289.592 142.812ZM292.198 146.723L290.313 150.659H290.313L292.198 146.723ZM347.007 145.688L348.302 149.855L347.007 145.688ZM350.501 141.315L354.833 141.843V141.843L350.501 141.315ZM315.353 145.666L312.788 142.136L315.353 145.666ZM316.007 145.55L317.253 141.368L316.007 145.55ZM299.784 60.6064L302.346 57.074L299.784 60.6064ZM299.839 61.8356L296.993 58.5284L299.839 61.8356ZM310.425 56.2624L309.175 52.0817L310.425 56.2624ZM309.408 55.536L313.757 55.1812L309.408 55.536ZM333.322 55.0422L337.647 55.6231L333.322 55.0422ZM332.343 55.7277L333.428 51.5011L332.343 55.7277ZM342.314 61.008L344.724 64.6455L342.314 61.008ZM342.106 62.104L345.636 59.5383L342.106 62.104ZM342.642 52.4392C343.144 53.0115 343.187 53.3364 343.196 53.4267C343.208 53.553 343.196 53.8138 342.97 54.2668C342.452 55.3043 341.238 56.4864 339.903 57.3706L344.724 64.6455C346.658 63.3639 349.289 61.1477 350.778 58.1659C351.555 56.6092 352.087 54.705 351.883 52.5874C351.675 50.4337 350.74 48.4358 349.202 46.6828L342.642 52.4392ZM337.647 55.6231C337.889 53.8159 339.035 52.3625 340.152 51.7877C340.661 51.5259 341.049 51.4979 341.319 51.5447C341.559 51.5862 342.028 51.7395 342.642 52.4392L349.202 46.6828C347.437 44.6722 345.248 43.3685 342.811 42.9458C340.405 42.5284 338.099 43.029 336.158 44.028C332.376 45.9749 329.6 49.9723 328.997 54.4614L337.647 55.6231ZM311.676 60.443C318.381 58.4374 325.908 58.5812 331.258 59.9543L333.428 51.5011C326.625 49.7549 317.479 49.5977 309.175 52.0817L311.676 60.443ZM300.034 52.4392C300.663 51.7235 301.139 51.578 301.381 51.5408C301.659 51.498 302.07 51.5357 302.604 51.8304C303.773 52.4744 304.907 54.0347 305.059 55.8909L313.757 55.1812C313.375 50.4934 310.623 46.2855 306.818 44.1877C304.866 43.1114 302.519 42.5349 300.05 42.9155C297.545 43.3019 295.287 44.6178 293.475 46.6828L300.034 52.4392ZM302.346 57.074C301.042 56.1287 300.031 55.0203 299.636 54.1171C299.469 53.7337 299.468 53.5156 299.484 53.3989C299.497 53.3021 299.557 52.9829 300.034 52.4392L293.475 46.6828C292.03 48.3295 291.111 50.1984 290.836 52.2236C290.563 54.229 290.965 56.0669 291.638 57.6095C292.926 60.5583 295.351 62.7823 297.222 64.1389L302.346 57.074ZM297.892 71.8576C298.961 69.1325 300.614 66.9264 302.686 65.1429L296.993 58.5284C293.925 61.1685 291.393 64.5247 289.767 68.6714L297.892 71.8576ZM293.934 142.385C292.864 131.494 292.782 116.487 293.541 102.734C293.919 95.8721 294.504 89.3882 295.265 83.9433C296.038 78.404 296.955 74.2478 297.892 71.8576L289.767 68.6714C288.434 72.0698 287.411 77.0812 286.621 82.7358C285.818 88.4849 285.215 95.2214 284.827 102.254C284.052 116.29 284.121 131.768 285.249 143.239L293.934 142.385ZM294.084 142.788C294.082 142.787 294.082 142.787 294.079 142.785C294.076 142.782 294.062 142.769 294.044 142.741C294.006 142.682 293.952 142.563 293.934 142.385L285.249 143.239C285.54 146.201 287.224 149.179 290.313 150.659L294.084 142.788ZM312.788 142.136C306.6 146.631 298.942 145.115 294.084 142.788L290.313 150.659C296.363 153.557 307.904 156.47 317.917 149.197L312.788 142.136ZM345.713 141.521C334.941 144.867 322.622 142.966 317.253 141.368L314.762 149.732C321.074 151.611 335.284 153.899 348.302 149.855L345.713 141.521ZM346.17 140.787C346.141 141.019 346.053 141.21 345.953 141.338C345.859 141.458 345.773 141.502 345.713 141.521L348.302 149.855C352.073 148.684 354.406 145.34 354.833 141.843L346.17 140.787ZM338.577 64.6697C344.363 72.6291 351.859 94.1349 346.17 140.787L354.833 141.843C360.619 94.4019 353.362 70.167 345.636 59.5383L338.577 64.6697ZM317.917 149.197C317.06 149.82 315.9 150.071 314.762 149.732L317.253 141.368C315.665 140.895 314.025 141.237 312.788 142.136L317.917 149.197ZM297.222 64.1389C295.384 62.806 295.204 60.0678 296.993 58.5284L302.686 65.1429C305.235 62.9491 304.995 58.9958 302.346 57.074L297.222 64.1389ZM309.175 52.0817C311.592 51.3588 313.594 53.176 313.757 55.1812L305.059 55.8909C305.304 58.9019 308.292 61.4551 311.676 60.443L309.175 52.0817ZM328.997 54.4614C329.253 52.5566 331.15 50.9164 333.428 51.5011L331.258 59.9543C334.455 60.7747 337.265 58.4675 337.647 55.6231L328.997 54.4614ZM339.903 57.3706C337.549 58.9309 336.801 62.2263 338.577 64.6697L345.636 59.5383C346.896 61.2713 346.347 63.5703 344.724 64.6455L339.903 57.3706Z" fill="black" mask="url(#path-23-outside-5_1_692)"/>
</mask>
<g mask="url(#mask4_1_692)">
<path d="M340.096 118.243C346.719 115.533 351.009 104.508 352.138 96.4174L354.208 163.022H287.226L288.672 48.4767C296.187 50.8123 302.672 56.3592 305.003 58.7502C305.147 58.8978 305.185 59.1181 305.108 59.3092C295.84 82.1356 297.053 102.497 306.418 115.232C312.404 123.374 331.818 121.629 340.096 118.243Z" fill="#D8E7E0"/>
<mask id="path-26-outside-6_1_692" maskUnits="userSpaceOnUse" x="283.676" y="42.1621" width="74" height="112" fill="black">
<rect fill="white" x="283.676" y="42.1621" width="74" height="112"/>
<path fill-rule="evenodd" clip-rule="evenodd" d="M342.106 62.104C341.848 61.7488 341.948 61.2506 342.314 61.008C345.582 58.8422 350.003 54.2117 345.922 49.561C341.165 44.1405 334.167 48.746 333.322 55.0422C333.259 55.5121 332.802 55.8456 332.343 55.7277C326.267 54.168 317.93 54.0176 310.425 56.2624C309.942 56.407 309.449 56.039 309.408 55.536C308.874 48.992 301.635 43.9997 296.755 49.561C292.91 53.9417 296.61 58.3046 299.784 60.6064C300.19 60.9009 300.219 61.5084 299.839 61.8356C297.269 64.0475 295.177 66.8286 293.83 70.2645C289.289 81.8418 287.393 120.45 289.592 142.812C289.756 144.486 290.682 145.997 292.198 146.723C297.653 149.336 307.252 151.55 315.353 145.666C315.543 145.528 315.783 145.483 316.007 145.55C321.848 147.289 335.113 149.383 347.007 145.688C348.94 145.088 350.256 143.324 350.501 141.315C356.239 94.2684 348.862 71.3981 342.106 62.104Z"/>
</mask>
<path d="M345.922 49.561L349.202 46.6828V46.6828L345.922 49.561ZM296.755 49.561L293.475 46.6828L293.475 46.6828L296.755 49.561ZM293.83 70.2645L289.767 68.6714H289.767L293.83 70.2645ZM289.592 142.812L293.934 142.385L289.592 142.812ZM292.198 146.723L290.313 150.659H290.313L292.198 146.723ZM347.007 145.688L348.302 149.855L347.007 145.688ZM350.501 141.315L354.833 141.843V141.843L350.501 141.315ZM315.353 145.666L312.788 142.136L315.353 145.666ZM316.007 145.55L317.253 141.368L316.007 145.55ZM299.784 60.6064L302.346 57.074L299.784 60.6064ZM299.839 61.8356L296.993 58.5284L299.839 61.8356ZM310.425 56.2624L309.175 52.0817L310.425 56.2624ZM309.408 55.536L313.757 55.1812L309.408 55.536ZM333.322 55.0422L337.647 55.6231L333.322 55.0422ZM332.343 55.7277L333.428 51.5011L332.343 55.7277ZM342.314 61.008L344.724 64.6455L342.314 61.008ZM342.106 62.104L345.636 59.5383L342.106 62.104ZM342.642 52.4392C343.144 53.0115 343.187 53.3364 343.196 53.4267C343.208 53.553 343.196 53.8138 342.97 54.2668C342.452 55.3043 341.238 56.4864 339.903 57.3706L344.724 64.6455C346.658 63.3639 349.289 61.1477 350.778 58.1659C351.555 56.6092 352.087 54.705 351.883 52.5874C351.675 50.4337 350.74 48.4358 349.202 46.6828L342.642 52.4392ZM337.647 55.6231C337.889 53.8159 339.035 52.3625 340.152 51.7877C340.661 51.5259 341.049 51.4979 341.319 51.5447C341.559 51.5862 342.028 51.7395 342.642 52.4392L349.202 46.6828C347.437 44.6722 345.248 43.3685 342.811 42.9458C340.405 42.5284 338.099 43.029 336.158 44.028C332.376 45.9749 329.6 49.9723 328.997 54.4614L337.647 55.6231ZM311.676 60.443C318.381 58.4374 325.908 58.5812 331.258 59.9543L333.428 51.5011C326.625 49.7549 317.479 49.5977 309.175 52.0817L311.676 60.443ZM300.034 52.4392C300.663 51.7235 301.139 51.578 301.381 51.5408C301.659 51.498 302.07 51.5357 302.604 51.8304C303.773 52.4744 304.907 54.0347 305.059 55.8909L313.757 55.1812C313.375 50.4934 310.623 46.2855 306.818 44.1877C304.866 43.1114 302.519 42.5349 300.05 42.9155C297.545 43.3019 295.287 44.6178 293.475 46.6828L300.034 52.4392ZM302.346 57.074C301.042 56.1287 300.031 55.0203 299.636 54.1171C299.469 53.7337 299.468 53.5156 299.484 53.3989C299.497 53.3021 299.557 52.9829 300.034 52.4392L293.475 46.6828C292.03 48.3295 291.111 50.1984 290.836 52.2236C290.563 54.229 290.965 56.0669 291.638 57.6095C292.926 60.5583 295.351 62.7823 297.222 64.1389L302.346 57.074ZM297.892 71.8576C298.961 69.1325 300.614 66.9264 302.686 65.1429L296.993 58.5284C293.925 61.1685 291.393 64.5247 289.767 68.6714L297.892 71.8576ZM293.934 142.385C292.864 131.494 292.782 116.487 293.541 102.734C293.919 95.8721 294.504 89.3882 295.265 83.9433C296.038 78.404 296.955 74.2478 297.892 71.8576L289.767 68.6714C288.434 72.0698 287.411 77.0812 286.621 82.7358C285.818 88.4849 285.215 95.2214 284.827 102.254C284.052 116.29 284.121 131.768 285.249 143.239L293.934 142.385ZM294.084 142.788C294.082 142.787 294.082 142.787 294.079 142.785C294.076 142.782 294.062 142.769 294.044 142.741C294.006 142.682 293.952 142.563 293.934 142.385L285.249 143.239C285.54 146.201 287.224 149.179 290.313 150.659L294.084 142.788ZM312.788 142.136C306.6 146.631 298.942 145.115 294.084 142.788L290.313 150.659C296.363 153.557 307.904 156.47 317.917 149.197L312.788 142.136ZM345.713 141.521C334.941 144.867 322.622 142.966 317.253 141.368L314.762 149.732C321.074 151.611 335.284 153.899 348.302 149.855L345.713 141.521ZM346.17 140.787C346.141 141.019 346.053 141.21 345.953 141.338C345.859 141.458 345.773 141.502 345.713 141.521L348.302 149.855C352.073 148.684 354.406 145.34 354.833 141.843L346.17 140.787ZM338.577 64.6697C344.363 72.6291 351.859 94.1349 346.17 140.787L354.833 141.843C360.619 94.4019 353.362 70.167 345.636 59.5383L338.577 64.6697ZM317.917 149.197C317.06 149.82 315.9 150.071 314.762 149.732L317.253 141.368C315.665 140.895 314.025 141.237 312.788 142.136L317.917 149.197ZM297.222 64.1389C295.384 62.806 295.204 60.0678 296.993 58.5284L302.686 65.1429C305.235 62.9491 304.995 58.9958 302.346 57.074L297.222 64.1389ZM309.175 52.0817C311.592 51.3588 313.594 53.176 313.757 55.1812L305.059 55.8909C305.304 58.9019 308.292 61.4551 311.676 60.443L309.175 52.0817ZM328.997 54.4614C329.253 52.5566 331.15 50.9164 333.428 51.5011L331.258 59.9543C334.455 60.7747 337.265 58.4675 337.647 55.6231L328.997 54.4614ZM339.903 57.3706C337.549 58.9309 336.801 62.2263 338.577 64.6697L345.636 59.5383C346.896 61.2713 346.347 63.5703 344.724 64.6455L339.903 57.3706Z" fill="black" mask="url(#path-26-outside-6_1_692)"/>
</g>
<rect x="314.702" y="60.7024" width="46.8" height="47.3258" rx="20.3764" fill="#98C7DD" stroke="black" stroke-width="6.57303"/>
<mask id="mask5_1_692" style="mask-type:alpha" maskUnits="userSpaceOnUse" x="311" y="57" width="54" height="55">
<rect x="314.702" y="60.7024" width="46.8" height="47.3258" rx="20.3764" fill="#98C7DD" stroke="black" stroke-width="6.57303"/>
</mask>
<g mask="url(#mask5_1_692)">
<path d="M309.18 78.5812C322.72 102.77 348.749 100.228 358.346 94.225V113.418H309.18V78.5812Z" fill="#4B646E" fill-opacity="0.55"/>
<path d="M331.166 69.0269C330.444 63.5308 342.286 61.6505 344.885 61.6505C348.64 61.1942 358.605 66.4235 356.294 72.0642C353.983 77.705 331.888 74.523 331.166 69.0269Z" fill="#FBFDFD" fill-opacity="0.85"/>
<rect x="314.702" y="60.7024" width="46.8" height="47.3258" rx="20.3764" stroke="black" stroke-width="6.57303"/>
</g>
<path d="M324.682 140.365C324.682 147.595 319.716 153.456 313.591 153.456C307.466 153.456 302.5 147.595 302.5 140.365C302.5 136.039 304.278 132.203 307.018 129.82C307.593 129.32 308.211 128.883 308.864 128.52C309.275 128.291 309.7 128.091 310.136 127.922C311.224 127.502 312.385 127.274 313.591 127.274C319.716 127.274 324.682 133.135 324.682 140.365Z" fill="#D8E7E0"/>
<path d="M308.864 128.52C308.211 128.883 307.593 129.32 307.018 129.82C304.278 132.203 302.5 136.039 302.5 140.365C302.5 147.595 307.466 153.456 313.591 153.456C319.716 153.456 324.682 147.595 324.682 140.365C324.682 133.135 319.716 127.274 313.591 127.274C312.385 127.274 311.224 127.502 310.136 127.922C309.7 128.091 309.275 128.291 308.864 128.52ZM308.864 128.52C306.561 127.256 300.682 125.82 298.318 125.82" stroke="black" stroke-width="3.63636" stroke-linecap="round" stroke-linejoin="round"/>
<path d="M358.136 139.093C358.136 145.62 353.659 150.911 348.136 150.911C342.613 150.911 338.136 145.62 338.136 139.093C338.136 134.414 340.436 130.371 343.773 128.456C345.091 127.699 346.572 127.274 348.136 127.274C353.659 127.274 358.136 132.566 358.136 139.093Z" fill="#D8E7E0"/>
<path d="M343.773 128.456C340.436 130.371 338.136 134.414 338.136 139.093C338.136 145.62 342.613 150.911 348.136 150.911C353.659 150.911 358.136 145.62 358.136 139.093C358.136 132.566 353.659 127.274 348.136 127.274C346.572 127.274 345.091 127.699 343.773 128.456ZM343.773 128.456C340.439 127.335 333.409 125.311 331.954 126.183" stroke="black" stroke-width="3.63636" stroke-linecap="round" stroke-linejoin="round"/>
<path d="M46.1783 479.167C50.7077 480.747 55.3314 480.035 58.7959 479.076C63.6368 477.736 66.6997 473.309 67.219 468.706L71.3943 431.694C72.1937 424.608 66.7962 417.268 59.3153 416.902C57.102 416.794 54.7502 416.797 52.5538 417.056C50.3955 417.311 48.1656 417.838 46.3475 418.929C44.48 420.049 43.132 421.955 42.1322 424.006C41.1107 426.102 40.3152 428.635 39.7034 431.377C38.4782 436.867 37.9132 443.543 37.9229 450.051C37.9327 456.558 38.517 463.046 39.6631 468.162C40.2339 470.709 40.9692 473.033 41.9096 474.876C42.7981 476.618 44.1331 478.453 46.1783 479.167Z" fill="#EEEDEB" stroke="black" stroke-width="5.39287"/>
<mask id="mask6_1_692" style="mask-type:alpha" maskUnits="userSpaceOnUse" x="35" y="414" width="40" height="69">
<path d="M46.1783 479.167C50.7077 480.747 55.3314 480.035 58.7959 479.076C63.6368 477.736 66.6997 473.309 67.219 468.706L71.3943 431.694C72.1937 424.608 66.7962 417.268 59.3153 416.902C57.102 416.794 54.7502 416.797 52.5538 417.056C50.3955 417.311 48.1656 417.838 46.3475 418.929C44.48 420.049 43.132 421.955 42.1322 424.006C41.1107 426.102 40.3152 428.635 39.7034 431.377C38.4782 436.867 37.9132 443.543 37.9229 450.051C37.9327 456.558 38.517 463.046 39.6631 468.162C40.2339 470.709 40.9692 473.033 41.9096 474.876C42.7981 476.618 44.1331 478.453 46.1783 479.167Z" fill="#E453BD" stroke="#63114C" stroke-width="5.39287"/>
</mask>
<g mask="url(#mask6_1_692)">
<path d="M63.172 433.398C50.9769 429.693 35.45 436.485 29.2109 440.344C29.2109 460.103 38.2158 481.123 42.7182 489.163H63.172V433.398Z" fill="#505050"/>
<path d="M46.1783 479.167C50.7077 480.747 55.3314 480.035 58.7959 479.076C63.6368 477.736 66.6997 473.309 67.219 468.706L71.3943 431.694C72.1937 424.608 66.7962 417.268 59.3153 416.902C57.102 416.794 54.7502 416.797 52.5538 417.056C50.3955 417.311 48.1656 417.838 46.3475 418.929C44.48 420.049 43.132 421.955 42.1322 424.006C41.1107 426.102 40.3152 428.635 39.7034 431.377C38.4782 436.867 37.9132 443.543 37.9229 450.051C37.9327 456.558 38.517 463.046 39.6631 468.162C40.2339 470.709 40.9692 473.033 41.9096 474.876C42.7981 476.618 44.1331 478.453 46.1783 479.167Z" stroke="black" stroke-width="5.39287"/>
</g>
<mask id="path-41-outside-7_1_692" maskUnits="userSpaceOnUse" x="50.1499" y="386.338" width="78" height="117" fill="black">
<rect fill="white" x="50.1499" y="386.338" width="78" height="117"/>
<path fill-rule="evenodd" clip-rule="evenodd" d="M110.806 407.47C110.612 407.209 110.687 406.843 110.961 406.667C114.328 404.505 119.128 399.662 114.859 394.798C109.915 389.164 102.609 394.093 101.905 400.684C101.868 401.033 101.529 401.28 101.189 401.19C94.8615 399.508 86.0481 399.333 78.1734 401.757C77.8158 401.867 77.4507 401.594 77.4316 401.221C77.0815 394.366 69.5133 389.012 64.4353 394.798C60.3967 399.4 64.4759 403.983 67.7784 406.295C68.0831 406.508 68.1057 406.958 67.8209 407.198C65.0837 409.496 62.8556 412.409 61.4351 416.031C56.7789 427.904 54.8343 467.5 57.0887 490.433C57.2574 492.15 58.2067 493.7 59.7623 494.445C65.3871 497.139 75.3108 499.421 83.6478 493.259C83.757 493.178 83.8318 493.057 83.8558 492.923L86.6444 477.388C86.6854 477.16 86.8673 476.984 87.0965 476.95L92.5982 476.138L97.6898 475.573C97.9922 475.539 98.2625 475.762 98.2866 476.065C98.4978 478.734 98.6591 481.069 98.7985 483.088L98.7985 483.088C99.2109 489.06 99.4318 492.26 100.189 493.099C100.21 493.121 100.229 493.144 100.247 493.169C103.191 497.273 111.058 495.144 115.796 493.484C117.856 492.762 119.317 490.865 119.58 488.698C125.459 440.258 117.762 416.865 110.806 407.47Z"/>
</mask>
<path fill-rule="evenodd" clip-rule="evenodd" d="M110.806 407.47C110.612 407.209 110.687 406.843 110.961 406.667C114.328 404.505 119.128 399.662 114.859 394.798C109.915 389.164 102.609 394.093 101.905 400.684C101.868 401.033 101.529 401.28 101.189 401.19C94.8615 399.508 86.0481 399.333 78.1734 401.757C77.8158 401.867 77.4507 401.594 77.4316 401.221C77.0815 394.366 69.5133 389.012 64.4353 394.798C60.3967 399.4 64.4759 403.983 67.7784 406.295C68.0831 406.508 68.1057 406.958 67.8209 407.198C65.0837 409.496 62.8556 412.409 61.4351 416.031C56.7789 427.904 54.8343 467.5 57.0887 490.433C57.2574 492.15 58.2067 493.7 59.7623 494.445C65.3871 497.139 75.3108 499.421 83.6478 493.259C83.757 493.178 83.8318 493.057 83.8558 492.923L86.6444 477.388C86.6854 477.16 86.8673 476.984 87.0965 476.95L92.5982 476.138L97.6898 475.573C97.9922 475.539 98.2625 475.762 98.2866 476.065C98.4978 478.734 98.6591 481.069 98.7985 483.088L98.7985 483.088C99.2109 489.06 99.4318 492.26 100.189 493.099C100.21 493.121 100.229 493.144 100.247 493.169C103.191 497.273 111.058 495.144 115.796 493.484C117.856 492.762 119.317 490.865 119.58 488.698C125.459 440.258 117.762 416.865 110.806 407.47Z" fill="#EEEDEB"/>
<path d="M114.859 394.798L119.318 390.885V390.885L114.859 394.798ZM64.4353 394.798L59.9765 390.885L59.9765 390.885L64.4353 394.798ZM61.4351 416.031L55.9124 413.865H55.9124L61.4351 416.031ZM57.0887 490.433L62.9924 489.853L57.0887 490.433ZM59.7623 494.445L62.3249 489.095L62.3249 489.095L59.7623 494.445ZM92.5982 476.138L91.9431 470.242L91.8375 470.254L91.7324 470.27L92.5982 476.138ZM98.7985 483.088L104.723 482.791L104.72 482.735L104.717 482.679L98.7985 483.088ZM98.7985 483.088L92.8737 483.384L92.8765 483.44L92.8804 483.497L98.7985 483.088ZM115.796 493.484L117.758 499.082H117.758L115.796 493.484ZM119.58 488.698L113.691 487.984V487.984L119.58 488.698ZM100.189 493.099L95.7863 497.074L100.189 493.099ZM100.247 493.169L95.4269 496.627L100.247 493.169ZM86.6444 477.388L80.8056 476.34L86.6444 477.388ZM87.0965 476.95L87.9624 482.819L87.0965 476.95ZM83.6478 493.259L87.1738 498.029L83.6478 493.259ZM83.8558 492.923L78.017 491.875L83.8558 492.923ZM67.7784 406.295L64.3767 411.155L67.7784 406.295ZM67.8209 407.198L64.0062 402.655L67.8209 407.198ZM78.1734 401.757L76.4283 396.087L78.1734 401.757ZM77.4316 401.221L83.356 400.918L77.4316 401.221ZM101.905 400.684L96.0068 400.054L101.905 400.684ZM101.189 401.19L102.713 395.456L101.189 401.19ZM97.6898 475.573L98.3449 481.468L97.6898 475.573ZM98.2866 476.065L104.2 475.597L98.2866 476.065ZM110.961 406.667L107.756 401.676L110.961 406.667ZM110.401 398.711C110.747 399.106 110.635 399.155 110.613 398.893C110.596 398.69 110.672 398.699 110.512 399.007C110.34 399.337 110.001 399.801 109.453 400.334C108.918 400.854 108.309 401.32 107.756 401.676L114.167 411.659C116.27 410.308 119.273 407.871 121.036 404.485C121.962 402.704 122.649 400.455 122.436 397.908C122.219 395.303 121.106 392.923 119.318 390.885L110.401 398.711ZM107.804 401.313C107.874 400.659 108.114 400.015 108.478 399.465C108.849 398.905 109.27 398.558 109.586 398.39C109.883 398.231 109.972 398.282 109.892 398.268C109.766 398.248 109.958 398.207 110.401 398.711L119.318 390.885C117.288 388.572 114.713 387.034 111.805 386.559C108.942 386.092 106.233 386.73 103.999 387.923C99.6643 390.237 96.5589 394.883 96.0068 400.054L107.804 401.313ZM79.9185 407.426C86.6759 405.346 94.3547 405.511 99.6657 406.923L102.713 395.456C95.3683 393.504 85.4203 393.319 76.4283 396.087L79.9185 407.426ZM68.894 398.711C69.3454 398.197 69.5359 398.249 69.3999 398.269C69.3196 398.28 69.4305 398.229 69.7583 398.417C70.1005 398.613 70.5375 399.001 70.9015 399.598C71.2581 400.184 71.473 400.854 71.5072 401.523L83.356 400.918C83.0797 395.507 80.0053 390.613 75.6545 388.121C73.4117 386.837 70.6566 386.104 67.7181 386.524C64.7239 386.953 62.0641 388.506 59.9765 390.885L68.894 398.711ZM71.18 401.435C70.6227 401.045 70.0644 400.579 69.5996 400.089C69.1233 399.586 68.8601 399.179 68.7399 398.919C68.6332 398.688 68.7031 398.72 68.6791 398.92C68.6509 399.154 68.5605 399.091 68.894 398.711L59.9765 390.885C58.2907 392.806 57.1958 395.042 56.8997 397.502C56.6079 399.928 57.1468 402.113 57.9679 403.892C59.5251 407.265 62.3334 409.724 64.3767 411.155L71.18 401.435ZM66.9578 418.197C67.9881 415.57 69.5954 413.454 71.6356 411.741L64.0062 402.655C60.572 405.538 57.7232 409.248 55.9124 413.865L66.9578 418.197ZM62.9924 489.853C61.9039 478.78 61.8179 463.468 62.5936 449.411C62.9804 442.402 63.5768 435.795 64.3497 430.261C65.1406 424.6 66.0625 420.48 66.9578 418.197L55.9124 413.865C54.4796 417.519 53.4123 422.801 52.5995 428.62C51.7688 434.567 51.1469 441.517 50.7473 448.758C49.9503 463.201 50.0191 479.153 51.185 491.014L62.9924 489.853ZM62.3249 489.095C62.5895 489.221 62.7732 489.408 62.8759 489.565C62.9709 489.711 62.9887 489.816 62.9924 489.853L51.185 491.014C51.5259 494.482 53.5057 498.026 57.1997 499.795L62.3249 489.095ZM80.1219 488.488C74.3932 492.722 67.1381 491.4 62.3249 489.095L57.1997 499.795C63.636 502.878 76.2284 506.119 87.1738 498.029L80.1219 488.488ZM80.8056 476.34L78.017 491.875L89.6947 493.971L92.4833 478.436L80.8056 476.34ZM91.7324 470.27L86.2306 471.081L87.9624 482.819L93.4641 482.007L91.7324 470.27ZM97.0347 469.677L91.9431 470.242L93.2533 482.034L98.3449 481.468L97.0347 469.677ZM104.717 482.679C104.577 480.661 104.414 478.299 104.2 475.597L92.3729 476.534C92.5815 479.169 92.7409 481.477 92.8804 483.496L104.717 482.679ZM104.723 482.792L104.723 482.791L92.8737 483.384L92.8737 483.384L104.723 482.792ZM104.592 489.123C105.4 490.018 105.531 490.831 105.45 490.52C105.415 490.389 105.342 490.03 105.253 489.3C105.075 487.841 104.928 485.737 104.717 482.679L92.8804 483.497C93.0817 486.411 93.251 488.893 93.476 490.737C93.5884 491.658 93.7379 492.629 93.9711 493.521C94.157 494.232 94.5993 495.76 95.7863 497.074L104.592 489.123ZM113.835 487.885C111.584 488.674 109.024 489.408 106.89 489.573C104.427 489.764 104.621 489.09 105.067 489.712L95.4269 496.627C98.8166 501.353 104.416 501.665 107.807 501.402C111.527 501.114 115.27 499.954 117.758 499.082L113.835 487.885ZM113.691 487.984C113.692 487.976 113.693 487.973 113.693 487.973C113.693 487.974 113.693 487.974 113.695 487.97C113.699 487.965 113.739 487.919 113.835 487.885L117.758 499.082C122.053 497.578 124.947 493.712 125.469 489.413L113.691 487.984ZM106.038 411.001C111.642 418.567 119.505 440.077 113.691 487.984L125.469 489.413C131.412 440.439 123.883 415.162 115.573 403.94L106.038 411.001ZM95.7863 497.074C95.734 497.016 95.5908 496.855 95.4269 496.627L105.067 489.712C104.868 489.433 104.685 489.226 104.592 489.123L95.7863 497.074ZM92.4833 478.436C92.074 480.717 90.2542 482.481 87.9624 482.819L86.2306 471.081C83.4805 471.487 81.2967 473.604 80.8056 476.34L92.4833 478.436ZM87.1738 498.029C88.5089 497.042 89.4049 495.586 89.6947 493.971L78.017 491.875C78.2588 490.528 79.0051 489.314 80.1219 488.488L87.1738 498.029ZM64.3767 411.155C61.5307 409.163 61.2627 404.958 64.0062 402.655L71.6356 411.741C74.9487 408.959 74.6354 403.853 71.18 401.435L64.3767 411.155ZM76.4283 396.087C80.0101 394.984 83.1912 397.691 83.356 400.918L71.5072 401.523C71.7102 405.498 75.6215 408.749 79.9185 407.426L76.4283 396.087ZM96.0068 400.054C96.3336 396.994 99.3391 394.56 102.713 395.456L99.6657 406.923C103.719 408 107.403 405.073 107.804 401.313L96.0068 400.054ZM98.3449 481.468C95.3219 481.804 92.6136 479.574 92.3729 476.534L104.2 475.597C103.911 471.951 100.662 469.274 97.0347 469.677L98.3449 481.468ZM107.756 401.676C104.728 403.62 103.709 407.855 106.038 411.001L115.573 403.94C117.515 406.562 116.646 410.066 114.167 411.659L107.756 401.676Z" fill="black" mask="url(#path-41-outside-7_1_692)"/>
<mask id="mask7_1_692" style="mask-type:alpha" maskUnits="userSpaceOnUse" x="49" y="385" width="80" height="120">
<mask id="path-43-outside-8_1_692" maskUnits="userSpaceOnUse" x="49.1499" y="384.338" width="80" height="120" fill="black">
<rect fill="white" x="49.1499" y="384.338" width="80" height="120"/>
<path fill-rule="evenodd" clip-rule="evenodd" d="M110.806 407.47C110.612 407.209 110.687 406.843 110.961 406.667C114.328 404.505 119.128 399.662 114.859 394.798C109.915 389.164 102.609 394.093 101.905 400.684C101.868 401.033 101.529 401.28 101.189 401.19C94.8615 399.508 86.0481 399.333 78.1734 401.757C77.8158 401.867 77.4507 401.594 77.4316 401.221C77.0815 394.366 69.5133 389.012 64.4353 394.798C60.3967 399.4 64.4759 403.983 67.7784 406.295C68.0831 406.508 68.1057 406.958 67.8209 407.198C65.0837 409.496 62.8556 412.409 61.4351 416.031C56.7789 427.904 54.8343 467.5 57.0887 490.433C57.2574 492.15 58.2067 493.7 59.7623 494.445C65.3871 497.139 75.3108 499.421 83.6478 493.259C83.757 493.178 83.8318 493.057 83.8558 492.923L86.6444 477.388C86.6854 477.16 86.8673 476.984 87.0965 476.95L92.5982 476.138L97.6898 475.573C97.9922 475.539 98.2625 475.762 98.2866 476.065C98.4978 478.734 98.6591 481.069 98.7985 483.088L98.7985 483.088C99.2109 489.06 99.4318 492.26 100.189 493.099C100.21 493.121 100.229 493.144 100.247 493.169C103.191 497.273 111.058 495.144 115.796 493.484C117.856 492.762 119.317 490.865 119.58 488.698C125.459 440.258 117.762 416.865 110.806 407.47Z"/>
</mask>
<path fill-rule="evenodd" clip-rule="evenodd" d="M110.806 407.47C110.612 407.209 110.687 406.843 110.961 406.667C114.328 404.505 119.128 399.662 114.859 394.798C109.915 389.164 102.609 394.093 101.905 400.684C101.868 401.033 101.529 401.28 101.189 401.19C94.8615 399.508 86.0481 399.333 78.1734 401.757C77.8158 401.867 77.4507 401.594 77.4316 401.221C77.0815 394.366 69.5133 389.012 64.4353 394.798C60.3967 399.4 64.4759 403.983 67.7784 406.295C68.0831 406.508 68.1057 406.958 67.8209 407.198C65.0837 409.496 62.8556 412.409 61.4351 416.031C56.7789 427.904 54.8343 467.5 57.0887 490.433C57.2574 492.15 58.2067 493.7 59.7623 494.445C65.3871 497.139 75.3108 499.421 83.6478 493.259C83.757 493.178 83.8318 493.057 83.8558 492.923L86.6444 477.388C86.6854 477.16 86.8673 476.984 87.0965 476.95L92.5982 476.138L97.6898 475.573C97.9922 475.539 98.2625 475.762 98.2866 476.065C98.4978 478.734 98.6591 481.069 98.7985 483.088L98.7985 483.088C99.2109 489.06 99.4318 492.26 100.189 493.099C100.21 493.121 100.229 493.144 100.247 493.169C103.191 497.273 111.058 495.144 115.796 493.484C117.856 492.762 119.317 490.865 119.58 488.698C125.459 440.258 117.762 416.865 110.806 407.47Z" fill="#9E6C4B"/>
<path d="M114.859 394.798L120.121 390.181L120.121 390.181L114.859 394.798ZM64.4353 394.798L59.1739 390.181L59.1739 390.181L64.4353 394.798ZM61.4351 416.031L54.9183 413.476L61.4351 416.031ZM57.0887 490.433L64.0551 489.749L64.0551 489.749L57.0887 490.433ZM59.7623 494.445L62.7862 488.132L62.7862 488.132L59.7623 494.445ZM92.5982 476.138L91.8252 469.181L91.7006 469.195L91.5765 469.213L92.5982 476.138ZM98.7985 483.088L105.79 482.738L105.786 482.672L105.782 482.605L98.7985 483.088ZM98.7985 483.088L91.8072 483.437L91.8105 483.504L91.8151 483.57L98.7985 483.088ZM115.796 493.484L118.111 500.09H118.111L115.796 493.484ZM119.58 488.698L112.631 487.855L112.631 487.855L119.58 488.698ZM100.189 493.099L94.9938 497.79L100.189 493.099ZM100.247 493.169L94.5592 497.249L100.247 493.169ZM86.6444 477.388L79.7545 476.152L86.6444 477.388ZM87.0965 476.95L88.1182 483.875L87.0965 476.95ZM83.6478 493.259L87.8085 498.888L83.6478 493.259ZM83.8558 492.923L76.966 491.687L83.8558 492.923ZM67.7784 406.295L63.7644 412.03L67.7784 406.295ZM67.8209 407.198L63.3195 401.837L67.8209 407.198ZM78.1734 401.757L76.1142 395.066L78.1734 401.757ZM77.4316 401.221L84.4225 400.864L77.4316 401.221ZM101.905 400.684L94.945 399.941L101.905 400.684ZM101.189 401.19L102.987 394.424L101.189 401.19ZM97.6898 475.573L98.4628 482.53L97.6898 475.573ZM98.2866 476.065L105.265 475.513L98.2866 476.065ZM110.961 406.667L107.179 400.777L110.961 406.667ZM109.598 399.415C109.815 399.663 109.592 399.501 109.549 398.982C109.511 398.531 109.656 398.338 109.564 398.514C109.46 398.715 109.2 399.09 108.708 399.569C108.231 400.033 107.68 400.455 107.179 400.777L114.744 412.557C116.922 411.158 120.099 408.598 121.983 404.978C122.979 403.065 123.733 400.614 123.5 397.82C123.262 394.957 122.038 392.366 120.121 390.181L109.598 399.415ZM108.866 401.427C108.917 400.951 109.094 400.469 109.368 400.055C109.651 399.628 109.945 399.408 110.088 399.332C110.212 399.266 110.065 399.379 109.72 399.322C109.559 399.296 109.446 399.245 109.397 399.216C109.353 399.191 109.431 399.225 109.598 399.415L120.121 390.181C117.948 387.705 115.159 386.025 111.977 385.505C108.849 384.994 105.905 385.695 103.496 386.981C98.8371 389.468 95.5332 394.431 94.945 399.941L108.866 401.427ZM80.2326 408.447C86.7889 406.429 94.2634 406.592 99.3914 407.955L102.987 394.424C95.4595 392.424 85.3073 392.237 76.1142 395.066L80.2326 408.447ZM69.6966 399.415C69.868 399.22 69.9452 399.19 69.8946 399.218C69.8384 399.25 69.7173 399.302 69.5513 399.326C69.1993 399.376 69.0722 399.254 69.2277 399.343C69.4001 399.442 69.7109 399.697 69.9896 400.154C70.2596 400.597 70.4161 401.096 70.4407 401.578L84.4225 400.864C84.1279 395.096 80.8564 389.87 76.1852 387.195C73.77 385.812 70.7769 385.008 67.5668 385.467C64.2908 385.936 61.4088 387.634 59.1739 390.181L69.6966 399.415ZM71.7923 400.56C71.2833 400.204 70.7819 399.784 70.3746 399.354C69.9535 398.91 69.7677 398.598 69.7095 398.472C69.667 398.38 69.7917 398.611 69.7393 399.047C69.6819 399.524 69.4848 399.657 69.6966 399.415L59.1739 390.181C57.3664 392.241 56.1647 394.672 55.8395 397.375C55.5193 400.036 56.113 402.421 56.9983 404.339C58.6689 407.958 61.6505 410.55 63.7644 412.03L71.7923 400.56ZM67.9519 418.587C68.912 416.139 70.4076 414.166 72.3223 412.558L63.3195 401.837C59.7598 404.826 56.7993 408.679 54.9183 413.476L67.9519 418.587ZM64.0551 489.749C62.9736 478.746 62.886 463.492 63.6598 449.47C64.0455 442.482 64.6395 435.905 65.4073 430.409C66.1962 424.761 67.105 420.746 67.9519 418.587L54.9183 413.476C53.4371 417.253 52.3567 422.639 51.5419 428.472C50.706 434.456 50.0818 441.438 49.6811 448.699C48.8821 463.177 48.9494 479.187 50.1223 491.118L64.0551 489.749ZM62.7862 488.132C63.754 488.595 64.0207 489.398 64.0551 489.749L50.1223 491.118C50.4942 494.902 52.6594 498.804 56.7384 500.758L62.7862 488.132ZM79.4872 487.629C74.228 491.517 67.4533 490.367 62.7862 488.132L56.7384 500.758C63.3208 503.911 76.3936 507.325 87.8085 498.888L79.4872 487.629ZM79.7545 476.152L76.966 491.687L90.7457 494.16L93.5343 478.625L79.7545 476.152ZM91.5765 469.213L86.0748 470.025L88.1182 483.875L93.62 483.063L91.5765 469.213ZM96.9168 468.615L91.8252 469.181L93.3713 483.096L98.4628 482.53L96.9168 468.615ZM105.782 482.605C105.643 480.588 105.479 478.22 105.265 475.513L91.3084 476.618C91.5165 479.247 91.6756 481.55 91.8151 483.57L105.782 482.605ZM105.79 482.738L105.79 482.738L91.8072 483.437L91.8072 483.437L105.79 482.738ZM105.385 488.407C105.947 489.03 106.223 489.597 106.331 489.842C106.394 489.984 106.432 490.092 106.453 490.154C106.464 490.186 106.471 490.21 106.476 490.226C106.48 490.241 106.483 490.249 106.483 490.25C106.483 490.25 106.481 490.244 106.478 490.231C106.475 490.218 106.471 490.198 106.465 490.173C106.455 490.121 106.441 490.049 106.424 489.954C106.391 489.761 106.354 489.504 106.313 489.171C106.139 487.747 105.994 485.676 105.782 482.606L91.8151 483.57C92.0155 486.472 92.1868 488.987 92.416 490.866C92.5305 491.805 92.6869 492.83 92.938 493.791C93.1333 494.538 93.6272 496.276 94.9938 497.79L105.385 488.407ZM113.482 486.877C111.252 487.659 108.799 488.354 106.808 488.509C105.829 488.585 105.328 488.496 105.182 488.454C105.129 488.439 105.564 488.572 105.935 489.089L94.5592 497.249C98.2942 502.456 104.415 502.736 107.889 502.467C111.752 502.168 115.602 500.969 118.111 500.09L113.482 486.877ZM112.631 487.855C112.656 487.646 112.736 487.464 112.855 487.311C112.978 487.155 113.183 486.982 113.482 486.877L118.111 500.09C122.809 498.444 125.961 494.224 126.529 489.542L112.631 487.855ZM105.18 411.636C110.54 418.874 118.433 440.044 112.631 487.855L126.529 489.542C132.484 440.472 124.985 414.855 116.431 403.305L105.18 411.636ZM94.9938 497.79C94.9283 497.717 94.7558 497.523 94.5592 497.249L105.935 489.089C105.703 488.765 105.491 488.525 105.385 488.407L94.9938 497.79ZM93.5343 478.625C93.044 481.357 90.8638 483.47 88.1182 483.875L86.0748 470.025C82.8708 470.498 80.3267 472.964 79.7545 476.152L93.5343 478.625ZM87.8085 498.888C89.3643 497.738 90.4081 496.041 90.7457 494.16L76.966 491.687C77.2556 490.073 78.1497 488.618 79.4872 487.629L87.8085 498.888ZM63.7644 412.03C60.3512 409.641 60.0309 404.598 63.3195 401.837L72.3223 412.558C76.1805 409.319 75.8149 403.375 71.7923 400.56L63.7644 412.03ZM76.1142 395.066C80.405 393.746 84.2246 396.988 84.4225 400.864L70.4407 401.578C70.6768 406.2 75.2265 409.988 80.2326 408.447L76.1142 395.066ZM94.945 399.941C95.3373 396.266 98.9449 393.35 102.987 394.424L99.3914 407.955C104.113 409.21 108.399 405.8 108.866 401.427L94.945 399.941ZM98.4628 482.53C94.8412 482.932 91.5967 480.26 91.3084 476.618L105.265 475.513C104.928 471.265 101.143 468.146 96.9168 468.615L98.4628 482.53ZM107.179 400.777C103.656 403.04 102.466 407.972 105.18 411.636L116.431 403.305C118.757 406.446 117.719 410.647 114.744 412.557L107.179 400.777Z" fill="black" mask="url(#path-43-outside-8_1_692)"/>
</mask>
<g mask="url(#mask7_1_692)">
<path d="M81.7621 400.832C71.8392 402.881 65.943 408.337 64.2353 410.809C63.7859 410.539 62.5096 408.84 60.9996 404.202C59.1121 398.405 62.3478 389.507 69.6282 388.698C75.4525 388.051 80.1443 396.518 81.7621 400.832Z" fill="#505050"/>
<path d="M98.2458 400.134C107.92 403.147 113.252 409.156 114.709 411.783C115.182 411.559 116.619 409.993 118.577 405.526C121.025 399.942 118.678 390.769 111.512 389.25C105.779 388.034 100.279 395.999 98.2458 400.134Z" fill="#505050"/>
<path d="M129.597 434.979C107.919 436.386 70.9491 436.157 55.0068 434.982C54.7066 434.96 54.46 435.188 54.4413 435.488L53.0735 457.422C53.0571 457.685 53.2231 457.919 53.4804 457.976C72.0891 462.108 111.123 459.638 129.665 458.658C129.951 458.643 130.163 458.407 130.163 458.12V435.518C130.163 435.206 129.908 434.959 129.597 434.979Z" fill="#505050"/>
<path d="M133.889 476.15C106.489 480.169 64.7517 477.713 45.7462 476.107C45.4505 476.082 45.2039 476.301 45.1772 476.597L43.1097 499.458C43.0859 499.721 43.246 499.961 43.5027 500.024C65.78 505.561 112.84 504.487 135.041 503.224C135.335 503.208 135.547 502.96 135.535 502.666L134.501 476.664C134.489 476.343 134.207 476.103 133.889 476.15Z" fill="#505050"/>
<mask id="path-49-outside-9_1_692" maskUnits="userSpaceOnUse" x="49.1499" y="384.338" width="80" height="120" fill="black">
<rect fill="white" x="49.1499" y="384.338" width="80" height="120"/>
<path fill-rule="evenodd" clip-rule="evenodd" d="M110.806 407.47C110.612 407.209 110.687 406.843 110.961 406.667C114.328 404.505 119.128 399.662 114.859 394.798C109.915 389.164 102.609 394.093 101.905 400.684C101.868 401.033 101.529 401.28 101.189 401.19C94.8615 399.508 86.0481 399.333 78.1734 401.757C77.8158 401.867 77.4507 401.594 77.4316 401.221C77.0815 394.366 69.5133 389.012 64.4353 394.798C60.3967 399.4 64.4759 403.983 67.7784 406.295C68.0831 406.508 68.1057 406.958 67.8209 407.198C65.0837 409.496 62.8556 412.409 61.4351 416.031C56.7789 427.904 54.8343 467.5 57.0887 490.433C57.2574 492.15 58.2067 493.7 59.7623 494.445C65.3871 497.139 75.3108 499.421 83.6478 493.259C83.757 493.178 83.8318 493.057 83.8558 492.923L86.6444 477.388C86.6854 477.16 86.8673 476.984 87.0965 476.95L92.5982 476.138L97.6898 475.573C97.9922 475.539 98.2625 475.762 98.2866 476.065C98.4978 478.734 98.6591 481.069 98.7985 483.088L98.7985 483.088C99.2109 489.06 99.4318 492.26 100.189 493.099C100.21 493.121 100.229 493.144 100.247 493.169C103.191 497.273 111.058 495.144 115.796 493.484C117.856 492.762 119.317 490.865 119.58 488.698C125.459 440.258 117.762 416.865 110.806 407.47Z"/>
</mask>
<path d="M114.859 394.798L120.121 390.181L120.121 390.181L114.859 394.798ZM64.4353 394.798L59.1739 390.181L59.1739 390.181L64.4353 394.798ZM61.4351 416.031L54.9183 413.476L61.4351 416.031ZM57.0887 490.433L64.0551 489.749L64.0551 489.749L57.0887 490.433ZM59.7623 494.445L62.7862 488.132L62.7862 488.132L59.7623 494.445ZM92.5982 476.138L91.8252 469.181L91.7006 469.195L91.5765 469.213L92.5982 476.138ZM98.7985 483.088L105.79 482.738L105.786 482.672L105.782 482.605L98.7985 483.088ZM98.7985 483.088L91.8072 483.437L91.8105 483.504L91.8151 483.57L98.7985 483.088ZM115.796 493.484L118.111 500.09H118.111L115.796 493.484ZM119.58 488.698L112.631 487.855L112.631 487.855L119.58 488.698ZM100.189 493.099L94.9938 497.79L100.189 493.099ZM100.247 493.169L94.5592 497.249L100.247 493.169ZM86.6444 477.388L79.7545 476.152L86.6444 477.388ZM87.0965 476.95L88.1182 483.875L87.0965 476.95ZM83.6478 493.259L87.8085 498.888L83.6478 493.259ZM83.8558 492.923L76.966 491.687L83.8558 492.923ZM67.7784 406.295L63.7644 412.03L67.7784 406.295ZM67.8209 407.198L63.3195 401.837L67.8209 407.198ZM78.1734 401.757L76.1142 395.066L78.1734 401.757ZM77.4316 401.221L84.4225 400.864L77.4316 401.221ZM101.905 400.684L94.945 399.941L101.905 400.684ZM101.189 401.19L102.987 394.424L101.189 401.19ZM97.6898 475.573L98.4628 482.53L97.6898 475.573ZM98.2866 476.065L105.265 475.513L98.2866 476.065ZM110.961 406.667L107.179 400.777L110.961 406.667ZM109.598 399.415C109.815 399.663 109.592 399.501 109.549 398.982C109.511 398.531 109.656 398.338 109.564 398.514C109.46 398.715 109.2 399.09 108.708 399.569C108.231 400.033 107.68 400.455 107.179 400.777L114.744 412.557C116.922 411.158 120.099 408.598 121.983 404.978C122.979 403.065 123.733 400.614 123.5 397.82C123.262 394.957 122.038 392.366 120.121 390.181L109.598 399.415ZM108.866 401.427C108.917 400.951 109.094 400.469 109.368 400.055C109.651 399.628 109.945 399.408 110.088 399.332C110.212 399.266 110.065 399.379 109.72 399.322C109.559 399.296 109.446 399.245 109.397 399.216C109.353 399.191 109.431 399.225 109.598 399.415L120.121 390.181C117.948 387.705 115.159 386.025 111.977 385.505C108.849 384.994 105.905 385.695 103.496 386.981C98.8371 389.468 95.5332 394.431 94.945 399.941L108.866 401.427ZM80.2326 408.447C86.7889 406.429 94.2634 406.592 99.3914 407.955L102.987 394.424C95.4595 392.424 85.3073 392.237 76.1142 395.066L80.2326 408.447ZM69.6966 399.415C69.868 399.22 69.9452 399.19 69.8946 399.218C69.8384 399.25 69.7173 399.302 69.5513 399.326C69.1993 399.376 69.0722 399.254 69.2277 399.343C69.4001 399.442 69.7109 399.697 69.9896 400.154C70.2596 400.597 70.4161 401.096 70.4407 401.578L84.4225 400.864C84.1279 395.096 80.8564 389.87 76.1852 387.195C73.77 385.812 70.7769 385.008 67.5668 385.467C64.2908 385.936 61.4088 387.634 59.1739 390.181L69.6966 399.415ZM71.7923 400.56C71.2833 400.204 70.7819 399.784 70.3746 399.354C69.9535 398.91 69.7677 398.598 69.7095 398.472C69.667 398.38 69.7917 398.611 69.7393 399.047C69.6819 399.524 69.4848 399.657 69.6966 399.415L59.1739 390.181C57.3664 392.241 56.1647 394.672 55.8395 397.375C55.5193 400.036 56.113 402.421 56.9983 404.339C58.6689 407.958 61.6505 410.55 63.7644 412.03L71.7923 400.56ZM67.9519 418.587C68.912 416.139 70.4076 414.166 72.3223 412.558L63.3195 401.837C59.7598 404.826 56.7993 408.679 54.9183 413.476L67.9519 418.587ZM64.0551 489.749C62.9736 478.746 62.886 463.492 63.6598 449.47C64.0455 442.482 64.6395 435.905 65.4073 430.409C66.1962 424.761 67.105 420.746 67.9519 418.587L54.9183 413.476C53.4371 417.253 52.3567 422.639 51.5419 428.472C50.706 434.456 50.0818 441.438 49.6811 448.699C48.8821 463.177 48.9494 479.187 50.1223 491.118L64.0551 489.749ZM62.7862 488.132C63.754 488.595 64.0207 489.398 64.0551 489.749L50.1223 491.118C50.4942 494.902 52.6594 498.804 56.7384 500.758L62.7862 488.132ZM79.4872 487.629C74.228 491.517 67.4533 490.367 62.7862 488.132L56.7384 500.758C63.3208 503.911 76.3936 507.325 87.8085 498.888L79.4872 487.629ZM79.7545 476.152L76.966 491.687L90.7457 494.16L93.5343 478.625L79.7545 476.152ZM91.5765 469.213L86.0748 470.025L88.1182 483.875L93.62 483.063L91.5765 469.213ZM96.9168 468.615L91.8252 469.181L93.3713 483.096L98.4628 482.53L96.9168 468.615ZM105.782 482.605C105.643 480.588 105.479 478.22 105.265 475.513L91.3084 476.618C91.5165 479.247 91.6756 481.55 91.8151 483.57L105.782 482.605ZM105.79 482.738L105.79 482.738L91.8072 483.437L91.8072 483.437L105.79 482.738ZM105.385 488.407C105.947 489.03 106.223 489.597 106.331 489.842C106.394 489.984 106.432 490.092 106.453 490.154C106.464 490.186 106.471 490.21 106.476 490.226C106.48 490.241 106.483 490.249 106.483 490.25C106.483 490.25 106.481 490.244 106.478 490.231C106.475 490.218 106.471 490.198 106.465 490.173C106.455 490.121 106.441 490.049 106.424 489.954C106.391 489.761 106.354 489.504 106.313 489.171C106.139 487.747 105.994 485.676 105.782 482.606L91.8151 483.57C92.0155 486.472 92.1868 488.987 92.416 490.866C92.5305 491.805 92.6869 492.83 92.938 493.791C93.1333 494.538 93.6272 496.276 94.9938 497.79L105.385 488.407ZM113.482 486.877C111.252 487.659 108.799 488.354 106.808 488.509C105.829 488.585 105.328 488.496 105.182 488.454C105.129 488.439 105.564 488.572 105.935 489.089L94.5592 497.249C98.2942 502.456 104.415 502.736 107.889 502.467C111.752 502.168 115.602 500.969 118.111 500.09L113.482 486.877ZM112.631 487.855C112.656 487.646 112.736 487.464 112.855 487.311C112.978 487.155 113.183 486.982 113.482 486.877L118.111 500.09C122.809 498.444 125.961 494.224 126.529 489.542L112.631 487.855ZM105.18 411.636C110.54 418.874 118.433 440.044 112.631 487.855L126.529 489.542C132.484 440.472 124.985 414.855 116.431 403.305L105.18 411.636ZM94.9938 497.79C94.9283 497.717 94.7558 497.523 94.5592 497.249L105.935 489.089C105.703 488.765 105.491 488.525 105.385 488.407L94.9938 497.79ZM93.5343 478.625C93.044 481.357 90.8638 483.47 88.1182 483.875L86.0748 470.025C82.8708 470.498 80.3267 472.964 79.7545 476.152L93.5343 478.625ZM87.8085 498.888C89.3643 497.738 90.4081 496.041 90.7457 494.16L76.966 491.687C77.2556 490.073 78.1497 488.618 79.4872 487.629L87.8085 498.888ZM63.7644 412.03C60.3512 409.641 60.0309 404.598 63.3195 401.837L72.3223 412.558C76.1805 409.319 75.8149 403.375 71.7923 400.56L63.7644 412.03ZM76.1142 395.066C80.405 393.746 84.2246 396.988 84.4225 400.864L70.4407 401.578C70.6768 406.2 75.2265 409.988 80.2326 408.447L76.1142 395.066ZM94.945 399.941C95.3373 396.266 98.9449 393.35 102.987 394.424L99.3914 407.955C104.113 409.21 108.399 405.8 108.866 401.427L94.945 399.941ZM98.4628 482.53C94.8412 482.932 91.5967 480.26 91.3084 476.618L105.265 475.513C104.928 471.265 101.143 468.146 96.9168 468.615L98.4628 482.53ZM107.179 400.777C103.656 403.04 102.466 407.972 105.18 411.636L116.431 403.305C118.757 406.446 117.719 410.647 114.744 412.557L107.179 400.777Z" fill="black" mask="url(#path-49-outside-9_1_692)"/>
</g>
<rect x="82.8408" y="406.225" width="47.9966" height="48.5358" rx="20.8974" fill="#98C7DD" stroke="black" stroke-width="6.74109"/>
<mask id="mask8_1_692" style="mask-type:alpha" maskUnits="userSpaceOnUse" x="79" y="402" width="56" height="57">
<rect x="82.8408" y="406.225" width="47.9966" height="48.5358" rx="20.8974" fill="#98C7DD" stroke="black" stroke-width="6.74109"/>
</mask>
<g mask="url(#mask8_1_692)">
<path d="M77.1779 424.56C91.0645 449.368 117.759 446.761 127.601 440.604V460.288H77.1779V424.56Z" fill="#4B646E" fill-opacity="0.55"/>
<path d="M99.7257 414.762C98.9852 409.125 111.13 407.197 113.796 407.197C117.647 406.729 127.866 412.092 125.496 417.877C123.127 423.662 100.466 420.399 99.7257 414.762Z" fill="#FBFDFD" fill-opacity="0.85"/>
<rect x="82.8408" y="406.225" width="47.9966" height="48.5358" rx="20.8974" stroke="black" stroke-width="6.74109"/>
</g>
</svg>
