<svg width="501" height="551" viewBox="0 0 501 551" fill="none" xmlns="http://www.w3.org/2000/svg">
<path d="M115.927 416.571C129.891 421.442 144.669 419.384 156.76 416.038C170.105 412.344 179.176 399.855 180.728 386.096L196.213 248.835C198.606 227.62 182.19 206.128 160.866 205.088C145.049 204.315 128.396 205.196 118.406 211.19C82.1136 232.965 85.1561 405.837 115.927 416.571Z" fill="#D8E0EE" stroke="black" stroke-width="21.4684"/>
<mask id="mask0_1_790" style="mask-type:alpha" maskUnits="userSpaceOnUse" x="81" y="194" width="127" height="237">
<path d="M115.927 416.571C129.891 421.442 144.669 419.384 156.76 416.038C170.105 412.344 179.176 399.855 180.728 386.096L196.213 248.835C198.606 227.62 182.19 206.128 160.866 205.088C145.049 204.315 128.396 205.196 118.406 211.19C82.1136 232.965 85.1561 405.837 115.927 416.571Z" fill="#E453BD" stroke="#63114C" stroke-width="21.4684"/>
</mask>
<g mask="url(#mask0_1_790)">
<path d="M175.655 256.274C130.428 242.534 72.8452 267.723 49.707 282.036C49.707 355.315 83.1023 433.269 99.8 463.086H175.655V256.274Z" fill="#8897BD" fill-opacity="0.55"/>
<path d="M115.927 416.571C129.891 421.442 144.669 419.384 156.76 416.038C170.105 412.344 179.176 399.855 180.728 386.096L196.213 248.835C198.606 227.62 182.19 206.128 160.866 205.088C145.049 204.315 128.396 205.196 118.406 211.19C82.1136 232.965 85.1561 405.837 115.927 416.571Z" stroke="black" stroke-width="21.4684"/>
</g>
<path d="M169.214 191.868C151.947 235.902 144.735 382.745 153.095 467.796C153.721 474.162 157.242 479.91 163.011 482.673C184.013 492.733 221.178 501.243 252.226 477.802L262.96 418.002L284.786 414.782L305.718 412.456C309.01 453.389 309.117 473.851 313.053 477.802C323.89 493.21 353.19 485.284 370.818 479.109C378.456 476.433 383.876 469.396 384.851 461.362C409.402 259.064 370.111 174.557 342.788 149.335C314.879 123.573 197.839 118.876 169.214 191.868Z" fill="#D8E0EE"/>
<path d="M326.649 410.13L305.718 412.456M305.718 412.456L284.786 414.782L262.96 418.002L252.226 477.802C221.178 501.243 184.013 492.733 163.011 482.673C157.242 479.91 153.721 474.162 153.095 467.796C144.735 382.745 151.947 235.902 169.214 191.868C197.839 118.876 314.879 123.573 342.788 149.335C370.111 174.557 409.402 259.064 384.851 461.362C383.876 469.396 378.456 476.433 370.818 479.109C353.19 485.284 323.89 493.21 313.053 477.802C309.117 473.851 309.01 453.389 305.718 412.456Z" stroke="black" stroke-width="21.4684" stroke-linecap="round" stroke-linejoin="round"/>
<mask id="mask1_1_790" style="mask-type:alpha" maskUnits="userSpaceOnUse" x="138" y="121" width="266" height="383">
<path d="M169.214 191.868C151.947 235.902 144.735 382.745 153.095 467.796C153.721 474.162 157.242 479.91 163.011 482.673C184.013 492.733 221.178 501.243 252.226 477.802L262.96 418.002L284.786 414.782L305.718 412.456C309.01 453.389 309.117 473.851 313.053 477.802C323.89 493.21 353.19 485.284 370.818 479.109C378.456 476.433 383.876 469.396 384.851 461.362C409.402 259.064 370.111 174.557 342.788 149.335C314.879 123.573 197.839 118.876 169.214 191.868Z" fill="#E752BE"/>
<path d="M326.649 410.13L305.718 412.456M305.718 412.456L284.786 414.782L262.96 418.002L252.226 477.802C221.178 501.243 184.013 492.733 163.011 482.673C157.242 479.91 153.721 474.162 153.095 467.796C144.735 382.745 151.947 235.902 169.214 191.868C197.839 118.876 314.879 123.573 342.788 149.335C370.111 174.557 409.402 259.064 384.851 461.362C383.876 469.396 378.456 476.433 370.818 479.109C353.19 485.284 323.89 493.21 313.053 477.802C309.117 473.851 309.01 453.389 305.718 412.456Z" stroke="#63114C" stroke-width="21.4684" stroke-linecap="round" stroke-linejoin="round"/>
</mask>
<g mask="url(#mask1_1_790)">
<path d="M341.677 374.35C366.867 364.045 383.183 322.11 387.476 291.339L395.348 544.666H140.59V136.05H204.279C168.499 223.355 177.802 314.238 213.582 362.9C236.352 393.867 310.19 387.231 341.677 374.35Z" fill="#8897BD" fill-opacity="0.55"/>
<path d="M326.649 410.13L305.718 412.456M305.718 412.456L284.786 414.782L262.96 418.002L252.226 477.802C221.178 501.243 184.013 492.733 163.011 482.673C157.242 479.91 153.721 474.162 153.095 467.796C144.735 382.745 151.947 235.902 169.214 191.868C197.839 118.876 314.879 123.573 342.788 149.335C370.111 174.557 409.402 259.064 384.851 461.362C383.876 469.396 378.456 476.433 370.818 479.109C353.19 485.284 323.89 493.21 313.053 477.802C309.117 473.851 309.01 453.389 305.718 412.456Z" stroke="black" stroke-width="21.4684" stroke-linecap="round" stroke-linejoin="round"/>
</g>
<path d="M401.073 287.045C375.938 313.338 319.493 312.475 292.861 304.044C250.966 290.782 245.957 237.11 252.397 212.064C258.988 186.432 296.714 186.124 341.828 188.528C386.942 190.933 432.492 254.179 401.073 287.045Z" fill="#98C7DD" stroke="black" stroke-width="20"/>
<mask id="mask2_1_790" style="mask-type:alpha" maskUnits="userSpaceOnUse" x="240" y="177" width="182" height="143">
<path d="M401.073 287.045C375.938 313.338 319.493 312.475 292.861 304.044C250.966 290.782 245.957 237.11 252.397 212.064C258.988 186.432 296.714 186.124 341.828 188.528C386.942 190.933 432.492 254.179 401.073 287.045Z" fill="#98C7DD" stroke="#3D3436" stroke-width="20"/>
</mask>
<g mask="url(#mask2_1_790)">
<path d="M367.439 221.924C361.714 212.192 328.693 210.474 313.188 210.474C309.849 210.474 303.456 212.907 304.601 222.64C306.032 234.805 339.666 241.246 354.694 241.246C369.722 241.246 374.595 234.09 367.439 221.924Z" fill="#FBFDFD" fill-opacity="0.85"/>
<path d="M300.887 262.714C279.403 258.686 270.306 216.233 268.279 190.909C268.048 188.026 266.195 185.507 263.473 184.53L249.634 179.562C244.972 177.888 240.06 181.329 240.06 186.283V347.872C240.06 354.501 341.332 351.003 397.3 348.177C400.741 348.004 403.549 345.396 404.003 341.981L414.289 264.563C415.162 257.996 406.474 252.689 400.314 255.127C369.433 267.353 319.601 266.223 300.887 262.714Z" fill="#4B646E" fill-opacity="0.55"/>
<path d="M401.073 287.045C375.938 313.338 319.493 312.475 292.861 304.044C250.966 290.782 245.957 237.11 252.397 212.064C258.988 186.432 296.714 186.124 341.828 188.528C386.942 190.933 432.492 254.179 401.073 287.045Z" stroke="black" stroke-width="20"/>
</g>
<path d="M261.23 74.7819C253.499 71.4164 241.264 65.4505 234.381 58.8901C232.305 56.9114 229.454 56.1967 226.941 56.5874C224.352 56.9898 221.528 58.7246 220.666 62.1343C217.906 73.0613 216.669 90.3359 225.545 105.535C227.907 109.579 233.072 110.177 236.456 107.662L262.805 88.0828C267.663 84.4731 266.57 77.1068 261.23 74.7819Z" fill="#5AC9E7" stroke="black" stroke-width="8.36131"/>
<path d="M328.024 60.8035C319.409 60.8035 299.397 69.5702 291.006 78.807C289.775 80.1619 290.136 82.2169 291.594 83.3236L324.908 108.607C326.568 109.866 328.963 109.396 329.909 107.54C341.212 85.3618 337.226 60.8035 328.024 60.8035Z" fill="#5AC9E7" stroke="black" stroke-width="8.36131"/>
<mask id="path-18-outside-1_1_790" maskUnits="userSpaceOnUse" x="197.136" y="62.9494" width="155" height="101" fill="black">
<rect fill="white" x="197.136" y="62.9494" width="155" height="101"/>
<path fill-rule="evenodd" clip-rule="evenodd" d="M256.175 74.2855C230.601 81.0625 211.75 109.232 217.585 132.127C209.29 135.604 201.985 140.978 208.876 146.855C216.067 152.989 222.36 151.418 227.52 147.989C246.85 160.636 295.079 153.49 311.209 151.051C317.195 150.145 321.325 148.651 324.176 147.043C338.035 149.047 346.326 143.648 343.005 136.752C341.49 133.605 338.094 131.811 334.163 130.865C344.596 95.2004 311.656 75.7683 285.782 72.5822C275.131 71.2707 264.518 72.0745 256.175 74.2855Z"/>
</mask>
<path fill-rule="evenodd" clip-rule="evenodd" d="M256.175 74.2855C230.601 81.0625 211.75 109.232 217.585 132.127C209.29 135.604 201.985 140.978 208.876 146.855C216.067 152.989 222.36 151.418 227.52 147.989C246.85 160.636 295.079 153.49 311.209 151.051C317.195 150.145 321.325 148.651 324.176 147.043C338.035 149.047 346.326 143.648 343.005 136.752C341.49 133.605 338.094 131.811 334.163 130.865C344.596 95.2004 311.656 75.7683 285.782 72.5822C275.131 71.2707 264.518 72.0745 256.175 74.2855Z" fill="#5AC9E7"/>
<path d="M217.585 132.127L220.775 139.736L227.337 136.985L225.58 130.09L217.585 132.127ZM256.175 74.2855L254.061 66.3108L256.175 74.2855ZM208.876 146.855L214.229 140.578H214.229L208.876 146.855ZM227.52 147.989L232.037 141.085L227.485 138.107L222.954 141.118L227.52 147.989ZM311.209 151.051L309.976 142.893L309.976 142.893L311.209 151.051ZM324.176 147.043L325.356 138.878L322.573 138.476L320.123 139.857L324.176 147.043ZM343.005 136.752L335.572 140.331L335.572 140.331L343.005 136.752ZM334.163 130.865L326.245 128.548L323.814 136.859L332.232 138.885L334.163 130.865ZM285.782 72.5822L284.774 80.7703L285.782 72.5822ZM225.58 130.09C223.386 121.484 225.711 111.104 231.962 101.744C238.179 92.4358 247.694 85.0676 258.288 82.2603L254.061 66.3108C239.082 70.2804 226.385 80.3856 218.241 92.5804C210.131 104.723 205.949 119.876 209.591 134.165L225.58 130.09ZM214.229 140.578C213.453 139.916 214.204 140.233 214.362 141.649C214.527 143.123 213.845 143.912 213.988 143.732C214.173 143.5 214.782 142.903 216.113 142.074C217.379 141.287 218.973 140.491 220.775 139.736L214.396 124.519C210.092 126.323 204.477 129.191 201.083 133.451C199.225 135.783 197.49 139.235 197.964 143.478C198.431 147.663 200.853 150.856 203.522 153.132L214.229 140.578ZM222.954 141.118C221.105 142.347 219.781 142.743 218.815 142.76C218.054 142.773 216.578 142.582 214.229 140.578L203.522 153.132C208.365 157.263 213.631 159.353 219.105 159.257C224.373 159.165 228.776 157.06 232.086 154.86L222.954 141.118ZM309.976 142.893C301.921 144.111 286.26 146.437 270.309 146.931C262.333 147.178 254.503 146.958 247.65 145.979C240.666 144.981 235.405 143.289 232.037 141.085L223.003 154.893C229.3 159.012 237.316 161.17 245.316 162.313C253.446 163.475 262.306 163.687 270.82 163.423C287.848 162.896 304.367 160.429 312.443 159.208L309.976 142.893ZM320.123 139.857C318.333 140.867 315.21 142.102 309.976 142.893L312.443 159.208C319.181 158.189 324.317 156.435 328.228 154.229L320.123 139.857ZM322.995 155.208C330.916 156.353 338.56 155.618 344.164 152.376C347.053 150.705 349.805 148.102 351.163 144.378C352.571 140.518 352.073 136.568 350.438 133.173L335.572 140.331C335.597 140.384 335.308 139.695 335.662 138.725C335.967 137.89 336.402 137.804 335.902 138.094C334.726 138.774 331.295 139.737 325.356 138.878L322.995 155.208ZM350.438 133.173C347.302 126.659 340.857 123.99 336.094 122.844L332.232 138.885C333.622 139.22 334.55 139.623 335.104 139.97C335.613 140.29 335.626 140.443 335.572 140.331L350.438 133.173ZM284.774 80.7703C296.384 82.2 309.291 87.293 317.888 95.5085C326.055 103.314 330.51 113.968 326.245 128.548L342.081 133.181C348.249 112.097 341.45 95.203 329.287 83.5797C317.554 72.3666 301.054 66.1505 286.79 64.394L284.774 80.7703ZM258.288 82.2603C265.55 80.3358 275.1 79.5791 284.774 80.7703L286.79 64.394C275.163 62.9622 263.486 63.8132 254.061 66.3108L258.288 82.2603Z" fill="black" mask="url(#path-18-outside-1_1_790)"/>
<mask id="mask3_1_790" style="mask-type:alpha" maskUnits="userSpaceOnUse" x="197" y="63" width="155" height="101">
<mask id="path-20-outside-2_1_790" maskUnits="userSpaceOnUse" x="197.136" y="62.9494" width="155" height="101" fill="black">
<rect fill="white" x="197.136" y="62.9494" width="155" height="101"/>
<path fill-rule="evenodd" clip-rule="evenodd" d="M256.175 74.2855C230.601 81.0625 211.75 109.232 217.585 132.127C209.29 135.604 201.985 140.978 208.876 146.855C216.067 152.989 222.36 151.418 227.52 147.989C246.85 160.636 295.079 153.49 311.209 151.051C317.195 150.145 321.325 148.651 324.176 147.043C338.035 149.047 346.326 143.648 343.005 136.752C341.49 133.605 338.094 131.811 334.163 130.865C344.596 95.2004 311.656 75.7683 285.782 72.5822C275.131 71.2707 264.518 72.0745 256.175 74.2855Z"/>
</mask>
<path fill-rule="evenodd" clip-rule="evenodd" d="M256.175 74.2855C230.601 81.0625 211.75 109.232 217.585 132.127C209.29 135.604 201.985 140.978 208.876 146.855C216.067 152.989 222.36 151.418 227.52 147.989C246.85 160.636 295.079 153.49 311.209 151.051C317.195 150.145 321.325 148.651 324.176 147.043C338.035 149.047 346.326 143.648 343.005 136.752C341.49 133.605 338.094 131.811 334.163 130.865C344.596 95.2004 311.656 75.7683 285.782 72.5822C275.131 71.2707 264.518 72.0745 256.175 74.2855Z" fill="#5AC9E7"/>
<path d="M217.585 132.127L220.775 139.736L227.337 136.985L225.58 130.09L217.585 132.127ZM256.175 74.2855L254.061 66.3108L256.175 74.2855ZM208.876 146.855L214.229 140.578H214.229L208.876 146.855ZM227.52 147.989L232.037 141.085L227.485 138.107L222.954 141.118L227.52 147.989ZM311.209 151.051L309.976 142.893L309.976 142.893L311.209 151.051ZM324.176 147.043L325.356 138.878L322.573 138.476L320.123 139.857L324.176 147.043ZM343.005 136.752L335.572 140.331L335.572 140.331L343.005 136.752ZM334.163 130.865L326.245 128.548L323.814 136.859L332.232 138.885L334.163 130.865ZM285.782 72.5822L284.774 80.7703L285.782 72.5822ZM225.58 130.09C223.386 121.484 225.711 111.104 231.962 101.744C238.179 92.4358 247.694 85.0676 258.288 82.2603L254.061 66.3108C239.082 70.2804 226.385 80.3856 218.241 92.5804C210.131 104.723 205.949 119.876 209.591 134.165L225.58 130.09ZM214.229 140.578C213.453 139.916 214.204 140.233 214.362 141.649C214.527 143.123 213.845 143.912 213.988 143.732C214.173 143.5 214.782 142.903 216.113 142.074C217.379 141.287 218.973 140.491 220.775 139.736L214.396 124.519C210.092 126.323 204.477 129.191 201.083 133.451C199.225 135.783 197.49 139.235 197.964 143.478C198.431 147.663 200.853 150.856 203.522 153.132L214.229 140.578ZM222.954 141.118C221.105 142.347 219.781 142.743 218.815 142.76C218.054 142.773 216.578 142.582 214.229 140.578L203.522 153.132C208.365 157.263 213.631 159.353 219.105 159.257C224.373 159.165 228.776 157.06 232.086 154.86L222.954 141.118ZM309.976 142.893C301.921 144.111 286.26 146.437 270.309 146.931C262.333 147.178 254.503 146.958 247.65 145.979C240.666 144.981 235.405 143.289 232.037 141.085L223.003 154.893C229.3 159.012 237.316 161.17 245.316 162.313C253.446 163.475 262.306 163.687 270.82 163.423C287.848 162.896 304.367 160.429 312.443 159.208L309.976 142.893ZM320.123 139.857C318.333 140.867 315.21 142.102 309.976 142.893L312.443 159.208C319.181 158.189 324.317 156.435 328.228 154.229L320.123 139.857ZM322.995 155.208C330.916 156.353 338.56 155.618 344.164 152.376C347.053 150.705 349.805 148.102 351.163 144.378C352.571 140.518 352.073 136.568 350.438 133.173L335.572 140.331C335.597 140.384 335.308 139.695 335.662 138.725C335.967 137.89 336.402 137.804 335.902 138.094C334.726 138.774 331.295 139.737 325.356 138.878L322.995 155.208ZM350.438 133.173C347.302 126.659 340.857 123.99 336.094 122.844L332.232 138.885C333.622 139.22 334.55 139.623 335.104 139.97C335.613 140.29 335.626 140.443 335.572 140.331L350.438 133.173ZM284.774 80.7703C296.384 82.2 309.291 87.293 317.888 95.5085C326.055 103.314 330.51 113.968 326.245 128.548L342.081 133.181C348.249 112.097 341.45 95.203 329.287 83.5797C317.554 72.3666 301.054 66.1505 286.79 64.394L284.774 80.7703ZM258.288 82.2603C265.55 80.3358 275.1 79.5791 284.774 80.7703L286.79 64.394C275.163 62.9622 263.486 63.8132 254.061 66.3108L258.288 82.2603Z" fill="black" mask="url(#path-20-outside-2_1_790)"/>
</mask>
<g mask="url(#mask3_1_790)">
<path d="M306.168 155.709C280.836 135.194 256.07 143.555 241.905 154.071C239.051 156.19 240.649 160.291 244.202 160.402L303.501 162.264C307.196 162.38 309.041 158.036 306.168 155.709Z" fill="#F3F3F2"/>
<mask id="path-23-outside-3_1_790" maskUnits="userSpaceOnUse" x="197.136" y="62.9494" width="155" height="101" fill="black">
<rect fill="white" x="197.136" y="62.9494" width="155" height="101"/>
<path fill-rule="evenodd" clip-rule="evenodd" d="M256.175 74.2855C230.601 81.0625 211.75 109.232 217.585 132.127C209.29 135.604 201.985 140.978 208.876 146.855C216.067 152.989 222.36 151.418 227.52 147.989C246.85 160.636 295.079 153.49 311.209 151.051C317.195 150.145 321.325 148.651 324.176 147.043C338.035 149.047 346.326 143.648 343.005 136.752C341.49 133.605 338.094 131.811 334.163 130.865C344.596 95.2004 311.656 75.7683 285.782 72.5822C275.131 71.2707 264.518 72.0745 256.175 74.2855Z"/>
</mask>
<path d="M217.585 132.127L220.775 139.736L227.337 136.985L225.58 130.09L217.585 132.127ZM256.175 74.2855L254.061 66.3108L256.175 74.2855ZM208.876 146.855L214.229 140.578H214.229L208.876 146.855ZM227.52 147.989L232.037 141.085L227.485 138.107L222.954 141.118L227.52 147.989ZM311.209 151.051L309.976 142.893L309.976 142.893L311.209 151.051ZM324.176 147.043L325.356 138.878L322.573 138.476L320.123 139.857L324.176 147.043ZM343.005 136.752L335.572 140.331L335.572 140.331L343.005 136.752ZM334.163 130.865L326.245 128.548L323.814 136.859L332.232 138.885L334.163 130.865ZM285.782 72.5822L284.774 80.7703L285.782 72.5822ZM225.58 130.09C223.386 121.484 225.711 111.104 231.962 101.744C238.179 92.4358 247.694 85.0676 258.288 82.2603L254.061 66.3108C239.082 70.2804 226.385 80.3856 218.241 92.5804C210.131 104.723 205.949 119.876 209.591 134.165L225.58 130.09ZM214.229 140.578C213.453 139.916 214.204 140.233 214.362 141.649C214.527 143.123 213.845 143.912 213.988 143.732C214.173 143.5 214.782 142.903 216.113 142.074C217.379 141.287 218.973 140.491 220.775 139.736L214.396 124.519C210.092 126.323 204.477 129.191 201.083 133.451C199.225 135.783 197.49 139.235 197.964 143.478C198.431 147.663 200.853 150.856 203.522 153.132L214.229 140.578ZM222.954 141.118C221.105 142.347 219.781 142.743 218.815 142.76C218.054 142.773 216.578 142.582 214.229 140.578L203.522 153.132C208.365 157.263 213.631 159.353 219.105 159.257C224.373 159.165 228.776 157.06 232.086 154.86L222.954 141.118ZM309.976 142.893C301.921 144.111 286.26 146.437 270.309 146.931C262.333 147.178 254.503 146.958 247.65 145.979C240.666 144.981 235.405 143.289 232.037 141.085L223.003 154.893C229.3 159.012 237.316 161.17 245.316 162.313C253.446 163.475 262.306 163.687 270.82 163.423C287.848 162.896 304.367 160.429 312.443 159.208L309.976 142.893ZM320.123 139.857C318.333 140.867 315.21 142.102 309.976 142.893L312.443 159.208C319.181 158.189 324.317 156.435 328.228 154.229L320.123 139.857ZM322.995 155.208C330.916 156.353 338.56 155.618 344.164 152.376C347.053 150.705 349.805 148.102 351.163 144.378C352.571 140.518 352.073 136.568 350.438 133.173L335.572 140.331C335.597 140.384 335.308 139.695 335.662 138.725C335.967 137.89 336.402 137.804 335.902 138.094C334.726 138.774 331.295 139.737 325.356 138.878L322.995 155.208ZM350.438 133.173C347.302 126.659 340.857 123.99 336.094 122.844L332.232 138.885C333.622 139.22 334.55 139.623 335.104 139.97C335.613 140.29 335.626 140.443 335.572 140.331L350.438 133.173ZM284.774 80.7703C296.384 82.2 309.291 87.293 317.888 95.5085C326.055 103.314 330.51 113.968 326.245 128.548L342.081 133.181C348.249 112.097 341.45 95.203 329.287 83.5797C317.554 72.3666 301.054 66.1505 286.79 64.394L284.774 80.7703ZM258.288 82.2603C265.55 80.3358 275.1 79.5791 284.774 80.7703L286.79 64.394C275.163 62.9622 263.486 63.8132 254.061 66.3108L258.288 82.2603Z" fill="black" mask="url(#path-23-outside-3_1_790)"/>
</g>
<path d="M318.564 90.9244L310.31 95.9636C308.108 97.3083 308.081 100.497 310.26 101.879L319.831 107.948" stroke="black" stroke-width="5.775" stroke-linecap="round"/>
<path d="M234.139 97.205L243.048 100.967C245.425 101.971 245.924 105.121 243.973 106.811L235.406 114.229" stroke="black" stroke-width="5.775" stroke-linecap="round"/>
<path d="M273.641 111.797C270.565 114.398 267.508 114.314 264.993 113.19C264.03 118.954 265.235 130.312 277.758 129.625C290.281 128.938 290.29 117.513 288.729 111.887C285.824 113.854 282.595 112.973 280.007 111.33C278.081 110.107 275.383 110.324 273.641 111.797Z" fill="#F55757"/>
<path d="M260.244 109.302C261.29 110.7 262.965 112.283 264.993 113.19M292.247 107.546C291.188 109.643 289.989 111.033 288.729 111.887M264.993 113.19C267.508 114.314 270.565 114.398 273.641 111.797C275.383 110.324 278.081 110.107 280.007 111.33C282.595 112.973 285.824 113.854 288.729 111.887M264.993 113.19C264.03 118.954 265.235 130.312 277.758 129.625C290.281 128.938 290.29 117.513 288.729 111.887" stroke="black" stroke-width="5.775" stroke-linecap="round"/>
</svg>
