<svg width="501" height="551" viewBox="0 0 501 551" fill="none" xmlns="http://www.w3.org/2000/svg">
<path d="M114.927 418.571C128.891 423.442 143.669 421.384 155.76 418.038C169.105 414.344 178.176 401.855 179.728 388.096L195.213 250.835C197.606 229.62 181.19 208.128 159.866 207.088C144.049 206.316 127.396 207.196 117.406 213.19C81.1136 234.965 84.1561 407.837 114.927 418.571Z" fill="#FF992E" stroke="black" stroke-width="21.4684"/>
<mask id="mask0_1_411" style="mask-type:alpha" maskUnits="userSpaceOnUse" x="80" y="196" width="127" height="237">
<path d="M114.927 418.571C128.891 423.442 143.669 421.384 155.76 418.038C169.105 414.344 178.176 401.855 179.728 388.096L195.213 250.835C197.606 229.62 181.19 208.128 159.866 207.088C144.049 206.316 127.396 207.196 117.406 213.19C81.1136 234.965 84.1561 407.837 114.927 418.571Z" fill="#E453BD" stroke="#63114C" stroke-width="21.4684"/>
</mask>
<g mask="url(#mask0_1_411)">
<path d="M174.655 258.274C129.428 244.534 71.8452 269.724 48.707 284.036C48.707 357.315 82.1023 435.269 98.8 465.086H174.655V258.274Z" fill="#D65D29" fill-opacity="0.55"/>
<path d="M114.927 418.571C128.891 423.442 143.669 421.384 155.76 418.038C169.105 414.344 178.176 401.855 179.728 388.096L195.213 250.835C197.606 229.62 181.19 208.128 159.866 207.088C144.049 206.316 127.396 207.196 117.406 213.19C81.1136 234.965 84.1561 407.837 114.927 418.571Z" stroke="black" stroke-width="21.4684"/>
</g>
<path d="M168.214 193.868C150.947 237.902 143.735 384.745 152.095 469.797C152.721 476.163 156.242 481.91 162.011 484.674C183.013 494.734 220.178 503.243 251.226 479.802L261.96 420.002L283.786 416.782L304.718 414.456C308.01 455.389 308.117 475.851 312.053 479.802C322.89 495.21 352.19 487.284 369.818 481.109C377.456 478.434 382.876 471.396 383.851 463.362C408.402 261.064 369.111 176.557 341.788 151.335C313.879 125.573 196.839 120.876 168.214 193.868Z" fill="#FF992E"/>
<path d="M325.649 412.131L304.718 414.456M304.718 414.456L283.786 416.782L261.96 420.002L251.226 479.802C220.178 503.243 183.013 494.734 162.011 484.674C156.242 481.91 152.721 476.163 152.095 469.797C143.735 384.745 150.947 237.902 168.214 193.868C196.839 120.876 313.879 125.573 341.788 151.335C369.111 176.557 408.402 261.064 383.851 463.362C382.876 471.396 377.456 478.434 369.818 481.109C352.19 487.284 322.89 495.21 312.053 479.802C308.117 475.851 308.01 455.389 304.718 414.456Z" stroke="black" stroke-width="20" stroke-linecap="round" stroke-linejoin="round"/>
<mask id="mask1_1_411" style="mask-type:alpha" maskUnits="userSpaceOnUse" x="138" y="124" width="264" height="381">
<path d="M168.214 193.868C150.947 237.902 143.735 384.745 152.095 469.797C152.721 476.163 156.242 481.91 162.011 484.674C183.013 494.734 220.178 503.243 251.226 479.802L261.96 420.002L283.786 416.782L304.718 414.456C308.01 455.389 308.117 475.851 312.053 479.802C322.89 495.21 352.19 487.284 369.818 481.109C377.456 478.434 382.876 471.396 383.851 463.362C408.402 261.064 369.111 176.557 341.788 151.335C313.879 125.573 196.839 120.876 168.214 193.868Z" fill="#E752BE"/>
<path d="M325.649 412.131L304.718 414.456M304.718 414.456L283.786 416.782L261.96 420.002L251.226 479.802C220.178 503.243 183.013 494.734 162.011 484.674C156.242 481.91 152.721 476.163 152.095 469.797C143.735 384.745 150.947 237.902 168.214 193.868C196.839 120.876 313.879 125.573 341.788 151.335C369.111 176.557 408.402 261.064 383.851 463.362C382.876 471.396 377.456 478.434 369.818 481.109C352.19 487.284 322.89 495.21 312.053 479.802C308.117 475.851 308.01 455.389 304.718 414.456Z" stroke="#63114C" stroke-width="20" stroke-linecap="round" stroke-linejoin="round"/>
</mask>
<g mask="url(#mask1_1_411)">
<path d="M340.677 376.35C365.867 366.045 382.183 324.11 386.476 293.339L394.348 546.666H139.59V138.051H203.279C167.499 225.355 176.802 316.238 212.582 364.9C235.352 395.867 309.19 389.231 340.677 376.35Z" fill="#D65D29" fill-opacity="0.55"/>
<path d="M325.649 412.131L304.718 414.456M304.718 414.456L283.786 416.782L261.96 420.002L251.226 479.802C220.178 503.243 183.013 494.734 162.011 484.674C156.242 481.91 152.721 476.163 152.095 469.797C143.735 384.745 150.947 237.902 168.214 193.868C196.839 120.876 313.879 125.573 341.788 151.335C369.111 176.557 408.402 261.064 383.851 463.362C382.876 471.396 377.456 478.434 369.818 481.109C352.19 487.284 322.89 495.21 312.053 479.802C308.117 475.851 308.01 455.389 304.718 414.456Z" stroke="black" stroke-width="20" stroke-linecap="round" stroke-linejoin="round"/>
</g>
<path d="M400.073 289.045C374.938 315.338 318.493 314.475 291.861 306.044C249.966 292.782 244.957 239.11 251.397 214.064C257.988 188.432 295.714 188.124 340.828 190.528C385.942 192.933 431.492 256.179 400.073 289.045Z" fill="#98C7DD" stroke="black" stroke-width="20"/>
<mask id="mask2_1_411" style="mask-type:alpha" maskUnits="userSpaceOnUse" x="239" y="179" width="182" height="143">
<path d="M400.073 289.045C374.938 315.338 318.493 314.475 291.861 306.044C249.966 292.782 244.957 239.11 251.397 214.064C257.988 188.432 295.714 188.124 340.828 190.528C385.942 192.933 431.492 256.179 400.073 289.045Z" fill="#98C7DD" stroke="#3D3436" stroke-width="20"/>
</mask>
<g mask="url(#mask2_1_411)">
<path d="M366.439 223.924C360.714 214.192 327.693 212.474 312.188 212.474C308.849 212.474 302.456 214.907 303.601 224.64C305.032 236.805 338.666 243.246 353.694 243.246C368.722 243.246 373.595 236.09 366.439 223.924Z" fill="#FBFDFD" fill-opacity="0.85"/>
<path d="M299.887 264.714C278.403 260.686 269.306 218.233 267.279 192.909C267.048 190.026 265.195 187.507 262.473 186.53L248.634 181.562C243.972 179.888 239.06 183.329 239.06 188.283V349.872C239.06 356.501 340.332 353.003 396.3 350.177C399.741 350.004 402.549 347.396 403.003 343.981L413.289 266.563C414.162 259.996 405.474 254.689 399.314 257.127C368.433 269.353 318.601 268.223 299.887 264.714Z" fill="#4B646E" fill-opacity="0.55"/>
<path d="M400.073 289.045C374.938 315.338 318.493 314.475 291.861 306.044C249.966 292.782 244.957 239.11 251.397 214.064C257.988 188.432 295.714 188.124 340.828 190.528C385.942 192.933 431.492 256.179 400.073 289.045Z" stroke="black" stroke-width="20"/>
</g>
<mask id="path-16-outside-1_1_411" maskUnits="userSpaceOnUse" x="213.091" y="56.2744" width="114" height="107" fill="black">
<rect fill="white" x="213.091" y="56.2744" width="114" height="107"/>
<path d="M228.818 128.911H310.818V141.956C310.818 147.103 306.646 151.274 301.5 151.274H238.136C232.99 151.274 228.818 147.103 228.818 141.956V128.911Z"/>
<path d="M229.524 121.456H308.954C310.818 121.456 314.359 123.879 313.614 133.57C312.868 143.261 301.487 128.663 298.704 132.638C292.182 141.956 291.25 132.638 285.659 130.774C280.068 128.911 285.659 135.433 275.409 137.297C265.159 139.161 268.886 133.57 264.227 130.774C260.153 128.33 260.5 131.706 254.909 135.433C249.318 139.161 250.25 132.638 243.727 130.774C237.204 128.911 237.204 137.297 230.682 137.297C226.492 137.297 225.826 130.288 225.888 124.953C225.91 122.985 227.556 121.456 229.524 121.456Z"/>
<path d="M225.091 117.729C225.091 112.583 229.263 108.411 234.409 108.411H305.227C310.373 108.411 314.545 112.583 314.545 117.729C314.545 122.875 310.373 127.047 305.227 127.047H234.409C229.263 127.047 225.091 122.875 225.091 117.729Z"/>
<path d="M225.091 108.411C225.091 105.323 227.594 102.82 230.682 102.82H308.954C312.042 102.82 314.545 105.323 314.545 108.411C314.545 111.499 312.042 114.002 308.954 114.002H230.682C227.594 114.002 225.091 111.499 225.091 108.411Z"/>
<path d="M287.439 117.253C288.797 118.357 289.476 118.908 290.241 118.831C291.007 118.754 291.561 118.077 292.671 116.725L300.229 107.514C302.394 104.875 303.477 103.556 302.972 102.489C302.467 101.422 300.761 101.422 297.348 101.422H278.453C274.076 101.422 271.888 101.422 271.447 102.662C271.007 103.902 272.705 105.282 276.102 108.042L287.439 117.253Z"/>
<path d="M307.091 102.82C309.149 102.82 310.839 101.146 310.618 99.0997C309.674 90.3689 305.428 82.1581 298.537 75.901C290.673 68.7617 280.007 69.2829 268.886 69.2829C257.765 69.2829 247.1 68.7617 239.236 75.901C232.344 82.158 228.099 90.3689 227.155 99.0996C226.934 101.146 228.623 102.82 230.682 102.82H307.091Z"/>
<path d="M245.591 82.3199C245.591 81.2906 246.425 80.4562 247.454 80.4562H251.182C252.211 80.4562 253.045 81.2906 253.045 82.3199C253.045 83.3491 252.211 84.1835 251.182 84.1835H247.454C246.425 84.1835 245.591 83.3491 245.591 82.3199Z"/>
<path d="M253.045 91.638C253.045 90.6088 253.88 89.7744 254.909 89.7744H258.636C259.666 89.7744 260.5 90.6088 260.5 91.638C260.5 92.6673 259.666 93.5017 258.636 93.5017H254.909C253.88 93.5017 253.045 92.6673 253.045 91.638Z"/>
<path d="M275.409 82.3199C275.409 81.2906 276.243 80.4562 277.273 80.4562H281C282.029 80.4562 282.864 81.2906 282.864 82.3199C282.864 83.3491 282.029 84.1835 281 84.1835H277.273C276.243 84.1835 275.409 83.3491 275.409 82.3199Z"/>
<path d="M286.591 89.7744C286.591 88.7452 287.425 87.9108 288.454 87.9108H292.182C293.211 87.9108 294.045 88.7452 294.045 89.7744C294.045 90.8037 293.211 91.638 292.182 91.638H288.454C287.425 91.638 286.591 90.8037 286.591 89.7744Z"/>
</mask>
<path d="M228.818 128.911H310.818V141.956C310.818 147.103 306.646 151.274 301.5 151.274H238.136C232.99 151.274 228.818 147.103 228.818 141.956V128.911Z" fill="black"/>
<path d="M229.524 121.456H308.954C310.818 121.456 314.359 123.879 313.614 133.57C312.868 143.261 301.487 128.663 298.704 132.638C292.182 141.956 291.25 132.638 285.659 130.774C280.068 128.911 285.659 135.433 275.409 137.297C265.159 139.161 268.886 133.57 264.227 130.774C260.153 128.33 260.5 131.706 254.909 135.433C249.318 139.161 250.25 132.638 243.727 130.774C237.204 128.911 237.204 137.297 230.682 137.297C226.492 137.297 225.826 130.288 225.888 124.953C225.91 122.985 227.556 121.456 229.524 121.456Z" fill="black"/>
<path d="M225.091 117.729C225.091 112.583 229.263 108.411 234.409 108.411H305.227C310.373 108.411 314.545 112.583 314.545 117.729C314.545 122.875 310.373 127.047 305.227 127.047H234.409C229.263 127.047 225.091 122.875 225.091 117.729Z" fill="black"/>
<path d="M225.091 108.411C225.091 105.323 227.594 102.82 230.682 102.82H308.954C312.042 102.82 314.545 105.323 314.545 108.411C314.545 111.499 312.042 114.002 308.954 114.002H230.682C227.594 114.002 225.091 111.499 225.091 108.411Z" fill="black"/>
<path d="M287.439 117.253C288.797 118.357 289.476 118.908 290.241 118.831C291.007 118.754 291.561 118.077 292.671 116.725L300.229 107.514C302.394 104.875 303.477 103.556 302.972 102.489C302.467 101.422 300.761 101.422 297.348 101.422H278.453C274.076 101.422 271.888 101.422 271.447 102.662C271.007 103.902 272.705 105.282 276.102 108.042L287.439 117.253Z" fill="black"/>
<path d="M307.091 102.82C309.149 102.82 310.839 101.146 310.618 99.0997C309.674 90.3689 305.428 82.1581 298.537 75.901C290.673 68.7617 280.007 69.2829 268.886 69.2829C257.765 69.2829 247.1 68.7617 239.236 75.901C232.344 82.158 228.099 90.3689 227.155 99.0996C226.934 101.146 228.623 102.82 230.682 102.82H307.091Z" fill="black"/>
<path d="M245.591 82.3199C245.591 81.2906 246.425 80.4562 247.454 80.4562H251.182C252.211 80.4562 253.045 81.2906 253.045 82.3199C253.045 83.3491 252.211 84.1835 251.182 84.1835H247.454C246.425 84.1835 245.591 83.3491 245.591 82.3199Z" fill="black"/>
<path d="M253.045 91.638C253.045 90.6088 253.88 89.7744 254.909 89.7744H258.636C259.666 89.7744 260.5 90.6088 260.5 91.638C260.5 92.6673 259.666 93.5017 258.636 93.5017H254.909C253.88 93.5017 253.045 92.6673 253.045 91.638Z" fill="black"/>
<path d="M275.409 82.3199C275.409 81.2906 276.243 80.4562 277.273 80.4562H281C282.029 80.4562 282.864 81.2906 282.864 82.3199C282.864 83.3491 282.029 84.1835 281 84.1835H277.273C276.243 84.1835 275.409 83.3491 275.409 82.3199Z" fill="black"/>
<path d="M286.591 89.7744C286.591 88.7452 287.425 87.9108 288.454 87.9108H292.182C293.211 87.9108 294.045 88.7452 294.045 89.7744C294.045 90.8037 293.211 91.638 292.182 91.638H288.454C287.425 91.638 286.591 90.8037 286.591 89.7744Z" fill="black"/>
<path d="M228.818 128.911V116.911H216.818V128.911H228.818ZM310.818 128.911H322.818V116.911H310.818V128.911ZM225.888 124.953L213.888 124.816L225.888 124.953ZM264.227 130.774L258.053 141.064L264.227 130.774ZM298.704 132.638L288.874 125.756L288.874 125.756L298.704 132.638ZM276.102 108.042L283.669 98.7288L283.669 98.7288L276.102 108.042ZM300.229 107.514L309.506 115.125V115.125L300.229 107.514ZM292.671 116.725L283.394 109.113V109.113L292.671 116.725ZM287.439 117.253L279.872 126.567L279.872 126.567L287.439 117.253ZM298.537 75.901L306.603 67.0164L298.537 75.901ZM239.236 75.901L231.17 67.0164L239.236 75.901ZM227.155 99.0996L215.225 97.8097L227.155 99.0996ZM310.618 99.0997L322.548 97.8097L310.618 99.0997ZM228.818 140.911H310.818V116.911H228.818V140.911ZM298.818 128.911V141.956H322.818V128.911H298.818ZM301.5 139.274H238.136V163.274H301.5V139.274ZM240.818 141.956V128.911H216.818V141.956H240.818ZM238.136 139.274C239.617 139.274 240.818 140.475 240.818 141.956H216.818C216.818 153.73 226.363 163.274 238.136 163.274V139.274ZM298.818 141.956C298.818 140.475 300.019 139.274 301.5 139.274V163.274C313.274 163.274 322.818 153.73 322.818 141.956H298.818ZM213.888 124.816C213.855 127.743 213.974 132.246 215.141 136.384C215.723 138.444 216.829 141.407 219.142 144.04C221.781 147.043 225.766 149.297 230.682 149.297V125.297C231.891 125.297 233.212 125.564 234.482 126.177C235.72 126.774 236.6 127.548 237.171 128.198C238.183 129.349 238.341 130.226 238.24 129.868C238.176 129.642 238.06 129.079 237.979 128.12C237.901 127.203 237.874 126.167 237.887 125.091L213.888 124.816ZM230.682 149.297C235.233 149.297 238.916 147.725 241.711 145.649C244.015 143.937 245.816 141.718 246.235 141.239C247.132 140.214 246.605 141.03 245.343 141.679C244.542 142.09 243.571 142.397 242.518 142.481C241.505 142.562 240.768 142.409 240.431 142.313L247.024 119.236C242.775 118.022 238.374 118.275 234.366 120.336C231.066 122.033 228.908 124.596 228.174 125.435C225.801 128.147 227.644 125.297 230.682 125.297V149.297ZM240.431 142.313C239.654 142.091 238.509 140.786 240.822 143.309C241.668 144.232 244.743 147.651 249.993 148.415C255.211 149.174 259.33 146.909 261.565 145.418L248.253 125.449C248.104 125.548 248.479 125.269 249.284 125C250.175 124.702 251.642 124.402 253.448 124.665C255.275 124.931 256.655 125.656 257.512 126.255C258.249 126.771 258.63 127.22 258.513 127.092C258.263 126.819 254.324 121.322 247.024 119.236L240.431 142.313ZM261.565 145.418C263.743 143.966 265.352 142.536 266.558 141.352C267.117 140.803 267.617 140.278 267.885 139.999C268.236 139.635 268.239 139.642 268.143 139.728C267.93 139.919 265.876 141.762 262.431 141.932C260.896 142.008 259.696 141.712 258.99 141.47C258.331 141.243 257.987 141.025 258.053 141.064L270.401 120.485C268.736 119.485 265.469 117.753 261.247 117.962C256.545 118.194 253.465 120.656 252.131 121.851C248.894 124.75 250.295 124.087 248.253 125.449L261.565 145.418ZM258.053 141.064C256.814 140.321 256.109 139.261 255.872 138.81C255.859 138.786 255.84 138.74 256.121 139.38C256.313 139.817 256.79 140.915 257.502 142.072C259.328 145.039 262.351 147.858 266.946 149.064C270.64 150.034 274.386 149.68 277.556 149.104L273.262 125.491C272.406 125.646 271.995 125.668 271.906 125.67C271.813 125.672 272.266 125.647 273.04 125.851C273.893 126.075 274.96 126.531 276.005 127.35C277.023 128.15 277.633 128.992 277.941 129.494C278.187 129.893 278.285 130.162 278.099 129.736C278.001 129.514 277.603 128.572 277.125 127.66C276.591 126.642 275.812 125.355 274.663 124.04C273.494 122.701 272.082 121.493 270.401 120.485L258.053 141.064ZM277.556 149.104C281.452 148.395 285.186 147.007 288.27 144.416C291.535 141.671 292.916 138.538 293.582 136.674C293.719 136.291 293.84 135.918 293.878 135.8C293.944 135.601 293.914 135.7 293.85 135.865C293.784 136.036 293.093 137.938 291.151 139.68C290.095 140.627 288.848 141.371 287.483 141.85C286.167 142.311 284.998 142.435 284.142 142.443C283.309 142.45 282.687 142.348 282.365 142.284C282.192 142.249 282.063 142.216 281.986 142.195C281.907 142.173 281.865 142.159 281.864 142.159L289.454 119.39C288.234 118.984 286.255 118.423 283.925 118.444C281.192 118.468 277.916 119.313 275.13 121.81C272.765 123.931 271.79 126.372 271.473 127.191C271.283 127.68 271.136 128.13 271.079 128.303C271.038 128.429 271.023 128.475 271.002 128.538C270.985 128.589 270.979 128.605 270.98 128.602C271.063 128.369 271.571 127.099 272.827 126.044C273.901 125.141 274.491 125.267 273.262 125.491L277.556 149.104ZM281.864 142.159C280.542 141.718 280.03 141.015 280.591 141.584C280.94 141.939 281.058 142.086 281.757 142.834C282.254 143.366 283.179 144.344 284.336 145.27C285.508 146.207 287.456 147.537 290.137 148.241C293.066 149.01 296.093 148.829 298.898 147.782C303.639 146.012 306.697 142.146 308.535 139.52L288.874 125.756C288.331 126.532 288.105 126.735 288.196 126.647C288.264 126.582 289.026 125.85 290.504 125.298C292.216 124.659 294.246 124.507 296.232 125.028C297.97 125.485 299.031 126.291 299.329 126.529C299.612 126.756 299.678 126.86 299.291 126.446C299.105 126.247 298.313 125.376 297.687 124.74C296.297 123.33 293.572 120.763 289.454 119.39L281.864 142.159ZM308.954 133.456C304.707 133.456 302.461 130.927 301.811 129.775C301.232 128.749 301.922 129.105 301.649 132.65L325.578 134.49C326.051 128.344 325.343 122.643 322.714 117.983C320.014 113.197 315.065 109.456 308.954 109.456V133.456ZM301.649 132.65C301.649 132.648 301.673 132.302 301.838 131.737C302.004 131.172 302.368 130.197 303.152 129.113C303.979 127.971 305.162 126.868 306.705 126.073C308.219 125.294 309.672 125.019 310.805 124.967C311.891 124.916 312.711 125.066 313.147 125.169C313.593 125.275 313.86 125.385 313.903 125.403C313.939 125.418 313.709 125.319 313.026 124.915C312.108 124.373 311.917 124.231 310.635 123.459C309.74 122.921 308.435 122.157 307.007 121.517C305.768 120.963 303.235 119.933 300.11 119.934C298.391 119.935 296.281 120.246 294.117 121.288C291.898 122.356 290.142 123.945 288.874 125.756L308.535 139.52C307.615 140.834 306.274 142.071 304.527 142.912C302.836 143.726 301.257 143.934 300.117 143.934C299.022 143.935 298.219 143.747 297.833 143.639C297.43 143.527 297.203 143.423 297.199 143.422C297.184 143.415 297.265 143.451 297.47 143.563C297.67 143.674 297.924 143.821 298.261 144.024C298.61 144.234 300.094 145.151 300.82 145.58C301.78 146.147 303.161 146.929 304.701 147.569C306.082 148.142 308.711 149.089 311.917 148.941C315.816 148.76 319.862 146.959 322.594 143.185C324.851 140.067 325.41 136.677 325.578 134.49L301.649 132.65ZM229.524 109.456C221.417 109.456 213.991 115.848 213.888 124.816L237.887 125.091C237.829 130.122 233.695 133.456 229.524 133.456V109.456ZM234.409 120.411H305.227V96.4108H234.409V120.411ZM305.227 115.047H234.409V139.047H305.227V115.047ZM234.409 115.047C235.89 115.047 237.091 116.248 237.091 117.729H213.091C213.091 129.503 222.635 139.047 234.409 139.047V115.047ZM302.545 117.729C302.545 116.248 303.746 115.047 305.227 115.047V139.047C317.001 139.047 326.545 129.503 326.545 117.729H302.545ZM305.227 120.411C303.746 120.411 302.545 119.21 302.545 117.729H326.545C326.545 105.955 317.001 96.4108 305.227 96.4108V120.411ZM234.409 96.4108C222.635 96.4108 213.091 105.955 213.091 117.729H237.091C237.091 119.21 235.89 120.411 234.409 120.411V96.4108ZM230.682 114.82H308.954V90.8199H230.682V114.82ZM308.954 102.002H230.682V126.002H308.954V102.002ZM230.682 102.002C234.221 102.002 237.091 104.871 237.091 108.411H213.091C213.091 118.126 220.967 126.002 230.682 126.002V102.002ZM302.545 108.411C302.545 104.871 305.415 102.002 308.954 102.002V126.002C318.67 126.002 326.545 118.126 326.545 108.411H302.545ZM308.954 114.82C305.415 114.82 302.545 111.95 302.545 108.411H326.545C326.545 98.6956 318.67 90.8199 308.954 90.8199V114.82ZM230.682 90.8199C220.967 90.8199 213.091 98.6956 213.091 108.411H237.091C237.091 111.95 234.221 114.82 230.682 114.82V90.8199ZM301.948 124.337L309.506 115.125L290.952 99.9019L283.394 109.113L301.948 124.337ZM297.348 89.4221H278.453V113.422H297.348V89.4221ZM268.535 117.356L279.872 126.567L295.006 107.94L283.669 98.7288L268.535 117.356ZM278.453 89.4221C276.654 89.4221 274.018 89.395 271.87 89.6848C270.622 89.8531 262.914 90.831 260.139 98.6473L282.756 106.677C282.266 108.058 281.492 109.341 280.477 110.431C279.493 111.488 278.465 112.167 277.647 112.593C276.85 113.007 276.185 113.216 275.801 113.318C275.409 113.423 275.144 113.461 275.078 113.469C274.991 113.481 275.166 113.454 275.854 113.438C276.512 113.423 277.315 113.422 278.453 113.422V89.4221ZM283.669 98.7288C282.787 98.0117 282.164 97.5046 281.663 97.078C281.139 96.6315 281.02 96.5001 281.08 96.5641C281.126 96.6128 281.308 96.8091 281.546 97.137C281.779 97.4589 282.164 98.0409 282.521 98.8648C282.888 99.7104 283.257 100.886 283.354 102.327C283.455 103.812 283.246 105.297 282.756 106.677L260.139 98.6473C257.364 106.464 262.73 112.083 263.592 113.001C265.077 114.58 267.14 116.222 268.535 117.356L283.669 98.7288ZM309.506 115.125C310.33 114.121 311.84 112.33 312.878 110.608C313.82 109.046 316.795 103.647 313.82 97.3577L292.124 107.62C291.004 105.251 290.916 102.846 291.304 100.95C291.628 99.3626 292.233 98.3682 292.325 98.2151C292.453 98.0032 292.472 98.01 292.172 98.3947C291.889 98.7589 291.523 99.2059 290.952 99.9019L309.506 115.125ZM297.348 113.422C298.248 113.422 298.825 113.423 299.287 113.435C299.774 113.447 299.768 113.466 299.523 113.43C299.346 113.405 298.193 113.242 296.76 112.485C295.049 111.582 293.245 109.99 292.124 107.62L313.82 97.3577C310.845 91.0682 304.784 89.9433 302.978 89.6805C300.989 89.391 298.646 89.4221 297.348 89.4221V113.422ZM283.394 109.113C283.088 109.486 282.95 109.654 282.849 109.771C282.744 109.892 282.87 109.734 283.145 109.478C283.425 109.217 284.082 108.642 285.094 108.096C286.197 107.502 287.534 107.043 289.035 106.892L291.447 130.77C295.476 130.363 298.155 128.296 299.509 127.034C300.608 126.01 301.608 124.751 301.948 124.337L283.394 109.113ZM279.872 126.567C280.288 126.905 281.519 127.938 282.801 128.722C284.38 129.688 287.419 131.177 291.447 130.77L289.035 106.892C290.536 106.74 291.938 106.922 293.137 107.284C294.238 107.616 294.997 108.048 295.323 108.248C295.643 108.443 295.799 108.573 295.672 108.475C295.55 108.381 295.38 108.244 295.006 107.94L279.872 126.567ZM322.548 97.8097C321.273 86.0141 315.557 75.1461 306.603 67.0164L290.47 84.7856C295.3 89.17 298.074 94.7238 298.687 100.39L322.548 97.8097ZM306.603 67.0164C300.385 61.3715 293.271 59.0393 286.727 58.0496C280.556 57.1163 273.933 57.2829 268.886 57.2829L268.886 81.2829C274.961 81.2829 279.231 81.1888 283.139 81.7798C286.673 82.3143 288.824 83.2912 290.47 84.7856L306.603 67.0164ZM268.886 57.2829C263.84 57.2829 257.217 57.1163 251.045 58.0496C244.501 59.0393 237.388 61.3715 231.17 67.0164L247.302 84.7856C248.948 83.2912 251.099 82.3143 254.634 81.7798C258.542 81.1888 262.812 81.2829 268.886 81.2829L268.886 57.2829ZM231.17 67.0164C222.215 75.1461 216.5 86.014 215.225 97.8097L239.085 100.39C239.698 94.7238 242.473 89.17 247.302 84.7856L231.17 67.0164ZM215.225 97.8097C214.142 107.822 222.389 114.82 230.682 114.82L230.682 90.8199C234.858 90.8199 239.725 94.4709 239.085 100.39L215.225 97.8097ZM298.687 100.39C298.047 94.4709 302.915 90.8199 307.091 90.8199V114.82C315.384 114.82 323.63 107.822 322.548 97.8097L298.687 100.39ZM247.454 92.4562H251.182V68.4562H247.454V92.4562ZM251.182 72.1835H247.454V96.1835H251.182V72.1835ZM247.454 72.1835C253.053 72.1835 257.591 76.7217 257.591 82.3199H233.591C233.591 89.9765 239.798 96.1835 247.454 96.1835V72.1835ZM241.045 82.3199C241.045 76.7217 245.584 72.1835 251.182 72.1835V96.1835C258.838 96.1835 265.045 89.9765 265.045 82.3199H241.045ZM251.182 92.4562C245.584 92.4562 241.045 87.918 241.045 82.3199H265.045C265.045 74.6632 258.838 68.4562 251.182 68.4562V92.4562ZM247.454 68.4562C239.798 68.4562 233.591 74.6632 233.591 82.3199H257.591C257.591 87.918 253.053 92.4562 247.454 92.4562V68.4562ZM254.909 101.774H258.636V77.7744H254.909V101.774ZM258.636 81.5017H254.909V105.502H258.636V81.5017ZM254.909 81.5017C260.507 81.5017 265.045 86.0399 265.045 91.638H241.045C241.045 99.2947 247.252 105.502 254.909 105.502V81.5017ZM248.5 91.638C248.5 86.0399 253.038 81.5017 258.636 81.5017V105.502C266.293 105.502 272.5 99.2947 272.5 91.638H248.5ZM258.636 101.774C253.038 101.774 248.5 97.2362 248.5 91.638H272.5C272.5 83.9814 266.293 77.7744 258.636 77.7744V101.774ZM254.909 77.7744C247.252 77.7744 241.045 83.9814 241.045 91.638H265.045C265.045 97.2362 260.507 101.774 254.909 101.774V77.7744ZM277.273 92.4562H281V68.4562H277.273V92.4562ZM281 72.1835H277.273V96.1835H281V72.1835ZM277.273 72.1835C282.871 72.1835 287.409 76.7217 287.409 82.3199H263.409C263.409 89.9765 269.616 96.1835 277.273 96.1835V72.1835ZM270.864 82.3199C270.864 76.7217 275.402 72.1835 281 72.1835V96.1835C288.657 96.1835 294.864 89.9765 294.864 82.3199H270.864ZM281 92.4562C275.402 92.4562 270.864 87.918 270.864 82.3199H294.864C294.864 74.6632 288.657 68.4562 281 68.4562V92.4562ZM277.273 68.4562C269.616 68.4562 263.409 74.6632 263.409 82.3199H287.409C287.409 87.918 282.871 92.4562 277.273 92.4562V68.4562ZM288.454 99.9108H292.182V75.9108H288.454V99.9108ZM292.182 79.638H288.454V103.638H292.182V79.638ZM288.454 79.638C294.053 79.638 298.591 84.1763 298.591 89.7744H274.591C274.591 97.4311 280.798 103.638 288.454 103.638V79.638ZM282.045 89.7744C282.045 84.1763 286.584 79.638 292.182 79.638V103.638C299.838 103.638 306.045 97.4311 306.045 89.7744H282.045ZM292.182 99.9108C286.584 99.9108 282.045 95.3726 282.045 89.7744H306.045C306.045 82.1177 299.838 75.9108 292.182 75.9108V99.9108ZM288.454 75.9108C280.798 75.9108 274.591 82.1177 274.591 89.7744H298.591C298.591 95.3726 294.053 99.9108 288.454 99.9108V75.9108ZM308.954 109.456H229.524V133.456H308.954V109.456ZM230.682 114.82H307.091V90.8199H230.682V114.82Z" fill="black" mask="url(#path-16-outside-1_1_411)"/>
<path d="M228.818 128.911H310.818V144.579C310.818 148.276 307.82 151.274 304.122 151.274H235.514C231.816 151.274 228.818 148.276 228.818 144.579V128.911Z" fill="#FF992E"/>
<rect x="225.091" y="117.467" width="89.4545" height="18.6364" rx="9.31818" fill="#7F5544"/>
<rect x="225.091" y="109.555" width="89.4545" height="11.1818" rx="5.59091" fill="#FF6B6B"/>
<path d="M228.539 101.643H243.727H308.954C310.818 101.643 314.359 104.066 313.613 113.756C312.868 123.447 301.487 108.85 298.704 112.825C292.182 122.143 291.25 112.825 285.659 110.961C280.068 109.097 285.659 115.62 275.409 117.484C265.159 119.347 268.886 113.756 264.227 110.961C260.153 108.516 260.5 111.893 254.909 115.62C249.318 119.347 250.25 112.825 243.727 110.961C237.204 109.097 237.204 117.484 230.682 117.484C226.228 117.484 225.756 109.564 225.907 104.154C225.946 102.74 227.124 101.643 228.539 101.643Z" fill="#61C156"/>
<path d="M288.249 117.413C289.225 118.206 289.713 118.602 290.263 118.547C290.813 118.491 291.211 118.005 292.009 117.033L301.636 105.301C303.191 103.405 303.969 102.457 303.607 101.69C303.244 100.924 302.018 100.924 299.565 100.924H275.498C272.353 100.924 270.781 100.924 270.464 101.815C270.148 102.706 271.368 103.697 273.809 105.68L288.249 117.413Z" fill="#FFDC64"/>
<path d="M308.14 102.82C309.619 102.82 310.829 101.619 310.714 100.144C310.007 91.0253 305.703 82.407 298.536 75.901C290.673 68.7617 280.007 69.2829 268.886 69.2829C257.765 69.2829 247.1 68.7617 239.236 75.901C232.07 82.407 227.765 91.0253 227.058 100.144C226.944 101.619 228.153 102.82 229.633 102.82L268.886 102.82H308.14Z" fill="#FF992E"/>
<circle cx="248.828" cy="76.827" r="1.07895" fill="#B7651C"/>
<circle cx="290.547" cy="81.8622" r="1.79825" fill="#B7651C"/>
<circle cx="261.775" cy="84.7393" r="1.07895" fill="#B7651C"/>
<circle cx="293.424" cy="94.8094" r="1.07895" fill="#B7651C"/>
<circle cx="242.354" cy="94.8095" r="1.79825" fill="#B7651C"/>
</svg>
