<svg width="501" height="551" viewBox="0 0 501 551" fill="none" xmlns="http://www.w3.org/2000/svg">
<path d="M138.927 416.571C152.891 421.442 167.669 419.384 179.759 416.038C193.104 412.344 202.176 399.855 203.728 386.096L219.212 248.835C221.606 227.62 205.19 206.128 183.866 205.088C168.049 204.316 151.396 205.196 141.406 211.19C105.113 232.965 108.156 405.837 138.927 416.571Z" fill="#FF2D20" stroke="black" stroke-width="21.4684"/>
<mask id="mask0_1_838" style="mask-type:alpha" maskUnits="userSpaceOnUse" x="104" y="194" width="127" height="237">
<path d="M138.927 416.571C152.891 421.442 167.669 419.384 179.759 416.038C193.104 412.344 202.176 399.855 203.728 386.096L219.212 248.835C221.606 227.62 205.19 206.128 183.866 205.088C168.049 204.316 151.396 205.196 141.406 211.19C105.113 232.965 108.156 405.837 138.927 416.571Z" fill="#E453BD" stroke="#63114C" stroke-width="21.4684"/>
</mask>
<g mask="url(#mask0_1_838)">
<path d="M198.655 256.274C153.428 242.534 95.845 267.723 72.7068 282.036C72.7068 355.315 106.102 433.269 122.8 463.086H198.655V256.274Z" fill="#9A3029" fill-opacity="0.55"/>
<path d="M138.927 416.571C152.891 421.442 167.669 419.384 179.759 416.038C193.104 412.344 202.176 399.855 203.728 386.096L219.212 248.835C221.606 227.62 205.19 206.128 183.866 205.088C168.049 204.316 151.396 205.196 141.406 211.19C105.113 232.965 108.156 405.837 138.927 416.571Z" stroke="black" stroke-width="21.4684"/>
</g>
<mask id="path-5-outside-1_1_838" maskUnits="userSpaceOnUse" x="35.509" y="55.5457" width="401" height="458" fill="black">
<rect fill="white" x="35.509" y="55.5457" width="401" height="458"/>
<path fill-rule="evenodd" clip-rule="evenodd" d="M226.603 76.9951L264.871 134.803C265.328 135.493 266.162 135.829 266.971 135.658C297.225 129.271 329.182 132.136 349.741 140.073C350.609 140.408 351.594 140.12 352.131 139.36L379.822 100.229C380.266 99.6005 381.225 99.6806 381.559 100.375C381.9 101.082 382.263 101.821 382.642 102.593L382.653 102.617L382.654 102.618C389.116 115.779 400.305 138.565 386.077 176.269C385.876 176.803 385.896 177.395 386.155 177.904C408.111 221.053 426.602 306.85 407.851 461.362C406.876 469.396 401.456 476.434 393.819 479.109C376.244 485.265 347.069 493.161 336.153 477.943C336.087 477.85 336.014 477.765 335.938 477.68C333.129 474.57 332.31 462.703 330.78 440.555C330.263 433.068 329.665 424.407 328.882 414.512C328.793 413.387 327.79 412.559 326.669 412.684L307.786 414.782L287.382 417.792C286.532 417.918 285.858 418.572 285.706 419.418L275.364 477.031C275.275 477.527 274.998 477.975 274.593 478.275C243.674 501.127 206.871 492.665 186.011 482.674C180.242 479.91 176.721 474.162 176.095 467.797C174.263 449.155 173.179 427.544 172.784 404.698C172.756 403.087 170.925 402.155 169.573 403.032C150.898 415.147 131.079 417.678 116.099 397.274C92.931 365.718 91.0502 345.518 89.3578 327.341C88.6365 319.595 87.9494 312.215 85.6633 304.481C85.4967 303.918 84.8751 303.622 84.3323 303.848L57.8954 314.821C57.0634 315.167 56.2348 314.322 56.596 313.497L84.607 249.497C84.8744 248.886 85.6536 248.703 86.165 249.131L135.162 290.145C135.789 290.671 135.554 291.687 134.759 291.883L104.468 299.355C103.999 299.47 103.678 299.881 103.71 300.362C105.23 323.583 113.791 379.812 131.691 387.107C140.547 390.716 158.409 388.573 171.879 378.276C172.359 377.909 172.635 377.337 172.639 376.732C173.112 302.256 180.249 222.38 192.215 191.868C196.78 180.227 203.594 170.561 211.937 162.642C212.474 162.133 212.693 161.361 212.511 160.643C202.17 119.917 215.322 95.1109 223.202 80.2482L223.202 80.2471L223.204 80.2435C223.789 79.1398 224.346 78.0909 224.861 77.0944C225.214 76.4103 226.178 76.3529 226.603 76.9951Z"/>
</mask>
<path fill-rule="evenodd" clip-rule="evenodd" d="M226.603 76.9951L264.871 134.803C265.328 135.493 266.162 135.829 266.971 135.658C297.225 129.271 329.182 132.136 349.741 140.073C350.609 140.408 351.594 140.12 352.131 139.36L379.822 100.229C380.266 99.6005 381.225 99.6806 381.559 100.375C381.9 101.082 382.263 101.821 382.642 102.593L382.653 102.617L382.654 102.618C389.116 115.779 400.305 138.565 386.077 176.269C385.876 176.803 385.896 177.395 386.155 177.904C408.111 221.053 426.602 306.85 407.851 461.362C406.876 469.396 401.456 476.434 393.819 479.109C376.244 485.265 347.069 493.161 336.153 477.943C336.087 477.85 336.014 477.765 335.938 477.68C333.129 474.57 332.31 462.703 330.78 440.555C330.263 433.068 329.665 424.407 328.882 414.512C328.793 413.387 327.79 412.559 326.669 412.684L307.786 414.782L287.382 417.792C286.532 417.918 285.858 418.572 285.706 419.418L275.364 477.031C275.275 477.527 274.998 477.975 274.593 478.275C243.674 501.127 206.871 492.665 186.011 482.674C180.242 479.91 176.721 474.162 176.095 467.797C174.263 449.155 173.179 427.544 172.784 404.698C172.756 403.087 170.925 402.155 169.573 403.032C150.898 415.147 131.079 417.678 116.099 397.274C92.931 365.718 91.0502 345.518 89.3578 327.341C88.6365 319.595 87.9494 312.215 85.6633 304.481C85.4967 303.918 84.8751 303.622 84.3323 303.848L57.8954 314.821C57.0634 315.167 56.2348 314.322 56.596 313.497L84.607 249.497C84.8744 248.886 85.6536 248.703 86.165 249.131L135.162 290.145C135.789 290.671 135.554 291.687 134.759 291.883L104.468 299.355C103.999 299.47 103.678 299.881 103.71 300.362C105.23 323.583 113.791 379.812 131.691 387.107C140.547 390.716 158.409 388.573 171.879 378.276C172.359 377.909 172.635 377.337 172.639 376.732C173.112 302.256 180.249 222.38 192.215 191.868C196.78 180.227 203.594 170.561 211.937 162.642C212.474 162.133 212.693 161.361 212.511 160.643C202.17 119.917 215.322 95.1109 223.202 80.2482L223.202 80.2471L223.204 80.2435C223.789 79.1398 224.346 78.0909 224.861 77.0944C225.214 76.4103 226.178 76.3529 226.603 76.9951Z" fill="#FF2D20"/>
<path d="M226.603 76.9951L209.926 88.0349L209.926 88.0351L226.603 76.9951ZM379.822 100.229L396.148 111.782L396.148 111.782L379.822 100.229ZM381.559 100.375L399.58 91.699L399.579 91.6989L381.559 100.375ZM382.642 102.593L364.688 111.407C364.692 111.413 364.695 111.42 364.698 111.426L382.642 102.593ZM382.653 102.617L364.709 111.449C364.724 111.479 364.739 111.509 364.754 111.539L382.653 102.617ZM382.654 102.618L400.607 93.8034C400.589 93.7677 400.572 93.7321 400.554 93.6965L382.654 102.618ZM407.851 461.362L427.705 463.772V463.772L407.851 461.362ZM393.819 479.109L387.207 460.234L387.207 460.234L393.819 479.109ZM330.78 440.555L310.828 441.933L330.78 440.555ZM307.786 414.782L305.577 394.904C305.34 394.931 305.103 394.961 304.867 394.996L307.786 414.782ZM186.011 482.674L194.651 464.636L194.65 464.636L186.011 482.674ZM176.095 467.797L156.191 469.753L176.095 467.797ZM116.099 397.274L132.221 385.438L116.099 397.274ZM89.3578 327.341L69.4439 329.196L69.4439 329.196L89.3578 327.341ZM85.6633 304.481L66.4836 310.15L66.4836 310.151L85.6633 304.481ZM84.3323 303.848L91.9996 322.32H91.9997L84.3323 303.848ZM57.8954 314.821L50.2281 296.349L50.228 296.349L57.8954 314.821ZM56.596 313.497L74.918 321.516L74.918 321.516L56.596 313.497ZM84.607 249.497L66.285 241.478L66.285 241.478L84.607 249.497ZM86.165 249.131L73.3273 264.467L73.3273 264.467L86.165 249.131ZM135.162 290.145L122.324 305.481L122.324 305.482L135.162 290.145ZM134.759 291.883L129.97 272.465H129.97L134.759 291.883ZM104.468 299.355L99.6785 279.937L99.6784 279.937L104.468 299.355ZM103.71 300.362L83.7527 301.669L83.7527 301.669L103.71 300.362ZM131.691 387.107L139.239 368.586L139.239 368.586L131.691 387.107ZM192.215 191.868L173.595 184.567L192.215 191.868ZM223.202 80.2482L205.622 70.7114C205.592 70.7674 205.562 70.8235 205.532 70.8798L223.202 80.2482ZM223.202 80.2471L240.782 89.784C240.8 89.7509 240.818 89.7178 240.836 89.6846L223.202 80.2471ZM223.204 80.2435L240.838 89.681C240.85 89.6579 240.862 89.6348 240.875 89.6116L223.204 80.2435ZM224.861 77.0944L207.095 67.9091L207.095 67.9092L224.861 77.0944ZM275.364 477.031L295.049 480.565L275.364 477.031ZM274.593 478.275L286.48 494.358L274.593 478.275ZM287.382 417.792L284.463 398.007L287.382 417.792ZM285.706 419.418L305.391 422.951L285.706 419.418ZM171.879 378.276L159.732 362.387L171.879 378.276ZM172.639 376.732L152.639 376.605L172.639 376.732ZM264.871 134.803L281.548 123.763L264.871 134.803ZM266.971 135.658L271.102 155.227L266.971 135.658ZM336.153 477.943L352.404 466.286L336.153 477.943ZM335.938 477.68L321.094 491.084L335.938 477.68ZM211.937 162.642L225.706 177.149L211.937 162.642ZM212.511 160.643L193.126 165.566L212.511 160.643ZM349.741 140.073L356.944 121.415L349.741 140.073ZM352.131 139.36L335.805 127.808L352.131 139.36ZM328.882 414.512L308.944 416.09L328.882 414.512ZM326.669 412.684L328.877 432.562L326.669 412.684ZM169.573 403.032L180.458 419.81L169.573 403.032ZM386.077 176.269L404.79 183.33L386.077 176.269ZM386.155 177.904L368.33 186.974L386.155 177.904ZM281.548 123.763L243.28 65.9551L209.926 88.0351L248.194 145.843L281.548 123.763ZM356.944 121.415C332.351 111.921 296.41 109.003 262.84 116.089L271.102 155.227C298.04 149.54 326.014 152.352 342.537 158.731L356.944 121.415ZM363.496 88.6765L335.805 127.808L368.457 150.913L396.148 111.782L363.496 88.6765ZM399.579 91.6989C392.632 77.2677 372.743 75.6086 363.496 88.6765L396.148 111.782C387.79 123.592 369.818 122.094 363.539 109.05L399.579 91.6989ZM400.595 93.7798C400.208 92.9913 399.88 92.324 399.58 91.699L363.539 109.05C363.919 109.839 364.317 110.651 364.688 111.407L400.595 93.7798ZM400.597 93.7838L400.586 93.7606L364.698 111.426L364.709 111.449L400.597 93.7838ZM400.554 93.6965L400.553 93.6947L364.754 111.539L364.754 111.54L400.554 93.6965ZM404.79 183.33C413.057 161.419 414.261 142.838 411.898 127.244C409.573 111.895 403.902 100.515 400.607 93.8034L364.702 111.433C367.868 117.882 371.023 124.476 372.35 133.236C373.64 141.751 373.324 153.416 367.365 169.208L404.79 183.33ZM427.705 463.772C446.687 307.358 428.487 216.995 403.98 168.834L368.33 186.974C387.736 225.111 406.517 306.342 387.996 458.953L427.705 463.772ZM400.431 497.984C415.607 492.668 425.857 478.994 427.705 463.772L387.996 458.953C387.957 459.278 387.816 459.622 387.6 459.897C387.393 460.161 387.229 460.226 387.207 460.234L400.431 497.984ZM319.901 489.6C331.826 506.224 351.616 507.444 364.034 506.482C377.562 505.433 391.246 501.202 400.431 497.984L387.207 460.234C378.817 463.172 369.126 465.967 360.944 466.601C351.652 467.321 351.396 464.88 352.404 466.286L319.901 489.6ZM310.828 441.933C311.576 452.766 312.2 461.905 313.026 468.679C313.439 472.064 313.981 475.561 314.812 478.741C315.484 481.311 317.028 486.582 321.094 491.084L350.782 464.277C353.443 467.224 353.831 469.845 353.512 468.623C353.352 468.011 353.066 466.574 352.732 463.835C352.064 458.36 351.514 450.493 350.733 439.177L310.828 441.933ZM308.944 416.09C309.719 425.873 310.311 434.443 310.828 441.933L350.733 439.177C350.216 431.694 349.612 422.94 348.819 412.933L308.944 416.09ZM309.995 434.66L328.877 432.562L324.46 392.806L305.577 394.904L309.995 434.66ZM290.302 437.578L310.705 434.568L304.867 394.996L284.463 398.007L290.302 437.578ZM295.049 480.565L305.391 422.951L266.02 415.884L255.679 473.497L295.049 480.565ZM177.371 500.711C200.967 512.013 246.768 523.71 286.48 494.358L262.705 462.191C240.58 478.544 212.774 473.317 194.651 464.636L177.371 500.711ZM156.191 469.753C157.398 482.025 164.392 494.495 177.371 500.711L194.65 464.636C195.28 464.938 195.689 465.372 195.882 465.669C196.05 465.926 196.016 466.003 196 465.84L156.191 469.753ZM152.787 405.044C153.188 428.262 154.292 450.433 156.191 469.753L196 465.84C194.234 447.876 193.169 426.826 192.781 404.353L152.787 405.044ZM99.9774 409.111C110.506 423.452 124.492 431.62 140.571 432.328C155.533 432.987 169.32 427.036 180.458 419.81L158.688 386.253C151.151 391.143 145.691 392.515 142.33 392.367C140.085 392.268 136.671 391.501 132.221 385.438L99.9774 409.111ZM69.4439 329.196C70.2899 338.281 71.3159 349.811 75.6131 363.344C79.9412 376.973 87.2971 391.839 99.9774 409.111L132.221 385.438C121.733 371.153 116.564 360.141 113.737 351.237C110.879 342.236 110.118 334.578 109.272 325.487L69.4439 329.196ZM66.4836 310.151C68.134 315.734 68.701 321.217 69.4439 329.196L109.272 325.487C108.572 317.973 107.765 308.697 104.843 298.812L66.4836 310.151ZM91.9997 322.32C81.6062 326.634 69.6975 321.023 66.4836 310.15L104.843 298.812C101.296 286.812 88.1439 280.611 76.6649 285.376L91.9997 322.32ZM65.5628 333.293L91.9996 322.32L76.6649 285.376L50.2281 296.349L65.5628 333.293ZM38.274 305.478C30.6886 322.809 48.0902 340.546 65.5628 333.293L50.228 296.349C66.0366 289.787 81.781 305.835 74.918 321.516L38.274 305.478ZM66.285 241.478L38.274 305.478L74.918 321.516L102.929 257.516L66.285 241.478ZM99.0027 233.795C88.2631 224.805 71.9003 228.648 66.285 241.478L102.929 257.516C97.8485 269.124 83.0441 272.601 73.3273 264.467L99.0027 233.795ZM147.999 274.809L99.0027 233.795L73.3273 264.467L122.324 305.481L147.999 274.809ZM139.549 311.301C156.242 307.184 161.184 285.846 147.999 274.809L122.324 305.482C110.395 295.496 114.866 276.191 129.97 272.465L139.549 311.301ZM109.258 318.773L139.549 311.301L129.97 272.465L99.6785 279.937L109.258 318.773ZM123.667 299.056C124.31 308.881 117.566 316.723 109.258 318.773L99.6784 279.937C90.4326 282.217 83.0467 290.881 83.7527 301.669L123.667 299.056ZM139.239 368.586C141.851 369.65 140.754 370.541 137.855 364.768C135.422 359.922 133.05 353.028 130.935 344.754C126.73 328.302 124.363 309.691 123.667 299.056L83.7527 301.669C84.5765 314.255 87.2503 335.369 92.1809 354.66C94.6341 364.258 97.853 374.24 102.107 382.714C105.896 390.261 112.582 400.916 124.144 405.628L139.239 368.586ZM159.732 362.387C155.772 365.414 150.919 367.388 146.34 368.254C141.273 369.212 138.847 368.426 139.239 368.586L124.144 405.628C133.391 409.397 144.324 409.344 153.77 407.558C163.703 405.68 174.516 401.435 184.025 394.165L159.732 362.387ZM173.595 184.567C166.504 202.65 161.555 232.735 158.218 265.806C154.807 299.612 152.879 338.835 152.639 376.605L192.639 376.859C192.872 340.154 194.749 302.201 198.016 269.822C201.357 236.707 205.96 211.599 210.834 199.17L173.595 184.567ZM198.169 148.136C187.825 157.955 179.291 170.042 173.595 184.567L210.834 199.17C214.269 190.411 219.364 183.168 225.706 177.149L198.169 148.136ZM205.532 70.8798C196.895 87.1705 180.935 117.551 193.126 165.566L231.896 155.721C223.405 122.283 233.749 103.051 240.872 89.6166L205.532 70.8798ZM205.623 70.7103L205.622 70.7114L240.782 89.7851L240.782 89.784L205.623 70.7103ZM205.571 70.806L205.569 70.8096L240.836 89.6846L240.838 89.681L205.571 70.806ZM207.095 67.9092C206.636 68.7971 206.13 69.7516 205.534 70.8755L240.875 89.6116C241.449 88.528 242.055 87.3847 242.627 86.2796L207.095 67.9092ZM243.28 65.9553C234.31 52.4058 214.361 53.855 207.095 67.9091L242.627 86.2797C236.068 98.9656 218.045 100.3 209.926 88.0349L243.28 65.9553ZM255.679 473.497C256.486 469.001 258.977 464.947 262.705 462.191L286.48 494.358C291.018 491.004 294.064 486.052 295.049 480.565L255.679 473.497ZM284.463 398.007C275.114 399.386 267.69 406.582 266.02 415.884L305.391 422.951C304.025 430.562 297.951 436.45 290.302 437.578L284.463 398.007ZM184.025 394.165C189.576 389.921 192.597 383.45 192.639 376.859L152.639 376.605C152.674 371.223 155.142 365.896 159.732 362.387L184.025 394.165ZM248.194 145.843C253.239 153.464 262.368 157.07 271.102 155.227L262.84 116.089C269.955 114.587 277.416 117.521 281.548 123.763L248.194 145.843ZM352.404 466.286C351.725 465.339 351.104 464.633 350.782 464.277L321.094 491.084C320.924 490.896 320.448 490.362 319.901 489.6L352.404 466.286ZM225.706 177.149C231.555 171.597 233.838 163.37 231.896 155.721L193.126 165.566C191.548 159.351 193.393 152.669 198.169 148.136L225.706 177.149ZM342.537 158.731C351.789 162.303 362.53 159.29 368.457 150.913L335.805 127.808C340.658 120.951 349.428 118.514 356.944 121.415L342.537 158.731ZM348.819 412.933C347.838 400.536 336.793 391.436 324.46 392.806L328.877 432.562C318.787 433.683 309.748 426.237 308.944 416.09L348.819 412.933ZM192.781 404.353C192.47 386.322 172.61 377.222 158.688 386.253L180.458 419.81C169.24 427.087 153.043 419.852 152.787 405.044L192.781 404.353ZM367.365 169.208C365.294 174.698 365.375 181.166 368.33 186.974L403.98 168.834C406.417 173.623 406.458 178.909 404.79 183.33L367.365 169.208Z" fill="black" mask="url(#path-5-outside-1_1_838)"/>
<mask id="mask1_1_838" style="mask-type:alpha" maskUnits="userSpaceOnUse" x="36" y="56" width="400" height="457">
<mask id="path-7-outside-2_1_838" maskUnits="userSpaceOnUse" x="35.509" y="55.5457" width="401" height="458" fill="black">
<rect fill="white" x="35.509" y="55.5457" width="401" height="458"/>
<path fill-rule="evenodd" clip-rule="evenodd" d="M226.603 76.9951L264.871 134.803C265.328 135.493 266.162 135.829 266.971 135.658C297.225 129.271 329.182 132.136 349.741 140.073C350.609 140.408 351.594 140.12 352.131 139.36L379.822 100.229C380.266 99.6005 381.225 99.6806 381.559 100.375C381.9 101.082 382.263 101.821 382.642 102.593L382.653 102.617L382.654 102.618C389.116 115.779 400.305 138.565 386.077 176.269C385.876 176.803 385.896 177.395 386.155 177.904C408.111 221.053 426.602 306.85 407.851 461.362C406.876 469.396 401.456 476.434 393.819 479.109C376.244 485.265 347.069 493.161 336.153 477.943C336.087 477.85 336.014 477.765 335.938 477.68C333.129 474.57 332.31 462.703 330.78 440.555C330.263 433.068 329.665 424.407 328.882 414.512C328.793 413.387 327.79 412.559 326.669 412.684L307.786 414.782L287.382 417.792C286.532 417.918 285.858 418.572 285.706 419.418L275.364 477.031C275.275 477.527 274.998 477.975 274.593 478.275C243.674 501.127 206.871 492.665 186.011 482.674C180.242 479.91 176.721 474.162 176.095 467.797C174.263 449.155 173.179 427.544 172.784 404.698C172.756 403.087 170.925 402.155 169.573 403.032C150.898 415.147 131.079 417.678 116.099 397.274C92.931 365.718 91.0502 345.518 89.3578 327.341C88.6365 319.595 87.9494 312.215 85.6633 304.481C85.4967 303.918 84.8751 303.622 84.3323 303.848L57.8954 314.821C57.0634 315.167 56.2348 314.322 56.596 313.497L84.607 249.497C84.8744 248.886 85.6536 248.703 86.165 249.131L135.162 290.145C135.789 290.671 135.554 291.687 134.759 291.883L104.468 299.355C103.999 299.47 103.678 299.881 103.71 300.362C105.23 323.583 113.791 379.812 131.691 387.107C140.547 390.716 158.409 388.573 171.879 378.276C172.359 377.909 172.635 377.337 172.639 376.732C173.112 302.256 180.249 222.38 192.215 191.868C196.78 180.227 203.594 170.561 211.937 162.642C212.474 162.133 212.693 161.361 212.511 160.643C202.17 119.917 215.322 95.1109 223.202 80.2482L223.202 80.2471L223.204 80.2435C223.789 79.1398 224.346 78.0909 224.861 77.0944C225.214 76.4103 226.178 76.3529 226.603 76.9951Z"/>
</mask>
<path fill-rule="evenodd" clip-rule="evenodd" d="M226.603 76.9951L264.871 134.803C265.328 135.493 266.162 135.829 266.971 135.658C297.225 129.271 329.182 132.136 349.741 140.073C350.609 140.408 351.594 140.12 352.131 139.36L379.822 100.229C380.266 99.6005 381.225 99.6806 381.559 100.375C381.9 101.082 382.263 101.821 382.642 102.593L382.653 102.617L382.654 102.618C389.116 115.779 400.305 138.565 386.077 176.269C385.876 176.803 385.896 177.395 386.155 177.904C408.111 221.053 426.602 306.85 407.851 461.362C406.876 469.396 401.456 476.434 393.819 479.109C376.244 485.265 347.069 493.161 336.153 477.943C336.087 477.85 336.014 477.765 335.938 477.68C333.129 474.57 332.31 462.703 330.78 440.555C330.263 433.068 329.665 424.407 328.882 414.512C328.793 413.387 327.79 412.559 326.669 412.684L307.786 414.782L287.382 417.792C286.532 417.918 285.858 418.572 285.706 419.418L275.364 477.031C275.275 477.527 274.998 477.975 274.593 478.275C243.674 501.127 206.871 492.665 186.011 482.674C180.242 479.91 176.721 474.162 176.095 467.797C174.263 449.155 173.179 427.544 172.784 404.698C172.756 403.087 170.925 402.155 169.573 403.032C150.898 415.147 131.079 417.678 116.099 397.274C92.931 365.718 91.0502 345.518 89.3578 327.341C88.6365 319.595 87.9494 312.215 85.6633 304.481C85.4967 303.918 84.8751 303.622 84.3323 303.848L57.8954 314.821C57.0634 315.167 56.2348 314.322 56.596 313.497L84.607 249.497C84.8744 248.886 85.6536 248.703 86.165 249.131L135.162 290.145C135.789 290.671 135.554 291.687 134.759 291.883L104.468 299.355C103.999 299.47 103.678 299.881 103.71 300.362C105.23 323.583 113.791 379.812 131.691 387.107C140.547 390.716 158.409 388.573 171.879 378.276C172.359 377.909 172.635 377.337 172.639 376.732C173.112 302.256 180.249 222.38 192.215 191.868C196.78 180.227 203.594 170.561 211.937 162.642C212.474 162.133 212.693 161.361 212.511 160.643C202.17 119.917 215.322 95.1109 223.202 80.2482L223.202 80.2471L223.204 80.2435C223.789 79.1398 224.346 78.0909 224.861 77.0944C225.214 76.4103 226.178 76.3529 226.603 76.9951Z" fill="#FF2D20"/>
<path d="M226.603 76.9951L209.926 88.0349L209.926 88.0351L226.603 76.9951ZM379.822 100.229L396.148 111.782L396.148 111.782L379.822 100.229ZM381.559 100.375L399.58 91.699L399.579 91.6989L381.559 100.375ZM382.642 102.593L364.688 111.407C364.692 111.413 364.695 111.42 364.698 111.426L382.642 102.593ZM382.653 102.617L364.709 111.449C364.724 111.479 364.739 111.509 364.754 111.539L382.653 102.617ZM382.654 102.618L400.607 93.8034C400.589 93.7677 400.572 93.7321 400.554 93.6965L382.654 102.618ZM407.851 461.362L427.705 463.772V463.772L407.851 461.362ZM393.819 479.109L387.207 460.234L387.207 460.234L393.819 479.109ZM330.78 440.555L310.828 441.933L330.78 440.555ZM307.786 414.782L305.577 394.904C305.34 394.931 305.103 394.961 304.867 394.996L307.786 414.782ZM186.011 482.674L194.651 464.636L194.65 464.636L186.011 482.674ZM176.095 467.797L156.191 469.753L176.095 467.797ZM116.099 397.274L132.221 385.438L116.099 397.274ZM89.3578 327.341L69.4439 329.196L69.4439 329.196L89.3578 327.341ZM85.6633 304.481L66.4836 310.15L66.4836 310.151L85.6633 304.481ZM84.3323 303.848L91.9996 322.32H91.9997L84.3323 303.848ZM57.8954 314.821L50.2281 296.349L50.228 296.349L57.8954 314.821ZM56.596 313.497L74.918 321.516L74.918 321.516L56.596 313.497ZM84.607 249.497L66.285 241.478L66.285 241.478L84.607 249.497ZM86.165 249.131L73.3273 264.467L73.3273 264.467L86.165 249.131ZM135.162 290.145L122.324 305.481L122.324 305.482L135.162 290.145ZM134.759 291.883L129.97 272.465H129.97L134.759 291.883ZM104.468 299.355L99.6785 279.937L99.6784 279.937L104.468 299.355ZM103.71 300.362L83.7527 301.669L83.7527 301.669L103.71 300.362ZM131.691 387.107L139.239 368.586L139.239 368.586L131.691 387.107ZM192.215 191.868L173.595 184.567L192.215 191.868ZM223.202 80.2482L205.622 70.7114C205.592 70.7674 205.562 70.8235 205.532 70.8798L223.202 80.2482ZM223.202 80.2471L240.782 89.784C240.8 89.7509 240.818 89.7178 240.836 89.6846L223.202 80.2471ZM223.204 80.2435L240.838 89.681C240.85 89.6579 240.862 89.6348 240.875 89.6116L223.204 80.2435ZM224.861 77.0944L207.095 67.9091L207.095 67.9092L224.861 77.0944ZM275.364 477.031L295.049 480.565L275.364 477.031ZM274.593 478.275L286.48 494.358L274.593 478.275ZM287.382 417.792L284.463 398.007L287.382 417.792ZM285.706 419.418L305.391 422.951L285.706 419.418ZM171.879 378.276L159.732 362.387L171.879 378.276ZM172.639 376.732L152.639 376.605L172.639 376.732ZM264.871 134.803L281.548 123.763L264.871 134.803ZM266.971 135.658L271.102 155.227L266.971 135.658ZM336.153 477.943L352.404 466.286L336.153 477.943ZM335.938 477.68L321.094 491.084L335.938 477.68ZM211.937 162.642L225.706 177.149L211.937 162.642ZM212.511 160.643L193.126 165.566L212.511 160.643ZM349.741 140.073L356.944 121.415L349.741 140.073ZM352.131 139.36L335.805 127.808L352.131 139.36ZM328.882 414.512L308.944 416.09L328.882 414.512ZM326.669 412.684L328.877 432.562L326.669 412.684ZM169.573 403.032L180.458 419.81L169.573 403.032ZM386.077 176.269L404.79 183.33L386.077 176.269ZM386.155 177.904L368.33 186.974L386.155 177.904ZM281.548 123.763L243.28 65.9551L209.926 88.0351L248.194 145.843L281.548 123.763ZM356.944 121.415C332.351 111.921 296.41 109.003 262.84 116.089L271.102 155.227C298.04 149.54 326.014 152.352 342.537 158.731L356.944 121.415ZM363.496 88.6765L335.805 127.808L368.457 150.913L396.148 111.782L363.496 88.6765ZM399.579 91.6989C392.632 77.2677 372.743 75.6086 363.496 88.6765L396.148 111.782C387.79 123.592 369.818 122.094 363.539 109.05L399.579 91.6989ZM400.595 93.7798C400.208 92.9913 399.88 92.324 399.58 91.699L363.539 109.05C363.919 109.839 364.317 110.651 364.688 111.407L400.595 93.7798ZM400.597 93.7838L400.586 93.7606L364.698 111.426L364.709 111.449L400.597 93.7838ZM400.554 93.6965L400.553 93.6947L364.754 111.539L364.754 111.54L400.554 93.6965ZM404.79 183.33C413.057 161.419 414.261 142.838 411.898 127.244C409.573 111.895 403.902 100.515 400.607 93.8034L364.702 111.433C367.868 117.882 371.023 124.476 372.35 133.236C373.64 141.751 373.324 153.416 367.365 169.208L404.79 183.33ZM427.705 463.772C446.687 307.358 428.487 216.995 403.98 168.834L368.33 186.974C387.736 225.111 406.517 306.342 387.996 458.953L427.705 463.772ZM400.431 497.984C415.607 492.668 425.857 478.994 427.705 463.772L387.996 458.953C387.957 459.278 387.816 459.622 387.6 459.897C387.393 460.161 387.229 460.226 387.207 460.234L400.431 497.984ZM319.901 489.6C331.826 506.224 351.616 507.444 364.034 506.482C377.562 505.433 391.246 501.202 400.431 497.984L387.207 460.234C378.817 463.172 369.126 465.967 360.944 466.601C351.652 467.321 351.396 464.88 352.404 466.286L319.901 489.6ZM310.828 441.933C311.576 452.766 312.2 461.905 313.026 468.679C313.439 472.064 313.981 475.561 314.812 478.741C315.484 481.311 317.028 486.582 321.094 491.084L350.782 464.277C353.443 467.224 353.831 469.845 353.512 468.623C353.352 468.011 353.066 466.574 352.732 463.835C352.064 458.36 351.514 450.493 350.733 439.177L310.828 441.933ZM308.944 416.09C309.719 425.873 310.311 434.443 310.828 441.933L350.733 439.177C350.216 431.694 349.612 422.94 348.819 412.933L308.944 416.09ZM309.995 434.66L328.877 432.562L324.46 392.806L305.577 394.904L309.995 434.66ZM290.302 437.578L310.705 434.568L304.867 394.996L284.463 398.007L290.302 437.578ZM295.049 480.565L305.391 422.951L266.02 415.884L255.679 473.497L295.049 480.565ZM177.371 500.711C200.967 512.013 246.768 523.71 286.48 494.358L262.705 462.191C240.58 478.544 212.774 473.317 194.651 464.636L177.371 500.711ZM156.191 469.753C157.398 482.025 164.392 494.495 177.371 500.711L194.65 464.636C195.28 464.938 195.689 465.372 195.882 465.669C196.05 465.926 196.016 466.003 196 465.84L156.191 469.753ZM152.787 405.044C153.188 428.262 154.292 450.433 156.191 469.753L196 465.84C194.234 447.876 193.169 426.826 192.781 404.353L152.787 405.044ZM99.9774 409.111C110.506 423.452 124.492 431.62 140.571 432.328C155.533 432.987 169.32 427.036 180.458 419.81L158.688 386.253C151.151 391.143 145.691 392.515 142.33 392.367C140.085 392.268 136.671 391.501 132.221 385.438L99.9774 409.111ZM69.4439 329.196C70.2899 338.281 71.3159 349.811 75.6131 363.344C79.9412 376.973 87.2971 391.839 99.9774 409.111L132.221 385.438C121.733 371.153 116.564 360.141 113.737 351.237C110.879 342.236 110.118 334.578 109.272 325.487L69.4439 329.196ZM66.4836 310.151C68.134 315.734 68.701 321.217 69.4439 329.196L109.272 325.487C108.572 317.973 107.765 308.697 104.843 298.812L66.4836 310.151ZM91.9997 322.32C81.6062 326.634 69.6975 321.023 66.4836 310.15L104.843 298.812C101.296 286.812 88.1439 280.611 76.6649 285.376L91.9997 322.32ZM65.5628 333.293L91.9996 322.32L76.6649 285.376L50.2281 296.349L65.5628 333.293ZM38.274 305.478C30.6886 322.809 48.0902 340.546 65.5628 333.293L50.228 296.349C66.0366 289.787 81.781 305.835 74.918 321.516L38.274 305.478ZM66.285 241.478L38.274 305.478L74.918 321.516L102.929 257.516L66.285 241.478ZM99.0027 233.795C88.2631 224.805 71.9003 228.648 66.285 241.478L102.929 257.516C97.8485 269.124 83.0441 272.601 73.3273 264.467L99.0027 233.795ZM147.999 274.809L99.0027 233.795L73.3273 264.467L122.324 305.481L147.999 274.809ZM139.549 311.301C156.242 307.184 161.184 285.846 147.999 274.809L122.324 305.482C110.395 295.496 114.866 276.191 129.97 272.465L139.549 311.301ZM109.258 318.773L139.549 311.301L129.97 272.465L99.6785 279.937L109.258 318.773ZM123.667 299.056C124.31 308.881 117.566 316.723 109.258 318.773L99.6784 279.937C90.4326 282.217 83.0467 290.881 83.7527 301.669L123.667 299.056ZM139.239 368.586C141.851 369.65 140.754 370.541 137.855 364.768C135.422 359.922 133.05 353.028 130.935 344.754C126.73 328.302 124.363 309.691 123.667 299.056L83.7527 301.669C84.5765 314.255 87.2503 335.369 92.1809 354.66C94.6341 364.258 97.853 374.24 102.107 382.714C105.896 390.261 112.582 400.916 124.144 405.628L139.239 368.586ZM159.732 362.387C155.772 365.414 150.919 367.388 146.34 368.254C141.273 369.212 138.847 368.426 139.239 368.586L124.144 405.628C133.391 409.397 144.324 409.344 153.77 407.558C163.703 405.68 174.516 401.435 184.025 394.165L159.732 362.387ZM173.595 184.567C166.504 202.65 161.555 232.735 158.218 265.806C154.807 299.612 152.879 338.835 152.639 376.605L192.639 376.859C192.872 340.154 194.749 302.201 198.016 269.822C201.357 236.707 205.96 211.599 210.834 199.17L173.595 184.567ZM198.169 148.136C187.825 157.955 179.291 170.042 173.595 184.567L210.834 199.17C214.269 190.411 219.364 183.168 225.706 177.149L198.169 148.136ZM205.532 70.8798C196.895 87.1705 180.935 117.551 193.126 165.566L231.896 155.721C223.405 122.283 233.749 103.051 240.872 89.6166L205.532 70.8798ZM205.623 70.7103L205.622 70.7114L240.782 89.7851L240.782 89.784L205.623 70.7103ZM205.571 70.806L205.569 70.8096L240.836 89.6846L240.838 89.681L205.571 70.806ZM207.095 67.9092C206.636 68.7971 206.13 69.7516 205.534 70.8755L240.875 89.6116C241.449 88.528 242.055 87.3847 242.627 86.2796L207.095 67.9092ZM243.28 65.9553C234.31 52.4058 214.361 53.855 207.095 67.9091L242.627 86.2797C236.068 98.9656 218.045 100.3 209.926 88.0349L243.28 65.9553ZM255.679 473.497C256.486 469.001 258.977 464.947 262.705 462.191L286.48 494.358C291.018 491.004 294.064 486.052 295.049 480.565L255.679 473.497ZM284.463 398.007C275.114 399.386 267.69 406.582 266.02 415.884L305.391 422.951C304.025 430.562 297.951 436.45 290.302 437.578L284.463 398.007ZM184.025 394.165C189.576 389.921 192.597 383.45 192.639 376.859L152.639 376.605C152.674 371.223 155.142 365.896 159.732 362.387L184.025 394.165ZM248.194 145.843C253.239 153.464 262.368 157.07 271.102 155.227L262.84 116.089C269.955 114.587 277.416 117.521 281.548 123.763L248.194 145.843ZM352.404 466.286C351.725 465.339 351.104 464.633 350.782 464.277L321.094 491.084C320.924 490.896 320.448 490.362 319.901 489.6L352.404 466.286ZM225.706 177.149C231.555 171.597 233.838 163.37 231.896 155.721L193.126 165.566C191.548 159.351 193.393 152.669 198.169 148.136L225.706 177.149ZM342.537 158.731C351.789 162.303 362.53 159.29 368.457 150.913L335.805 127.808C340.658 120.951 349.428 118.514 356.944 121.415L342.537 158.731ZM348.819 412.933C347.838 400.536 336.793 391.436 324.46 392.806L328.877 432.562C318.787 433.683 309.748 426.237 308.944 416.09L348.819 412.933ZM192.781 404.353C192.47 386.322 172.61 377.222 158.688 386.253L180.458 419.81C169.24 427.087 153.043 419.852 152.787 405.044L192.781 404.353ZM367.365 169.208C365.294 174.698 365.375 181.166 368.33 186.974L403.98 168.834C406.417 173.623 406.458 178.909 404.79 183.33L367.365 169.208Z" fill="black" mask="url(#path-7-outside-2_1_838)"/>
</mask>
<g mask="url(#mask1_1_838)">
<path d="M370.224 374.35C395.413 364.045 411.729 322.11 416.023 291.339L423.895 544.666H169.136V442.274C126.636 444.274 43.1363 394.274 37.6363 346.274C33.2363 307.874 48.1363 240.608 56.1363 211.774L169.136 263.274V136.051C171.136 128.271 201.636 87.9585 211.636 73.7744C221.136 98.7744 231.073 147.516 234.136 154.774C198.356 242.079 206.348 314.238 242.129 362.9C264.899 393.867 338.737 387.231 370.224 374.35Z" fill="#9A3029" fill-opacity="0.55"/>
<mask id="path-10-outside-3_1_838" maskUnits="userSpaceOnUse" x="35.509" y="55.5457" width="401" height="458" fill="black">
<rect fill="white" x="35.509" y="55.5457" width="401" height="458"/>
<path fill-rule="evenodd" clip-rule="evenodd" d="M226.603 76.9951L264.871 134.803C265.328 135.493 266.162 135.829 266.971 135.658C297.225 129.271 329.182 132.136 349.741 140.073C350.609 140.408 351.594 140.12 352.131 139.36L379.822 100.229C380.266 99.6005 381.225 99.6806 381.559 100.375C381.9 101.082 382.263 101.821 382.642 102.593L382.653 102.617L382.654 102.618C389.116 115.779 400.305 138.565 386.077 176.269C385.876 176.803 385.896 177.395 386.155 177.904C408.111 221.053 426.602 306.85 407.851 461.362C406.876 469.396 401.456 476.434 393.819 479.109C376.244 485.265 347.069 493.161 336.153 477.943C336.087 477.85 336.014 477.765 335.938 477.68C333.129 474.57 332.31 462.703 330.78 440.555C330.263 433.068 329.665 424.407 328.882 414.512C328.793 413.387 327.79 412.559 326.669 412.684L307.786 414.782L287.382 417.792C286.532 417.918 285.858 418.572 285.706 419.418L275.364 477.031C275.275 477.527 274.998 477.975 274.593 478.275C243.674 501.127 206.871 492.665 186.011 482.674C180.242 479.91 176.721 474.162 176.095 467.797C174.263 449.155 173.179 427.544 172.784 404.698C172.756 403.087 170.925 402.155 169.573 403.032C150.898 415.147 131.079 417.678 116.099 397.274C92.931 365.718 91.0502 345.518 89.3578 327.341C88.6365 319.595 87.9494 312.215 85.6633 304.481C85.4967 303.918 84.8751 303.622 84.3323 303.848L57.8954 314.821C57.0634 315.167 56.2348 314.322 56.596 313.497L84.607 249.497C84.8744 248.886 85.6536 248.703 86.165 249.131L135.162 290.145C135.789 290.671 135.554 291.687 134.759 291.883L104.468 299.355C103.999 299.47 103.678 299.881 103.71 300.362C105.23 323.583 113.791 379.812 131.691 387.107C140.547 390.716 158.409 388.573 171.879 378.276C172.359 377.909 172.635 377.337 172.639 376.732C173.112 302.256 180.249 222.38 192.215 191.868C196.78 180.227 203.594 170.561 211.937 162.642C212.474 162.133 212.693 161.361 212.511 160.643C202.17 119.917 215.322 95.1109 223.202 80.2482L223.202 80.2471L223.204 80.2435C223.789 79.1398 224.346 78.0909 224.861 77.0944C225.214 76.4103 226.178 76.3529 226.603 76.9951Z"/>
</mask>
<path d="M226.603 76.9951L209.926 88.0349L209.926 88.0351L226.603 76.9951ZM379.822 100.229L396.148 111.782L396.148 111.782L379.822 100.229ZM381.559 100.375L399.58 91.699L399.579 91.6989L381.559 100.375ZM382.642 102.593L364.688 111.407C364.692 111.413 364.695 111.42 364.698 111.426L382.642 102.593ZM382.653 102.617L364.709 111.449C364.724 111.479 364.739 111.509 364.754 111.539L382.653 102.617ZM382.654 102.618L400.607 93.8034C400.589 93.7677 400.572 93.7321 400.554 93.6965L382.654 102.618ZM407.851 461.362L427.705 463.772V463.772L407.851 461.362ZM393.819 479.109L387.207 460.234L387.207 460.234L393.819 479.109ZM330.78 440.555L310.828 441.933L330.78 440.555ZM307.786 414.782L305.577 394.904C305.34 394.931 305.103 394.961 304.867 394.996L307.786 414.782ZM186.011 482.674L194.651 464.636L194.65 464.636L186.011 482.674ZM176.095 467.797L156.191 469.753L176.095 467.797ZM116.099 397.274L132.221 385.438L116.099 397.274ZM89.3578 327.341L69.4439 329.196L69.4439 329.196L89.3578 327.341ZM85.6633 304.481L66.4836 310.15L66.4836 310.151L85.6633 304.481ZM84.3323 303.848L91.9996 322.32H91.9997L84.3323 303.848ZM57.8954 314.821L50.2281 296.349L50.228 296.349L57.8954 314.821ZM56.596 313.497L74.918 321.516L74.918 321.516L56.596 313.497ZM84.607 249.497L66.285 241.478L66.285 241.478L84.607 249.497ZM86.165 249.131L73.3273 264.467L73.3273 264.467L86.165 249.131ZM135.162 290.145L122.324 305.481L122.324 305.482L135.162 290.145ZM134.759 291.883L129.97 272.465H129.97L134.759 291.883ZM104.468 299.355L99.6785 279.937L99.6784 279.937L104.468 299.355ZM103.71 300.362L83.7527 301.669L83.7527 301.669L103.71 300.362ZM131.691 387.107L139.239 368.586L139.239 368.586L131.691 387.107ZM192.215 191.868L173.595 184.567L192.215 191.868ZM223.202 80.2482L205.622 70.7114C205.592 70.7674 205.562 70.8235 205.532 70.8798L223.202 80.2482ZM223.202 80.2471L240.782 89.784C240.8 89.7509 240.818 89.7178 240.836 89.6846L223.202 80.2471ZM223.204 80.2435L240.838 89.681C240.85 89.6579 240.862 89.6348 240.875 89.6116L223.204 80.2435ZM224.861 77.0944L207.095 67.9091L207.095 67.9092L224.861 77.0944ZM275.364 477.031L295.049 480.565L275.364 477.031ZM274.593 478.275L286.48 494.358L274.593 478.275ZM287.382 417.792L284.463 398.007L287.382 417.792ZM285.706 419.418L305.391 422.951L285.706 419.418ZM171.879 378.276L159.732 362.387L171.879 378.276ZM172.639 376.732L152.639 376.605L172.639 376.732ZM264.871 134.803L281.548 123.763L264.871 134.803ZM266.971 135.658L271.102 155.227L266.971 135.658ZM336.153 477.943L352.404 466.286L336.153 477.943ZM335.938 477.68L321.094 491.084L335.938 477.68ZM211.937 162.642L225.706 177.149L211.937 162.642ZM212.511 160.643L193.126 165.566L212.511 160.643ZM349.741 140.073L356.944 121.415L349.741 140.073ZM352.131 139.36L335.805 127.808L352.131 139.36ZM328.882 414.512L308.944 416.09L328.882 414.512ZM326.669 412.684L328.877 432.562L326.669 412.684ZM169.573 403.032L180.458 419.81L169.573 403.032ZM386.077 176.269L404.79 183.33L386.077 176.269ZM386.155 177.904L368.33 186.974L386.155 177.904ZM281.548 123.763L243.28 65.9551L209.926 88.0351L248.194 145.843L281.548 123.763ZM356.944 121.415C332.351 111.921 296.41 109.003 262.84 116.089L271.102 155.227C298.04 149.54 326.014 152.352 342.537 158.731L356.944 121.415ZM363.496 88.6765L335.805 127.808L368.457 150.913L396.148 111.782L363.496 88.6765ZM399.579 91.6989C392.632 77.2677 372.743 75.6086 363.496 88.6765L396.148 111.782C387.79 123.592 369.818 122.094 363.539 109.05L399.579 91.6989ZM400.595 93.7798C400.208 92.9913 399.88 92.324 399.58 91.699L363.539 109.05C363.919 109.839 364.317 110.651 364.688 111.407L400.595 93.7798ZM400.597 93.7838L400.586 93.7606L364.698 111.426L364.709 111.449L400.597 93.7838ZM400.554 93.6965L400.553 93.6947L364.754 111.539L364.754 111.54L400.554 93.6965ZM404.79 183.33C413.057 161.419 414.261 142.838 411.898 127.244C409.573 111.895 403.902 100.515 400.607 93.8034L364.702 111.433C367.868 117.882 371.023 124.476 372.35 133.236C373.64 141.751 373.324 153.416 367.365 169.208L404.79 183.33ZM427.705 463.772C446.687 307.358 428.487 216.995 403.98 168.834L368.33 186.974C387.736 225.111 406.517 306.342 387.996 458.953L427.705 463.772ZM400.431 497.984C415.607 492.668 425.857 478.994 427.705 463.772L387.996 458.953C387.957 459.278 387.816 459.622 387.6 459.897C387.393 460.161 387.229 460.226 387.207 460.234L400.431 497.984ZM319.901 489.6C331.826 506.224 351.616 507.444 364.034 506.482C377.562 505.433 391.246 501.202 400.431 497.984L387.207 460.234C378.817 463.172 369.126 465.967 360.944 466.601C351.652 467.321 351.396 464.88 352.404 466.286L319.901 489.6ZM310.828 441.933C311.576 452.766 312.2 461.905 313.026 468.679C313.439 472.064 313.981 475.561 314.812 478.741C315.484 481.311 317.028 486.582 321.094 491.084L350.782 464.277C353.443 467.224 353.831 469.845 353.512 468.623C353.352 468.011 353.066 466.574 352.732 463.835C352.064 458.36 351.514 450.493 350.733 439.177L310.828 441.933ZM308.944 416.09C309.719 425.873 310.311 434.443 310.828 441.933L350.733 439.177C350.216 431.694 349.612 422.94 348.819 412.933L308.944 416.09ZM309.995 434.66L328.877 432.562L324.46 392.806L305.577 394.904L309.995 434.66ZM290.302 437.578L310.705 434.568L304.867 394.996L284.463 398.007L290.302 437.578ZM295.049 480.565L305.391 422.951L266.02 415.884L255.679 473.497L295.049 480.565ZM177.371 500.711C200.967 512.013 246.768 523.71 286.48 494.358L262.705 462.191C240.58 478.544 212.774 473.317 194.651 464.636L177.371 500.711ZM156.191 469.753C157.398 482.025 164.392 494.495 177.371 500.711L194.65 464.636C195.28 464.938 195.689 465.372 195.882 465.669C196.05 465.926 196.016 466.003 196 465.84L156.191 469.753ZM152.787 405.044C153.188 428.262 154.292 450.433 156.191 469.753L196 465.84C194.234 447.876 193.169 426.826 192.781 404.353L152.787 405.044ZM99.9774 409.111C110.506 423.452 124.492 431.62 140.571 432.328C155.533 432.987 169.32 427.036 180.458 419.81L158.688 386.253C151.151 391.143 145.691 392.515 142.33 392.367C140.085 392.268 136.671 391.501 132.221 385.438L99.9774 409.111ZM69.4439 329.196C70.2899 338.281 71.3159 349.811 75.6131 363.344C79.9412 376.973 87.2971 391.839 99.9774 409.111L132.221 385.438C121.733 371.153 116.564 360.141 113.737 351.237C110.879 342.236 110.118 334.578 109.272 325.487L69.4439 329.196ZM66.4836 310.151C68.134 315.734 68.701 321.217 69.4439 329.196L109.272 325.487C108.572 317.973 107.765 308.697 104.843 298.812L66.4836 310.151ZM91.9997 322.32C81.6062 326.634 69.6975 321.023 66.4836 310.15L104.843 298.812C101.296 286.812 88.1439 280.611 76.6649 285.376L91.9997 322.32ZM65.5628 333.293L91.9996 322.32L76.6649 285.376L50.2281 296.349L65.5628 333.293ZM38.274 305.478C30.6886 322.809 48.0902 340.546 65.5628 333.293L50.228 296.349C66.0366 289.787 81.781 305.835 74.918 321.516L38.274 305.478ZM66.285 241.478L38.274 305.478L74.918 321.516L102.929 257.516L66.285 241.478ZM99.0027 233.795C88.2631 224.805 71.9003 228.648 66.285 241.478L102.929 257.516C97.8485 269.124 83.0441 272.601 73.3273 264.467L99.0027 233.795ZM147.999 274.809L99.0027 233.795L73.3273 264.467L122.324 305.481L147.999 274.809ZM139.549 311.301C156.242 307.184 161.184 285.846 147.999 274.809L122.324 305.482C110.395 295.496 114.866 276.191 129.97 272.465L139.549 311.301ZM109.258 318.773L139.549 311.301L129.97 272.465L99.6785 279.937L109.258 318.773ZM123.667 299.056C124.31 308.881 117.566 316.723 109.258 318.773L99.6784 279.937C90.4326 282.217 83.0467 290.881 83.7527 301.669L123.667 299.056ZM139.239 368.586C141.851 369.65 140.754 370.541 137.855 364.768C135.422 359.922 133.05 353.028 130.935 344.754C126.73 328.302 124.363 309.691 123.667 299.056L83.7527 301.669C84.5765 314.255 87.2503 335.369 92.1809 354.66C94.6341 364.258 97.853 374.24 102.107 382.714C105.896 390.261 112.582 400.916 124.144 405.628L139.239 368.586ZM159.732 362.387C155.772 365.414 150.919 367.388 146.34 368.254C141.273 369.212 138.847 368.426 139.239 368.586L124.144 405.628C133.391 409.397 144.324 409.344 153.77 407.558C163.703 405.68 174.516 401.435 184.025 394.165L159.732 362.387ZM173.595 184.567C166.504 202.65 161.555 232.735 158.218 265.806C154.807 299.612 152.879 338.835 152.639 376.605L192.639 376.859C192.872 340.154 194.749 302.201 198.016 269.822C201.357 236.707 205.96 211.599 210.834 199.17L173.595 184.567ZM198.169 148.136C187.825 157.955 179.291 170.042 173.595 184.567L210.834 199.17C214.269 190.411 219.364 183.168 225.706 177.149L198.169 148.136ZM205.532 70.8798C196.895 87.1705 180.935 117.551 193.126 165.566L231.896 155.721C223.405 122.283 233.749 103.051 240.872 89.6166L205.532 70.8798ZM205.623 70.7103L205.622 70.7114L240.782 89.7851L240.782 89.784L205.623 70.7103ZM205.571 70.806L205.569 70.8096L240.836 89.6846L240.838 89.681L205.571 70.806ZM207.095 67.9092C206.636 68.7971 206.13 69.7516 205.534 70.8755L240.875 89.6116C241.449 88.528 242.055 87.3847 242.627 86.2796L207.095 67.9092ZM243.28 65.9553C234.31 52.4058 214.361 53.855 207.095 67.9091L242.627 86.2797C236.068 98.9656 218.045 100.3 209.926 88.0349L243.28 65.9553ZM255.679 473.497C256.486 469.001 258.977 464.947 262.705 462.191L286.48 494.358C291.018 491.004 294.064 486.052 295.049 480.565L255.679 473.497ZM284.463 398.007C275.114 399.386 267.69 406.582 266.02 415.884L305.391 422.951C304.025 430.562 297.951 436.45 290.302 437.578L284.463 398.007ZM184.025 394.165C189.576 389.921 192.597 383.45 192.639 376.859L152.639 376.605C152.674 371.223 155.142 365.896 159.732 362.387L184.025 394.165ZM248.194 145.843C253.239 153.464 262.368 157.07 271.102 155.227L262.84 116.089C269.955 114.587 277.416 117.521 281.548 123.763L248.194 145.843ZM352.404 466.286C351.725 465.339 351.104 464.633 350.782 464.277L321.094 491.084C320.924 490.896 320.448 490.362 319.901 489.6L352.404 466.286ZM225.706 177.149C231.555 171.597 233.838 163.37 231.896 155.721L193.126 165.566C191.548 159.351 193.393 152.669 198.169 148.136L225.706 177.149ZM342.537 158.731C351.789 162.303 362.53 159.29 368.457 150.913L335.805 127.808C340.658 120.951 349.428 118.514 356.944 121.415L342.537 158.731ZM348.819 412.933C347.838 400.536 336.793 391.436 324.46 392.806L328.877 432.562C318.787 433.683 309.748 426.237 308.944 416.09L348.819 412.933ZM192.781 404.353C192.47 386.322 172.61 377.222 158.688 386.253L180.458 419.81C169.24 427.087 153.043 419.852 152.787 405.044L192.781 404.353ZM367.365 169.208C365.294 174.698 365.375 181.166 368.33 186.974L403.98 168.834C406.417 173.623 406.458 178.909 404.79 183.33L367.365 169.208Z" fill="black" mask="url(#path-10-outside-3_1_838)"/>
</g>
<path d="M424.073 287.045C398.938 313.338 342.493 312.475 315.861 304.044C273.966 290.782 268.957 237.11 275.397 212.064C281.988 186.432 319.714 186.124 364.828 188.528C409.942 190.933 455.492 254.179 424.073 287.045Z" fill="#98C7DD" stroke="black" stroke-width="20"/>
<mask id="mask2_1_838" style="mask-type:alpha" maskUnits="userSpaceOnUse" x="263" y="177" width="182" height="143">
<path d="M424.073 287.045C398.938 313.338 342.493 312.475 315.861 304.044C273.966 290.782 268.957 237.11 275.397 212.064C281.988 186.432 319.714 186.124 364.828 188.528C409.942 190.933 455.492 254.179 424.073 287.045Z" fill="#98C7DD" stroke="#3D3436" stroke-width="20"/>
</mask>
<g mask="url(#mask2_1_838)">
<path d="M390.439 221.924C384.714 212.192 351.693 210.474 336.188 210.474C332.849 210.474 326.456 212.907 327.601 222.64C329.032 234.805 362.666 241.246 377.694 241.246C392.722 241.246 397.595 234.09 390.439 221.924Z" fill="#FBFDFD" fill-opacity="0.85"/>
<path d="M323.887 262.714C302.403 258.686 293.306 216.233 291.279 190.909C291.048 188.026 289.195 185.507 286.473 184.53L272.634 179.562C267.972 177.888 263.06 181.329 263.06 186.283V347.872C263.06 354.501 364.332 351.003 420.3 348.177C423.741 348.004 426.549 345.396 427.003 341.981L437.289 264.563C438.162 257.996 429.474 252.689 423.314 255.127C392.433 267.353 342.601 266.223 323.887 262.714Z" fill="#4B646E" fill-opacity="0.55"/>
<path d="M424.073 287.045C398.938 313.338 342.493 312.475 315.861 304.044C273.966 290.782 268.957 237.11 275.397 212.064C281.988 186.432 319.714 186.124 364.828 188.528C409.942 190.933 455.492 254.179 424.073 287.045Z" stroke="black" stroke-width="20"/>
</g>
</svg>
