<svg width="501" height="551" viewBox="0 0 501 551" fill="none" xmlns="http://www.w3.org/2000/svg">
<path d="M113.965 410.845C127.929 415.717 142.706 413.659 154.797 410.312C168.142 406.619 177.213 394.13 178.765 380.37L194.25 243.109C196.643 221.894 180.227 200.403 158.903 199.362C143.086 198.59 126.433 199.47 116.443 205.464C80.1507 227.24 83.1932 400.111 113.965 410.845Z" fill="#B01313" stroke="black" stroke-width="20"/>
<mask id="mask0_1_966" style="mask-type:alpha" maskUnits="userSpaceOnUse" x="80" y="189" width="125" height="235">
<path d="M113.965 410.845C127.929 415.717 142.706 413.659 154.797 410.312C168.142 406.619 177.213 394.13 178.765 380.37L194.25 243.109C196.643 221.894 180.227 200.403 158.903 199.362C143.086 198.59 126.433 199.47 116.443 205.464C80.1507 227.24 83.1932 400.111 113.965 410.845Z" fill="#E453BD" stroke="#63114C" stroke-width="20"/>
</mask>
<g mask="url(#mask0_1_966)">
<path d="M199.136 250.25C144.914 236.496 75.8768 261.712 48.1362 276.038C48.1362 349.393 88.1741 427.427 108.193 457.274H199.136V250.25Z" fill="#6D0B0B" fill-opacity="0.55"/>
<path d="M113.965 410.845C127.929 415.717 142.706 413.659 154.797 410.312C168.142 406.619 177.213 394.13 178.765 380.37L194.25 243.109C196.643 221.894 180.227 200.403 158.903 199.362C143.086 198.59 126.433 199.47 116.443 205.464C80.1507 227.24 83.1932 400.111 113.965 410.845Z" stroke="black" stroke-width="20"/>
</g>
<path d="M254.636 247.274C270.23 255.461 266.035 304.843 259.64 330.797C259.44 331.606 260.255 332.293 261.02 331.964L305.031 313.035C305.398 312.877 305.636 312.516 305.636 312.117V264.274C305.636 240.274 319.636 235.774 339.636 219.774C359.636 203.774 339.636 185.774 319.636 185.774C305.791 185.774 292.682 204.567 286.715 217.349C286.324 218.185 284.987 218.168 284.536 217.363C277.2 204.276 244.025 179.256 227.136 201.774C209.136 225.774 234.636 236.774 254.636 247.274Z" fill="white" stroke="black" stroke-width="18"/>
<path d="M260.997 412.276L250.263 472.076C219.215 495.517 182.05 487.008 161.048 476.948C155.279 474.184 151.756 468.414 151.13 462.048C147.046 420.475 146.68 364.145 149.391 312.274C164.139 310.441 195.836 308.774 204.636 316.774C215.636 326.774 234.136 317.274 244.636 312.274C255.136 307.274 289.636 296.274 295.136 300.274C300.636 304.274 302.858 313.178 316.136 316.774C340.136 323.274 377.636 312.274 390.165 312.274C391.627 351.721 389.752 399.107 382.878 455.714C381.903 463.748 376.494 470.708 368.856 473.383C351.227 479.558 321.927 487.484 311.09 472.076C307.154 468.125 307.047 447.663 303.755 406.73L282.823 409.056L260.997 412.276Z" fill="#B01313"/>
<path d="M324.687 404.405L303.755 406.73M303.755 406.73L282.823 409.056L260.997 412.276L250.263 472.076C219.215 495.517 182.05 487.008 161.048 476.948C155.279 474.184 151.756 468.414 151.13 462.048C147.046 420.475 146.68 364.145 149.391 312.274C164.139 310.441 195.836 308.774 204.636 316.774C215.636 326.774 234.136 317.274 244.636 312.274C255.136 307.274 289.636 296.274 295.136 300.274C300.636 304.274 302.858 313.178 316.136 316.774C340.136 323.274 377.636 312.274 390.165 312.274C391.627 351.721 389.752 399.107 382.878 455.714C381.903 463.748 376.494 470.708 368.856 473.383C351.227 479.558 321.927 487.484 311.09 472.076C307.154 468.125 307.047 447.664 303.755 406.73Z" stroke="black" stroke-width="20" stroke-linecap="round" stroke-linejoin="round"/>
<mask id="mask1_1_966" style="mask-type:alpha" maskUnits="userSpaceOnUse" x="137" y="289" width="264" height="209">
<path d="M260.997 412.276L250.263 472.076C219.215 495.517 182.05 487.008 161.048 476.948C155.279 474.184 151.756 468.414 151.13 462.048C147.046 420.475 146.68 364.145 149.391 312.274C164.139 310.441 195.836 308.774 204.636 316.774C215.636 326.774 234.136 317.274 244.636 312.274C255.136 307.274 289.636 296.274 295.136 300.274C300.636 304.274 302.858 313.178 316.136 316.774C340.136 323.274 377.636 312.274 390.165 312.274C391.627 351.721 389.752 399.107 382.878 455.714C381.903 463.748 376.494 470.708 368.856 473.383C351.227 479.558 321.927 487.484 311.09 472.076C307.154 468.125 307.047 447.663 303.755 406.73L282.823 409.056L260.997 412.276Z" fill="#B01313"/>
<path d="M324.687 404.405L303.755 406.73M303.755 406.73L282.823 409.056L260.997 412.276L250.263 472.076C219.215 495.517 182.05 487.008 161.048 476.948C155.279 474.184 151.756 468.414 151.13 462.048C147.046 420.475 146.68 364.145 149.391 312.274C164.139 310.441 195.836 308.774 204.636 316.774C215.636 326.774 234.136 317.274 244.636 312.274C255.136 307.274 289.636 296.274 295.136 300.274C300.636 304.274 302.858 313.178 316.136 316.774C340.136 323.274 377.636 312.274 390.165 312.274C391.627 351.721 389.752 399.107 382.878 455.714C381.903 463.748 376.494 470.708 368.856 473.383C351.227 479.558 321.927 487.484 311.09 472.076C307.154 468.125 307.047 447.664 303.755 406.73Z" stroke="black" stroke-width="20" stroke-linecap="round" stroke-linejoin="round"/>
</mask>
<g mask="url(#mask1_1_966)">
<path d="M339.714 368.624C364.904 358.319 381.22 316.384 385.514 285.613L393.385 538.94H138.627V130.325H202.317C166.536 217.63 175.839 308.513 211.62 357.174C234.389 388.141 308.227 381.505 339.714 368.624Z" fill="#6D0B0B" fill-opacity="0.55"/>
<path d="M324.687 404.405L303.755 406.73M303.755 406.73L282.823 409.056L260.997 412.276L250.263 472.076C219.215 495.517 182.05 487.008 161.048 476.948C155.279 474.184 151.756 468.414 151.13 462.048C147.046 420.475 146.68 364.145 149.391 312.274C164.139 310.441 195.836 308.774 204.636 316.774C215.636 326.774 234.136 317.274 244.636 312.274C255.136 307.274 289.636 296.274 295.136 300.274C300.636 304.274 302.858 313.178 316.136 316.774C340.136 323.274 377.636 312.274 390.165 312.274C391.627 351.721 389.752 399.107 382.878 455.714C381.903 463.748 376.494 470.708 368.856 473.383C351.227 479.558 321.927 487.484 311.09 472.076C307.154 468.125 307.047 447.664 303.755 406.73Z" stroke="black" stroke-width="20" stroke-linecap="round" stroke-linejoin="round"/>
</g>
</svg>
