<svg width="501" height="551" viewBox="0 0 501 551" fill="none" xmlns="http://www.w3.org/2000/svg">
<path d="M113.965 410.845C127.929 415.717 142.706 413.659 154.797 410.312C168.142 406.619 177.213 394.13 178.766 380.37L194.25 243.109C196.643 221.894 180.228 200.403 158.903 199.362C143.086 198.59 126.433 199.47 116.443 205.464C80.1509 227.24 83.1934 400.111 113.965 410.845Z" fill="#0077FF" stroke="black" stroke-width="20"/>
<mask id="mask0_1_911" style="mask-type:alpha" maskUnits="userSpaceOnUse" x="80" y="189" width="125" height="235">
<path d="M113.965 410.845C127.929 415.717 142.706 413.659 154.797 410.312C168.142 406.619 177.213 394.13 178.766 380.37L194.25 243.109C196.643 221.894 180.228 200.403 158.903 199.362C143.086 198.59 126.433 199.47 116.443 205.464C80.1509 227.24 83.1934 400.111 113.965 410.845Z" fill="#E453BD" stroke="#63114C" stroke-width="20"/>
</mask>
<g mask="url(#mask0_1_911)">
<path d="M173.692 250.548C128.465 236.808 70.8823 261.998 47.7441 276.31C47.7441 349.589 81.1394 427.543 97.8371 457.36H173.692V250.548Z" fill="#004AA1" fill-opacity="0.55"/>
<path d="M113.965 410.845C127.929 415.717 142.706 413.659 154.797 410.312C168.142 406.619 177.213 394.13 178.766 380.37L194.25 243.109C196.643 221.894 180.228 200.403 158.903 199.362C143.086 198.59 126.433 199.47 116.443 205.464C80.1509 227.24 83.1934 400.111 113.965 410.845Z" stroke="black" stroke-width="20"/>
</g>
<path d="M167.252 186.143C149.984 230.176 142.772 377.019 151.133 462.071C151.758 468.437 155.279 474.185 161.048 476.948C182.05 487.008 219.215 495.517 250.263 472.076L260.997 412.276L282.823 409.056L303.755 406.73C307.047 447.664 307.154 468.125 311.09 472.076C321.927 487.484 351.227 479.558 368.856 473.383C376.494 470.708 381.913 463.671 382.888 455.637C407.439 253.338 368.148 168.831 340.825 143.61C312.916 117.847 195.876 113.15 167.252 186.143Z" fill="#0077FF"/>
<path d="M324.687 404.405L303.755 406.73M303.755 406.73L282.823 409.056L260.997 412.276L250.263 472.076C219.215 495.517 182.05 487.008 161.048 476.948C155.279 474.184 151.758 468.437 151.133 462.071C142.772 377.019 149.984 230.176 167.252 186.143C195.876 113.15 312.916 117.847 340.825 143.61C368.148 168.831 407.439 253.338 382.888 455.637C381.913 463.671 376.494 470.708 368.856 473.383C351.227 479.558 321.927 487.484 311.09 472.076C307.154 468.125 307.047 447.664 303.755 406.73Z" stroke="black" stroke-width="21.4684" stroke-linecap="round" stroke-linejoin="round"/>
<mask id="mask1_1_911" style="mask-type:alpha" maskUnits="userSpaceOnUse" x="136" y="115" width="266" height="383">
<path d="M167.252 186.143C149.984 230.176 142.772 377.019 151.133 462.071C151.758 468.437 155.279 474.185 161.048 476.948C182.05 487.008 219.215 495.517 250.263 472.076L260.997 412.276L282.823 409.056L303.755 406.73C307.047 447.664 307.154 468.125 311.09 472.076C321.927 487.484 351.227 479.558 368.856 473.383C376.494 470.708 381.913 463.671 382.888 455.637C407.439 253.338 368.148 168.831 340.825 143.61C312.916 117.847 195.876 113.15 167.252 186.143Z" fill="#E752BE"/>
<path d="M324.687 404.405L303.755 406.73M303.755 406.73L282.823 409.056L260.997 412.276L250.263 472.076C219.215 495.517 182.05 487.008 161.048 476.948C155.279 474.184 151.758 468.437 151.133 462.071C142.772 377.019 149.984 230.176 167.252 186.143C195.876 113.15 312.916 117.847 340.825 143.61C368.148 168.831 407.439 253.338 382.888 455.637C381.913 463.671 376.494 470.708 368.856 473.383C351.227 479.558 321.927 487.484 311.09 472.076C307.154 468.125 307.047 447.664 303.755 406.73Z" stroke="#63114C" stroke-width="21.4684" stroke-linecap="round" stroke-linejoin="round"/>
</mask>
<g mask="url(#mask1_1_911)">
<path d="M339.714 368.624C364.904 358.319 381.22 316.384 385.514 285.613L393.385 538.94H138.627V130.325H202.317C166.536 217.63 175.839 308.512 211.62 357.174C234.389 388.141 308.227 381.505 339.714 368.624Z" fill="#004AA1" fill-opacity="0.55"/>
<path d="M303.136 418C344.248 418 378.136 387.181 378.136 348.5C378.136 309.819 344.248 279 303.136 279C262.025 279 228.136 309.819 228.136 348.5C228.136 387.181 262.025 418 303.136 418Z" fill="#F2F2F2" stroke="black" stroke-width="8"/>
<mask id="mask2_1_911" style="mask-type:alpha" maskUnits="userSpaceOnUse" x="224" y="275" width="159" height="147">
<path d="M303.136 418C344.248 418 378.136 387.181 378.136 348.5C378.136 309.819 344.248 279 303.136 279C262.025 279 228.136 309.819 228.136 348.5C228.136 387.181 262.025 418 303.136 418Z" fill="#F2F2F2" stroke="black" stroke-width="8"/>
</mask>
<g mask="url(#mask2_1_911)">
<path d="M339.714 368.624C364.904 358.319 381.22 316.384 385.514 285.613L393.385 538.94H138.627V130.325H202.317C166.536 217.63 175.839 308.513 211.62 357.174C234.389 388.141 308.227 381.505 339.714 368.624Z" fill="#B0B0B0" fill-opacity="0.55"/>
<path d="M303.136 418C344.248 418 378.136 387.181 378.136 348.5C378.136 309.819 344.248 279 303.136 279C262.025 279 228.136 309.819 228.136 348.5C228.136 387.181 262.025 418 303.136 418Z" stroke="black" stroke-width="8"/>
</g>
<mask id="path-14-inside-1_1_911" fill="white">
<path d="M346.136 351.5C348.898 351.5 351.163 353.745 350.873 356.491C350.395 361.016 349.268 365.458 347.521 369.677C345.133 375.44 341.635 380.677 337.224 385.088C332.813 389.498 327.577 392.997 321.814 395.384C316.051 397.771 309.874 399 303.636 399C297.398 399 291.222 397.771 285.459 395.384C279.696 392.997 274.459 389.498 270.049 385.088C265.638 380.677 262.139 375.44 259.752 369.677C258.004 365.458 256.877 361.016 256.399 356.491C256.109 353.745 258.375 351.5 261.136 351.5L303.636 351.5H346.136Z"/>
</mask>
<path d="M346.136 351.5C348.898 351.5 351.163 353.745 350.873 356.491C350.395 361.016 349.268 365.458 347.521 369.677C345.133 375.44 341.635 380.677 337.224 385.088C332.813 389.498 327.577 392.997 321.814 395.384C316.051 397.771 309.874 399 303.636 399C297.398 399 291.222 397.771 285.459 395.384C279.696 392.997 274.459 389.498 270.049 385.088C265.638 380.677 262.139 375.44 259.752 369.677C258.004 365.458 256.877 361.016 256.399 356.491C256.109 353.745 258.375 351.5 261.136 351.5L303.636 351.5H346.136Z" fill="#D9D9D9" stroke="black" stroke-width="16" mask="url(#path-14-inside-1_1_911)"/>
<mask id="mask3_1_911" style="mask-type:alpha" maskUnits="userSpaceOnUse" x="256" y="351" width="95" height="48">
<mask id="path-15-inside-2_1_911" fill="white">
<path d="M346.136 351.5C348.898 351.5 351.163 353.745 350.873 356.491C350.395 361.016 349.268 365.458 347.521 369.677C345.133 375.44 341.635 380.677 337.224 385.088C332.813 389.498 327.577 392.997 321.814 395.384C316.051 397.771 309.874 399 303.636 399C297.398 399 291.222 397.771 285.459 395.384C279.696 392.997 274.459 389.498 270.049 385.088C265.638 380.677 262.139 375.44 259.752 369.677C258.004 365.458 256.877 361.016 256.399 356.491C256.109 353.745 258.375 351.5 261.136 351.5L303.636 351.5H346.136Z"/>
</mask>
<path d="M346.136 351.5C348.898 351.5 351.163 353.745 350.873 356.491C350.395 361.016 349.268 365.458 347.521 369.677C345.133 375.44 341.635 380.677 337.224 385.088C332.813 389.498 327.577 392.997 321.814 395.384C316.051 397.771 309.874 399 303.636 399C297.398 399 291.222 397.771 285.459 395.384C279.696 392.997 274.459 389.498 270.049 385.088C265.638 380.677 262.139 375.44 259.752 369.677C258.004 365.458 256.877 361.016 256.399 356.491C256.109 353.745 258.375 351.5 261.136 351.5L303.636 351.5H346.136Z" fill="#D9D9D9" stroke="black" stroke-width="16" mask="url(#path-15-inside-2_1_911)"/>
</mask>
<g mask="url(#mask3_1_911)">
<path d="M339.714 368.624C364.904 358.319 381.22 316.384 385.514 285.613L393.385 538.94H138.627V130.325H202.317C166.536 217.63 175.839 308.513 211.62 357.174C234.389 388.141 308.227 381.505 339.714 368.624Z" fill="#B0B0B0" fill-opacity="0.55"/>
<mask id="path-17-inside-3_1_911" fill="white">
<path d="M346.136 351.5C348.898 351.5 351.163 353.745 350.873 356.491C350.395 361.016 349.268 365.458 347.521 369.677C345.133 375.44 341.635 380.677 337.224 385.088C332.813 389.498 327.577 392.997 321.814 395.384C316.051 397.771 309.874 399 303.636 399C297.398 399 291.222 397.771 285.459 395.384C279.696 392.997 274.459 389.498 270.049 385.088C265.638 380.677 262.139 375.44 259.752 369.677C258.004 365.458 256.877 361.016 256.399 356.491C256.109 353.745 258.375 351.5 261.136 351.5L303.636 351.5H346.136Z"/>
</mask>
<path d="M346.136 351.5C348.898 351.5 351.163 353.745 350.873 356.491C350.395 361.016 349.268 365.458 347.521 369.677C345.133 375.44 341.635 380.677 337.224 385.088C332.813 389.498 327.577 392.997 321.814 395.384C316.051 397.771 309.874 399 303.636 399C297.398 399 291.222 397.771 285.459 395.384C279.696 392.997 274.459 389.498 270.049 385.088C265.638 380.677 262.139 375.44 259.752 369.677C258.004 365.458 256.877 361.016 256.399 356.491C256.109 353.745 258.375 351.5 261.136 351.5L303.636 351.5H346.136Z" stroke="black" stroke-width="16" mask="url(#path-17-inside-3_1_911)"/>
</g>
<path d="M324.687 404.405L303.755 406.73M303.755 406.73L282.823 409.056L260.997 412.276L250.263 472.076C219.215 495.517 182.05 487.008 161.048 476.948C155.279 474.184 151.758 468.437 151.133 462.071C142.772 377.019 149.984 230.176 167.252 186.143C195.876 113.15 312.916 117.847 340.825 143.61C368.148 168.831 407.439 253.338 382.888 455.637C381.913 463.671 376.494 470.708 368.856 473.383C351.227 479.558 321.927 487.484 311.09 472.076C307.154 468.125 307.047 447.664 303.755 406.73Z" stroke="black" stroke-width="21.4684" stroke-linecap="round" stroke-linejoin="round"/>
</g>
<rect width="40.9617" height="8" rx="4" transform="matrix(-0.969499 0.245095 0.245095 0.969499 435.583 228)" fill="black"/>
<rect x="428.615" y="286.086" width="40.9617" height="8" rx="4" transform="rotate(-150.586 428.615 286.086)" fill="black"/>
<rect width="40.9617" height="8" rx="4" transform="matrix(-0.990161 -0.139933 -0.139933 0.990161 438.098 253.727)" fill="black"/>
<path d="M399.11 281.319C373.975 307.612 317.53 306.75 290.898 298.319C249.003 285.056 243.994 231.385 250.434 206.338C257.025 180.707 294.751 180.398 339.865 182.803C384.979 185.208 430.529 248.453 399.11 281.319Z" fill="#98C7DD" stroke="black" stroke-width="20"/>
<mask id="mask4_1_911" style="mask-type:alpha" maskUnits="userSpaceOnUse" x="238" y="171" width="182" height="143">
<path d="M399.11 281.319C373.975 307.612 317.53 306.75 290.898 298.319C249.003 285.056 243.994 231.385 250.434 206.338C257.025 180.707 294.751 180.398 339.865 182.803C384.979 185.208 430.529 248.453 399.11 281.319Z" fill="#98C7DD" stroke="#3D3436" stroke-width="20"/>
</mask>
<g mask="url(#mask4_1_911)">
<path d="M365.476 216.198C359.752 206.466 326.73 204.749 311.225 204.749C307.886 204.749 301.493 207.182 302.638 216.914C304.069 229.08 337.703 235.52 352.731 235.52C367.759 235.52 372.633 228.364 365.476 216.198Z" fill="#FBFDFD" fill-opacity="0.85"/>
<path d="M298.924 256.989C277.44 252.96 268.343 210.508 266.316 185.183C266.085 182.3 264.232 179.781 261.51 178.804L247.671 173.836C243.009 172.162 238.097 175.603 238.097 180.557V342.146C238.097 348.775 339.369 345.277 395.337 342.452C398.778 342.278 401.586 339.671 402.04 336.255L412.326 258.838C413.199 252.27 404.511 246.963 398.351 249.402C367.47 261.628 317.638 260.497 298.924 256.989Z" fill="#4B646E" fill-opacity="0.55"/>
<path d="M399.11 281.319C373.975 307.612 317.53 306.75 290.898 298.319C249.003 285.056 243.994 231.385 250.434 206.338C257.025 180.707 294.751 180.398 339.865 182.803C384.979 185.208 430.529 248.453 399.11 281.319Z" stroke="black" stroke-width="20"/>
</g>
<path d="M156.136 311.5C153.651 311.5 151.636 313.515 151.636 316V327C151.636 329.485 153.651 331.5 156.136 331.5H388.136C390.622 331.5 392.636 329.485 392.636 327V316C392.636 313.515 390.622 311.5 388.136 311.5H156.136Z" fill="#FD0000" stroke="black" stroke-width="5"/>
<path d="M156.136 314C155.032 314 154.136 314.895 154.136 316V327C154.136 328.105 155.032 329 156.136 329H196.636C193.436 323.8 191.303 316.833 190.636 314H156.136Z" fill="#9F1010" fill-opacity="0.55"/>
<path d="M388.136 329C389.241 329 390.136 328.105 390.136 327V316C390.136 314.895 389.241 314 388.136 314H379.136C377.136 320.8 374.303 326.833 373.136 329H388.136Z" fill="#9F1010" fill-opacity="0.55"/>
<circle cx="310.136" cy="324" r="19" fill="#FCD716" stroke="black" stroke-width="4"/>
<rect x="287.136" y="321" width="47" height="5" rx="2.5" fill="#FCD716" stroke="black" stroke-width="2"/>
<rect x="309.136" y="334" width="2" height="9" fill="black"/>
<circle cx="310.136" cy="334" r="3" fill="#A28805" stroke="black"/>
<rect x="192.985" y="228" width="40.9617" height="8" rx="4" transform="rotate(14.1874 192.985 228)" fill="black"/>
<rect width="40.9617" height="8" rx="4" transform="matrix(0.871096 -0.491112 -0.491112 -0.871096 199.953 286.086)" fill="black"/>
<rect x="190.47" y="253.727" width="40.9617" height="8" rx="4" transform="rotate(-8.04395 190.47 253.727)" fill="black"/>
<circle cx="118.872" cy="370.236" r="12.3783" fill="#FD0000" stroke="black" stroke-width="4.71556"/>
<path d="M129.053 373.361L146.136 378.486" stroke="black" stroke-width="4.55556"/>
</svg>
