<svg width="501" height="551" viewBox="0 0 501 551" fill="none" xmlns="http://www.w3.org/2000/svg">
<path d="M114.964 438.297C128.928 443.168 143.706 441.11 155.797 437.763C169.141 434.07 178.213 421.581 179.765 407.822L195.249 270.56C197.643 249.345 181.227 227.854 159.903 226.813C144.086 226.041 127.433 226.922 117.443 232.916C81.1505 254.691 84.1929 427.562 114.964 438.297Z" fill="#6AD7E5" stroke="black" stroke-width="20"/>
<mask id="mask0_1_300" style="mask-type:alpha" maskUnits="userSpaceOnUse" x="81" y="216" width="125" height="236">
<path d="M114.964 438.297C128.928 443.168 143.706 441.11 155.797 437.763C169.141 434.07 178.213 421.581 179.765 407.822L195.249 270.56C197.643 249.345 181.227 227.854 159.903 226.813C144.086 226.041 127.433 226.922 117.443 232.916C81.1505 254.691 84.1929 427.562 114.964 438.297Z" fill="#E453BD" stroke="#63114C" stroke-width="20"/>
</mask>
<g mask="url(#mask0_1_300)">
<path d="M174.692 277.999C129.465 264.26 71.8821 289.449 48.7439 303.761C48.7439 377.04 82.1392 454.994 98.8368 484.812H174.692V277.999Z" fill="#1A8A9A" fill-opacity="0.55"/>
<path d="M114.964 438.297C128.928 443.168 143.706 441.11 155.797 437.763C169.141 434.07 178.213 421.581 179.765 407.822L195.249 270.56C197.643 249.345 181.227 227.854 159.903 226.813C144.086 226.041 127.433 226.922 117.443 232.916C81.1505 254.691 84.1929 427.562 114.964 438.297Z" stroke="black" stroke-width="20"/>
</g>
<path d="M226.35 182.168L244.681 170.968L225.303 164.484C225.199 164.388 225.074 164.269 224.926 164.124C223.981 163.192 222.791 161.855 221.123 159.946C220.937 159.733 220.747 159.516 220.553 159.293C217.452 155.739 213.284 150.963 208.335 146.535C197.806 137.116 181.709 127.539 161.15 134.206C140.335 140.956 129.182 163.04 131.425 182.775C132.589 193.02 137.35 203.089 146.473 210.509C155.56 217.899 168.144 222 183.876 222H191.119L193.377 215.118C194.781 210.841 199.701 204.394 206.957 197.465C213.878 190.856 221.515 185.122 226.35 182.168ZM225.7 164.824C225.7 164.825 225.692 164.819 225.677 164.807C225.692 164.818 225.7 164.824 225.7 164.824Z" fill="#6AD7E5" stroke="black" stroke-width="20"/>
<path d="M160.636 182C162.124 192.91 185.636 202.5 189.636 202.5L202.136 175C172.136 149.5 159.136 171 160.636 182Z" fill="black"/>
<path d="M316.922 182.168L298.592 170.968L317.969 164.484C318.073 164.388 318.199 164.269 318.346 164.124C319.291 163.192 320.481 161.855 322.15 159.946C322.335 159.733 322.525 159.516 322.719 159.293C325.82 155.739 329.988 150.963 334.937 146.535C345.466 137.116 361.564 127.539 382.122 134.206C402.937 140.956 414.09 163.04 411.848 182.775C410.683 193.02 405.923 203.089 396.799 210.509C387.712 217.899 375.128 222 359.397 222H352.154L349.895 215.118C348.492 210.841 343.571 204.394 336.315 197.465C329.395 190.856 321.758 185.122 316.922 182.168ZM317.573 164.824C317.573 164.825 317.58 164.819 317.596 164.807C317.581 164.818 317.573 164.824 317.573 164.824Z" fill="#6AD7E5" stroke="black" stroke-width="20"/>
<path d="M382.636 182C381.148 192.91 357.636 202.5 353.636 202.5L341.136 175C371.136 149.5 384.136 171 382.636 182Z" fill="black"/>
<path d="M168.252 213.594C150.984 257.627 143.772 404.47 152.133 489.522C152.758 495.888 156.279 501.636 162.048 504.399C183.05 514.459 220.215 522.968 251.263 499.527L261.997 439.728L283.823 436.508L304.755 434.182C308.047 475.115 308.154 495.576 312.09 499.527C322.927 514.936 352.227 507.01 369.856 500.835C377.494 498.159 382.913 491.122 383.888 483.088C408.439 280.789 369.148 196.282 341.825 171.061C313.916 145.299 196.876 140.601 168.252 213.594Z" fill="#6AD7E5"/>
<path d="M325.687 431.856L304.755 434.182M304.755 434.182L283.823 436.508L261.997 439.728L251.263 499.527C220.215 522.968 183.05 514.459 162.048 504.399C156.279 501.636 152.758 495.888 152.133 489.522C143.772 404.47 150.984 257.627 168.252 213.594C196.876 140.601 313.916 145.299 341.825 171.061C369.148 196.282 408.439 280.789 383.888 483.088C382.913 491.122 377.494 498.159 369.856 500.835C352.227 507.01 322.927 514.936 312.09 499.527C308.154 495.576 308.047 475.115 304.755 434.182Z" stroke="black" stroke-width="20" stroke-linecap="round" stroke-linejoin="round"/>
<mask id="mask1_1_300" style="mask-type:alpha" maskUnits="userSpaceOnUse" x="138" y="143" width="264" height="382">
<path d="M168.252 213.594C150.984 257.627 143.772 404.47 152.133 489.522C152.758 495.888 156.279 501.636 162.048 504.399C183.05 514.459 220.215 522.968 251.263 499.527L261.997 439.728L283.823 436.508L304.755 434.182C308.047 475.115 308.154 495.576 312.09 499.527C322.927 514.936 352.227 507.01 369.856 500.835C377.494 498.159 382.913 491.122 383.888 483.088C408.439 280.789 369.148 196.282 341.825 171.061C313.916 145.299 196.876 140.601 168.252 213.594Z" fill="#E752BE"/>
<path d="M325.687 431.856L304.755 434.182M304.755 434.182L283.823 436.508L261.997 439.728L251.263 499.527C220.215 522.968 183.05 514.459 162.048 504.399C156.279 501.636 152.758 495.888 152.133 489.522C143.772 404.47 150.984 257.627 168.252 213.594C196.876 140.601 313.916 145.299 341.825 171.061C369.148 196.282 408.439 280.789 383.888 483.088C382.913 491.122 377.494 498.159 369.856 500.835C352.227 507.01 322.927 514.936 312.09 499.527C308.154 495.576 308.047 475.115 304.755 434.182Z" stroke="#63114C" stroke-width="20" stroke-linecap="round" stroke-linejoin="round"/>
</mask>
<g mask="url(#mask1_1_300)">
<path d="M340.714 396.075C365.904 385.771 382.22 343.836 386.514 313.064L394.385 566.391H139.627V157.776H203.317C167.536 245.081 176.839 335.964 212.62 384.626C235.389 415.592 309.227 408.956 340.714 396.075Z" fill="#1A8A9A" fill-opacity="0.55"/>
<path d="M325.687 431.856L304.755 434.182M304.755 434.182L283.823 436.508L261.997 439.728L251.263 499.527C220.215 522.968 183.05 514.459 162.048 504.399C156.279 501.636 152.758 495.888 152.133 489.522C143.772 404.47 150.984 257.627 168.252 213.594C196.876 140.601 313.916 145.299 341.825 171.061C369.148 196.282 408.439 280.789 383.888 483.088C382.913 491.122 377.494 498.159 369.856 500.835C352.227 507.01 322.927 514.936 312.09 499.527C308.154 495.576 308.047 475.115 304.755 434.182Z" stroke="black" stroke-width="20" stroke-linecap="round" stroke-linejoin="round"/>
</g>
<path d="M296.636 408.5C284.636 401.9 290.303 372.5 293.636 359.5L319.136 356H347.636C356.636 374 353.314 404.329 341.636 408.5C327.636 413.5 320.636 398.333 319.136 394.5C319.136 405.5 306.636 414 296.636 408.5Z" fill="white"/>
<path d="M319.136 394.5C319.136 405.5 306.636 414 296.636 408.5C284.636 401.9 290.303 372.5 293.636 359.5L319.136 356M319.136 394.5C319.136 385.7 319.136 365.167 319.136 356M319.136 394.5C320.636 398.333 327.636 413.5 341.636 408.5C353.314 404.329 356.636 374 347.636 356H319.136" stroke="black" stroke-width="12"/>
<path d="M293.036 329.365C285.782 331.055 276.789 336.348 271.32 343.215C268.492 346.767 266.18 351.279 266.137 356.384C266.091 361.737 268.545 366.672 273.209 370.758C284.546 380.692 296.803 378.856 305.882 376.55C307.663 376.098 309.223 375.662 310.643 375.266C313.16 374.563 315.238 373.982 317.33 373.649C320.377 373.164 321.421 373.619 321.934 374.023C325.578 376.897 330.727 378.554 335.701 379.361C340.818 380.191 346.523 380.246 351.795 379.329C356.946 378.432 362.408 376.477 366.276 372.656C370.524 368.461 372.21 362.628 370.437 355.947C367.288 344.085 356.686 334.359 343.01 329.207C329.224 324.012 311.664 323.142 293.036 329.365Z" fill="#F6D2A2" stroke="black" stroke-width="12"/>
<ellipse cx="321.636" cy="337" rx="34.5" ry="19" fill="black"/>
<path d="M400.11 308.771C374.975 335.064 318.53 334.201 291.898 325.77C250.003 312.507 244.994 258.836 251.434 233.79C258.025 208.158 295.751 207.849 340.865 210.254C385.979 212.659 431.529 275.904 400.11 308.771Z" fill="#98C7DD" stroke="black" stroke-width="20"/>
<mask id="mask2_1_300" style="mask-type:alpha" maskUnits="userSpaceOnUse" x="239" y="199" width="182" height="143">
<path d="M400.11 308.771C374.975 335.064 318.53 334.201 291.898 325.77C250.003 312.507 244.994 258.836 251.434 233.79C258.025 208.158 295.751 207.849 340.865 210.254C385.979 212.659 431.529 275.904 400.11 308.771Z" fill="#98C7DD" stroke="#3D3436" stroke-width="20"/>
</mask>
<g mask="url(#mask2_1_300)">
<path d="M366.476 243.65C360.751 233.917 327.73 232.2 312.225 232.2C308.886 232.2 302.493 234.633 303.638 244.365C305.069 256.531 338.703 262.971 353.731 262.971C368.759 262.971 373.632 255.815 366.476 243.65Z" fill="#FBFDFD" fill-opacity="0.85"/>
<path d="M299.924 284.44C278.44 280.411 269.343 237.959 267.316 212.634C267.085 209.752 265.232 207.232 262.51 206.255L248.671 201.287C244.009 199.614 239.097 203.055 239.097 208.008V369.598C239.097 376.227 340.369 372.728 396.337 369.903C399.778 369.729 402.586 367.122 403.04 363.706L413.326 286.289C414.199 279.721 405.511 274.414 399.351 276.853C368.47 289.079 318.638 287.949 299.924 284.44Z" fill="#4B646E" fill-opacity="0.55"/>
<path d="M400.11 308.771C374.975 335.064 318.53 334.201 291.898 325.77C250.003 312.507 244.994 258.836 251.434 233.79C258.025 208.158 295.751 207.849 340.865 210.254C385.979 212.659 431.529 275.904 400.11 308.771Z" stroke="black" stroke-width="20"/>
</g>
</svg>
