<svg width="651" height="551" viewBox="0 0 651 551" fill="none" xmlns="http://www.w3.org/2000/svg">
<path d="M495.014 184.089L495.014 184.089C498.432 185.484 503.317 185.666 507.488 182.538L500.888 173.738L507.488 182.538C513.336 178.152 516.123 170.993 517.524 164.814C519.028 158.178 519.451 150.379 518.913 142.206C517.837 125.865 512.815 106.458 502.765 89.2293C498.776 82.3895 492.419 76.0059 485.502 70.3431C478.456 64.5738 470.187 59.0369 461.702 54.0182C444.793 44.0159 426.189 35.5809 413.037 31.2015C405.512 28.6956 399.822 33.4324 397.645 37.1581C395.51 40.8129 394.407 47.0796 398.622 52.3777C406.511 62.2972 416.09 81.823 423.125 101.88C426.59 111.761 429.289 121.354 430.82 129.471C432.437 138.044 432.444 143.463 431.832 145.852C430.427 151.326 432.604 158.614 439.567 161.457L495.014 184.089Z" fill="#CE5B15" stroke="black" stroke-width="22"/>
<path d="M126.501 461.938C217.049 455.443 294.133 408.642 315.037 352.045C315.104 351.865 315.19 351.703 315.303 351.548C333.837 326.168 339.475 252.749 325.636 207.774C307.636 149.274 210.716 121.917 214.636 132.774C220.919 150.173 221.908 188.904 244.242 210.588C245.31 211.625 245.021 213.438 243.614 213.923C208.341 226.073 140.28 200.108 98.1365 180.274C96.946 179.714 87.8792 192.089 87.6452 193.384C76.1982 256.711 107.991 274.898 139.352 278.182C141.593 278.417 142.25 282.258 140.201 283.194C117.248 293.688 76.9003 319.769 75.1925 373.714C75.1433 375.268 76.811 376.267 78.1415 375.463L78.3502 375.336C99.3663 362.635 144.948 335.086 161.636 351.774C178.82 368.958 176.748 406.922 124.988 458.5C123.676 459.807 124.654 462.07 126.501 461.938Z" fill="#CE5B15"/>
<path d="M196.011 258.382C227.22 332.697 288.851 308.888 298.66 307.786C299.371 307.706 300.114 307.545 300.675 307.102L338.025 277.542C339.465 276.402 338.679 274.062 336.849 273.903C255.57 266.865 262.965 213.555 231.636 169.774C207.336 135.815 145.62 136.418 130.194 144.783C129.062 145.397 129.181 146.92 130.23 147.668C175.75 180.159 163.641 181.301 196.011 258.382Z" fill="#EF7D13"/>
<path d="M77.7808 425.248C99.2269 409.701 123.153 380.749 120.194 368.008C120.157 367.849 120.135 367.689 120.134 367.526C119.852 340.035 128.416 322.183 142.136 311.026C108.47 300.442 43.3365 261.974 52.1365 192.774L55.1148 170.064C55.3844 168.009 58.4136 167.591 59.3487 169.441C71.8723 194.218 105.697 233.925 165.136 238.274C176.579 239.112 187.261 241.066 197.136 243.825C210.188 247.473 221.833 252.528 231.971 258.274C258.142 273.108 274.273 292.549 278.636 304.274C284.739 305.609 282.869 306.25 286.607 307.369C287.494 307.634 288.136 308.427 288.136 309.353V351.298C288.136 352.572 286.944 353.517 285.694 353.27C221.899 340.654 173.53 375.189 165.136 407.774C158.8 432.373 100.894 432.691 78.4598 428.71C76.7626 428.409 76.3852 426.259 77.7808 425.248Z" fill="#EF7D13"/>
<path d="M342.662 286.624L344.231 285.383C351.542 279.597 349.43 270.117 343.334 265.96C343.247 244.478 340.705 222.742 335.194 204.834C324.939 171.505 292.991 148.417 266.333 135.294C252.742 128.603 239.675 124.074 229.957 121.923C225.282 120.888 220.588 120.218 216.779 120.51C215.161 120.633 211.854 121.03 208.962 123.243C207.265 124.541 205.607 126.562 204.881 129.349C204.178 132.05 204.614 134.462 205.231 136.171L214.533 132.812L205.231 136.171C205.511 136.947 205.783 137.79 206.051 138.702C197.133 135.103 187.834 132.828 179.066 131.517C168.098 129.878 157.4 129.652 148.295 130.419C139.529 131.158 131.12 132.906 125.427 135.993C121.264 138.25 119.258 142.49 119.4 146.528C119.533 150.295 121.459 153.694 124.42 155.808C146.797 171.78 153.446 178.981 159.036 190.63C159.675 191.961 160.299 193.351 160.924 194.822C139.913 187.909 119.142 179.108 102.395 171.226C98.0917 169.201 94.342 170.912 93.6756 171.217L93.6732 171.218C92.4709 171.766 91.581 172.439 91.1403 172.788C90.1755 173.553 89.3134 174.438 88.6938 175.106C87.3675 176.537 85.9001 178.35 84.5991 180.045C83.4138 181.59 82.24 183.202 81.2694 184.614C75.5613 177.656 71.2522 170.823 68.2734 164.93C65.4629 159.369 59.7483 157.789 55.5624 158.389C51.3269 158.997 46.0519 162.267 45.1997 168.764L42.2214 191.474L42.2188 191.493L42.2164 191.513C37.3344 229.903 53.1342 259.732 74.1046 280.916C81.4107 288.297 89.3934 294.691 97.4584 300.125C80.7086 316.404 66.2538 340.032 65.1975 373.397C64.904 382.669 75.0198 389.034 83.314 384.021L78.1415 375.463L83.314 384.021L83.5228 383.895L78.3502 375.336L83.5228 383.895C90.6329 379.597 100.132 373.868 110.197 368.741C110.255 369.299 110.347 369.811 110.453 370.27C110.45 370.255 110.45 370.264 110.45 370.298C110.446 370.555 110.426 372.273 108.73 375.997C106.991 379.818 104.084 384.45 100.215 389.476C92.48 399.526 81.8207 409.968 71.9115 417.151L77.7808 425.248L71.9114 417.151C67.9448 420.027 66.3171 424.761 67.1331 429.095C67.9742 433.564 71.4594 437.624 76.7125 438.556C88.9612 440.73 110.128 441.67 129.289 438.853C129.48 438.825 129.672 438.797 129.863 438.768C126.257 442.855 122.289 447.073 117.93 451.416C110.483 458.837 115.524 472.751 127.217 471.912C173.944 468.56 217.36 454.808 251.967 434.392C286.077 414.27 312.351 387.218 324.039 356.519C329.4 348.811 333.416 338.473 336.357 327.232C339.46 315.375 341.549 301.795 342.582 287.743C342.61 287.37 342.637 286.998 342.662 286.624ZM324.418 355.509C324.417 355.511 324.416 355.514 324.415 355.517C324.416 355.514 324.417 355.512 324.418 355.509L324.418 355.509Z" stroke="black" stroke-width="20"/>
<path d="M126.501 461.938C217.05 455.443 294.133 408.642 315.037 352.045C315.104 351.865 315.19 351.703 315.303 351.548C333.837 326.168 339.475 252.749 325.637 207.774C307.637 149.274 210.716 121.917 214.637 132.774C220.919 150.173 221.908 188.904 244.243 210.588C245.31 211.625 245.021 213.438 243.614 213.923C208.341 226.073 132.611 211.728 90.4683 191.894C89.2778 191.334 87.8795 192.089 87.6454 193.384C76.1984 256.711 107.991 274.898 139.353 278.182C141.593 278.417 142.25 282.258 140.201 283.194C117.249 293.688 76.9006 319.769 75.1927 373.714C75.1435 375.268 76.8113 376.267 78.1418 375.463L78.3505 375.336C99.3665 362.635 144.948 335.086 161.637 351.774C178.82 368.958 176.748 406.922 124.989 458.5C123.677 459.807 124.654 462.07 126.501 461.938Z" fill="#CE5B15"/>
<path d="M120.892 500.487C120.892 500.487 120.893 500.487 120.894 500.487L120.892 500.487ZM194.4 498.651C206.572 493.029 218.249 486.877 227.976 480.967C224.586 487.818 220.548 492.837 217.383 495.886L224.321 503.088L217.383 495.886C213.868 499.272 212.919 504.122 214.178 508.223C215.511 512.565 219.574 516.528 225.372 516.571C238.472 516.67 253.641 511.37 260.415 508.417C269.26 504.994 276.807 497.782 283.062 489.824C289.52 481.608 295.383 471.582 300.518 461.266C310.77 440.67 318.692 417.753 322.904 402.807L332.504 371.246L336.961 356.597C338.219 352.459 337.248 347.282 333.143 343.942L326.832 351.699L333.143 343.942C321.847 334.75 293.095 325.814 246.741 336.049C214.626 343.14 195.415 361.123 185.192 380.692C175.37 399.492 173.893 419.667 176.782 432.544C176.73 432.775 176.602 433.234 176.29 433.965C175.544 435.717 174.141 438.097 171.944 441.091C167.565 447.056 161.026 454.132 153.517 461.591C146.063 468.994 137.972 476.465 130.616 483.25L130.174 483.658C123.126 490.16 116.57 496.208 112.342 500.654C105.489 507.859 109.989 520.39 120.711 520.486C130.596 520.575 142.852 517.875 155.282 513.987C167.915 510.035 181.525 504.598 194.4 498.651Z" fill="#EF7D13" stroke="black" stroke-width="20"/>
<path d="M208.637 495.774C259.137 454.274 273.637 440.274 268.637 388.274" stroke="black" stroke-width="20"/>
<path d="M186.791 262.254C203.694 302.503 229.742 317.494 253.821 321.246C265.469 323.061 276.19 322.181 284.455 320.856C288.599 320.191 292.181 319.405 294.934 318.778C295.387 318.675 295.803 318.579 296.19 318.49C297.023 318.299 297.719 318.139 298.357 318.001C298.804 317.904 299.148 317.834 299.414 317.784C299.653 317.74 299.763 317.725 299.777 317.723C300.85 317.603 304.004 317.22 306.881 314.943L344.231 285.383C353.491 278.054 347.634 264.799 337.712 263.94C318.475 262.275 305.249 257.938 295.635 252.224C286.098 246.556 279.487 239.163 274.006 230.34C269.092 222.431 265.265 213.718 260.968 203.931C260.327 202.471 259.675 200.988 259.008 199.48C253.992 188.138 248.239 175.791 239.769 163.955C225.322 143.766 200.596 134.735 179.066 131.517C168.098 129.878 157.4 129.652 148.296 130.419C139.53 131.157 131.12 132.906 125.427 135.993C121.264 138.25 119.258 142.49 119.401 146.528C119.533 150.295 121.459 153.694 124.42 155.808L130.23 147.668L124.42 155.808C146.797 171.78 153.446 178.981 159.036 190.63C161.889 196.575 164.45 203.691 168.167 214.015C168.461 214.831 168.762 215.667 169.071 216.524C173.223 228.046 178.602 242.753 186.791 262.254Z" fill="#EF7D13" stroke="black" stroke-width="20"/>
<path d="M289.459 297.838L289.474 297.788C289.474 297.788 289.473 297.788 289.473 297.788C289.402 297.767 289.344 297.748 289.297 297.733C289.275 297.719 289.248 297.702 289.213 297.679C289.096 297.603 288.927 297.495 288.73 297.374C287.834 296.825 286.908 296.366 285.865 295.96C278.615 281.769 261.444 263.485 236.902 249.575C226.096 243.45 213.702 238.072 199.828 234.194C189.328 231.26 177.99 229.188 165.866 228.301C110.969 224.284 79.7494 187.634 68.2734 164.93C65.4628 159.369 59.7483 157.789 55.5624 158.389C51.3269 158.997 46.0519 162.267 45.1997 168.764L42.2214 191.474L42.2188 191.493L42.2164 191.513C37.3344 229.903 53.1342 259.732 74.1046 280.916C89.7761 296.748 108.56 308.038 124.593 315.063C115.065 328.061 109.907 345.425 110.134 367.628C110.144 368.631 110.279 369.521 110.453 370.27C110.45 370.255 110.45 370.264 110.45 370.298C110.446 370.555 110.426 372.273 108.73 375.997C106.991 379.818 104.084 384.45 100.215 389.476C92.48 399.526 81.8207 409.968 71.9115 417.151L71.9114 417.151L289.459 297.838C289.459 297.838 289.459 297.838 289.459 297.838ZM289.459 297.838L289.458 297.839C289.467 297.844 289.474 297.848 289.478 297.851C289.488 297.857 289.484 297.854 289.459 297.838Z" fill="#EF7D13" stroke="black" stroke-width="20"/>
<path d="M119.137 320.274C127.137 305.774 178.537 285.374 256.137 303.774" stroke="black" stroke-width="20"/>
<path d="M250.928 410.845C264.892 415.717 279.669 413.659 291.76 410.312C305.105 406.619 314.176 394.13 315.728 380.37L331.213 243.109C333.606 221.894 317.191 200.403 295.866 199.362C280.049 198.59 263.396 199.47 253.406 205.464C217.114 227.24 220.156 400.111 250.928 410.845Z" fill="#EF7D13" stroke="black" stroke-width="20"/>
<mask id="mask0_1_648" style="mask-type:alpha" maskUnits="userSpaceOnUse" x="217" y="189" width="125" height="235">
<path d="M250.928 410.845C264.892 415.717 279.669 413.659 291.76 410.312C305.105 406.619 314.176 394.13 315.728 380.37L331.213 243.109C333.606 221.894 317.191 200.403 295.866 199.362C280.049 198.59 263.396 199.47 253.406 205.464C217.114 227.24 220.156 400.111 250.928 410.845Z" fill="#E453BD" stroke="#63114C" stroke-width="20"/>
</mask>
<g mask="url(#mask0_1_648)">
<path d="M310.655 250.548C265.428 236.808 207.845 261.998 184.707 276.31C184.707 349.589 218.102 427.543 234.8 457.36H310.655V250.548Z" fill="#B33F15" fill-opacity="0.55"/>
<path d="M250.928 410.845C264.892 415.717 279.669 413.659 291.76 410.312C305.105 406.619 314.176 394.13 315.728 380.37L331.213 243.109C333.606 221.894 317.191 200.403 295.866 199.362C280.049 198.59 263.396 199.47 253.406 205.464C217.114 227.24 220.156 400.111 250.928 410.845Z" stroke="black" stroke-width="20"/>
</g>
<mask id="path-14-outside-1_1_648" maskUnits="userSpaceOnUse" x="232.788" y="48.5463" width="379" height="459" fill="black">
<rect fill="white" x="232.788" y="48.5463" width="379" height="459"/>
<path fill-rule="evenodd" clip-rule="evenodd" d="M386.641 130.443C386.021 130.584 385.375 130.43 384.886 130.023C373.707 120.722 354.702 109.336 325.317 100.232C287.98 88.6647 267.218 76.5137 258.01 69.0402C256.456 67.7791 253.56 69.1033 253.802 71.0897C257.978 105.358 274.107 162.69 312.038 187.453C312.826 187.967 313.188 188.899 312.885 189.791C296.581 237.785 289.953 379.235 298.095 462.071C298.721 468.437 302.242 474.185 308.011 476.948C328.871 486.94 365.674 495.401 396.593 472.549C396.997 472.25 397.275 471.801 397.364 471.305L407.706 413.692C407.858 412.846 408.532 412.192 409.382 412.067L429.786 409.056L448.669 406.958C449.79 406.834 450.793 407.661 450.882 408.786C451.665 418.681 452.263 427.342 452.78 434.828L452.78 434.829C454.31 456.977 455.129 468.844 457.938 471.955C458.014 472.039 458.087 472.125 458.153 472.217C469.069 487.436 498.244 479.54 515.818 473.383C523.456 470.708 528.876 463.671 529.851 455.637C533.989 421.539 536.313 390.787 537.187 363.102C537.208 362.438 537.57 361.821 538.13 361.464C594.508 325.437 602.748 289.876 576.636 291.274C569.094 291.678 555.292 294.777 538.927 299.181C537.699 299.512 536.473 298.605 536.395 297.335C530.772 205.862 506.48 160.863 487.788 143.61C471.954 128.994 427.431 121.158 386.641 130.443Z"/>
</mask>
<path fill-rule="evenodd" clip-rule="evenodd" d="M386.641 130.443C386.021 130.584 385.375 130.43 384.886 130.023C373.707 120.722 354.702 109.336 325.317 100.232C287.98 88.6647 267.218 76.5137 258.01 69.0402C256.456 67.7791 253.56 69.1033 253.802 71.0897C257.978 105.358 274.107 162.69 312.038 187.453C312.826 187.967 313.188 188.899 312.885 189.791C296.581 237.785 289.953 379.235 298.095 462.071C298.721 468.437 302.242 474.185 308.011 476.948C328.871 486.94 365.674 495.401 396.593 472.549C396.997 472.25 397.275 471.801 397.364 471.305L407.706 413.692C407.858 412.846 408.532 412.192 409.382 412.067L429.786 409.056L448.669 406.958C449.79 406.834 450.793 407.661 450.882 408.786C451.665 418.681 452.263 427.342 452.78 434.828L452.78 434.829C454.31 456.977 455.129 468.844 457.938 471.955C458.014 472.039 458.087 472.125 458.153 472.217C469.069 487.436 498.244 479.54 515.818 473.383C523.456 470.708 528.876 463.671 529.851 455.637C533.989 421.539 536.313 390.787 537.187 363.102C537.208 362.438 537.57 361.821 538.13 361.464C594.508 325.437 602.748 289.876 576.636 291.274C569.094 291.678 555.292 294.777 538.927 299.181C537.699 299.512 536.473 298.605 536.395 297.335C530.772 205.862 506.48 160.863 487.788 143.61C471.954 128.994 427.431 121.158 386.641 130.443Z" fill="#EF7D13"/>
<path d="M325.317 100.232L319.398 119.336L325.317 100.232ZM258.01 69.0402L245.406 84.5691L245.406 84.5691L258.01 69.0402ZM253.802 71.0897L233.949 73.509L253.802 71.0897ZM298.095 462.071L278.191 464.027H278.191L298.095 462.071ZM308.011 476.948L316.65 458.91L316.65 458.91L308.011 476.948ZM429.786 409.056L427.577 389.179L427.221 389.218L426.867 389.271L429.786 409.056ZM452.78 434.828L472.755 433.83L472.746 433.64L472.733 433.451L452.78 434.828ZM452.78 434.829L432.805 435.828L432.815 436.018L432.828 436.207L452.78 434.829ZM515.818 473.383L509.206 454.508H509.206L515.818 473.383ZM529.851 455.637L509.996 453.227L509.996 453.227L529.851 455.637ZM576.636 291.274L577.706 311.246L576.636 291.274ZM487.788 143.61L474.222 158.306L474.222 158.306L487.788 143.61ZM537.187 363.102L557.177 363.733L537.187 363.102ZM457.938 471.955L472.782 458.551L457.938 471.955ZM458.153 472.217L474.404 460.56L458.153 472.217ZM448.669 406.958L446.46 387.081L448.669 406.958ZM450.882 408.786L430.944 410.365L450.882 408.786ZM407.706 413.692L427.391 417.225L407.706 413.692ZM409.382 412.067L406.463 392.281L409.382 412.067ZM538.927 299.181L533.73 279.868L538.927 299.181ZM536.395 297.335L516.432 298.563L536.395 297.335ZM396.593 472.549L408.48 488.633L396.593 472.549ZM397.364 471.305L417.049 474.839L397.364 471.305ZM312.038 187.453L301.105 204.2L312.038 187.453ZM312.885 189.791L293.948 183.358L312.885 189.791ZM384.886 130.023L372.094 145.397L384.886 130.023ZM386.641 130.443L382.201 110.942L386.641 130.443ZM319.398 119.336C346.66 127.782 363.231 138.023 372.094 145.397L397.678 114.649C384.184 103.421 362.745 90.8898 331.235 81.1279L319.398 119.336ZM245.406 84.5691C257.244 94.177 280.577 107.309 319.398 119.336L331.235 81.1279C295.382 70.0202 277.192 58.8505 270.613 53.5113L245.406 84.5691ZM273.655 68.6703C274.929 79.1238 267.68 85.0763 263.812 86.9133C259.958 88.7437 252.308 90.1711 245.406 84.5691L270.613 53.5113C262.157 46.6483 252.283 48.1072 246.652 50.781C241.009 53.4613 232.433 61.0692 233.949 73.509L273.655 68.6703ZM322.971 170.706C308.648 161.355 297.166 144.861 288.648 124.964C280.235 105.315 275.561 84.3121 273.655 68.6703L233.949 73.509C236.219 92.1353 241.697 116.932 251.876 140.707C261.949 164.234 277.498 188.788 301.105 204.2L322.971 170.706ZM317.999 460.114C314.056 419.998 313.651 364.985 316.296 313.899C318.979 262.079 324.667 217.287 331.823 196.224L293.948 183.358C284.799 210.29 279.022 260.219 276.35 311.831C273.64 364.178 273.992 421.307 278.191 464.027L317.999 460.114ZM316.65 458.91C317.28 459.212 317.688 459.646 317.882 459.944C318.05 460.201 318.015 460.277 317.999 460.114L278.191 464.027C279.398 476.299 286.392 488.769 299.371 494.986L316.65 458.91ZM384.705 456.465C362.58 472.818 334.774 467.591 316.65 458.91L299.371 494.985C322.967 506.288 368.767 517.985 408.48 488.633L384.705 456.465ZM388.02 410.158L377.679 467.772L417.049 474.839L427.391 417.225L388.02 410.158ZM426.867 389.271L406.463 392.281L412.302 431.852L432.705 428.842L426.867 389.271ZM446.46 387.081L427.577 389.179L431.995 428.934L450.877 426.836L446.46 387.081ZM472.733 433.451C472.216 425.967 471.612 417.214 470.819 407.207L430.944 410.365C431.719 420.147 432.311 428.717 432.828 436.206L472.733 433.451ZM472.755 433.831L472.755 433.83L432.805 435.827L432.805 435.828L472.755 433.831ZM472.782 458.551C475.443 461.499 475.831 464.119 475.512 462.898C475.352 462.285 475.066 460.848 474.732 458.109C474.064 452.635 473.514 444.767 472.733 433.452L432.828 436.207C433.576 447.04 434.2 456.18 435.026 462.953C435.439 466.338 435.981 469.836 436.812 473.015C437.484 475.585 439.028 480.856 443.094 485.358L472.782 458.551ZM509.206 454.508C500.817 457.447 491.126 460.242 482.944 460.876C473.652 461.596 473.396 459.154 474.404 460.56L441.901 483.874C453.826 500.499 473.616 501.718 486.034 500.756C499.562 499.708 513.245 495.476 522.431 492.259L509.206 454.508ZM509.996 453.227C509.957 453.552 509.816 453.896 509.6 454.172C509.393 454.436 509.229 454.5 509.206 454.508L522.43 492.259C537.607 486.942 547.857 473.269 549.705 458.046L509.996 453.227ZM517.197 362.471C516.344 389.508 514.069 419.664 509.996 453.227L549.705 458.046C553.908 423.413 556.283 392.066 557.177 363.733L517.197 362.471ZM577.706 311.246C580.344 311.104 575.205 312.026 572.006 306.163C569.59 301.734 571.997 299.786 570.024 304.248C566.477 312.273 554.097 327.526 527.36 344.611L548.899 378.317C578.541 359.375 598.47 338.834 606.609 320.421C610.48 311.664 613.574 298.836 607.121 287.007C599.885 273.744 585.984 270.745 575.566 271.303L577.706 311.246ZM544.125 318.494C560.831 313.998 572.61 311.519 577.706 311.246L575.566 271.303C565.577 271.838 549.753 275.556 533.73 279.868L544.125 318.494ZM474.222 158.306C487.411 170.48 510.946 209.305 516.432 298.563L556.357 296.108C550.598 202.418 525.548 151.247 501.354 128.914L474.222 158.306ZM391.08 149.944C408.911 145.885 427.759 145.558 443.719 147.859C460.585 150.291 470.779 155.127 474.222 158.306L501.354 128.914C488.963 117.476 468.978 111.087 449.427 108.268C428.969 105.319 405.16 105.716 382.201 110.942L391.08 149.944ZM557.177 363.733C556.982 369.905 553.698 375.25 548.899 378.317L527.36 344.611C521.443 348.392 517.433 354.971 517.197 362.471L557.177 363.733ZM443.094 485.358C442.924 485.171 442.448 484.636 441.901 483.874L474.404 460.56C473.725 459.613 473.104 458.908 472.782 458.551L443.094 485.358ZM450.877 426.836C440.787 427.957 431.747 420.511 430.944 410.365L470.819 407.207C469.838 394.811 458.793 385.71 446.46 387.081L450.877 426.836ZM427.391 417.225C426.025 424.836 419.951 430.724 412.302 431.852L406.463 392.281C397.114 393.66 389.69 400.856 388.02 410.158L427.391 417.225ZM533.73 279.868C545.076 276.815 555.681 285.116 556.357 296.108L516.432 298.563C517.264 312.094 530.323 322.208 544.125 318.494L533.73 279.868ZM408.48 488.633C413.018 485.279 416.064 480.326 417.049 474.839L377.679 467.772C378.486 463.276 380.977 459.221 384.705 456.465L408.48 488.633ZM301.105 204.2C294.865 200.126 291.082 191.795 293.948 183.358L331.823 196.224C335.294 186.004 330.788 175.809 322.971 170.706L301.105 204.2ZM372.094 145.397C377.374 149.79 384.391 151.467 391.08 149.944L382.201 110.942C387.651 109.702 393.375 111.069 397.678 114.649L372.094 145.397Z" fill="black" mask="url(#path-14-outside-1_1_648)"/>
<mask id="mask1_1_648" style="mask-type:alpha" maskUnits="userSpaceOnUse" x="233" y="48" width="378" height="460">
<mask id="path-16-outside-2_1_648" maskUnits="userSpaceOnUse" x="232.788" y="48.5463" width="379" height="459" fill="black">
<rect fill="white" x="232.788" y="48.5463" width="379" height="459"/>
<path fill-rule="evenodd" clip-rule="evenodd" d="M386.641 130.443C386.021 130.584 385.375 130.43 384.886 130.023C373.707 120.722 354.702 109.336 325.317 100.232C287.98 88.6647 267.218 76.5137 258.01 69.0402C256.456 67.7791 253.56 69.1033 253.802 71.0897C257.978 105.358 274.107 162.69 312.038 187.453C312.826 187.967 313.188 188.899 312.885 189.791C296.581 237.785 289.953 379.235 298.095 462.071C298.721 468.437 302.242 474.185 308.011 476.948C328.871 486.94 365.674 495.401 396.593 472.549C396.997 472.25 397.275 471.801 397.364 471.305L407.706 413.692C407.858 412.846 408.532 412.192 409.382 412.067L429.786 409.056L448.669 406.958C449.79 406.834 450.793 407.661 450.882 408.786C451.665 418.681 452.263 427.342 452.78 434.828L452.78 434.829C454.31 456.977 455.129 468.844 457.938 471.955C458.014 472.039 458.087 472.125 458.153 472.217C469.069 487.436 498.244 479.54 515.818 473.383C523.456 470.708 528.876 463.671 529.851 455.637C533.989 421.539 536.313 390.787 537.187 363.102C537.208 362.438 537.57 361.821 538.13 361.464C594.508 325.437 602.748 289.876 576.636 291.274C569.094 291.678 555.292 294.777 538.927 299.181C537.699 299.512 536.473 298.605 536.395 297.335C530.772 205.862 506.48 160.863 487.788 143.61C471.954 128.994 427.431 121.158 386.641 130.443Z"/>
</mask>
<path fill-rule="evenodd" clip-rule="evenodd" d="M386.641 130.443C386.021 130.584 385.375 130.43 384.886 130.023C373.707 120.722 354.702 109.336 325.317 100.232C287.98 88.6647 267.218 76.5137 258.01 69.0402C256.456 67.7791 253.56 69.1033 253.802 71.0897C257.978 105.358 274.107 162.69 312.038 187.453C312.826 187.967 313.188 188.899 312.885 189.791C296.581 237.785 289.953 379.235 298.095 462.071C298.721 468.437 302.242 474.185 308.011 476.948C328.871 486.94 365.674 495.401 396.593 472.549C396.997 472.25 397.275 471.801 397.364 471.305L407.706 413.692C407.858 412.846 408.532 412.192 409.382 412.067L429.786 409.056L448.669 406.958C449.79 406.834 450.793 407.661 450.882 408.786C451.665 418.681 452.263 427.342 452.78 434.828L452.78 434.829C454.31 456.977 455.129 468.844 457.938 471.955C458.014 472.039 458.087 472.125 458.153 472.217C469.069 487.436 498.244 479.54 515.818 473.383C523.456 470.708 528.876 463.671 529.851 455.637C533.989 421.539 536.313 390.787 537.187 363.102C537.208 362.438 537.57 361.821 538.13 361.464C594.508 325.437 602.748 289.876 576.636 291.274C569.094 291.678 555.292 294.777 538.927 299.181C537.699 299.512 536.473 298.605 536.395 297.335C530.772 205.862 506.48 160.863 487.788 143.61C471.954 128.994 427.431 121.158 386.641 130.443Z" fill="#EF7D13"/>
<path d="M325.317 100.232L319.398 119.336L325.317 100.232ZM258.01 69.0402L245.406 84.5691L245.406 84.5691L258.01 69.0402ZM253.802 71.0897L233.949 73.509L253.802 71.0897ZM298.095 462.071L278.191 464.027H278.191L298.095 462.071ZM308.011 476.948L316.65 458.91L316.65 458.91L308.011 476.948ZM429.786 409.056L427.577 389.179L427.221 389.218L426.867 389.271L429.786 409.056ZM452.78 434.828L472.755 433.83L472.746 433.64L472.733 433.451L452.78 434.828ZM452.78 434.829L432.805 435.828L432.815 436.018L432.828 436.207L452.78 434.829ZM515.818 473.383L509.206 454.508H509.206L515.818 473.383ZM529.851 455.637L509.996 453.227L509.996 453.227L529.851 455.637ZM576.636 291.274L577.706 311.246L576.636 291.274ZM487.788 143.61L474.222 158.306L474.222 158.306L487.788 143.61ZM537.187 363.102L557.177 363.733L537.187 363.102ZM457.938 471.955L472.782 458.551L457.938 471.955ZM458.153 472.217L474.404 460.56L458.153 472.217ZM448.669 406.958L446.46 387.081L448.669 406.958ZM450.882 408.786L430.944 410.365L450.882 408.786ZM407.706 413.692L427.391 417.225L407.706 413.692ZM409.382 412.067L406.463 392.281L409.382 412.067ZM538.927 299.181L533.73 279.868L538.927 299.181ZM536.395 297.335L516.432 298.563L536.395 297.335ZM396.593 472.549L408.48 488.633L396.593 472.549ZM397.364 471.305L417.049 474.839L397.364 471.305ZM312.038 187.453L301.105 204.2L312.038 187.453ZM312.885 189.791L293.948 183.358L312.885 189.791ZM384.886 130.023L372.094 145.397L384.886 130.023ZM386.641 130.443L382.201 110.942L386.641 130.443ZM319.398 119.336C346.66 127.782 363.231 138.023 372.094 145.397L397.678 114.649C384.184 103.421 362.745 90.8898 331.235 81.1279L319.398 119.336ZM245.406 84.5691C257.244 94.177 280.577 107.309 319.398 119.336L331.235 81.1279C295.382 70.0202 277.192 58.8505 270.613 53.5113L245.406 84.5691ZM273.655 68.6703C274.929 79.1238 267.68 85.0763 263.812 86.9133C259.958 88.7437 252.308 90.1711 245.406 84.5691L270.613 53.5113C262.157 46.6483 252.283 48.1072 246.652 50.781C241.009 53.4613 232.433 61.0692 233.949 73.509L273.655 68.6703ZM322.971 170.706C308.648 161.355 297.166 144.861 288.648 124.964C280.235 105.315 275.561 84.3121 273.655 68.6703L233.949 73.509C236.219 92.1353 241.697 116.932 251.876 140.707C261.949 164.234 277.498 188.788 301.105 204.2L322.971 170.706ZM317.999 460.114C314.056 419.998 313.651 364.985 316.296 313.899C318.979 262.079 324.667 217.287 331.823 196.224L293.948 183.358C284.799 210.29 279.022 260.219 276.35 311.831C273.64 364.178 273.992 421.307 278.191 464.027L317.999 460.114ZM316.65 458.91C317.28 459.212 317.688 459.646 317.882 459.944C318.05 460.201 318.015 460.277 317.999 460.114L278.191 464.027C279.398 476.299 286.392 488.769 299.371 494.986L316.65 458.91ZM384.705 456.465C362.58 472.818 334.774 467.591 316.65 458.91L299.371 494.985C322.967 506.288 368.767 517.985 408.48 488.633L384.705 456.465ZM388.02 410.158L377.679 467.772L417.049 474.839L427.391 417.225L388.02 410.158ZM426.867 389.271L406.463 392.281L412.302 431.852L432.705 428.842L426.867 389.271ZM446.46 387.081L427.577 389.179L431.995 428.934L450.877 426.836L446.46 387.081ZM472.733 433.451C472.216 425.967 471.612 417.214 470.819 407.207L430.944 410.365C431.719 420.147 432.311 428.717 432.828 436.206L472.733 433.451ZM472.755 433.831L472.755 433.83L432.805 435.827L432.805 435.828L472.755 433.831ZM472.782 458.551C475.443 461.499 475.831 464.119 475.512 462.898C475.352 462.285 475.066 460.848 474.732 458.109C474.064 452.635 473.514 444.767 472.733 433.452L432.828 436.207C433.576 447.04 434.2 456.18 435.026 462.953C435.439 466.338 435.981 469.836 436.812 473.015C437.484 475.585 439.028 480.856 443.094 485.358L472.782 458.551ZM509.206 454.508C500.817 457.447 491.126 460.242 482.944 460.876C473.652 461.596 473.396 459.154 474.404 460.56L441.901 483.874C453.826 500.499 473.616 501.718 486.034 500.756C499.562 499.708 513.245 495.476 522.431 492.259L509.206 454.508ZM509.996 453.227C509.957 453.552 509.816 453.896 509.6 454.172C509.393 454.436 509.229 454.5 509.206 454.508L522.43 492.259C537.607 486.942 547.857 473.269 549.705 458.046L509.996 453.227ZM517.197 362.471C516.344 389.508 514.069 419.664 509.996 453.227L549.705 458.046C553.908 423.413 556.283 392.066 557.177 363.733L517.197 362.471ZM577.706 311.246C580.344 311.104 575.205 312.026 572.006 306.163C569.59 301.734 571.997 299.786 570.024 304.248C566.477 312.273 554.097 327.526 527.36 344.611L548.899 378.317C578.541 359.375 598.47 338.834 606.609 320.421C610.48 311.664 613.574 298.836 607.121 287.007C599.885 273.744 585.984 270.745 575.566 271.303L577.706 311.246ZM544.125 318.494C560.831 313.998 572.61 311.519 577.706 311.246L575.566 271.303C565.577 271.838 549.753 275.556 533.73 279.868L544.125 318.494ZM474.222 158.306C487.411 170.48 510.946 209.305 516.432 298.563L556.357 296.108C550.598 202.418 525.548 151.247 501.354 128.914L474.222 158.306ZM391.08 149.944C408.911 145.885 427.759 145.558 443.719 147.859C460.585 150.291 470.779 155.127 474.222 158.306L501.354 128.914C488.963 117.476 468.978 111.087 449.427 108.268C428.969 105.319 405.16 105.716 382.201 110.942L391.08 149.944ZM557.177 363.733C556.982 369.905 553.698 375.25 548.899 378.317L527.36 344.611C521.443 348.392 517.433 354.971 517.197 362.471L557.177 363.733ZM443.094 485.358C442.924 485.171 442.448 484.636 441.901 483.874L474.404 460.56C473.725 459.613 473.104 458.908 472.782 458.551L443.094 485.358ZM450.877 426.836C440.787 427.957 431.747 420.511 430.944 410.365L470.819 407.207C469.838 394.811 458.793 385.71 446.46 387.081L450.877 426.836ZM427.391 417.225C426.025 424.836 419.951 430.724 412.302 431.852L406.463 392.281C397.114 393.66 389.69 400.856 388.02 410.158L427.391 417.225ZM533.73 279.868C545.076 276.815 555.681 285.116 556.357 296.108L516.432 298.563C517.264 312.094 530.323 322.208 544.125 318.494L533.73 279.868ZM408.48 488.633C413.018 485.279 416.064 480.326 417.049 474.839L377.679 467.772C378.486 463.276 380.977 459.221 384.705 456.465L408.48 488.633ZM301.105 204.2C294.865 200.126 291.082 191.795 293.948 183.358L331.823 196.224C335.294 186.004 330.788 175.809 322.971 170.706L301.105 204.2ZM372.094 145.397C377.374 149.79 384.391 151.467 391.08 149.944L382.201 110.942C387.651 109.702 393.375 111.069 397.678 114.649L372.094 145.397Z" fill="black" mask="url(#path-16-outside-2_1_648)"/>
</mask>
<g mask="url(#mask1_1_648)">
<path d="M490.224 368.624C515.413 358.319 531.729 316.384 536.023 285.613L536.346 296C557.442 285.909 600.236 269.703 602.636 285.613C605.036 301.523 561.089 352.167 538.816 375.5L543.895 538.94H289.136L251.136 80.7744L303.636 109.774L352.826 130.325C317.045 217.63 326.348 308.513 362.129 357.174C384.899 388.141 458.737 381.505 490.224 368.624Z" fill="#B33F15" fill-opacity="0.55"/>
<mask id="path-19-outside-3_1_648" maskUnits="userSpaceOnUse" x="232.788" y="48.5463" width="379" height="459" fill="black">
<rect fill="white" x="232.788" y="48.5463" width="379" height="459"/>
<path fill-rule="evenodd" clip-rule="evenodd" d="M386.641 130.443C386.021 130.584 385.375 130.43 384.886 130.023C373.707 120.722 354.702 109.336 325.317 100.232C287.98 88.6647 267.218 76.5137 258.01 69.0402C256.456 67.7791 253.56 69.1033 253.802 71.0897C257.978 105.358 274.107 162.69 312.038 187.453C312.826 187.967 313.188 188.899 312.885 189.791C296.581 237.785 289.953 379.235 298.095 462.071C298.721 468.437 302.242 474.185 308.011 476.948C328.871 486.94 365.674 495.401 396.593 472.549C396.997 472.25 397.275 471.801 397.364 471.305L407.706 413.692C407.857 412.846 408.532 412.192 409.382 412.067L429.786 409.056L448.669 406.958C449.79 406.834 450.793 407.661 450.882 408.786C451.665 418.681 452.263 427.343 452.78 434.829C454.31 456.977 455.129 468.844 457.938 471.955C458.014 472.039 458.087 472.125 458.153 472.217C469.069 487.436 498.244 479.54 515.818 473.383C523.456 470.708 528.875 463.671 529.851 455.637C533.985 421.566 536.309 390.837 537.185 363.169C537.206 362.501 537.574 361.88 538.14 361.524C594.638 326.024 603.748 294.376 577.636 295.774C569.633 296.203 555.794 299.453 539.192 303.888C537.959 304.217 536.732 303.299 536.664 302.025C531.597 207.395 506.796 161.156 487.788 143.61C471.954 128.994 427.431 121.158 386.641 130.443Z"/>
</mask>
<path d="M325.317 100.232L319.398 119.336L325.317 100.232ZM258.01 69.0402L270.613 53.5113L258.01 69.0402ZM253.802 71.0897L233.949 73.509V73.509L253.802 71.0897ZM298.095 462.071L278.191 464.027H278.191L298.095 462.071ZM308.011 476.948L316.65 458.91L316.65 458.91L308.011 476.948ZM429.786 409.056L427.577 389.179L427.221 389.218L426.867 389.271L429.786 409.056ZM452.78 434.829L432.828 436.207L452.78 434.829ZM515.818 473.383L509.206 454.508L509.206 454.508L515.818 473.383ZM529.851 455.637L549.705 458.046V458.046L529.851 455.637ZM577.636 295.774L576.566 275.803H576.566L577.636 295.774ZM487.788 143.61L501.354 128.914L487.788 143.61ZM539.192 303.888L534.031 284.565L539.192 303.888ZM536.664 302.025L516.693 303.095L536.664 302.025ZM457.938 471.955L472.782 458.551L457.938 471.955ZM458.153 472.217L441.901 483.874L458.153 472.217ZM407.706 413.692L427.391 417.225L407.706 413.692ZM409.382 412.067L406.463 392.281L409.382 412.067ZM396.593 472.549L384.705 456.465L396.593 472.549ZM397.364 471.305L417.049 474.839L397.364 471.305ZM537.185 363.169L557.175 363.802L537.185 363.169ZM538.14 361.524L527.5 344.589L538.14 361.524ZM312.038 187.453L301.105 204.2L312.038 187.453ZM312.885 189.791L293.948 183.358L312.885 189.791ZM448.669 406.958L450.877 426.836L448.669 406.958ZM450.882 408.786L470.819 407.207L450.882 408.786ZM384.886 130.023L397.678 114.649L384.886 130.023ZM386.641 130.443L382.201 110.942L386.641 130.443ZM397.678 114.649C384.184 103.421 362.745 90.8898 331.235 81.1279L319.398 119.336C346.66 127.782 363.231 138.023 372.094 145.397L397.678 114.649ZM331.235 81.1279C295.382 70.0202 277.192 58.8505 270.613 53.5113L245.406 84.5691C257.244 94.177 280.577 107.309 319.398 119.336L331.235 81.1279ZM270.613 53.5113C262.157 46.6483 252.283 48.1072 246.652 50.781C241.009 53.4613 232.433 61.0692 233.949 73.509L273.655 68.6703C274.929 79.1238 267.68 85.0763 263.812 86.9133C259.958 88.7437 252.308 90.1711 245.406 84.5691L270.613 53.5113ZM233.949 73.509C236.219 92.1353 241.697 116.932 251.876 140.707C261.949 164.234 277.498 188.788 301.105 204.2L322.971 170.706C308.648 161.355 297.166 144.861 288.648 124.964C280.235 105.315 275.561 84.3121 273.655 68.6703L233.949 73.509ZM293.948 183.358C284.799 210.29 279.022 260.219 276.35 311.831C273.64 364.178 273.992 421.307 278.191 464.027L317.999 460.114C314.056 419.998 313.651 364.985 316.296 313.899C318.979 262.079 324.667 217.287 331.823 196.224L293.948 183.358ZM278.191 464.027C279.398 476.299 286.392 488.769 299.371 494.986L316.65 458.91C317.28 459.212 317.688 459.646 317.882 459.944C318.05 460.201 318.015 460.277 317.999 460.114L278.191 464.027ZM299.371 494.985C322.967 506.288 368.767 517.985 408.48 488.633L384.705 456.465C362.58 472.818 334.774 467.591 316.65 458.91L299.371 494.985ZM417.049 474.839L427.391 417.225L388.02 410.158L377.679 467.772L417.049 474.839ZM412.302 431.852L432.705 428.842L426.867 389.271L406.463 392.281L412.302 431.852ZM431.995 428.934L450.877 426.836L446.46 387.081L427.577 389.179L431.995 428.934ZM430.944 410.365C431.719 420.148 432.311 428.718 432.828 436.207L472.733 433.452C472.216 425.968 471.612 417.215 470.819 407.207L430.944 410.365ZM432.828 436.207C433.576 447.04 434.2 456.18 435.026 462.953C435.439 466.338 435.981 469.836 436.812 473.015C437.484 475.585 439.028 480.856 443.094 485.359L472.782 458.551C475.443 461.498 475.831 464.119 475.512 462.898C475.352 462.285 475.066 460.848 474.732 458.109C474.064 452.635 473.514 444.767 472.733 433.452L432.828 436.207ZM441.901 483.874C453.826 500.499 473.616 501.718 486.034 500.756C499.562 499.708 513.245 495.476 522.43 492.259L509.206 454.508C500.817 457.447 491.126 460.242 482.944 460.876C473.652 461.596 473.396 459.154 474.404 460.56L441.901 483.874ZM522.43 492.259C537.607 486.942 547.857 473.269 549.705 458.046L509.996 453.227C509.957 453.552 509.816 453.896 509.6 454.172C509.393 454.436 509.229 454.5 509.206 454.508L522.43 492.259ZM549.705 458.046C553.905 423.441 556.279 392.117 557.175 363.802L517.195 362.537C516.34 389.557 514.066 419.692 509.996 453.227L549.705 458.046ZM578.706 315.746C582.479 315.544 576.885 316.96 573.14 310.526C569.878 304.92 573.071 301.675 570.971 305.882C567.353 313.132 554.689 327.506 527.5 344.589L548.781 378.458C578.09 360.043 598.229 340.842 606.762 323.743C610.739 315.775 614.844 302.662 607.712 290.406C600.097 277.321 585.85 275.306 576.566 275.803L578.706 315.746ZM544.352 323.21C561.488 318.634 573.189 316.041 578.706 315.746L576.566 275.803C566.076 276.365 550.101 280.273 534.031 284.565L544.352 323.21ZM556.635 300.956C551.45 204.128 525.944 151.613 501.354 128.914L474.222 158.306C487.648 170.699 511.743 210.661 516.693 303.095L556.635 300.956ZM501.354 128.914C488.963 117.476 468.978 111.087 449.427 108.268C428.969 105.319 405.16 105.716 382.201 110.942L391.08 149.944C408.911 145.885 427.759 145.558 443.719 147.859C460.585 150.291 470.779 155.127 474.222 158.306L501.354 128.914ZM534.031 284.565C545.448 281.516 556.045 289.936 556.635 300.956L516.693 303.095C517.419 316.662 530.471 326.918 544.352 323.21L534.031 284.565ZM443.094 485.359C442.924 485.171 442.448 484.636 441.901 483.874L474.404 460.56C473.725 459.613 473.104 458.908 472.782 458.551L443.094 485.359ZM427.391 417.225C426.025 424.836 419.951 430.724 412.302 431.852L406.463 392.281C397.114 393.66 389.69 400.857 388.02 410.158L427.391 417.225ZM408.48 488.633C413.018 485.278 416.064 480.326 417.049 474.839L377.679 467.772C378.486 463.276 380.977 459.221 384.705 456.465L408.48 488.633ZM557.175 363.802C556.978 370.025 553.642 375.404 548.781 378.458L527.5 344.589C521.506 348.355 517.434 354.977 517.195 362.537L557.175 363.802ZM301.105 204.2C294.865 200.126 291.082 191.795 293.948 183.358L331.823 196.224C335.294 186.004 330.788 175.809 322.971 170.706L301.105 204.2ZM450.877 426.836C440.787 427.957 431.747 420.511 430.944 410.365L470.819 407.207C469.838 394.811 458.793 385.71 446.46 387.081L450.877 426.836ZM372.094 145.397C377.374 149.79 384.391 151.467 391.08 149.944L382.201 110.942C387.651 109.702 393.375 111.069 397.678 114.649L372.094 145.397Z" fill="black" mask="url(#path-19-outside-3_1_648)"/>
</g>
<path d="M387.636 296.774C414.689 338.944 498.717 321.137 539.964 303.562C540.408 303.373 540.752 303.035 540.958 302.599C560.008 262.171 548.481 208.114 520.636 179.274C492.636 150.274 434.136 159.274 400.636 160.774C367.136 162.274 359.636 124.774 348.636 123.274C338.033 121.828 305.127 113.413 276.345 93.5499C274.999 92.621 273.144 93.5931 273.186 95.2281C274.552 149.036 304.03 165.027 341.136 196.274C379.136 228.274 353.636 243.774 387.636 296.774Z" fill="black"/>
<path d="M546.073 281.319C520.938 307.612 464.493 306.75 437.861 298.319C395.966 285.056 390.957 231.385 397.397 206.338C403.988 180.707 441.714 180.398 486.828 182.803C531.942 185.208 577.492 248.453 546.073 281.319Z" fill="#F31900" stroke="black" stroke-width="20"/>
<mask id="mask2_1_648" style="mask-type:alpha" maskUnits="userSpaceOnUse" x="385" y="171" width="182" height="143">
<path d="M546.073 281.319C520.938 307.612 464.493 306.75 437.861 298.319C395.966 285.056 390.957 231.385 397.397 206.338C403.988 180.707 441.714 180.398 486.828 182.803C531.942 185.208 577.492 248.453 546.073 281.319Z" fill="#98C7DD" stroke="#3D3436" stroke-width="20"/>
</mask>
<g mask="url(#mask2_1_648)">
<path d="M512.439 216.199C506.714 206.466 473.693 204.749 458.188 204.749C454.849 204.749 448.456 207.182 449.601 216.914C451.032 229.08 484.666 235.52 499.694 235.52C514.722 235.52 519.595 228.364 512.439 216.199Z" fill="#FBFDFD" fill-opacity="0.85"/>
<path d="M445.887 256.989C424.403 252.96 415.306 210.508 413.279 185.183C413.048 182.3 411.195 179.781 408.473 178.804L394.634 173.836C389.972 172.163 385.06 175.604 385.06 180.557V342.147C385.06 348.775 486.332 345.277 542.3 342.452C545.741 342.278 548.549 339.671 549.003 336.255L559.289 258.838C560.162 252.27 551.474 246.963 545.314 249.402C514.433 261.628 464.601 260.498 445.887 256.989Z" fill="#850219" fill-opacity="0.55"/>
<path d="M546.073 281.319C520.938 307.612 464.493 306.75 437.861 298.319C395.966 285.056 390.957 231.385 397.397 206.338C403.988 180.707 441.714 180.398 486.828 182.803C531.942 185.208 577.492 248.453 546.073 281.319Z" stroke="black" stroke-width="20"/>
</g>
</svg>
