<svg width="501" height="551" viewBox="0 0 501 551" fill="none" xmlns="http://www.w3.org/2000/svg">
<path d="M311.741 105.069L316.024 125.627L311.741 105.069ZM356.919 117.107C368.273 114.742 375.56 103.62 373.195 92.2658C370.829 80.9116 359.707 73.6248 348.353 75.9902L356.919 117.107ZM313.636 159.549V128.564H271.636V159.549H313.636ZM316.024 125.627L356.919 117.107L348.353 75.9902L307.458 84.51L316.024 125.627ZM313.636 128.564C313.636 127.143 314.633 125.917 316.024 125.627L307.458 84.51C286.591 88.8574 271.636 107.249 271.636 128.564H313.636Z" fill="black"/>
<path d="M354.064 103.402C357.849 102.613 360.278 98.9059 359.489 95.1211C358.701 91.3364 354.993 88.9075 351.209 89.696L354.064 103.402ZM299.636 159.549V128.564H285.636V159.549H299.636ZM313.169 111.921L354.064 103.402L351.209 89.696L310.314 98.2157L313.169 111.921ZM299.636 128.564C299.636 120.512 305.286 113.564 313.169 111.921L310.314 98.2157C295.938 101.211 285.636 113.88 285.636 128.564H299.636Z" fill="white"/>
<path d="M114.964 434.845C128.928 439.717 143.706 437.659 155.797 434.312C169.141 430.619 178.213 418.13 179.765 404.37L195.249 267.109C197.643 245.894 181.227 224.403 159.903 223.362C144.086 222.59 127.433 223.47 117.443 229.464C81.1505 251.24 84.1929 424.111 114.964 434.845Z" fill="#FFDF46" stroke="black" stroke-width="20"/>
<mask id="mask0_1_332" style="mask-type:alpha" maskUnits="userSpaceOnUse" x="81" y="213" width="125" height="235">
<path d="M114.964 434.845C128.928 439.717 143.706 437.659 155.797 434.312C169.141 430.619 178.213 418.13 179.765 404.37L195.249 267.109C197.643 245.894 181.227 224.403 159.903 223.362C144.086 222.59 127.433 223.47 117.443 229.464C81.1505 251.24 84.1929 424.111 114.964 434.845Z" fill="#E453BD" stroke="#63114C" stroke-width="20"/>
</mask>
<g mask="url(#mask0_1_332)">
<path d="M174.692 274.548C129.465 260.808 71.8821 285.998 48.7439 300.31C48.7439 373.589 82.1392 451.543 98.8368 481.36H174.692V274.548Z" fill="#B88A0A" fill-opacity="0.55"/>
<path d="M114.964 434.845C128.928 439.717 143.706 437.659 155.797 434.312C169.141 430.619 178.213 418.13 179.765 404.37L195.249 267.109C197.643 245.894 181.227 224.403 159.903 223.362C144.086 222.59 127.433 223.47 117.443 229.464C81.1505 251.24 84.1929 424.111 114.964 434.845Z" stroke="black" stroke-width="20"/>
</g>
<path d="M168.252 210.143C150.984 254.176 143.772 401.019 152.133 486.071C152.758 492.437 156.279 498.185 162.048 500.948C183.05 511.008 220.215 519.517 251.263 496.076L261.997 436.276L283.823 433.056L304.755 430.73C308.047 471.664 308.154 492.125 312.09 496.076C322.927 511.484 352.227 503.558 369.856 497.383C377.494 494.708 382.913 487.671 383.888 479.637C408.439 277.338 369.148 192.831 341.825 167.61C313.916 141.847 196.876 137.15 168.252 210.143Z" fill="#FFDF46"/>
<path d="M325.687 428.405L304.755 430.73M304.755 430.73L283.823 433.056L261.997 436.276L251.263 496.076C220.215 519.517 183.05 511.008 162.048 500.948C156.279 498.184 152.758 492.437 152.133 486.071C143.772 401.019 150.984 254.176 168.252 210.143C196.876 137.15 313.916 141.847 341.825 167.61C369.148 192.831 408.439 277.338 383.888 479.637C382.913 487.671 377.494 494.708 369.856 497.383C352.227 503.558 322.927 511.484 312.09 496.076C308.154 492.125 308.047 471.664 304.755 430.73Z" stroke="black" stroke-width="21.4684" stroke-linecap="round" stroke-linejoin="round"/>
<mask id="mask1_1_332" style="mask-type:alpha" maskUnits="userSpaceOnUse" x="137" y="139" width="266" height="383">
<path d="M168.252 210.143C150.984 254.176 143.772 401.019 152.133 486.071C152.758 492.437 156.279 498.185 162.048 500.948C183.05 511.008 220.215 519.517 251.263 496.076L261.997 436.276L283.823 433.056L304.755 430.73C308.047 471.664 308.154 492.125 312.09 496.076C322.927 511.484 352.227 503.558 369.856 497.383C377.494 494.708 382.913 487.671 383.888 479.637C408.439 277.338 369.148 192.831 341.825 167.61C313.916 141.847 196.876 137.15 168.252 210.143Z" fill="#E752BE"/>
<path d="M325.687 428.405L304.755 430.73M304.755 430.73L283.823 433.056L261.997 436.276L251.263 496.076C220.215 519.517 183.05 511.008 162.048 500.948C156.279 498.184 152.758 492.437 152.133 486.071C143.772 401.019 150.984 254.176 168.252 210.143C196.876 137.15 313.916 141.847 341.825 167.61C369.148 192.831 408.439 277.338 383.888 479.637C382.913 487.671 377.494 494.708 369.856 497.383C352.227 503.558 322.927 511.484 312.09 496.076C308.154 492.125 308.047 471.664 304.755 430.73Z" stroke="#63114C" stroke-width="21.4684" stroke-linecap="round" stroke-linejoin="round"/>
</mask>
<g mask="url(#mask1_1_332)">
<path d="M340.714 392.624C365.904 382.319 382.22 340.384 386.514 309.613L394.385 562.94H139.627V154.325H203.317C167.536 241.63 176.839 332.512 212.62 381.174C235.389 412.141 309.227 405.505 340.714 392.624Z" fill="#B88A0A" fill-opacity="0.55"/>
<path d="M325.687 428.405L304.755 430.73M304.755 430.73L283.823 433.056L261.997 436.276L251.263 496.076C220.215 519.517 183.05 511.008 162.048 500.948C156.279 498.184 152.758 492.437 152.133 486.071C143.772 401.019 150.984 254.176 168.252 210.143C196.876 137.15 313.916 141.847 341.825 167.61C369.148 192.831 408.439 277.338 383.888 479.637C382.913 487.671 377.494 494.708 369.856 497.383C352.227 503.558 322.927 511.484 312.09 496.076C308.154 492.125 308.047 471.664 304.755 430.73Z" stroke="black" stroke-width="20" stroke-linecap="round" stroke-linejoin="round"/>
</g>
<path d="M400.11 305.319C374.975 331.612 318.53 330.75 291.898 322.319C250.003 309.056 244.994 255.385 251.434 230.338C258.025 204.707 295.751 204.398 340.865 206.803C385.979 209.208 431.529 272.453 400.11 305.319Z" fill="#98C7DD" stroke="black" stroke-width="20"/>
<mask id="mask2_1_332" style="mask-type:alpha" maskUnits="userSpaceOnUse" x="239" y="195" width="182" height="143">
<path d="M400.11 305.319C374.975 331.612 318.53 330.75 291.898 322.319C250.003 309.056 244.994 255.385 251.434 230.338C258.025 204.707 295.751 204.398 340.865 206.803C385.979 209.208 431.529 272.453 400.11 305.319Z" fill="#98C7DD" stroke="#3D3436" stroke-width="20"/>
</mask>
<g mask="url(#mask2_1_332)">
<path d="M366.476 240.199C360.752 230.466 327.73 228.749 312.225 228.749C308.886 228.749 302.493 231.182 303.638 240.914C305.069 253.08 338.703 259.52 353.731 259.52C368.759 259.52 373.633 252.364 366.476 240.199Z" fill="#FBFDFD" fill-opacity="0.85"/>
<path d="M299.924 280.989C278.44 276.96 269.343 234.508 267.316 209.183C267.085 206.3 265.232 203.781 262.51 202.804L248.671 197.836C244.009 196.163 239.097 199.604 239.097 204.557V366.147C239.097 372.775 340.369 369.277 396.337 366.452C399.778 366.278 402.586 363.671 403.04 360.255L413.326 282.838C414.199 276.27 405.511 270.963 399.351 273.402C368.47 285.628 318.638 284.498 299.924 280.989Z" fill="#4B646E" fill-opacity="0.55"/>
<path d="M400.11 305.319C374.975 331.612 318.53 330.75 291.898 322.319C250.003 309.056 244.994 255.385 251.434 230.338C258.025 204.707 295.751 204.398 340.865 206.803C385.979 209.208 431.529 272.453 400.11 305.319Z" stroke="black" stroke-width="20"/>
</g>
<circle cx="231.728" cy="144.369" r="44.0567" fill="#FFDF46" stroke="black" stroke-width="18"/>
<circle cx="231.728" cy="144.369" r="37.5567" fill="#FFDF46" stroke="#FFDF46" stroke-width="5"/>
<path d="M237.336 142.901C235.615 143.474 233.918 141.97 234.282 140.192L238.462 119.758C238.826 117.98 240.977 117.263 242.335 118.467L257.941 132.304C259.299 133.508 258.844 135.73 257.123 136.304L237.336 142.901Z" fill="#D8B125"/>
<path d="M237.01 148.378C235.641 147.188 236.073 144.962 237.788 144.371L257.509 137.576C259.224 136.985 260.936 138.473 260.59 140.254L256.614 160.729C256.268 162.51 254.124 163.249 252.754 162.059L237.01 148.378Z" fill="#D8B125"/>
<path d="M229.867 149.669C230.291 147.905 228.647 146.344 226.907 146.859L206.907 152.778C205.167 153.293 204.637 155.498 205.953 156.747L221.08 171.108C222.395 172.357 224.57 171.714 224.994 169.95L229.867 149.669Z" fill="#D8B125"/>
<path d="M225.689 145.434C227.426 144.911 227.947 142.704 226.626 141.46L211.437 127.166C210.115 125.922 207.944 126.575 207.527 128.341L202.742 148.643C202.326 150.408 203.977 151.963 205.715 151.44L225.689 145.434Z" fill="#D8B125"/>
<path d="M231.347 149.405C231.757 147.638 233.927 146.978 235.252 148.216L250.49 162.459C251.815 163.698 251.303 165.907 249.567 166.436L229.613 172.51C227.878 173.039 226.221 171.49 226.631 169.723L231.347 149.405Z" fill="#D8B125"/>
<path d="M232.014 139.525C231.608 141.294 229.44 141.96 228.112 140.724L212.837 126.521C211.508 125.286 212.015 123.075 213.749 122.542L233.687 116.416C235.421 115.883 237.082 117.427 236.676 119.195L232.014 139.525Z" fill="#D8B125"/>
</svg>
