<svg width="501" height="551" viewBox="0 0 501 551" fill="none" xmlns="http://www.w3.org/2000/svg">
<path d="M113.965 410.845C127.929 415.717 142.706 413.659 154.797 410.312C168.142 406.619 177.213 394.13 178.765 380.37L194.25 243.109C196.643 221.894 180.227 200.403 158.903 199.362C143.086 198.59 126.433 199.47 116.443 205.464C80.1507 227.24 83.1932 400.111 113.965 410.845Z" fill="#2497EE" stroke="black" stroke-width="20"/>
<mask id="mask0_1_600" style="mask-type:alpha" maskUnits="userSpaceOnUse" x="80" y="189" width="125" height="235">
<path d="M113.965 410.845C127.929 415.717 142.706 413.659 154.797 410.312C168.142 406.619 177.213 394.13 178.765 380.37L194.25 243.109C196.643 221.894 180.227 200.403 158.903 199.362C143.086 198.59 126.433 199.47 116.443 205.464C80.1507 227.24 83.1932 400.111 113.965 410.845Z" fill="#E453BD" stroke="#63114C" stroke-width="20"/>
</mask>
<g mask="url(#mask0_1_600)">
<path d="M173.692 250.548C128.465 236.808 70.8823 261.998 47.7441 276.31C47.7441 349.589 81.1394 427.543 97.8371 457.36H173.692V250.548Z" fill="#0D77C7" fill-opacity="0.55"/>
<path d="M113.965 410.845C127.929 415.717 142.706 413.659 154.797 410.312C168.142 406.619 177.213 394.13 178.765 380.37L194.25 243.109C196.643 221.894 180.227 200.403 158.903 199.362C143.086 198.59 126.433 199.47 116.443 205.464C80.1507 227.24 83.1932 400.111 113.965 410.845Z" stroke="black" stroke-width="20"/>
</g>
<path d="M167.252 186.143C149.984 230.176 142.772 377.019 151.133 462.071C151.758 468.437 155.279 474.185 161.048 476.948C182.05 487.008 219.215 495.517 250.263 472.076L260.997 412.276L282.823 409.056L303.755 406.73C307.047 447.664 307.154 468.125 311.09 472.076C321.927 487.484 351.227 479.558 368.856 473.383C376.494 470.708 381.913 463.671 382.888 455.637C407.439 253.338 368.148 168.831 340.825 143.61C312.916 117.847 195.876 113.15 167.252 186.143Z" fill="#2497EE"/>
<path d="M324.687 404.405L303.755 406.73M303.755 406.73L282.823 409.056L260.997 412.276L250.263 472.076C219.215 495.517 182.05 487.008 161.048 476.948C155.279 474.184 151.758 468.437 151.133 462.071C142.772 377.019 149.984 230.176 167.252 186.143C195.876 113.15 312.916 117.847 340.825 143.61C368.148 168.831 407.439 253.338 382.888 455.637C381.913 463.671 376.494 470.708 368.856 473.383C351.227 479.558 321.927 487.484 311.09 472.076C307.154 468.125 307.047 447.664 303.755 406.73Z" stroke="black" stroke-width="20" stroke-linecap="round" stroke-linejoin="round"/>
<mask id="mask1_1_600" style="mask-type:alpha" maskUnits="userSpaceOnUse" x="137" y="116" width="264" height="382">
<path d="M167.252 186.143C149.984 230.176 142.772 377.019 151.133 462.071C151.758 468.437 155.279 474.185 161.048 476.948C182.05 487.008 219.215 495.517 250.263 472.076L260.997 412.276L282.823 409.056L303.755 406.73C307.047 447.664 307.154 468.125 311.09 472.076C321.927 487.484 351.227 479.558 368.856 473.383C376.494 470.708 381.913 463.671 382.888 455.637C407.439 253.338 368.148 168.831 340.825 143.61C312.916 117.847 195.876 113.15 167.252 186.143Z" fill="#E752BE"/>
<path d="M324.687 404.405L303.755 406.73M303.755 406.73L282.823 409.056L260.997 412.276L250.263 472.076C219.215 495.517 182.05 487.008 161.048 476.948C155.279 474.184 151.758 468.437 151.133 462.071C142.772 377.019 149.984 230.176 167.252 186.143C195.876 113.15 312.916 117.847 340.825 143.61C368.148 168.831 407.439 253.338 382.888 455.637C381.913 463.671 376.494 470.708 368.856 473.383C351.227 479.558 321.927 487.484 311.09 472.076C307.154 468.125 307.047 447.664 303.755 406.73Z" stroke="#63114C" stroke-width="20" stroke-linecap="round" stroke-linejoin="round"/>
</mask>
<g mask="url(#mask1_1_600)">
<path d="M339.714 368.624C364.904 358.319 381.22 316.384 385.514 285.613L393.385 538.94H138.627V130.325H202.317C166.536 217.63 175.839 308.513 211.62 357.174C234.389 388.141 308.227 381.505 339.714 368.624Z" fill="#0D77C7" fill-opacity="0.55"/>
<path d="M324.687 404.405L303.755 406.73M303.755 406.73L282.823 409.056L260.997 412.276L250.263 472.076C219.215 495.517 182.05 487.008 161.048 476.948C155.279 474.184 151.758 468.437 151.133 462.071C142.772 377.019 149.984 230.176 167.252 186.143C195.876 113.15 312.916 117.847 340.825 143.61C368.148 168.831 407.439 253.338 382.888 455.637C381.913 463.671 376.494 470.708 368.856 473.383C351.227 479.558 321.927 487.484 311.09 472.076C307.154 468.125 307.047 447.664 303.755 406.73Z" stroke="black" stroke-width="20" stroke-linecap="round" stroke-linejoin="round"/>
</g>
<path d="M399.11 281.319C373.975 307.612 317.53 306.75 290.898 298.319C249.003 285.056 243.994 231.385 250.434 206.338C257.025 180.707 294.751 180.398 339.865 182.803C384.979 185.208 430.529 248.453 399.11 281.319Z" fill="#98C7DD" stroke="black" stroke-width="20"/>
<mask id="mask2_1_600" style="mask-type:alpha" maskUnits="userSpaceOnUse" x="238" y="171" width="182" height="143">
<path d="M399.11 281.319C373.975 307.612 317.53 306.75 290.898 298.319C249.003 285.056 243.994 231.385 250.434 206.338C257.025 180.707 294.751 180.398 339.865 182.803C384.979 185.208 430.529 248.453 399.11 281.319Z" fill="#98C7DD" stroke="#3D3436" stroke-width="20"/>
</mask>
<g mask="url(#mask2_1_600)">
<path d="M365.476 216.198C359.752 206.466 326.73 204.749 311.225 204.749C307.886 204.749 301.493 207.182 302.638 216.914C304.069 229.08 337.703 235.52 352.731 235.52C367.759 235.52 372.633 228.364 365.476 216.198Z" fill="#FBFDFD" fill-opacity="0.85"/>
<path d="M298.924 256.989C277.44 252.96 268.343 210.508 266.316 185.183C266.085 182.3 264.232 179.781 261.51 178.804L247.671 173.836C243.009 172.162 238.097 175.603 238.097 180.557V342.146C238.097 348.775 339.369 345.277 395.337 342.452C398.778 342.278 401.586 339.671 402.04 336.255L412.326 258.838C413.199 252.27 404.511 246.963 398.351 249.402C367.47 261.628 317.638 260.497 298.924 256.989Z" fill="#4B646E" fill-opacity="0.55"/>
<path d="M399.11 281.319C373.975 307.612 317.53 306.75 290.898 298.319C249.003 285.056 243.994 231.385 250.434 206.338C257.025 180.707 294.751 180.398 339.865 182.803C384.979 185.208 430.529 248.453 399.11 281.319Z" stroke="black" stroke-width="20"/>
</g>
<path d="M290.733 61.2832L292.084 77.0541L308.107 72.8254C308.447 72.7359 308.708 72.4644 308.784 72.1218L309.317 69.7246C309.416 69.2783 309.179 68.8254 308.756 68.6524L307.173 68.0052L290.733 61.2832Z" fill="#1754A5"/>
<path fill-rule="evenodd" clip-rule="evenodd" d="M253.184 53.9384L271.197 48.894L271.836 64.8758L290.733 61.2832L292.084 77.0541L272.444 81.7954L254.394 85.1776C253.826 85.284 253.298 84.8575 253.283 84.2803L252.874 68.9357L252.499 54.867C252.488 54.437 252.77 54.0544 253.184 53.9384Z" fill="#2497EE"/>
<path d="M271.197 48.894L271.836 64.8758L290.733 61.2832L307.173 68.0052L307.287 64.598C307.3 64.2081 307.071 63.8507 306.71 63.7006L271.197 48.894Z" fill="#1754A5"/>
<path d="M272.678 82.7675L291.187 78.2994L291.189 78.3245L292.329 78.0236L293.153 77.8246L293.152 77.8064L308.362 73.7923C309.063 73.6073 309.603 73.0466 309.76 72.3389L310.293 69.9416C310.498 69.0197 310.009 68.0842 309.134 67.7268L308.196 67.343L308.287 64.6314C308.314 63.8259 307.839 63.0878 307.095 62.7776L272.171 48.2165L272.146 47.5899L271.262 47.8375L270.136 47.3679L270.167 48.1442L252.914 52.9754C252.059 53.215 251.476 54.0055 251.5 54.8936L251.874 68.9624L252.283 84.307C252.315 85.4992 253.406 86.3802 254.578 86.1605L272.628 82.7783L272.653 82.7736L272.678 82.7675Z" stroke="black" stroke-width="2"/>
<path d="M290.733 61.2832L292.084 77.0541L308.107 72.8254C308.447 72.7359 308.708 72.4644 308.784 72.1218L309.317 69.7246C309.416 69.2783 309.179 68.8254 308.756 68.6524L307.173 68.0052L290.733 61.2832Z" fill="#1754A5"/>
<path d="M272.444 81.7954L271.836 64.8758L252.874 68.9357L253.283 84.2803C253.298 84.8575 253.826 85.284 254.394 85.1776L272.444 81.7954Z" fill="#2497EE"/>
<path d="M272.444 81.7954L292.084 77.0541L290.733 61.2832L271.836 64.8758L272.444 81.7954Z" fill="#2497EE"/>
<path d="M271.836 64.8758L271.197 48.894L253.184 53.9384C252.77 54.0544 252.488 54.437 252.499 54.867L252.874 68.9357L271.836 64.8758Z" fill="#2497EE"/>
<path d="M271.197 48.894L271.836 64.8758L290.733 61.2832L307.173 68.0052L307.287 64.598C307.3 64.2081 307.071 63.8507 306.71 63.7006L271.197 48.894Z" fill="#1754A5"/>
<path d="M271.197 48.894L271.836 64.8758M271.197 48.894L253.184 53.9384V53.9384C252.77 54.0544 252.488 54.437 252.499 54.867V54.867L252.874 68.9357M271.197 48.894L306.71 63.7006V63.7006C307.071 63.8507 307.3 64.2081 307.287 64.598V64.598L307.173 68.0052M272.444 81.7954L292.084 77.0541M272.444 81.7954L271.836 64.8758M272.444 81.7954L254.394 85.1776M292.084 77.0541L290.733 61.2832M292.084 77.0541L308.107 72.8254M290.733 61.2832L271.836 64.8758M290.733 61.2832L307.173 68.0052M290.733 61.2832L308.756 68.6524M271.836 64.8758L252.874 68.9357M307.173 68.0052L308.756 68.6524M252.874 68.9357L253.283 84.2803M308.756 68.6524C309.179 68.8254 309.416 69.2783 309.317 69.7246M308.756 68.6524V68.6524C309.179 68.8254 309.416 69.2783 309.317 69.7246V69.7246M309.317 69.7246L308.784 72.1218M308.784 72.1218C308.708 72.4644 308.447 72.7359 308.107 72.8254M308.784 72.1218V72.1218C308.708 72.4644 308.447 72.7359 308.107 72.8254V72.8254M254.394 85.1776C253.826 85.284 253.298 84.8575 253.283 84.2803M254.394 85.1776V85.1776C253.826 85.284 253.298 84.8575 253.283 84.2803V84.2803" stroke="black" stroke-width="3"/>
<rect x="257.705" y="71.2463" width="2.34581" height="9.66246" rx="1.17291" transform="rotate(-1.59741 257.705 71.2463)" fill="#1A70C9"/>
<rect x="261.812" y="69.8479" width="2.34581" height="10.1728" rx="1.17291" transform="rotate(-1.59741 261.812 69.8479)" fill="#1A70C9"/>
<rect x="266.532" y="69.0669" width="2.34581" height="9.66246" rx="1.17291" transform="rotate(-1.59741 266.532 69.0669)" fill="#1A70C9"/>
<rect x="275.973" y="67.505" width="2.34581" height="9.66246" rx="1.17291" transform="rotate(-1.59741 275.973 67.505)" fill="#1A70C9"/>
<rect x="280.24" y="66.2395" width="2.34581" height="9.66246" rx="1.17291" transform="rotate(-1.59741 280.24 66.2395)" fill="#1A70C9"/>
<rect x="284.507" y="64.974" width="2.34581" height="9.66246" rx="1.17291" transform="rotate(-1.59741 284.507 64.974)" fill="#1A70C9"/>
<rect x="256.171" y="56.046" width="2.34581" height="9.66246" rx="1.17291" transform="rotate(-1.59741 256.171 56.046)" fill="#1A70C9"/>
<rect x="260.438" y="54.7804" width="2.34581" height="9.66246" rx="1.17291" transform="rotate(-1.59741 260.438 54.7804)" fill="#1A70C9"/>
<rect x="264.706" y="53.5149" width="2.34581" height="9.66246" rx="1.17291" transform="rotate(-1.59741 264.706 53.5149)" fill="#1A70C9"/>
<path d="M209.581 105.566C210.413 106.785 211.33 108.174 212.335 109.697C218.273 118.688 227.28 132.329 239.767 142.999C254.867 155.902 275.366 164.761 302.065 156.683C318.63 151.671 329.049 143.695 334.38 134.159C339.723 124.602 339.64 114.038 336.317 104.538C333.007 95.0766 326.44 86.4954 318.45 80.5328C310.476 74.5822 300.771 71.0205 291.17 72.1895C275.38 74.112 262.125 79.1365 251.778 83.1734C251.359 83.3367 250.947 83.4979 250.54 83.6569C245.848 85.4899 241.909 87.0287 238.537 87.9983C236.458 88.5963 234.808 88.9089 233.496 88.9922C235.142 85.8421 236.786 81.9956 237.659 78.1974C238.708 73.6397 238.955 67.7043 234.689 63.8773C230.039 59.7054 224.063 60.2176 219.415 62.6244C215.135 64.8409 211.373 68.8896 209.483 73.7183C205.021 69.9731 199.195 66.2083 190.783 66.2083C188.612 66.2083 186.596 66.7852 184.914 67.9716C183.238 69.1538 182.086 70.8045 181.409 72.6426C180.084 76.2436 180.527 80.6255 182.236 84.7983C185.674 93.1868 194.625 101.896 209.581 105.566Z" fill="#2497EE" stroke="black" stroke-width="7" stroke-linecap="round"/>
<mask id="mask3_1_600" style="mask-type:alpha" maskUnits="userSpaceOnUse" x="177" y="57" width="166" height="107">
<path d="M209.581 105.566C210.413 106.785 211.33 108.174 212.335 109.697C218.273 118.688 227.28 132.329 239.767 142.999C254.867 155.902 275.366 164.761 302.065 156.683C318.63 151.671 329.049 143.695 334.38 134.159C339.723 124.602 339.64 114.038 336.317 104.538C333.007 95.0766 326.44 86.4954 318.45 80.5328C310.476 74.5822 300.771 71.0205 291.17 72.1895C275.38 74.112 262.125 79.1365 251.778 83.1734C251.359 83.3367 250.947 83.4979 250.54 83.6569C245.848 85.4899 241.909 87.0287 238.537 87.9983C236.458 88.5963 234.808 88.9089 233.496 88.9922C235.142 85.8421 236.786 81.9956 237.659 78.1974C238.708 73.6397 238.955 67.7043 234.689 63.8773C230.039 59.7054 224.063 60.2176 219.415 62.6244C215.135 64.8409 211.373 68.8896 209.483 73.7183C205.021 69.9731 199.195 66.2083 190.783 66.2083C188.612 66.2083 186.596 66.7852 184.914 67.9716C183.238 69.1538 182.086 70.8045 181.409 72.6426C180.084 76.2436 180.527 80.6255 182.236 84.7983C185.674 93.1868 194.625 101.896 209.581 105.566Z" fill="#2497EE" stroke="black" stroke-width="7" stroke-linecap="round"/>
</mask>
<g mask="url(#mask3_1_600)">
<path d="M246.766 155.931C272.43 150.062 287.864 134.89 289.905 120.914C290.116 119.464 291.669 118.486 293.038 119.01C310.664 125.76 330.331 119.963 340.441 113.214C341.817 112.296 343.82 113.142 343.948 114.791L347.52 160.775C347.589 161.663 347.062 162.492 346.223 162.792C309.712 175.837 266.735 166.541 246.422 159.766C244.496 159.123 244.786 156.383 246.766 155.931Z" fill="#93CBF5"/>
<path d="M342.136 109.774C336.636 116.441 319.136 127.774 293.136 119.774" stroke="black" stroke-width="5" stroke-linecap="round"/>
<path d="M209.581 105.566C210.413 106.785 211.33 108.174 212.335 109.697C218.273 118.688 227.28 132.329 239.767 142.999C254.867 155.902 275.366 164.761 302.065 156.683C318.63 151.671 329.049 143.695 334.38 134.159C339.723 124.602 339.64 114.038 336.317 104.538C333.007 95.0766 326.44 86.4954 318.45 80.5328C310.476 74.5822 300.771 71.0205 291.17 72.1895C275.38 74.112 262.125 79.1365 251.778 83.1734C251.359 83.3367 250.947 83.4979 250.54 83.6569C245.848 85.4899 241.909 87.0287 238.537 87.9983C236.458 88.5963 234.808 88.9089 233.496 88.9922C235.142 85.8421 236.786 81.9956 237.659 78.1974C238.708 73.6397 238.955 67.7043 234.689 63.8773C230.039 59.7054 224.063 60.2176 219.415 62.6244C215.135 64.8409 211.373 68.8896 209.483 73.7183C205.021 69.9731 199.195 66.2083 190.783 66.2083C188.612 66.2083 186.596 66.7852 184.914 67.9716C183.238 69.1538 182.086 70.8045 181.409 72.6426C180.084 76.2436 180.527 80.6255 182.236 84.7983C185.674 93.1868 194.625 101.896 209.581 105.566Z" stroke="black" stroke-width="7" stroke-linecap="round"/>
</g>
<circle cx="268.636" cy="105.774" r="8.5" fill="#FCFEFF" stroke="black" stroke-width="3"/>
<circle cx="268.646" cy="105.784" r="4" transform="rotate(31.9132 268.646 105.784)" fill="black"/>
</svg>
