<svg width="501" height="551" viewBox="0 0 501 551" fill="none" xmlns="http://www.w3.org/2000/svg">
<path d="M114.927 407.571C128.891 412.442 143.669 410.384 155.76 407.038C169.105 403.344 178.176 390.855 179.728 377.096L195.213 239.835C197.606 218.62 181.19 197.128 159.866 196.088C144.049 195.316 127.396 196.196 117.406 202.19C81.1136 223.965 84.1561 396.837 114.927 407.571Z" fill="#3E484E" stroke="black" stroke-width="21.4684"/>
<mask id="mask0_1_376" style="mask-type:alpha" maskUnits="userSpaceOnUse" x="80" y="185" width="127" height="237">
<path d="M114.927 407.571C128.891 412.442 143.669 410.384 155.76 407.038C169.105 403.344 178.176 390.855 179.728 377.096L195.213 239.835C197.606 218.62 181.19 197.128 159.866 196.088C144.049 195.316 127.396 196.196 117.406 202.19C81.1136 223.965 84.1561 396.837 114.927 407.571Z" fill="#E453BD" stroke="#63114C" stroke-width="21.4684"/>
</mask>
<g mask="url(#mask0_1_376)">
<path d="M174.655 247.274C129.428 233.534 71.8452 258.724 48.707 273.036C48.707 346.315 82.1023 424.269 98.8 454.086H174.655V247.274Z" fill="#1F2A30" fill-opacity="0.55"/>
<path d="M114.927 407.571C128.891 412.442 143.669 410.384 155.76 407.038C169.105 403.344 178.176 390.855 179.728 377.096L195.213 239.835C197.606 218.62 181.19 197.128 159.866 196.088C144.049 195.316 127.396 196.196 117.406 202.19C81.1136 223.965 84.1561 396.837 114.927 407.571Z" stroke="black" stroke-width="21.4684"/>
</g>
<mask id="path-5-outside-1_1_376" maskUnits="userSpaceOnUse" x="34.1362" y="79.3994" width="378" height="425" fill="black">
<rect fill="white" x="34.1362" y="79.3994" width="378" height="425"/>
<path fill-rule="evenodd" clip-rule="evenodd" d="M382.149 106.027C390.517 122.158 376.921 167.392 370.04 182.126C369.416 183.461 369.324 184.952 369.852 186.327C388.013 233.637 400.352 316.394 383.851 452.362C382.876 460.396 377.456 467.433 369.818 470.109C352.325 476.237 323.338 484.089 312.305 469.152C312.136 468.923 311.947 468.705 311.771 468.482C309.096 465.088 308.279 453.258 306.78 431.555C306.318 424.856 305.79 417.217 305.123 408.595C304.905 405.783 302.399 403.714 299.595 404.025L283.786 405.782L265.516 408.477C263.391 408.791 261.704 410.426 261.325 412.54L251.572 466.874C251.349 468.113 250.664 469.235 249.64 469.967C218.921 491.953 182.657 483.563 162.011 473.673C156.242 470.91 152.721 465.162 152.095 458.796C149.624 433.652 148.513 403.107 148.621 371.414C148.631 368.538 146.23 366.244 143.354 366.269C131.255 366.377 115.566 364.818 104.796 358.603C95.2378 353.087 91.4979 346.052 88.0081 339.488C84.5037 332.897 81.2514 326.78 72.613 323.151C55.3719 315.908 48.0924 306.759 63.8009 294.941C79.5094 283.124 98.6661 302.565 110.543 315.145C117.585 322.603 133.056 324.241 145.17 323.969C147.73 323.911 149.747 321.831 149.86 319.272C152.42 261.056 158.833 206.79 168.214 182.868C169.499 179.593 170.961 176.475 172.585 173.508C173.209 172.368 173.402 171.046 173.109 169.781C168.97 151.881 165.367 119.683 172.45 106.027C181.083 89.3859 219.942 107.25 243.846 124.793C244.99 125.633 246.422 125.964 247.819 125.715C268.293 122.069 289.225 122.52 306.608 125.789C308.025 126.056 309.484 125.727 310.645 124.873C334.54 107.304 373.503 89.3608 382.149 106.027Z"/>
</mask>
<path fill-rule="evenodd" clip-rule="evenodd" d="M382.149 106.027C390.517 122.158 376.921 167.392 370.04 182.126C369.416 183.461 369.324 184.952 369.852 186.327C388.013 233.637 400.352 316.394 383.851 452.362C382.876 460.396 377.456 467.433 369.818 470.109C352.325 476.237 323.338 484.089 312.305 469.152C312.136 468.923 311.947 468.705 311.771 468.482C309.096 465.088 308.279 453.258 306.78 431.555C306.318 424.856 305.79 417.217 305.123 408.595C304.905 405.783 302.399 403.714 299.595 404.025L283.786 405.782L265.516 408.477C263.391 408.791 261.704 410.426 261.325 412.54L251.572 466.874C251.349 468.113 250.664 469.235 249.64 469.967C218.921 491.953 182.657 483.563 162.011 473.673C156.242 470.91 152.721 465.162 152.095 458.796C149.624 433.652 148.513 403.107 148.621 371.414C148.631 368.538 146.23 366.244 143.354 366.269C131.255 366.377 115.566 364.818 104.796 358.603C95.2378 353.087 91.4979 346.052 88.0081 339.488C84.5037 332.897 81.2514 326.78 72.613 323.151C55.3719 315.908 48.0924 306.759 63.8009 294.941C79.5094 283.124 98.6661 302.565 110.543 315.145C117.585 322.603 133.056 324.241 145.17 323.969C147.73 323.911 149.747 321.831 149.86 319.272C152.42 261.056 158.833 206.79 168.214 182.868C169.499 179.593 170.961 176.475 172.585 173.508C173.209 172.368 173.402 171.046 173.109 169.781C168.97 151.881 165.367 119.683 172.45 106.027C181.083 89.3859 219.942 107.25 243.846 124.793C244.99 125.633 246.422 125.964 247.819 125.715C268.293 122.069 289.225 122.52 306.608 125.789C308.025 126.056 309.484 125.727 310.645 124.873C334.54 107.304 373.503 89.3608 382.149 106.027Z" fill="#3E484E"/>
<path d="M382.149 106.027L364.395 115.236V115.236L382.149 106.027ZM383.851 452.362L363.996 449.953L363.996 449.953L383.851 452.362ZM369.818 470.109L363.207 451.233H363.206L369.818 470.109ZM306.78 431.555L286.828 432.933L306.78 431.555ZM283.786 405.782L281.577 385.904L281.221 385.944L280.867 385.996L283.786 405.782ZM162.011 473.673L170.65 455.636L170.65 455.636L162.011 473.673ZM152.095 458.796L132.191 460.753L152.095 458.796ZM104.796 358.603L94.7997 375.925H94.7998L104.796 358.603ZM88.0081 339.488L70.3487 348.877L70.3487 348.877L88.0081 339.488ZM72.613 323.151L64.8668 341.59L64.8668 341.59L72.613 323.151ZM63.8009 294.941L75.8243 310.924H75.8244L63.8009 294.941ZM110.543 315.145L125.086 301.415L110.543 315.145ZM168.214 182.868L186.834 190.17V190.17L168.214 182.868ZM172.45 106.027L190.204 115.236V115.236L172.45 106.027ZM145.17 323.969L145.619 343.964L145.17 323.969ZM149.86 319.272L169.84 320.151L149.86 319.272ZM310.645 124.873L298.798 108.759L310.645 124.873ZM148.621 371.414L128.621 371.346L148.621 371.414ZM143.354 366.269L143.176 346.27L143.354 366.269ZM265.516 408.477L268.435 428.263L265.516 408.477ZM261.325 412.54L281.01 416.074L261.325 412.54ZM305.123 408.595L325.063 407.052L305.123 408.595ZM299.595 404.025L301.803 423.903L299.595 404.025ZM172.585 173.508L190.129 183.111L172.585 173.508ZM173.109 169.781L153.624 174.286L173.109 169.781ZM251.572 466.874L271.257 470.408L251.572 466.874ZM249.64 469.967L261.28 486.231L249.64 469.967ZM312.305 469.152L296.218 481.034L312.305 469.152ZM311.771 468.482L327.478 456.101L311.771 468.482ZM243.846 124.793L232.013 140.917L243.846 124.793ZM370.04 182.126L388.16 190.59L370.04 182.126ZM369.852 186.327L388.523 179.16L369.852 186.327ZM388.16 190.59C392.371 181.574 397.918 165.081 401.379 148.746C403.127 140.492 404.491 131.604 404.745 123.26C404.98 115.548 404.398 105.484 399.902 96.8174L364.395 115.236C364.083 114.635 364.94 116.275 364.764 122.042C364.608 127.176 363.712 133.542 362.247 140.456C359.281 154.454 354.589 167.945 351.919 173.663L388.16 190.59ZM403.705 454.772C420.427 316.982 408.278 230.619 388.523 179.16L351.18 193.495C367.749 236.654 380.276 315.806 363.996 449.953L403.705 454.772ZM376.43 488.984C391.607 483.668 401.857 469.994 403.705 454.772L363.996 449.953C363.957 450.278 363.816 450.622 363.6 450.897C363.393 451.161 363.229 451.226 363.207 451.233L376.43 488.984ZM296.218 481.034C308.249 497.322 327.886 498.45 340.228 497.466C353.687 496.394 367.283 492.189 376.431 488.984L363.206 451.233C354.861 454.157 345.216 456.942 337.05 457.593C327.768 458.333 327.394 455.918 328.392 457.269L296.218 481.034ZM286.828 432.933C287.562 443.559 288.176 452.541 288.975 459.25C289.375 462.61 289.89 466.029 290.658 469.134C291.3 471.729 292.664 476.55 296.063 480.863L327.478 456.101C329.54 458.717 329.799 460.787 329.488 459.531C329.304 458.785 329.02 457.253 328.694 454.519C328.041 449.038 327.498 441.253 326.733 430.177L286.828 432.933ZM285.183 410.138C285.843 418.667 286.365 426.23 286.828 432.933L326.733 430.177C326.27 423.482 325.738 415.767 325.063 407.052L285.183 410.138ZM285.995 425.659L301.803 423.903L297.386 384.148L281.577 385.904L285.995 425.659ZM268.435 428.263L286.705 425.568L280.867 385.996L262.597 388.692L268.435 428.263ZM271.257 470.408L281.01 416.074L241.639 409.007L231.886 463.341L271.257 470.408ZM153.371 491.711C176.742 502.905 221.821 514.472 261.28 486.231L238 453.704C216.021 469.434 188.572 464.22 170.65 455.636L153.371 491.711ZM132.191 460.753C133.398 473.025 140.392 485.494 153.371 491.711L170.65 455.636C171.28 455.937 171.688 456.372 171.882 456.669C172.05 456.926 172.015 457.003 171.999 456.84L132.191 460.753ZM128.621 371.346C128.512 403.471 129.633 434.73 132.191 460.753L171.999 456.84C169.614 432.574 168.514 402.743 168.621 371.482L128.621 371.346ZM143.176 346.27C131.796 346.371 120.694 344.686 114.793 341.28L94.7998 375.925C110.439 384.95 130.714 386.382 143.532 386.268L143.176 346.27ZM114.793 341.28C112.382 339.889 110.963 338.497 109.858 337.089C108.545 335.416 107.499 333.544 105.667 330.1L70.3487 348.877C74.0284 355.798 79.9753 367.37 94.7997 375.925L114.793 341.28ZM105.667 330.1C102.18 323.539 96.1371 311.34 80.3592 304.712L64.8668 341.59C66.0174 342.073 66.4271 342.477 66.8495 342.986C67.6518 343.952 68.4324 345.273 70.3487 348.877L105.667 330.1ZM80.3592 304.712C76.8325 303.23 74.6368 301.981 73.4418 301.12C72.8793 300.715 72.7826 300.569 72.9416 300.745C73.1047 300.925 73.6855 301.61 74.2193 302.849C74.7873 304.168 75.1879 305.861 75.1309 307.753C75.0746 309.618 74.5932 311.057 74.1741 311.934C73.7845 312.75 73.4936 312.996 73.7495 312.715C74.001 312.439 74.6216 311.828 75.8243 310.924L51.7774 278.959C46.5674 282.878 41.281 287.991 38.0783 294.698C34.4727 302.248 34.0712 310.754 37.4824 318.673C40.4924 325.661 45.7143 330.445 50.0652 333.578C54.5933 336.839 59.7729 339.45 64.8668 341.59L80.3592 304.712ZM75.8244 310.924C75.9123 310.857 75.7022 311.026 75.2308 311.158C74.7706 311.287 74.4331 311.277 74.3617 311.271C74.3342 311.269 74.6515 311.293 75.3675 311.561C76.0882 311.83 77.0645 312.289 78.2986 313.032C83.8366 316.364 89.8326 322.342 96.0008 328.875L125.086 301.415C119.377 295.368 109.856 285.336 98.919 278.757C87.8362 272.089 69.2934 265.782 51.7774 278.959L75.8244 310.924ZM96.0008 328.875C103.701 337.031 114.155 340.423 121.866 342.034C130.117 343.757 138.648 344.121 145.619 343.964L144.721 303.974C139.579 304.09 134.316 303.771 130.043 302.878C125.229 301.873 124.427 300.718 125.086 301.415L96.0008 328.875ZM149.595 175.567C143.948 189.966 139.768 211.599 136.646 235.633C133.459 260.168 131.177 288.875 129.879 318.393L169.84 320.151C171.103 291.452 173.308 263.918 176.313 240.786C179.383 217.153 183.1 199.692 186.834 190.17L149.595 175.567ZM155.041 163.905C153.01 167.616 151.188 171.503 149.595 175.567L186.834 190.17C187.809 187.683 188.912 185.334 190.129 183.111L155.041 163.905ZM154.697 96.8174C151.315 103.336 149.829 110.662 149.111 116.972C148.363 123.549 148.294 130.523 148.591 137.2C149.183 150.518 151.304 164.255 153.624 174.286L192.595 165.275C190.776 157.406 189.026 146.095 188.552 135.425C188.315 130.107 188.416 125.353 188.855 121.493C189.072 119.582 189.353 118.071 189.645 116.933C189.789 116.374 189.923 115.955 190.031 115.658C190.14 115.36 190.207 115.231 190.204 115.236L154.697 96.8174ZM255.68 108.67C242.534 99.0223 224.993 89.015 208.727 83.6111C200.752 80.9613 191.432 78.8513 182.394 79.5274C172.804 80.2448 161.073 84.5262 154.697 96.8175L190.204 115.236C188.144 119.207 184.507 119.481 185.378 119.416C186.801 119.309 190.309 119.642 196.116 121.571C207.414 125.325 221.254 133.021 232.013 140.917L255.68 108.67ZM310.305 106.134C290.589 102.426 267.217 101.947 244.313 106.025L251.325 145.405C269.37 142.192 287.861 142.614 302.911 145.445L310.305 106.134ZM399.902 96.8174C393.516 84.5054 381.759 80.2326 372.162 79.5242C363.114 78.8562 353.783 80.9763 345.796 83.6362C329.507 89.0609 311.943 99.0945 298.798 108.759L322.493 140.986C333.243 133.082 347.107 125.36 358.435 121.587C364.256 119.648 367.781 119.31 369.217 119.416C370.104 119.481 366.459 119.215 364.395 115.236L399.902 96.8174ZM145.619 343.964C159.289 343.657 169.291 332.638 169.84 320.151L129.879 318.393C130.203 311.023 136.172 304.166 144.721 303.974L145.619 343.964ZM302.911 145.445C309.742 146.729 316.836 145.145 322.493 140.986L298.798 108.759C302.131 106.309 306.308 105.382 310.305 106.134L302.911 145.445ZM168.621 371.482C168.67 357 156.724 346.15 143.176 346.27L143.532 386.268C135.737 386.338 128.591 380.076 128.621 371.346L168.621 371.482ZM262.597 388.692C251.973 390.259 243.537 398.437 241.639 409.007L281.01 416.074C279.872 422.416 274.81 427.323 268.435 428.263L262.597 388.692ZM325.063 407.052C323.971 392.93 311.393 382.591 297.386 384.148L301.803 423.903C293.404 424.836 285.84 418.635 285.183 410.138L325.063 407.052ZM190.129 183.111C193.049 177.777 194.022 171.443 192.595 165.275L153.624 174.286C152.782 170.648 153.369 166.96 155.041 163.905L190.129 183.111ZM231.886 463.341C232.544 459.676 234.603 456.135 238 453.704L261.28 486.231C266.724 482.335 270.154 476.551 271.257 470.408L231.886 463.341ZM328.392 457.269C328.01 456.751 327.67 456.334 327.538 456.173C327.502 456.128 327.467 456.085 327.447 456.061C327.423 456.032 327.413 456.02 327.406 456.011C327.392 455.993 327.425 456.034 327.478 456.101L296.063 480.863C296.205 481.042 296.328 481.193 296.403 481.286C296.441 481.333 296.477 481.377 296.498 481.402C296.524 481.434 296.534 481.446 296.543 481.456C296.559 481.477 296.529 481.44 296.479 481.376C296.426 481.31 296.334 481.191 296.218 481.034L328.392 457.269ZM232.013 140.917C237.583 145.005 244.563 146.609 251.325 145.405L244.313 106.025C248.281 105.318 252.396 106.26 255.68 108.67L232.013 140.917ZM351.919 173.663C349.171 179.546 348.565 186.681 351.18 193.495L388.523 179.16C390.083 183.223 389.662 187.376 388.16 190.59L351.919 173.663Z" fill="black" mask="url(#path-5-outside-1_1_376)"/>
<mask id="mask1_1_376" style="mask-type:alpha" maskUnits="userSpaceOnUse" x="35" y="79" width="377" height="425">
<mask id="path-7-outside-2_1_376" maskUnits="userSpaceOnUse" x="34.1362" y="79.3994" width="378" height="425" fill="black">
<rect fill="white" x="34.1362" y="79.3994" width="378" height="425"/>
<path fill-rule="evenodd" clip-rule="evenodd" d="M382.149 106.027C390.517 122.158 376.921 167.392 370.04 182.126C369.416 183.461 369.324 184.952 369.852 186.327C388.013 233.637 400.352 316.394 383.851 452.362C382.876 460.396 377.456 467.433 369.818 470.109C352.325 476.237 323.338 484.089 312.305 469.152C312.136 468.923 311.947 468.705 311.771 468.482C309.096 465.088 308.279 453.258 306.78 431.555C306.318 424.856 305.79 417.217 305.123 408.595C304.905 405.783 302.399 403.714 299.595 404.025L283.786 405.782L265.516 408.477C263.391 408.791 261.704 410.426 261.325 412.54L251.572 466.874C251.349 468.113 250.664 469.235 249.64 469.967C218.921 491.953 182.657 483.563 162.011 473.673C156.242 470.91 152.721 465.162 152.095 458.796C149.624 433.652 148.513 403.107 148.621 371.414C148.631 368.538 146.23 366.244 143.354 366.269C131.255 366.377 115.566 364.818 104.796 358.603C95.2378 353.087 91.4979 346.052 88.0081 339.488C84.5037 332.897 81.2514 326.78 72.613 323.151C55.3719 315.908 48.0924 306.759 63.8009 294.941C79.5094 283.124 98.6661 302.565 110.543 315.145C117.585 322.603 133.056 324.241 145.17 323.969C147.73 323.911 149.747 321.831 149.86 319.272C152.42 261.056 158.833 206.79 168.214 182.868C169.499 179.593 170.961 176.475 172.585 173.508C173.209 172.368 173.402 171.046 173.109 169.781C168.97 151.881 165.367 119.683 172.45 106.027C181.083 89.3859 219.942 107.25 243.846 124.793C244.99 125.633 246.422 125.964 247.819 125.715C268.293 122.069 289.225 122.52 306.608 125.789C308.025 126.056 309.484 125.727 310.645 124.873C334.54 107.304 373.503 89.3608 382.149 106.027Z"/>
</mask>
<path fill-rule="evenodd" clip-rule="evenodd" d="M382.149 106.027C390.517 122.158 376.921 167.392 370.04 182.126C369.416 183.461 369.324 184.952 369.852 186.327C388.013 233.637 400.352 316.394 383.851 452.362C382.876 460.396 377.456 467.433 369.818 470.109C352.325 476.237 323.338 484.089 312.305 469.152C312.136 468.923 311.947 468.705 311.771 468.482C309.096 465.088 308.279 453.258 306.78 431.555C306.318 424.856 305.79 417.217 305.123 408.595C304.905 405.783 302.399 403.714 299.595 404.025L283.786 405.782L265.516 408.477C263.391 408.791 261.704 410.426 261.325 412.54L251.572 466.874C251.349 468.113 250.664 469.235 249.64 469.967C218.921 491.953 182.657 483.563 162.011 473.673C156.242 470.91 152.721 465.162 152.095 458.796C149.624 433.652 148.513 403.107 148.621 371.414C148.631 368.538 146.23 366.244 143.354 366.269C131.255 366.377 115.566 364.818 104.796 358.603C95.2378 353.087 91.4979 346.052 88.0081 339.488C84.5037 332.897 81.2514 326.78 72.613 323.151C55.3719 315.908 48.0924 306.759 63.8009 294.941C79.5094 283.124 98.6661 302.565 110.543 315.145C117.585 322.603 133.056 324.241 145.17 323.969C147.73 323.911 149.747 321.831 149.86 319.272C152.42 261.056 158.833 206.79 168.214 182.868C169.499 179.593 170.961 176.475 172.585 173.508C173.209 172.368 173.402 171.046 173.109 169.781C168.97 151.881 165.367 119.683 172.45 106.027C181.083 89.3859 219.942 107.25 243.846 124.793C244.99 125.633 246.422 125.964 247.819 125.715C268.293 122.069 289.225 122.52 306.608 125.789C308.025 126.056 309.484 125.727 310.645 124.873C334.54 107.304 373.503 89.3608 382.149 106.027Z" fill="#3E484E"/>
<path d="M382.149 106.027L364.395 115.236V115.236L382.149 106.027ZM383.851 452.362L363.996 449.953L363.996 449.953L383.851 452.362ZM369.818 470.109L363.207 451.233H363.206L369.818 470.109ZM306.78 431.555L286.828 432.933L306.78 431.555ZM283.786 405.782L281.577 385.904L281.221 385.944L280.867 385.996L283.786 405.782ZM162.011 473.673L170.65 455.636L170.65 455.636L162.011 473.673ZM152.095 458.796L132.191 460.753L152.095 458.796ZM104.796 358.603L94.7997 375.925H94.7998L104.796 358.603ZM88.0081 339.488L70.3487 348.877L70.3487 348.877L88.0081 339.488ZM72.613 323.151L64.8668 341.59L64.8668 341.59L72.613 323.151ZM63.8009 294.941L75.8243 310.924H75.8244L63.8009 294.941ZM110.543 315.145L125.086 301.415L110.543 315.145ZM168.214 182.868L186.834 190.17V190.17L168.214 182.868ZM172.45 106.027L190.204 115.236V115.236L172.45 106.027ZM145.17 323.969L145.619 343.964L145.17 323.969ZM149.86 319.272L169.84 320.151L149.86 319.272ZM310.645 124.873L298.798 108.759L310.645 124.873ZM148.621 371.414L128.621 371.346L148.621 371.414ZM143.354 366.269L143.176 346.27L143.354 366.269ZM265.516 408.477L268.435 428.263L265.516 408.477ZM261.325 412.54L281.01 416.074L261.325 412.54ZM305.123 408.595L325.063 407.052L305.123 408.595ZM299.595 404.025L301.803 423.903L299.595 404.025ZM172.585 173.508L190.129 183.111L172.585 173.508ZM173.109 169.781L153.624 174.286L173.109 169.781ZM251.572 466.874L271.257 470.408L251.572 466.874ZM249.64 469.967L261.28 486.231L249.64 469.967ZM312.305 469.152L296.218 481.034L312.305 469.152ZM311.771 468.482L327.478 456.101L311.771 468.482ZM243.846 124.793L232.013 140.917L243.846 124.793ZM370.04 182.126L388.16 190.59L370.04 182.126ZM369.852 186.327L388.523 179.16L369.852 186.327ZM388.16 190.59C392.371 181.574 397.918 165.081 401.379 148.746C403.127 140.492 404.491 131.604 404.745 123.26C404.98 115.548 404.398 105.484 399.902 96.8174L364.395 115.236C364.083 114.635 364.94 116.275 364.764 122.042C364.608 127.176 363.712 133.542 362.247 140.456C359.281 154.454 354.589 167.945 351.919 173.663L388.16 190.59ZM403.705 454.772C420.427 316.982 408.278 230.619 388.523 179.16L351.18 193.495C367.749 236.654 380.276 315.806 363.996 449.953L403.705 454.772ZM376.43 488.984C391.607 483.668 401.857 469.994 403.705 454.772L363.996 449.953C363.957 450.278 363.816 450.622 363.6 450.897C363.393 451.161 363.229 451.226 363.207 451.233L376.43 488.984ZM296.218 481.034C308.249 497.322 327.886 498.45 340.228 497.466C353.687 496.394 367.283 492.189 376.431 488.984L363.206 451.233C354.861 454.157 345.216 456.942 337.05 457.593C327.768 458.333 327.394 455.918 328.392 457.269L296.218 481.034ZM286.828 432.933C287.562 443.559 288.176 452.541 288.975 459.25C289.375 462.61 289.89 466.029 290.658 469.134C291.3 471.729 292.664 476.55 296.063 480.863L327.478 456.101C329.54 458.717 329.799 460.787 329.488 459.531C329.304 458.785 329.02 457.253 328.694 454.519C328.041 449.038 327.498 441.253 326.733 430.177L286.828 432.933ZM285.183 410.138C285.843 418.667 286.365 426.23 286.828 432.933L326.733 430.177C326.27 423.482 325.738 415.767 325.063 407.052L285.183 410.138ZM285.995 425.659L301.803 423.903L297.386 384.148L281.577 385.904L285.995 425.659ZM268.435 428.263L286.705 425.568L280.867 385.996L262.597 388.692L268.435 428.263ZM271.257 470.408L281.01 416.074L241.639 409.007L231.886 463.341L271.257 470.408ZM153.371 491.711C176.742 502.905 221.821 514.472 261.28 486.231L238 453.704C216.021 469.434 188.572 464.22 170.65 455.636L153.371 491.711ZM132.191 460.753C133.398 473.025 140.392 485.494 153.371 491.711L170.65 455.636C171.28 455.937 171.688 456.372 171.882 456.669C172.05 456.926 172.015 457.003 171.999 456.84L132.191 460.753ZM128.621 371.346C128.512 403.471 129.633 434.73 132.191 460.753L171.999 456.84C169.614 432.574 168.514 402.743 168.621 371.482L128.621 371.346ZM143.176 346.27C131.796 346.371 120.694 344.686 114.793 341.28L94.7998 375.925C110.439 384.95 130.714 386.382 143.532 386.268L143.176 346.27ZM114.793 341.28C112.382 339.889 110.963 338.497 109.858 337.089C108.545 335.416 107.499 333.544 105.667 330.1L70.3487 348.877C74.0284 355.798 79.9753 367.37 94.7997 375.925L114.793 341.28ZM105.667 330.1C102.18 323.539 96.1371 311.34 80.3592 304.712L64.8668 341.59C66.0174 342.073 66.4271 342.477 66.8495 342.986C67.6518 343.952 68.4324 345.273 70.3487 348.877L105.667 330.1ZM80.3592 304.712C76.8325 303.23 74.6368 301.981 73.4418 301.12C72.8793 300.715 72.7826 300.569 72.9416 300.745C73.1047 300.925 73.6855 301.61 74.2193 302.849C74.7873 304.168 75.1879 305.861 75.1309 307.753C75.0746 309.618 74.5932 311.057 74.1741 311.934C73.7845 312.75 73.4936 312.996 73.7495 312.715C74.001 312.439 74.6216 311.828 75.8243 310.924L51.7774 278.959C46.5674 282.878 41.281 287.991 38.0783 294.698C34.4727 302.248 34.0712 310.754 37.4824 318.673C40.4924 325.661 45.7143 330.445 50.0652 333.578C54.5933 336.839 59.7729 339.45 64.8668 341.59L80.3592 304.712ZM75.8244 310.924C75.9123 310.857 75.7022 311.026 75.2308 311.158C74.7706 311.287 74.4331 311.277 74.3617 311.271C74.3342 311.269 74.6515 311.293 75.3675 311.561C76.0882 311.83 77.0645 312.289 78.2986 313.032C83.8366 316.364 89.8326 322.342 96.0008 328.875L125.086 301.415C119.377 295.368 109.856 285.336 98.919 278.757C87.8362 272.089 69.2934 265.782 51.7774 278.959L75.8244 310.924ZM96.0008 328.875C103.701 337.031 114.155 340.423 121.866 342.034C130.117 343.757 138.648 344.121 145.619 343.964L144.721 303.974C139.579 304.09 134.316 303.771 130.043 302.878C125.229 301.873 124.427 300.718 125.086 301.415L96.0008 328.875ZM149.595 175.567C143.948 189.966 139.768 211.599 136.646 235.633C133.459 260.168 131.177 288.875 129.879 318.393L169.84 320.151C171.103 291.452 173.308 263.918 176.313 240.786C179.383 217.153 183.1 199.692 186.834 190.17L149.595 175.567ZM155.041 163.905C153.01 167.616 151.188 171.503 149.595 175.567L186.834 190.17C187.809 187.683 188.912 185.334 190.129 183.111L155.041 163.905ZM154.697 96.8174C151.315 103.336 149.829 110.662 149.111 116.972C148.363 123.549 148.294 130.523 148.591 137.2C149.183 150.518 151.304 164.255 153.624 174.286L192.595 165.275C190.776 157.406 189.026 146.095 188.552 135.425C188.315 130.107 188.416 125.353 188.855 121.493C189.072 119.582 189.353 118.071 189.645 116.933C189.789 116.374 189.923 115.955 190.031 115.658C190.14 115.36 190.207 115.231 190.204 115.236L154.697 96.8174ZM255.68 108.67C242.534 99.0223 224.993 89.015 208.727 83.6111C200.752 80.9613 191.432 78.8513 182.394 79.5274C172.804 80.2448 161.073 84.5262 154.697 96.8175L190.204 115.236C188.144 119.207 184.507 119.481 185.378 119.416C186.801 119.309 190.309 119.642 196.116 121.571C207.414 125.325 221.254 133.021 232.013 140.917L255.68 108.67ZM310.305 106.134C290.589 102.426 267.217 101.947 244.313 106.025L251.325 145.405C269.37 142.192 287.861 142.614 302.911 145.445L310.305 106.134ZM399.902 96.8174C393.516 84.5054 381.759 80.2326 372.162 79.5242C363.114 78.8562 353.783 80.9763 345.796 83.6362C329.507 89.0609 311.943 99.0945 298.798 108.759L322.493 140.986C333.243 133.082 347.107 125.36 358.435 121.587C364.256 119.648 367.781 119.31 369.217 119.416C370.104 119.481 366.459 119.215 364.395 115.236L399.902 96.8174ZM145.619 343.964C159.289 343.657 169.291 332.638 169.84 320.151L129.879 318.393C130.203 311.023 136.172 304.166 144.721 303.974L145.619 343.964ZM302.911 145.445C309.742 146.729 316.836 145.145 322.493 140.986L298.798 108.759C302.131 106.309 306.308 105.382 310.305 106.134L302.911 145.445ZM168.621 371.482C168.67 357 156.724 346.15 143.176 346.27L143.532 386.268C135.737 386.338 128.591 380.076 128.621 371.346L168.621 371.482ZM262.597 388.692C251.973 390.259 243.537 398.437 241.639 409.007L281.01 416.074C279.872 422.416 274.81 427.323 268.435 428.263L262.597 388.692ZM325.063 407.052C323.971 392.93 311.393 382.591 297.386 384.148L301.803 423.903C293.404 424.836 285.84 418.635 285.183 410.138L325.063 407.052ZM190.129 183.111C193.049 177.777 194.022 171.443 192.595 165.275L153.624 174.286C152.782 170.648 153.369 166.96 155.041 163.905L190.129 183.111ZM231.886 463.341C232.544 459.676 234.603 456.135 238 453.704L261.28 486.231C266.724 482.335 270.154 476.551 271.257 470.408L231.886 463.341ZM328.392 457.269C328.01 456.751 327.67 456.334 327.538 456.173C327.502 456.128 327.467 456.085 327.447 456.061C327.423 456.032 327.413 456.02 327.406 456.011C327.392 455.993 327.425 456.034 327.478 456.101L296.063 480.863C296.205 481.042 296.328 481.193 296.403 481.286C296.441 481.333 296.477 481.377 296.498 481.402C296.524 481.434 296.534 481.446 296.543 481.456C296.559 481.477 296.529 481.44 296.479 481.376C296.426 481.31 296.334 481.191 296.218 481.034L328.392 457.269ZM232.013 140.917C237.583 145.005 244.563 146.609 251.325 145.405L244.313 106.025C248.281 105.318 252.396 106.26 255.68 108.67L232.013 140.917ZM351.919 173.663C349.171 179.546 348.565 186.681 351.18 193.495L388.523 179.16C390.083 183.223 389.662 187.376 388.16 190.59L351.919 173.663Z" fill="black" mask="url(#path-7-outside-2_1_376)"/>
</mask>
<g mask="url(#mask1_1_376)">
<path d="M344.677 365.35C369.867 355.045 386.183 313.11 390.477 282.339L398.348 535.666H143.59L138.076 402.774C111.096 398.774 53.0363 377.474 36.6363 324.274C20.2363 271.074 94.397 243.941 131.23 237.774L126.636 127.05C128.236 118.071 134.303 112.792 137.136 111.274C171.044 103.166 195.184 115.816 205.065 124.836C206.484 126.132 206.809 128.189 206.099 129.974C171.71 216.378 181.201 305.781 216.583 353.9C239.352 384.867 313.19 378.231 344.677 365.35Z" fill="#1F2A30" fill-opacity="0.55"/>
<mask id="path-10-outside-3_1_376" maskUnits="userSpaceOnUse" x="34.1362" y="79.3994" width="378" height="425" fill="black">
<rect fill="white" x="34.1362" y="79.3994" width="378" height="425"/>
<path fill-rule="evenodd" clip-rule="evenodd" d="M382.149 106.027C390.517 122.158 376.921 167.392 370.04 182.126C369.416 183.461 369.324 184.952 369.852 186.327C388.013 233.637 400.352 316.394 383.851 452.362C382.876 460.396 377.456 467.433 369.818 470.109C352.325 476.237 323.338 484.089 312.305 469.152C312.136 468.923 311.947 468.705 311.771 468.482C309.096 465.088 308.279 453.258 306.78 431.555C306.318 424.856 305.79 417.217 305.123 408.595C304.905 405.783 302.399 403.714 299.595 404.025L283.786 405.782L265.516 408.477C263.391 408.791 261.704 410.426 261.325 412.54L251.572 466.874C251.349 468.113 250.664 469.235 249.64 469.967C218.921 491.953 182.657 483.563 162.011 473.673C156.242 470.91 152.721 465.162 152.095 458.796C149.624 433.652 148.513 403.107 148.621 371.414C148.631 368.538 146.23 366.244 143.354 366.269C131.255 366.377 115.566 364.818 104.796 358.603C95.2378 353.087 91.4979 346.052 88.0081 339.488C84.5037 332.897 81.2514 326.78 72.613 323.151C55.3719 315.908 48.0924 306.759 63.8009 294.941C79.5094 283.124 98.6661 302.565 110.543 315.145C117.585 322.603 133.056 324.241 145.17 323.969C147.73 323.911 149.747 321.831 149.86 319.272C152.42 261.056 158.833 206.79 168.214 182.868C169.499 179.593 170.961 176.475 172.585 173.508C173.209 172.368 173.402 171.046 173.109 169.781C168.97 151.881 165.367 119.683 172.45 106.027C181.083 89.3859 219.942 107.25 243.846 124.793C244.99 125.633 246.422 125.964 247.819 125.715C268.293 122.069 289.225 122.52 306.608 125.789C308.025 126.056 309.484 125.727 310.645 124.873C334.54 107.304 373.503 89.3608 382.149 106.027Z"/>
</mask>
<path d="M382.149 106.027L364.395 115.236V115.236L382.149 106.027ZM383.851 452.362L363.996 449.953L363.996 449.953L383.851 452.362ZM369.818 470.109L363.207 451.233H363.206L369.818 470.109ZM306.78 431.555L286.828 432.933L306.78 431.555ZM283.786 405.782L281.577 385.904L281.221 385.944L280.867 385.996L283.786 405.782ZM162.011 473.673L170.65 455.636L170.65 455.636L162.011 473.673ZM152.095 458.796L132.191 460.753L152.095 458.796ZM104.796 358.603L94.7997 375.925H94.7998L104.796 358.603ZM88.0081 339.488L70.3487 348.877L70.3487 348.877L88.0081 339.488ZM72.613 323.151L64.8668 341.59L64.8668 341.59L72.613 323.151ZM63.8009 294.941L75.8243 310.924H75.8244L63.8009 294.941ZM110.543 315.145L125.086 301.415L110.543 315.145ZM168.214 182.868L186.834 190.17V190.17L168.214 182.868ZM172.45 106.027L190.204 115.236V115.236L172.45 106.027ZM145.17 323.969L145.619 343.964L145.17 323.969ZM149.86 319.272L169.84 320.151L149.86 319.272ZM310.645 124.873L298.798 108.759L310.645 124.873ZM148.621 371.414L128.621 371.346L148.621 371.414ZM143.354 366.269L143.176 346.27L143.354 366.269ZM265.516 408.477L268.435 428.263L265.516 408.477ZM261.325 412.54L281.01 416.074L261.325 412.54ZM305.123 408.595L325.063 407.052L305.123 408.595ZM299.595 404.025L301.803 423.903L299.595 404.025ZM172.585 173.508L190.129 183.111L172.585 173.508ZM173.109 169.781L153.624 174.286L173.109 169.781ZM251.572 466.874L271.257 470.408L251.572 466.874ZM249.64 469.967L261.28 486.231L249.64 469.967ZM312.305 469.152L296.218 481.034L312.305 469.152ZM311.771 468.482L327.478 456.101L311.771 468.482ZM243.846 124.793L232.013 140.917L243.846 124.793ZM370.04 182.126L388.16 190.59L370.04 182.126ZM369.852 186.327L388.523 179.16L369.852 186.327ZM388.16 190.59C392.371 181.574 397.918 165.081 401.379 148.746C403.127 140.492 404.491 131.604 404.745 123.26C404.98 115.548 404.398 105.484 399.902 96.8174L364.395 115.236C364.083 114.635 364.94 116.275 364.764 122.042C364.608 127.176 363.712 133.542 362.247 140.456C359.281 154.454 354.589 167.945 351.919 173.663L388.16 190.59ZM403.705 454.772C420.427 316.982 408.278 230.619 388.523 179.16L351.18 193.495C367.749 236.654 380.276 315.806 363.996 449.953L403.705 454.772ZM376.43 488.984C391.607 483.668 401.857 469.994 403.705 454.772L363.996 449.953C363.957 450.278 363.816 450.622 363.6 450.897C363.393 451.161 363.229 451.226 363.207 451.233L376.43 488.984ZM296.218 481.034C308.249 497.322 327.886 498.45 340.228 497.466C353.687 496.394 367.283 492.189 376.431 488.984L363.206 451.233C354.861 454.157 345.216 456.942 337.05 457.593C327.768 458.333 327.394 455.918 328.392 457.269L296.218 481.034ZM286.828 432.933C287.562 443.559 288.176 452.541 288.975 459.25C289.375 462.61 289.89 466.029 290.658 469.134C291.3 471.729 292.664 476.55 296.063 480.863L327.478 456.101C329.54 458.717 329.799 460.787 329.488 459.531C329.304 458.785 329.02 457.253 328.694 454.519C328.041 449.038 327.498 441.253 326.733 430.177L286.828 432.933ZM285.183 410.138C285.843 418.667 286.365 426.23 286.828 432.933L326.733 430.177C326.27 423.482 325.738 415.767 325.063 407.052L285.183 410.138ZM285.995 425.659L301.803 423.903L297.386 384.148L281.577 385.904L285.995 425.659ZM268.435 428.263L286.705 425.568L280.867 385.996L262.597 388.692L268.435 428.263ZM271.257 470.408L281.01 416.074L241.639 409.007L231.886 463.341L271.257 470.408ZM153.371 491.711C176.742 502.905 221.821 514.472 261.28 486.231L238 453.704C216.021 469.434 188.572 464.22 170.65 455.636L153.371 491.711ZM132.191 460.753C133.398 473.025 140.392 485.494 153.371 491.711L170.65 455.636C171.28 455.937 171.688 456.372 171.882 456.669C172.05 456.926 172.015 457.003 171.999 456.84L132.191 460.753ZM128.621 371.346C128.512 403.471 129.633 434.73 132.191 460.753L171.999 456.84C169.614 432.574 168.514 402.743 168.621 371.482L128.621 371.346ZM143.176 346.27C131.796 346.371 120.694 344.686 114.793 341.28L94.7998 375.925C110.439 384.95 130.714 386.382 143.532 386.268L143.176 346.27ZM114.793 341.28C112.382 339.889 110.963 338.497 109.858 337.089C108.545 335.416 107.499 333.544 105.667 330.1L70.3487 348.877C74.0284 355.798 79.9753 367.37 94.7997 375.925L114.793 341.28ZM105.667 330.1C102.18 323.539 96.1371 311.34 80.3592 304.712L64.8668 341.59C66.0174 342.073 66.4271 342.477 66.8495 342.986C67.6518 343.952 68.4324 345.273 70.3487 348.877L105.667 330.1ZM80.3592 304.712C76.8325 303.23 74.6368 301.981 73.4418 301.12C72.8793 300.715 72.7826 300.569 72.9416 300.745C73.1047 300.925 73.6855 301.61 74.2193 302.849C74.7873 304.168 75.1879 305.861 75.1309 307.753C75.0746 309.618 74.5932 311.057 74.1741 311.934C73.7845 312.75 73.4936 312.996 73.7495 312.715C74.001 312.439 74.6216 311.828 75.8243 310.924L51.7774 278.959C46.5674 282.878 41.281 287.991 38.0783 294.698C34.4727 302.248 34.0712 310.754 37.4824 318.673C40.4924 325.661 45.7143 330.445 50.0652 333.578C54.5933 336.839 59.7729 339.45 64.8668 341.59L80.3592 304.712ZM75.8244 310.924C75.9123 310.857 75.7022 311.026 75.2308 311.158C74.7706 311.287 74.4331 311.277 74.3617 311.271C74.3342 311.269 74.6515 311.293 75.3675 311.561C76.0882 311.83 77.0645 312.289 78.2986 313.032C83.8366 316.364 89.8326 322.342 96.0008 328.875L125.086 301.415C119.377 295.368 109.856 285.336 98.919 278.757C87.8362 272.089 69.2934 265.782 51.7774 278.959L75.8244 310.924ZM96.0008 328.875C103.701 337.031 114.155 340.423 121.866 342.034C130.117 343.757 138.648 344.121 145.619 343.964L144.721 303.974C139.579 304.09 134.316 303.771 130.043 302.878C125.229 301.873 124.427 300.718 125.086 301.415L96.0008 328.875ZM149.595 175.567C143.948 189.966 139.768 211.599 136.646 235.633C133.459 260.168 131.177 288.875 129.879 318.393L169.84 320.151C171.103 291.452 173.308 263.918 176.313 240.786C179.383 217.153 183.1 199.692 186.834 190.17L149.595 175.567ZM155.041 163.905C153.01 167.616 151.188 171.503 149.595 175.567L186.834 190.17C187.809 187.683 188.912 185.334 190.129 183.111L155.041 163.905ZM154.697 96.8174C151.315 103.336 149.829 110.662 149.111 116.972C148.363 123.549 148.294 130.523 148.591 137.2C149.183 150.518 151.304 164.255 153.624 174.286L192.595 165.275C190.776 157.406 189.026 146.095 188.552 135.425C188.315 130.107 188.416 125.353 188.855 121.493C189.072 119.582 189.353 118.071 189.645 116.933C189.789 116.374 189.923 115.955 190.031 115.658C190.14 115.36 190.207 115.231 190.204 115.236L154.697 96.8174ZM255.68 108.67C242.534 99.0223 224.993 89.015 208.727 83.6111C200.752 80.9613 191.432 78.8513 182.394 79.5274C172.804 80.2448 161.073 84.5262 154.697 96.8175L190.204 115.236C188.144 119.207 184.507 119.481 185.378 119.416C186.801 119.309 190.309 119.642 196.116 121.571C207.414 125.325 221.254 133.021 232.013 140.917L255.68 108.67ZM310.305 106.134C290.589 102.426 267.217 101.947 244.313 106.025L251.325 145.405C269.37 142.192 287.861 142.614 302.911 145.445L310.305 106.134ZM399.902 96.8174C393.516 84.5054 381.759 80.2326 372.162 79.5242C363.114 78.8562 353.783 80.9763 345.796 83.6362C329.507 89.0609 311.943 99.0945 298.798 108.759L322.493 140.986C333.243 133.082 347.107 125.36 358.435 121.587C364.256 119.648 367.781 119.31 369.217 119.416C370.104 119.481 366.459 119.215 364.395 115.236L399.902 96.8174ZM145.619 343.964C159.289 343.657 169.291 332.638 169.84 320.151L129.879 318.393C130.203 311.023 136.172 304.166 144.721 303.974L145.619 343.964ZM302.911 145.445C309.742 146.729 316.836 145.145 322.493 140.986L298.798 108.759C302.131 106.309 306.308 105.382 310.305 106.134L302.911 145.445ZM168.621 371.482C168.67 357 156.724 346.15 143.176 346.27L143.532 386.268C135.737 386.338 128.591 380.076 128.621 371.346L168.621 371.482ZM262.597 388.692C251.973 390.259 243.537 398.437 241.639 409.007L281.01 416.074C279.872 422.416 274.81 427.323 268.435 428.263L262.597 388.692ZM325.063 407.052C323.971 392.93 311.393 382.591 297.386 384.148L301.803 423.903C293.404 424.836 285.84 418.635 285.183 410.138L325.063 407.052ZM190.129 183.111C193.049 177.777 194.022 171.443 192.595 165.275L153.624 174.286C152.782 170.648 153.369 166.96 155.041 163.905L190.129 183.111ZM231.886 463.341C232.544 459.676 234.603 456.135 238 453.704L261.28 486.231C266.724 482.335 270.154 476.551 271.257 470.408L231.886 463.341ZM328.392 457.269C328.01 456.751 327.67 456.334 327.538 456.173C327.502 456.128 327.467 456.085 327.447 456.061C327.423 456.032 327.413 456.02 327.406 456.011C327.392 455.993 327.425 456.034 327.478 456.101L296.063 480.863C296.205 481.042 296.328 481.193 296.403 481.286C296.441 481.333 296.477 481.377 296.498 481.402C296.524 481.434 296.534 481.446 296.543 481.456C296.559 481.477 296.529 481.44 296.479 481.376C296.426 481.31 296.334 481.191 296.218 481.034L328.392 457.269ZM232.013 140.917C237.583 145.005 244.563 146.609 251.325 145.405L244.313 106.025C248.281 105.318 252.396 106.26 255.68 108.67L232.013 140.917ZM351.919 173.663C349.171 179.546 348.565 186.681 351.18 193.495L388.523 179.16C390.083 183.223 389.662 187.376 388.16 190.59L351.919 173.663Z" fill="black" mask="url(#path-10-outside-3_1_376)"/>
</g>
<path d="M400.073 278.045C374.938 304.338 318.493 303.475 291.861 295.044C249.966 281.782 244.957 228.11 251.397 203.064C257.988 177.432 295.714 177.124 340.828 179.528C385.942 181.933 431.492 245.179 400.073 278.045Z" fill="#98C7DD" stroke="black" stroke-width="20"/>
<mask id="mask2_1_376" style="mask-type:alpha" maskUnits="userSpaceOnUse" x="239" y="168" width="182" height="143">
<path d="M400.073 278.045C374.938 304.338 318.493 303.475 291.861 295.044C249.966 281.782 244.957 228.11 251.397 203.064C257.988 177.432 295.714 177.124 340.828 179.528C385.942 181.933 431.492 245.179 400.073 278.045Z" fill="#98C7DD" stroke="#3D3436" stroke-width="20"/>
</mask>
<g mask="url(#mask2_1_376)">
<path d="M366.439 212.924C360.714 203.192 327.693 201.474 312.188 201.474C308.849 201.474 302.456 203.907 303.601 213.64C305.032 225.805 338.666 232.246 353.694 232.246C368.722 232.246 373.595 225.09 366.439 212.924Z" fill="#FBFDFD" fill-opacity="0.85"/>
<path d="M299.887 253.714C278.403 249.686 269.306 207.233 267.279 181.909C267.048 179.026 265.195 176.507 262.473 175.53L248.634 170.562C243.972 168.888 239.06 172.329 239.06 177.283V338.872C239.06 345.501 340.332 342.003 396.3 339.177C399.741 339.004 402.549 336.396 403.003 332.981L413.289 255.563C414.162 248.996 405.474 243.689 399.314 246.127C368.433 258.353 318.601 257.223 299.887 253.714Z" fill="#4B646E" fill-opacity="0.55"/>
<path d="M400.073 278.045C374.938 304.338 318.493 303.475 291.861 295.044C249.966 281.782 244.957 228.11 251.397 203.064C257.988 177.432 295.714 177.124 340.828 179.528C385.942 181.933 431.492 245.179 400.073 278.045Z" stroke="black" stroke-width="20"/>
</g>
</svg>
