<svg width="501" height="551" viewBox="0 0 501 551" fill="none" xmlns="http://www.w3.org/2000/svg">
<path d="M113.965 410.571C127.929 415.442 142.706 413.384 154.797 410.038C168.142 406.344 177.213 393.855 178.765 380.096L194.25 242.835C196.643 221.62 180.227 200.128 158.903 199.088C143.086 198.316 126.433 199.196 116.443 205.19C80.1507 226.965 83.1932 399.837 113.965 410.571Z" fill="#F6A3A5" stroke="black" stroke-width="20"/>
<mask id="mask0_1_533" style="mask-type:alpha" maskUnits="userSpaceOnUse" x="80" y="188" width="125" height="236">
<path d="M113.965 410.571C127.929 415.442 142.706 413.384 154.797 410.038C168.142 406.344 177.213 393.855 178.765 380.096L194.25 242.835C196.643 221.62 180.227 200.128 158.903 199.088C143.086 198.316 126.433 199.196 116.443 205.19C80.1507 226.965 83.1932 399.837 113.965 410.571Z" fill="#E453BD" stroke="#63114C" stroke-width="20"/>
</mask>
<g mask="url(#mask0_1_533)">
<path d="M173.692 250.274C128.465 236.534 70.8823 261.724 47.7441 276.036C47.7441 349.315 81.1394 427.269 97.8371 457.086H173.692V250.274Z" fill="#CB797B" fill-opacity="0.55"/>
<path d="M113.965 410.571C127.929 415.442 142.706 413.384 154.797 410.038C168.142 406.344 177.213 393.855 178.765 380.096L194.25 242.835C196.643 221.62 180.227 200.128 158.903 199.088C143.086 198.316 126.433 199.196 116.443 205.19C80.1507 226.965 83.1932 399.837 113.965 410.571Z" stroke="black" stroke-width="20"/>
</g>
<path d="M167.252 185.868C149.984 229.902 142.772 376.745 151.133 461.796C151.758 468.162 155.279 473.91 161.048 476.673C182.05 486.733 219.215 495.243 250.263 471.802L260.997 412.002L282.823 408.782L303.755 406.456C307.047 447.389 307.154 467.851 311.09 471.802C321.927 487.21 351.227 479.284 368.856 473.109C376.494 470.433 381.913 463.396 382.888 455.362C407.439 253.064 368.148 168.557 340.825 143.335C312.916 117.573 195.876 112.876 167.252 185.868Z" fill="#F6A3A5"/>
<path d="M324.687 404.13L303.755 406.456M303.755 406.456L282.823 408.782L260.997 412.002L250.263 471.802C219.215 495.243 182.05 486.733 161.048 476.673C155.279 473.91 151.758 468.162 151.133 461.796C142.772 376.745 149.984 229.902 167.252 185.868C195.876 112.876 312.916 117.573 340.825 143.335C368.148 168.557 407.439 253.064 382.888 455.362C381.913 463.396 376.494 470.433 368.856 473.109C351.227 479.284 321.927 487.21 311.09 471.802C307.154 467.851 307.047 447.389 303.755 406.456Z" stroke="black" stroke-width="20" stroke-linecap="round" stroke-linejoin="round"/>
<mask id="mask1_1_533" style="mask-type:alpha" maskUnits="userSpaceOnUse" x="137" y="116" width="264" height="381">
<path d="M167.252 185.868C149.984 229.902 142.772 376.745 151.133 461.796C151.758 468.162 155.279 473.91 161.048 476.673C182.05 486.733 219.215 495.243 250.263 471.802L260.997 412.002L282.823 408.782L303.755 406.456C307.047 447.389 307.154 467.851 311.09 471.802C321.927 487.21 351.227 479.284 368.856 473.109C376.494 470.433 381.913 463.396 382.888 455.362C407.439 253.064 368.148 168.557 340.825 143.335C312.916 117.573 195.876 112.876 167.252 185.868Z" fill="#E752BE"/>
<path d="M324.687 404.13L303.755 406.456M303.755 406.456L282.823 408.782L260.997 412.002L250.263 471.802C219.215 495.243 182.05 486.733 161.048 476.673C155.279 473.91 151.758 468.162 151.133 461.796C142.772 376.745 149.984 229.902 167.252 185.868C195.876 112.876 312.916 117.573 340.825 143.335C368.148 168.557 407.439 253.064 382.888 455.362C381.913 463.396 376.494 470.433 368.856 473.109C351.227 479.284 321.927 487.21 311.09 471.802C307.154 467.851 307.047 447.389 303.755 406.456Z" stroke="#63114C" stroke-width="20" stroke-linecap="round" stroke-linejoin="round"/>
</mask>
<g mask="url(#mask1_1_533)">
<path d="M339.714 368.35C364.904 358.045 381.22 316.11 385.514 285.339L393.385 538.666H138.627V130.051H202.317C166.536 217.355 175.839 308.238 211.62 356.9C234.389 387.867 308.227 381.231 339.714 368.35Z" fill="#CB797B" fill-opacity="0.55"/>
<path d="M394.636 341.096V441.774H135.636V341.671C193.813 347.328 326.438 343.879 394.636 341.096Z" fill="#D2DC22" stroke="black" stroke-width="15"/>
<mask id="mask2_1_533" style="mask-type:alpha" maskUnits="userSpaceOnUse" x="128" y="333" width="275" height="117">
<path d="M394.636 341.096V441.774H135.636V341.671C193.813 347.328 326.438 343.879 394.636 341.096Z" fill="#D2DC22" stroke="black" stroke-width="15"/>
</mask>
<g mask="url(#mask2_1_533)">
<path d="M339.714 368.35C364.904 358.045 381.22 316.11 385.514 285.339L393.385 538.666H138.627V130.05H202.317C166.536 217.355 175.839 308.238 211.62 356.9C234.389 387.867 308.227 381.231 339.714 368.35Z" fill="#A5AD1B" fill-opacity="0.55"/>
<path d="M208.141 367.047C202.236 359.741 200.383 343.107 203.946 335.964C204.027 335.802 204.129 335.662 204.254 335.533C221.083 318.264 277.077 324.713 289.645 329.746C302.26 334.797 296.616 358.163 289.645 367.255C282.673 376.346 275.038 362.54 269.063 358.163C263.087 353.785 262.88 357.803 265.868 371.609C268.856 385.415 243.169 386.316 232.546 381.939C221.923 377.561 236.198 371.632 232.546 362.54C229.698 355.448 225.355 359.305 223.397 362.312C223.298 362.463 223.224 362.634 223.171 362.807C220.24 372.27 212.358 369.912 208.537 367.405C208.386 367.306 208.255 367.187 208.141 367.047Z" fill="#A988BD"/>
<path d="M340.532 416.637C334.24 424.428 332.267 442.208 336.069 449.822C336.149 449.983 336.251 450.124 336.376 450.253C354.253 468.689 413.807 461.807 427.172 456.438C440.583 451.051 434.583 426.127 427.172 416.429C419.76 406.731 411.643 421.457 405.29 426.127C398.937 430.796 398.717 426.511 401.893 411.784C405.07 397.058 377.761 396.096 366.467 400.766C355.173 405.435 370.349 411.759 366.467 421.457C363.434 429.035 358.807 424.895 356.729 421.686C356.632 421.534 356.558 421.363 356.505 421.191C353.39 411.064 344.986 413.599 340.927 416.278C340.776 416.378 340.645 416.496 340.532 416.637Z" fill="#A988BD"/>
<path d="M129.407 407.395C121.121 413.019 114.061 429.455 115.482 437.846C115.512 438.024 115.569 438.188 115.651 438.348C127.391 461.187 186.371 471.93 200.72 470.682C215.118 469.429 216.629 443.838 212.36 432.403C208.09 420.968 196.04 432.696 188.603 435.315C181.167 437.934 182.203 433.77 189.526 420.605C196.85 407.439 171.002 398.574 158.838 399.756C146.674 400.938 159.354 411.404 152.818 419.553C147.712 425.92 144.489 420.613 143.435 416.938C143.386 416.765 143.365 416.58 143.365 416.4C143.331 405.804 134.553 405.784 129.89 407.167C129.716 407.218 129.557 407.294 129.407 407.395Z" fill="#A988BD"/>
<path d="M394.636 341.096V441.774H135.636V341.671C193.813 347.328 326.438 343.879 394.636 341.096Z" stroke="black" stroke-width="15"/>
</g>
<path d="M324.687 404.13L303.755 406.456M303.755 406.456L282.823 408.782L260.997 412.002L250.263 471.802C219.215 495.243 182.05 486.733 161.048 476.673C155.279 473.91 151.758 468.162 151.133 461.796C142.772 376.745 149.984 229.902 167.252 185.868C195.876 112.876 312.916 117.573 340.825 143.335C368.148 168.557 407.439 253.064 382.888 455.362C381.913 463.396 376.494 470.433 368.856 473.109C351.227 479.284 321.927 487.21 311.09 471.802C307.154 467.851 307.047 447.389 303.755 406.456Z" stroke="black" stroke-width="20" stroke-linecap="round" stroke-linejoin="round"/>
</g>
<path d="M399.11 281.045C373.975 307.338 317.53 306.475 290.898 298.044C249.003 284.782 243.994 231.11 250.434 206.064C257.025 180.432 294.751 180.124 339.865 182.528C384.979 184.933 430.529 248.179 399.11 281.045Z" fill="#98C7DD" stroke="black" stroke-width="20"/>
<mask id="mask3_1_533" style="mask-type:alpha" maskUnits="userSpaceOnUse" x="238" y="171" width="182" height="143">
<path d="M399.11 281.045C373.975 307.338 317.53 306.475 290.898 298.044C249.003 284.782 243.994 231.11 250.434 206.064C257.025 180.432 294.751 180.124 339.865 182.528C384.979 184.933 430.529 248.179 399.11 281.045Z" fill="#98C7DD" stroke="#3D3436" stroke-width="20"/>
</mask>
<g mask="url(#mask3_1_533)">
<path d="M365.476 215.924C359.752 206.192 326.73 204.474 311.225 204.474C307.886 204.474 301.493 206.907 302.638 216.64C304.069 228.805 337.703 235.246 352.731 235.246C367.759 235.246 372.633 228.09 365.476 215.924Z" fill="#FBFDFD" fill-opacity="0.85"/>
<path d="M298.924 256.714C277.44 252.686 268.343 210.233 266.316 184.909C266.085 182.026 264.232 179.507 261.51 178.53L247.671 173.562C243.009 171.888 238.097 175.329 238.097 180.283V341.872C238.097 348.501 339.369 345.003 395.337 342.177C398.778 342.004 401.586 339.396 402.04 335.981L412.326 258.563C413.199 251.996 404.511 246.689 398.351 249.127C367.47 261.353 317.638 260.223 298.924 256.714Z" fill="#4B646E" fill-opacity="0.55"/>
<path d="M399.11 281.045C373.975 307.338 317.53 306.475 290.898 298.044C249.003 284.782 243.994 231.11 250.434 206.064C257.025 180.432 294.751 180.124 339.865 182.528C384.979 184.933 430.529 248.179 399.11 281.045Z" stroke="black" stroke-width="20"/>
</g>
</svg>
