<svg width="501" height="551" viewBox="0 0 501 551" fill="none" xmlns="http://www.w3.org/2000/svg">
<path d="M137.788 410.571C151.752 415.442 166.53 413.384 178.62 410.038C191.965 406.344 201.037 393.855 202.589 380.096L218.073 242.835C220.466 221.62 204.051 200.128 182.727 199.088C166.909 198.316 150.256 199.196 140.266 205.19C103.974 226.965 107.017 399.837 137.788 410.571Z" fill="#FFD924" stroke="black" stroke-width="21.4684"/>
<mask id="mask0_1_448" style="mask-type:alpha" maskUnits="userSpaceOnUse" x="103" y="188" width="127" height="237">
<path d="M137.788 410.571C151.752 415.442 166.53 413.384 178.62 410.038C191.965 406.344 201.037 393.855 202.589 380.096L218.073 242.835C220.466 221.62 204.051 200.128 182.727 199.088C166.909 198.316 150.256 199.196 140.266 205.19C103.974 226.965 107.017 399.837 137.788 410.571Z" fill="#E453BD" stroke="#63114C" stroke-width="21.4684"/>
</mask>
<g mask="url(#mask0_1_448)">
<path d="M197.515 250.274C152.289 236.534 94.7055 261.724 71.5674 276.036C71.5674 349.315 104.963 427.269 121.66 457.086H197.515V250.274Z" fill="#E28F01" fill-opacity="0.55"/>
<path d="M137.788 410.571C151.752 415.442 166.53 413.384 178.62 410.038C191.965 406.344 201.037 393.855 202.589 380.096L218.073 242.835C220.466 221.62 204.051 200.128 182.727 199.088C166.909 198.316 150.256 199.196 140.266 205.19C103.974 226.965 107.017 399.837 137.788 410.571Z" stroke="black" stroke-width="21.4684"/>
</g>
<path d="M175.085 338.175L172.798 345.317L175.085 338.174L148.827 329.767L191.271 232.474C193.736 226.824 190.251 220.359 184.176 219.313L32.4263 193.191C25.6697 192.028 19.9434 198.187 21.5941 204.841L40.9027 282.677C41.8224 286.384 44.8732 289.18 48.6466 289.774L115.018 300.217L83.8907 346.519C80.1972 352.013 83.1147 359.506 89.551 361.056L137.54 372.61L130.054 393.775C128.228 398.937 131.131 404.569 136.395 406.076L167.906 415.098C175.929 417.395 182.803 408.974 178.946 401.574L170.022 384.455L181.218 350.171L174.215 347.884L181.218 350.171C182.854 345.163 180.102 339.781 175.085 338.175ZM172.035 400.678L172.028 400.676C172.031 400.676 172.033 400.677 172.035 400.678Z" fill="#FFD924" stroke="black" stroke-width="15"/>
<mask id="mask1_1_448" style="mask-type:alpha" maskUnits="userSpaceOnUse" x="13" y="185" width="187" height="238">
<path d="M175.085 338.175L172.798 345.317L175.085 338.174L148.827 329.767L191.271 232.474C193.736 226.824 190.251 220.359 184.176 219.313L32.4263 193.191C25.6697 192.028 19.9434 198.187 21.5941 204.841L40.9027 282.677C41.8224 286.384 44.8732 289.18 48.6466 289.774L115.018 300.217L83.8907 346.519C80.1972 352.013 83.1147 359.506 89.551 361.056L137.54 372.61L130.054 393.775C128.228 398.937 131.131 404.569 136.395 406.076L167.906 415.098C175.929 417.395 182.803 408.974 178.946 401.574L170.022 384.455L181.218 350.171L174.215 347.884L181.218 350.171C182.854 345.163 180.102 339.781 175.085 338.175ZM172.035 400.678L172.028 400.676C172.031 400.676 172.033 400.677 172.035 400.678Z" fill="#FFD924" stroke="black" stroke-width="15"/>
</mask>
<g mask="url(#mask1_1_448)">
<path d="M186.136 389.774L125.636 373.774L117.636 415.274L169.136 434.274L186.136 389.774Z" fill="#CF4310"/>
<path d="M175.085 338.175L172.798 345.317L175.085 338.174L148.827 329.767L191.271 232.474C193.736 226.824 190.251 220.359 184.176 219.313L32.4263 193.191C25.6697 192.028 19.9434 198.187 21.5941 204.841L40.9027 282.677C41.8224 286.384 44.8732 289.18 48.6466 289.774L115.018 300.217L83.8907 346.519C80.1972 352.013 83.1147 359.506 89.551 361.056L137.54 372.61L130.054 393.775C128.228 398.937 131.131 404.569 136.395 406.076L167.906 415.098C175.929 417.395 182.803 408.974 178.946 401.574L170.022 384.455L181.218 350.171L174.215 347.884L181.218 350.171C182.854 345.163 180.102 339.781 175.085 338.175ZM172.035 400.678L172.028 400.676C172.031 400.676 172.033 400.677 172.035 400.678Z" stroke="black" stroke-width="15"/>
</g>
<mask id="path-9-outside-1_1_448" maskUnits="userSpaceOnUse" x="104.416" y="39.322" width="365" height="468" fill="black">
<rect fill="white" x="104.416" y="39.322" width="365" height="468"/>
<path fill-rule="evenodd" clip-rule="evenodd" d="M192.536 182.381C192.895 181.576 192.712 180.636 192.057 180.045C154.464 146.076 109.87 93.4208 128.997 66.2569C138.43 52.8596 181.479 56.6395 238.645 136.584C239.196 137.355 240.227 137.66 241.1 137.293C274.454 123.258 315.286 123.728 342.082 131.841C342.883 132.084 343.758 131.796 344.274 131.138C390.177 72.634 419.261 59.6763 443.681 71.5501C443.979 71.6948 444.241 71.9199 444.426 72.194C462.026 98.261 424.039 144.363 388.823 176.543C388.178 177.133 387.984 178.047 388.344 178.843C408.762 223.985 424.507 308.732 406.711 455.362C405.736 463.396 400.317 470.433 392.679 473.109C375.105 479.265 345.93 487.161 335.014 471.943C334.947 471.85 334.875 471.765 334.799 471.68C331.99 468.57 331.17 456.703 329.641 434.555C329.124 427.068 328.526 418.407 327.743 408.512C327.654 407.387 326.651 406.559 325.529 406.684L306.647 408.782L286.243 411.792C285.393 411.918 284.718 412.572 284.567 413.418L274.225 471.031C274.136 471.526 273.858 471.975 273.453 472.275C242.535 495.127 205.732 486.665 184.872 476.673C179.103 473.91 175.582 468.162 174.956 461.796C166.596 376.745 173.807 229.902 191.075 185.868C191.539 184.686 192.026 183.523 192.536 182.381Z"/>
</mask>
<path fill-rule="evenodd" clip-rule="evenodd" d="M192.536 182.381C192.895 181.576 192.712 180.636 192.057 180.045C154.464 146.076 109.87 93.4208 128.997 66.2569C138.43 52.8596 181.479 56.6395 238.645 136.584C239.196 137.355 240.227 137.66 241.1 137.293C274.454 123.258 315.286 123.728 342.082 131.841C342.883 132.084 343.758 131.796 344.274 131.138C390.177 72.634 419.261 59.6763 443.681 71.5501C443.979 71.6948 444.241 71.9199 444.426 72.194C462.026 98.261 424.039 144.363 388.823 176.543C388.178 177.133 387.984 178.047 388.344 178.843C408.762 223.985 424.507 308.732 406.711 455.362C405.736 463.396 400.317 470.433 392.679 473.109C375.105 479.265 345.93 487.161 335.014 471.943C334.947 471.85 334.875 471.765 334.799 471.68C331.99 468.57 331.17 456.703 329.641 434.555C329.124 427.068 328.526 418.407 327.743 408.512C327.654 407.387 326.651 406.559 325.529 406.684L306.647 408.782L286.243 411.792C285.393 411.918 284.718 412.572 284.567 413.418L274.225 471.031C274.136 471.526 273.858 471.975 273.453 472.275C242.535 495.127 205.732 486.665 184.872 476.673C179.103 473.91 175.582 468.162 174.956 461.796C166.596 376.745 173.807 229.902 191.075 185.868C191.539 184.686 192.026 183.523 192.536 182.381Z" fill="#FFD924"/>
<path d="M128.997 66.2569L145.35 77.7713L145.35 77.7713L128.997 66.2569ZM406.711 455.362L426.566 457.772V457.772L406.711 455.362ZM392.679 473.109L386.067 454.234L386.067 454.234L392.679 473.109ZM329.641 434.555L309.689 435.933L329.641 434.555ZM306.647 408.782L304.438 388.904C304.201 388.931 303.964 388.961 303.728 388.996L306.647 408.782ZM184.872 476.673L193.511 458.636L193.511 458.636L184.872 476.673ZM174.956 461.796L155.052 463.753H155.052L174.956 461.796ZM191.075 185.868L209.695 193.17L209.695 193.17L191.075 185.868ZM286.243 411.792L283.324 392.006L286.243 411.792ZM284.567 413.418L304.252 416.951L284.567 413.418ZM327.743 408.512L347.68 406.933L327.743 408.512ZM325.529 406.684L327.738 426.562L325.529 406.684ZM335.014 471.943L318.762 483.6L335.014 471.943ZM334.799 471.68L349.642 458.277L334.799 471.68ZM443.681 71.5501L452.427 53.5635L443.681 71.5501ZM444.426 72.194L427.85 83.3859L444.426 72.194ZM344.274 131.138L328.539 118.792L344.274 131.138ZM274.225 471.031L293.91 474.564L274.225 471.031ZM273.453 472.275L285.341 488.358L273.453 472.275ZM238.645 136.584L254.914 124.951L238.645 136.584ZM241.1 137.293L233.343 118.858L241.1 137.293ZM388.823 176.543L375.332 161.779L388.823 176.543ZM388.344 178.843L406.567 170.601L388.344 178.843ZM192.057 180.045L205.466 165.205L192.057 180.045ZM192.536 182.381L210.801 190.529L192.536 182.381ZM205.466 165.205C187.296 148.787 168.168 128.471 156.051 109.737C149.955 100.313 146.364 92.3931 145.012 86.3513C143.71 80.5363 144.846 78.4868 145.35 77.7713L112.644 54.7424C103.585 67.6089 103.122 82.3277 105.977 95.0869C108.782 107.619 115.103 120.08 122.464 131.461C137.26 154.337 159.226 177.334 178.649 194.884L205.466 165.205ZM145.35 77.7713C143.115 80.9458 140.859 80.4257 142.966 80.3312C144.985 80.2407 149.694 80.7726 157.189 84.4102C172.174 91.683 194.874 109.756 222.376 148.217L254.914 124.951C225.25 83.4677 197.842 59.6782 174.654 48.4243C163.062 42.7984 151.667 39.9009 141.174 40.3714C130.771 40.8379 119.596 44.8693 112.644 54.7424L145.35 77.7713ZM347.878 112.699C317.093 103.379 271.428 102.833 233.343 118.858L248.857 155.727C277.479 143.684 313.479 144.078 336.287 150.983L347.878 112.699ZM452.427 53.5635C433.366 44.2958 413.01 45.7876 392.201 57.5364C372.665 68.5661 351.963 88.9386 328.539 118.792L360.009 143.484C382.488 114.833 399.279 99.4749 411.866 92.3683C423.18 85.9808 429.576 86.9306 434.936 89.5367L452.427 53.5635ZM402.315 191.308C420.516 174.675 440.325 153.68 453.413 132.64C459.941 122.147 465.476 110.575 467.754 98.7554C470.092 86.622 469.149 73.0688 461.001 61.0021L427.85 83.3859C428.503 84.3528 429.411 86.3374 428.477 91.1852C427.482 96.3471 424.619 103.199 419.448 111.512C409.139 128.086 392.346 146.231 375.332 161.779L402.315 191.308ZM426.566 457.772C444.589 309.262 429.084 220.385 406.567 170.601L370.121 187.085C388.439 227.585 404.424 308.201 386.857 452.953L426.566 457.772ZM399.291 491.984C414.468 486.668 424.718 472.994 426.566 457.772L386.857 452.953C386.818 453.278 386.677 453.622 386.461 453.897C386.254 454.161 386.09 454.226 386.067 454.234L399.291 491.984ZM318.762 483.6C330.687 500.224 350.476 501.444 362.895 500.482C376.423 499.433 390.106 495.202 399.291 491.984L386.067 454.234C377.678 457.172 367.987 459.967 359.804 460.601C350.513 461.321 350.257 458.88 351.265 460.286L318.762 483.6ZM309.689 435.933C310.437 446.766 311.061 455.905 311.887 462.679C312.3 466.064 312.842 469.561 313.673 472.741C314.345 475.311 315.889 480.582 319.955 485.084L349.642 458.277C352.304 461.224 352.692 463.845 352.373 462.623C352.212 462.011 351.927 460.574 351.593 457.835C350.925 452.36 350.375 444.493 349.594 433.177L309.689 435.933ZM307.805 410.09C308.58 419.873 309.171 428.443 309.689 435.933L349.594 433.177C349.077 425.693 348.473 416.94 347.68 406.933L307.805 410.09ZM308.855 428.66L327.738 426.562L323.321 386.806L304.438 388.904L308.855 428.66ZM289.162 431.578L309.566 428.568L303.728 388.996L283.324 392.006L289.162 431.578ZM293.91 474.564L304.252 416.951L264.881 409.884L254.539 467.497L293.91 474.564ZM176.232 494.711C199.828 506.013 245.628 517.71 285.341 488.358L261.566 456.191C239.441 472.544 211.635 467.317 193.511 458.636L176.232 494.711ZM155.052 463.753C156.258 476.025 163.253 488.495 176.232 494.711L193.511 458.636C194.141 458.938 194.549 459.372 194.743 459.669C194.91 459.926 194.876 460.003 194.86 459.84L155.052 463.753ZM172.456 178.567C167.233 191.885 163.299 211.279 160.288 232.831C157.217 254.816 154.915 280.536 153.436 307.348C150.483 360.846 150.741 419.9 155.052 463.753L194.86 459.84C190.81 418.641 190.494 361.747 193.375 309.552C194.811 283.518 197.027 258.956 199.904 238.365C202.841 217.342 206.284 201.868 209.695 193.17L172.456 178.567ZM174.27 174.234C173.636 175.656 173.031 177.1 172.456 178.567L209.695 193.17C210.047 192.271 210.416 191.391 210.801 190.529L174.27 174.234ZM283.324 392.006C273.975 393.386 266.551 400.582 264.881 409.884L304.252 416.951C302.886 424.562 296.812 430.449 289.162 431.578L283.324 392.006ZM347.68 406.933C346.699 394.536 335.654 385.436 323.321 386.806L327.738 426.562C317.648 427.683 308.608 420.237 307.805 410.09L347.68 406.933ZM351.265 460.286C350.586 459.339 349.964 458.633 349.642 458.277L319.955 485.084C319.785 484.896 319.309 484.362 318.762 483.6L351.265 460.286ZM434.936 89.5367C432.124 88.1696 429.665 86.0736 427.85 83.3859L461.001 61.0021C458.816 57.7661 455.834 55.2199 452.427 53.5635L434.936 89.5367ZM336.287 150.983C345.191 153.679 354.541 150.452 360.009 143.484L328.539 118.792C332.974 113.14 340.574 110.488 347.878 112.699L336.287 150.983ZM254.539 467.497C255.346 463.001 257.837 458.947 261.566 456.191L285.341 488.358C289.879 485.004 292.925 480.052 293.91 474.564L254.539 467.497ZM222.376 148.217C228.217 156.385 239.14 159.816 248.857 155.727L233.343 118.858C241.314 115.504 250.175 118.324 254.914 124.951L222.376 148.217ZM375.332 161.779C368.385 168.127 366.147 178.297 370.121 187.085L406.567 170.601C409.821 177.797 407.97 186.139 402.315 191.308L375.332 161.779ZM178.649 194.884C172.658 189.47 171.227 181.057 174.27 174.234L210.801 190.529C214.563 182.095 212.766 171.801 205.466 165.205L178.649 194.884Z" fill="black" mask="url(#path-9-outside-1_1_448)"/>
<mask id="mask2_1_448" style="mask-type:alpha" maskUnits="userSpaceOnUse" x="104" y="40" width="365" height="467">
<mask id="path-11-outside-2_1_448" maskUnits="userSpaceOnUse" x="104.416" y="39.322" width="365" height="468" fill="black">
<rect fill="white" x="104.416" y="39.322" width="365" height="468"/>
<path fill-rule="evenodd" clip-rule="evenodd" d="M192.536 182.381C192.895 181.576 192.712 180.636 192.057 180.045C154.464 146.076 109.87 93.4208 128.997 66.2569C138.43 52.8596 181.479 56.6395 238.645 136.584C239.196 137.355 240.227 137.66 241.1 137.293C274.454 123.258 315.286 123.728 342.082 131.841C342.883 132.084 343.758 131.796 344.274 131.138C390.177 72.634 419.261 59.6763 443.681 71.5501C443.979 71.6948 444.241 71.9199 444.426 72.194C462.026 98.261 424.039 144.363 388.823 176.543C388.178 177.133 387.984 178.047 388.344 178.843C408.762 223.985 424.507 308.732 406.711 455.362C405.736 463.396 400.317 470.433 392.679 473.109C375.105 479.265 345.93 487.161 335.014 471.943C334.947 471.85 334.875 471.765 334.799 471.68C331.99 468.57 331.17 456.703 329.641 434.555C329.124 427.068 328.526 418.407 327.743 408.512C327.654 407.387 326.651 406.559 325.529 406.684L306.647 408.782L286.243 411.792C285.393 411.918 284.718 412.572 284.567 413.418L274.225 471.031C274.136 471.526 273.858 471.975 273.453 472.275C242.535 495.127 205.732 486.665 184.872 476.673C179.103 473.91 175.582 468.162 174.956 461.796C166.596 376.745 173.807 229.902 191.075 185.868C191.539 184.686 192.026 183.523 192.536 182.381Z"/>
</mask>
<path fill-rule="evenodd" clip-rule="evenodd" d="M192.536 182.381C192.895 181.576 192.712 180.636 192.057 180.045C154.464 146.076 109.87 93.4208 128.997 66.2569C138.43 52.8596 181.479 56.6395 238.645 136.584C239.196 137.355 240.227 137.66 241.1 137.293C274.454 123.258 315.286 123.728 342.082 131.841C342.883 132.084 343.758 131.796 344.274 131.138C390.177 72.634 419.261 59.6763 443.681 71.5501C443.979 71.6948 444.241 71.9199 444.426 72.194C462.026 98.261 424.039 144.363 388.823 176.543C388.178 177.133 387.984 178.047 388.344 178.843C408.762 223.985 424.507 308.732 406.711 455.362C405.736 463.396 400.317 470.433 392.679 473.109C375.105 479.265 345.93 487.161 335.014 471.943C334.947 471.85 334.875 471.765 334.799 471.68C331.99 468.57 331.17 456.703 329.641 434.555C329.124 427.068 328.526 418.407 327.743 408.512C327.654 407.387 326.651 406.559 325.529 406.684L306.647 408.782L286.243 411.792C285.393 411.918 284.718 412.572 284.567 413.418L274.225 471.031C274.136 471.526 273.858 471.975 273.453 472.275C242.535 495.127 205.732 486.665 184.872 476.673C179.103 473.91 175.582 468.162 174.956 461.796C166.596 376.745 173.807 229.902 191.075 185.868C191.539 184.686 192.026 183.523 192.536 182.381Z" fill="#FFD924"/>
<path d="M128.997 66.2569L145.35 77.7713L145.35 77.7713L128.997 66.2569ZM406.711 455.362L426.566 457.772V457.772L406.711 455.362ZM392.679 473.109L386.067 454.234L386.067 454.234L392.679 473.109ZM329.641 434.555L309.689 435.933L329.641 434.555ZM306.647 408.782L304.438 388.904C304.201 388.931 303.964 388.961 303.728 388.996L306.647 408.782ZM184.872 476.673L193.511 458.636L193.511 458.636L184.872 476.673ZM174.956 461.796L155.052 463.753H155.052L174.956 461.796ZM191.075 185.868L209.695 193.17L209.695 193.17L191.075 185.868ZM286.243 411.792L283.324 392.006L286.243 411.792ZM284.567 413.418L304.252 416.951L284.567 413.418ZM327.743 408.512L347.68 406.933L327.743 408.512ZM325.529 406.684L327.738 426.562L325.529 406.684ZM335.014 471.943L318.762 483.6L335.014 471.943ZM334.799 471.68L349.642 458.277L334.799 471.68ZM443.681 71.5501L452.427 53.5635L443.681 71.5501ZM444.426 72.194L427.85 83.3859L444.426 72.194ZM344.274 131.138L328.539 118.792L344.274 131.138ZM274.225 471.031L293.91 474.564L274.225 471.031ZM273.453 472.275L285.341 488.358L273.453 472.275ZM238.645 136.584L254.914 124.951L238.645 136.584ZM241.1 137.293L233.343 118.858L241.1 137.293ZM388.823 176.543L375.332 161.779L388.823 176.543ZM388.344 178.843L406.567 170.601L388.344 178.843ZM192.057 180.045L205.466 165.205L192.057 180.045ZM192.536 182.381L210.801 190.529L192.536 182.381ZM205.466 165.205C187.296 148.787 168.168 128.471 156.051 109.737C149.955 100.313 146.364 92.3931 145.012 86.3513C143.71 80.5363 144.846 78.4868 145.35 77.7713L112.644 54.7424C103.585 67.6089 103.122 82.3277 105.977 95.0869C108.782 107.619 115.103 120.08 122.464 131.461C137.26 154.337 159.226 177.334 178.649 194.884L205.466 165.205ZM145.35 77.7713C143.115 80.9458 140.859 80.4257 142.966 80.3312C144.985 80.2407 149.694 80.7726 157.189 84.4102C172.174 91.683 194.874 109.756 222.376 148.217L254.914 124.951C225.25 83.4677 197.842 59.6782 174.654 48.4243C163.062 42.7984 151.667 39.9009 141.174 40.3714C130.771 40.8379 119.596 44.8693 112.644 54.7424L145.35 77.7713ZM347.878 112.699C317.093 103.379 271.428 102.833 233.343 118.858L248.857 155.727C277.479 143.684 313.479 144.078 336.287 150.983L347.878 112.699ZM452.427 53.5635C433.366 44.2958 413.01 45.7876 392.201 57.5364C372.665 68.5661 351.963 88.9386 328.539 118.792L360.009 143.484C382.488 114.833 399.279 99.4749 411.866 92.3683C423.18 85.9808 429.576 86.9306 434.936 89.5367L452.427 53.5635ZM402.315 191.308C420.516 174.675 440.325 153.68 453.413 132.64C459.941 122.147 465.476 110.575 467.754 98.7554C470.092 86.622 469.149 73.0688 461.001 61.0021L427.85 83.3859C428.503 84.3528 429.411 86.3374 428.477 91.1852C427.482 96.3471 424.619 103.199 419.448 111.512C409.139 128.086 392.346 146.231 375.332 161.779L402.315 191.308ZM426.566 457.772C444.589 309.262 429.084 220.385 406.567 170.601L370.121 187.085C388.439 227.585 404.424 308.201 386.857 452.953L426.566 457.772ZM399.291 491.984C414.468 486.668 424.718 472.994 426.566 457.772L386.857 452.953C386.818 453.278 386.677 453.622 386.461 453.897C386.254 454.161 386.09 454.226 386.067 454.234L399.291 491.984ZM318.762 483.6C330.687 500.224 350.476 501.444 362.895 500.482C376.423 499.433 390.106 495.202 399.291 491.984L386.067 454.234C377.678 457.172 367.987 459.967 359.804 460.601C350.513 461.321 350.257 458.88 351.265 460.286L318.762 483.6ZM309.689 435.933C310.437 446.766 311.061 455.905 311.887 462.679C312.3 466.064 312.842 469.561 313.673 472.741C314.345 475.311 315.889 480.582 319.955 485.084L349.642 458.277C352.304 461.224 352.692 463.845 352.373 462.623C352.212 462.011 351.927 460.574 351.593 457.835C350.925 452.36 350.375 444.493 349.594 433.177L309.689 435.933ZM307.805 410.09C308.58 419.873 309.171 428.443 309.689 435.933L349.594 433.177C349.077 425.693 348.473 416.94 347.68 406.933L307.805 410.09ZM308.855 428.66L327.738 426.562L323.321 386.806L304.438 388.904L308.855 428.66ZM289.162 431.578L309.566 428.568L303.728 388.996L283.324 392.006L289.162 431.578ZM293.91 474.564L304.252 416.951L264.881 409.884L254.539 467.497L293.91 474.564ZM176.232 494.711C199.828 506.013 245.628 517.71 285.341 488.358L261.566 456.191C239.441 472.544 211.635 467.317 193.511 458.636L176.232 494.711ZM155.052 463.753C156.258 476.025 163.253 488.495 176.232 494.711L193.511 458.636C194.141 458.938 194.549 459.372 194.743 459.669C194.91 459.926 194.876 460.003 194.86 459.84L155.052 463.753ZM172.456 178.567C167.233 191.885 163.299 211.279 160.288 232.831C157.217 254.816 154.915 280.536 153.436 307.348C150.483 360.846 150.741 419.9 155.052 463.753L194.86 459.84C190.81 418.641 190.494 361.747 193.375 309.552C194.811 283.518 197.027 258.956 199.904 238.365C202.841 217.342 206.284 201.868 209.695 193.17L172.456 178.567ZM174.27 174.234C173.636 175.656 173.031 177.1 172.456 178.567L209.695 193.17C210.047 192.271 210.416 191.391 210.801 190.529L174.27 174.234ZM283.324 392.006C273.975 393.386 266.551 400.582 264.881 409.884L304.252 416.951C302.886 424.562 296.812 430.449 289.162 431.578L283.324 392.006ZM347.68 406.933C346.699 394.536 335.654 385.436 323.321 386.806L327.738 426.562C317.648 427.683 308.608 420.237 307.805 410.09L347.68 406.933ZM351.265 460.286C350.586 459.339 349.964 458.633 349.642 458.277L319.955 485.084C319.785 484.896 319.309 484.362 318.762 483.6L351.265 460.286ZM434.936 89.5367C432.124 88.1696 429.665 86.0736 427.85 83.3859L461.001 61.0021C458.816 57.7661 455.834 55.2199 452.427 53.5635L434.936 89.5367ZM336.287 150.983C345.191 153.679 354.541 150.452 360.009 143.484L328.539 118.792C332.974 113.14 340.574 110.488 347.878 112.699L336.287 150.983ZM254.539 467.497C255.346 463.001 257.837 458.947 261.566 456.191L285.341 488.358C289.879 485.004 292.925 480.052 293.91 474.564L254.539 467.497ZM222.376 148.217C228.217 156.385 239.14 159.816 248.857 155.727L233.343 118.858C241.314 115.504 250.175 118.324 254.914 124.951L222.376 148.217ZM375.332 161.779C368.385 168.127 366.147 178.297 370.121 187.085L406.567 170.601C409.821 177.797 407.97 186.139 402.315 191.308L375.332 161.779ZM178.649 194.884C172.658 189.47 171.227 181.057 174.27 174.234L210.801 190.529C214.563 182.095 212.766 171.801 205.466 165.205L178.649 194.884Z" fill="black" mask="url(#path-11-outside-2_1_448)"/>
</mask>
<g mask="url(#mask2_1_448)">
<path d="M363.538 368.35C388.728 358.045 405.044 316.11 409.337 285.339L417.209 538.666H162.451V167.774L135.136 83.2744C180.093 101.108 211.925 147.213 223.77 164.368L223.884 164.533C225.303 166.589 225.686 169.187 224.955 171.575C201.134 249.356 203.483 313.435 235.443 356.9C258.213 387.867 332.051 381.231 363.538 368.35Z" fill="#FFAF26"/>
<path d="M173.136 42.2744C165.136 58.2744 155.136 124.774 164.136 188.274L111.636 156.274V42.2744H173.136Z" fill="#000004"/>
<path d="M404.136 32.7743C408.227 50.1889 421.636 128.774 404.136 186.774L453.342 162.265L479.657 51.3438L404.136 32.7743Z" fill="#000004"/>
<path d="M158.41 155.274L135.136 83.2744C144.79 87.1038 153.838 92.2367 162.213 98.1066C161.521 107.496 160.136 128.074 160.136 135.274C160.136 142.474 160.332 155.774 160.43 161.524L158.41 155.274Z" fill="#202020" fill-opacity="0.55"/>
<circle cx="171.136" cy="304.274" r="27" fill="#FE3410" stroke="black" stroke-width="10"/>
<circle cx="410.997" cy="304.274" r="27" fill="#FE3410" stroke="black" stroke-width="10"/>
<mask id="path-19-outside-3_1_448" maskUnits="userSpaceOnUse" x="104.416" y="39.322" width="365" height="468" fill="black">
<rect fill="white" x="104.416" y="39.322" width="365" height="468"/>
<path fill-rule="evenodd" clip-rule="evenodd" d="M192.536 182.381C192.895 181.576 192.712 180.636 192.057 180.045C154.464 146.076 109.87 93.4208 128.997 66.2569C138.43 52.8596 181.479 56.6395 238.645 136.584C239.196 137.355 240.227 137.66 241.1 137.293C274.454 123.258 315.286 123.728 342.082 131.841C342.883 132.084 343.758 131.796 344.274 131.138C390.177 72.634 419.261 59.6763 443.681 71.5501C443.979 71.6948 444.241 71.9199 444.426 72.194C462.026 98.261 424.039 144.363 388.823 176.543C388.178 177.133 387.984 178.047 388.344 178.843C408.762 223.985 424.507 308.732 406.711 455.362C405.736 463.396 400.317 470.433 392.679 473.109C375.105 479.265 345.93 487.161 335.014 471.943C334.947 471.85 334.875 471.765 334.799 471.68C331.99 468.57 331.17 456.703 329.641 434.555C329.124 427.068 328.526 418.407 327.743 408.512C327.654 407.387 326.651 406.559 325.529 406.684L306.647 408.782L286.243 411.792C285.393 411.918 284.718 412.572 284.567 413.418L274.225 471.031C274.136 471.526 273.858 471.975 273.453 472.275C242.535 495.127 205.732 486.665 184.872 476.673C179.103 473.91 175.582 468.162 174.956 461.796C166.596 376.745 173.807 229.902 191.075 185.868C191.539 184.686 192.026 183.523 192.536 182.381Z"/>
</mask>
<path d="M128.997 66.2569L145.35 77.7713L145.35 77.7713L128.997 66.2569ZM406.711 455.362L426.566 457.772V457.772L406.711 455.362ZM392.679 473.109L386.067 454.234L386.067 454.234L392.679 473.109ZM329.641 434.555L309.689 435.933L329.641 434.555ZM306.647 408.782L304.438 388.904C304.201 388.931 303.964 388.961 303.728 388.996L306.647 408.782ZM184.872 476.673L193.511 458.636L193.511 458.636L184.872 476.673ZM174.956 461.796L155.052 463.753H155.052L174.956 461.796ZM191.075 185.868L209.695 193.17L209.695 193.17L191.075 185.868ZM286.243 411.792L283.324 392.006L286.243 411.792ZM284.567 413.418L304.252 416.951L284.567 413.418ZM327.743 408.512L347.68 406.933L327.743 408.512ZM325.529 406.684L327.738 426.562L325.529 406.684ZM335.014 471.943L318.762 483.6L335.014 471.943ZM334.799 471.68L349.642 458.277L334.799 471.68ZM443.681 71.5501L452.427 53.5635L443.681 71.5501ZM444.426 72.194L427.85 83.3859L444.426 72.194ZM344.274 131.138L328.539 118.792L344.274 131.138ZM274.225 471.031L293.91 474.564L274.225 471.031ZM273.453 472.275L285.341 488.358L273.453 472.275ZM238.645 136.584L254.914 124.951L238.645 136.584ZM241.1 137.293L233.343 118.858L241.1 137.293ZM388.823 176.543L375.332 161.779L388.823 176.543ZM388.344 178.843L406.567 170.601L388.344 178.843ZM192.057 180.045L205.466 165.205L192.057 180.045ZM192.536 182.381L210.801 190.529L192.536 182.381ZM205.466 165.205C187.296 148.787 168.168 128.471 156.051 109.737C149.955 100.313 146.364 92.3931 145.012 86.3513C143.71 80.5363 144.846 78.4868 145.35 77.7713L112.644 54.7424C103.585 67.6089 103.122 82.3277 105.977 95.0869C108.782 107.619 115.103 120.08 122.464 131.461C137.26 154.337 159.226 177.334 178.649 194.884L205.466 165.205ZM145.35 77.7713C143.115 80.9458 140.859 80.4257 142.966 80.3312C144.985 80.2407 149.694 80.7726 157.189 84.4102C172.174 91.683 194.874 109.756 222.376 148.217L254.914 124.951C225.25 83.4677 197.842 59.6782 174.654 48.4243C163.062 42.7984 151.667 39.9009 141.174 40.3714C130.771 40.8379 119.596 44.8693 112.644 54.7424L145.35 77.7713ZM347.878 112.699C317.093 103.379 271.428 102.833 233.343 118.858L248.857 155.727C277.479 143.684 313.479 144.078 336.287 150.983L347.878 112.699ZM452.427 53.5635C433.366 44.2958 413.01 45.7876 392.201 57.5364C372.665 68.5661 351.963 88.9386 328.539 118.792L360.009 143.484C382.488 114.833 399.279 99.4749 411.866 92.3683C423.18 85.9808 429.576 86.9306 434.936 89.5367L452.427 53.5635ZM402.315 191.308C420.516 174.675 440.325 153.68 453.413 132.64C459.941 122.147 465.476 110.575 467.754 98.7554C470.092 86.622 469.149 73.0688 461.001 61.0021L427.85 83.3859C428.503 84.3528 429.411 86.3374 428.477 91.1852C427.482 96.3471 424.619 103.199 419.448 111.512C409.139 128.086 392.346 146.231 375.332 161.779L402.315 191.308ZM426.566 457.772C444.589 309.262 429.084 220.385 406.567 170.601L370.121 187.085C388.439 227.585 404.424 308.201 386.857 452.953L426.566 457.772ZM399.291 491.984C414.468 486.668 424.718 472.994 426.566 457.772L386.857 452.953C386.818 453.278 386.677 453.622 386.461 453.897C386.254 454.161 386.09 454.226 386.067 454.234L399.291 491.984ZM318.762 483.6C330.687 500.224 350.476 501.444 362.895 500.482C376.423 499.433 390.106 495.202 399.291 491.984L386.067 454.234C377.678 457.172 367.987 459.967 359.804 460.601C350.513 461.321 350.257 458.88 351.265 460.286L318.762 483.6ZM309.689 435.933C310.437 446.766 311.061 455.905 311.887 462.679C312.3 466.064 312.842 469.561 313.673 472.741C314.345 475.311 315.889 480.582 319.955 485.084L349.642 458.277C352.304 461.224 352.692 463.845 352.373 462.623C352.212 462.011 351.927 460.574 351.593 457.835C350.925 452.36 350.375 444.493 349.594 433.177L309.689 435.933ZM307.805 410.09C308.58 419.873 309.171 428.443 309.689 435.933L349.594 433.177C349.077 425.693 348.473 416.94 347.68 406.933L307.805 410.09ZM308.855 428.66L327.738 426.562L323.321 386.806L304.438 388.904L308.855 428.66ZM289.162 431.578L309.566 428.568L303.728 388.996L283.324 392.006L289.162 431.578ZM293.91 474.564L304.252 416.951L264.881 409.884L254.539 467.497L293.91 474.564ZM176.232 494.711C199.828 506.013 245.628 517.71 285.341 488.358L261.566 456.191C239.441 472.544 211.635 467.317 193.511 458.636L176.232 494.711ZM155.052 463.753C156.258 476.025 163.253 488.495 176.232 494.711L193.511 458.636C194.141 458.938 194.549 459.372 194.743 459.669C194.91 459.926 194.876 460.003 194.86 459.84L155.052 463.753ZM172.456 178.567C167.233 191.885 163.299 211.279 160.288 232.831C157.217 254.816 154.915 280.536 153.436 307.348C150.483 360.846 150.741 419.9 155.052 463.753L194.86 459.84C190.81 418.641 190.494 361.747 193.375 309.552C194.811 283.518 197.027 258.956 199.904 238.365C202.841 217.342 206.284 201.868 209.695 193.17L172.456 178.567ZM174.27 174.234C173.636 175.656 173.031 177.1 172.456 178.567L209.695 193.17C210.047 192.271 210.416 191.391 210.801 190.529L174.27 174.234ZM283.324 392.006C273.975 393.386 266.551 400.582 264.881 409.884L304.252 416.951C302.886 424.562 296.812 430.449 289.162 431.578L283.324 392.006ZM347.68 406.933C346.699 394.536 335.654 385.436 323.321 386.806L327.738 426.562C317.648 427.683 308.608 420.237 307.805 410.09L347.68 406.933ZM351.265 460.286C350.586 459.339 349.964 458.633 349.642 458.277L319.955 485.084C319.785 484.896 319.309 484.362 318.762 483.6L351.265 460.286ZM434.936 89.5367C432.124 88.1696 429.665 86.0736 427.85 83.3859L461.001 61.0021C458.816 57.7661 455.834 55.2199 452.427 53.5635L434.936 89.5367ZM336.287 150.983C345.191 153.679 354.541 150.452 360.009 143.484L328.539 118.792C332.974 113.14 340.574 110.488 347.878 112.699L336.287 150.983ZM254.539 467.497C255.346 463.001 257.837 458.947 261.566 456.191L285.341 488.358C289.879 485.004 292.925 480.052 293.91 474.564L254.539 467.497ZM222.376 148.217C228.217 156.385 239.14 159.816 248.857 155.727L233.343 118.858C241.314 115.504 250.175 118.324 254.914 124.951L222.376 148.217ZM375.332 161.779C368.385 168.127 366.147 178.297 370.121 187.085L406.567 170.601C409.821 177.797 407.97 186.139 402.315 191.308L375.332 161.779ZM178.649 194.884C172.658 189.47 171.227 181.057 174.27 174.234L210.801 190.529C214.563 182.095 212.766 171.801 205.466 165.205L178.649 194.884Z" fill="black" mask="url(#path-19-outside-3_1_448)"/>
</g>
<path d="M422.934 281.045C397.799 307.338 341.354 306.475 314.722 298.044C272.827 284.782 267.818 231.11 274.258 206.064C280.849 180.432 318.575 180.124 363.689 182.528C408.803 184.933 454.353 248.179 422.934 281.045Z" fill="#98C7DD" stroke="black" stroke-width="20"/>
<mask id="mask3_1_448" style="mask-type:alpha" maskUnits="userSpaceOnUse" x="261" y="171" width="183" height="143">
<path d="M422.934 281.045C397.799 307.338 341.354 306.475 314.722 298.044C272.827 284.782 267.818 231.11 274.258 206.064C280.849 180.432 318.575 180.124 363.689 182.528C408.803 184.933 454.353 248.179 422.934 281.045Z" fill="#98C7DD" stroke="#3D3436" stroke-width="20"/>
</mask>
<g mask="url(#mask3_1_448)">
<path d="M389.3 215.924C383.575 206.192 350.554 204.474 335.049 204.474C331.71 204.474 325.317 206.907 326.462 216.64C327.893 228.805 361.527 235.246 376.555 235.246C391.582 235.246 396.456 228.09 389.3 215.924Z" fill="#FBFDFD" fill-opacity="0.85"/>
<path d="M322.748 256.714C301.263 252.686 292.167 210.233 290.14 184.909C289.909 182.026 288.056 179.507 285.334 178.53L271.495 173.562C266.833 171.888 261.921 175.329 261.921 180.283V341.872C261.921 348.501 363.193 345.003 419.16 342.177C422.602 342.004 425.41 339.396 425.864 335.981L436.15 258.563C437.022 251.996 428.335 246.689 422.175 249.127C391.294 261.353 341.462 260.223 322.748 256.714Z" fill="#4B646E" fill-opacity="0.55"/>
<path d="M422.934 281.045C397.799 307.338 341.354 306.475 314.722 298.044C272.827 284.782 267.818 231.11 274.258 206.064C280.849 180.432 318.575 180.124 363.689 182.528C408.803 184.933 454.353 248.179 422.934 281.045Z" stroke="black" stroke-width="20"/>
</g>
</svg>
