<svg width="501" height="551" viewBox="0 0 501 551" fill="none" xmlns="http://www.w3.org/2000/svg">
<path d="M113.964 418.571C127.928 423.442 142.706 421.384 154.797 418.038C168.141 414.344 177.213 401.855 178.765 388.096L194.249 250.835C196.643 229.62 180.227 208.128 158.903 207.088C143.086 206.316 126.433 207.196 116.443 213.19C80.1505 234.965 83.1929 407.837 113.964 418.571Z" fill="#FCCDD5" stroke="black" stroke-width="21.4684"/>
<mask id="mask0_1_1013" style="mask-type:alpha" maskUnits="userSpaceOnUse" x="79" y="196" width="127" height="237">
<path d="M113.964 418.571C127.928 423.442 142.706 421.384 154.797 418.038C168.141 414.344 177.213 401.855 178.765 388.096L194.249 250.835C196.643 229.62 180.227 208.128 158.903 207.088C143.086 206.316 126.433 207.196 116.443 213.19C80.1505 234.965 83.1929 407.837 113.964 418.571Z" fill="#E453BD" stroke="#63114C" stroke-width="21.4684"/>
</mask>
<g mask="url(#mask0_1_1013)">
<path d="M173.692 258.274C128.465 244.534 70.8821 269.723 47.7439 284.036C47.7439 357.315 81.1392 435.269 97.8368 465.086H173.692V258.274Z" fill="#DE79A3" fill-opacity="0.55"/>
<path d="M113.964 418.571C127.928 423.442 142.706 421.384 154.797 418.038C168.141 414.344 177.213 401.855 178.765 388.096L194.249 250.835C196.643 229.62 180.227 208.128 158.903 207.088C143.086 206.316 126.433 207.196 116.443 213.19C80.1505 234.965 83.1929 407.837 113.964 418.571Z" stroke="black" stroke-width="21.4684"/>
</g>
<path d="M261.697 125.192L261.658 125.491L261.637 125.792L257.308 188.447C256.828 195.384 262.326 201.274 269.279 201.274H358.915H365.636H378.006L375.414 189.179C373.469 180.101 365.475 157.727 330.636 111.274L330.508 111.103L330.373 110.938L290.306 62.0198C283.642 53.8833 270.479 57.6467 269.123 68.0763L279.039 69.3656L269.123 68.0763L261.697 125.192Z" fill="#EC9EBA" stroke="black" stroke-width="20" stroke-linecap="round"/>
<path d="M122.914 409.402L128.289 400.97L122.914 409.402C107.441 399.539 94.2558 382.535 88.399 367.916C83.2186 354.986 77.6263 346.845 70.7787 344.216C60.6459 340.325 54.5826 333.808 53.351 326.908C52.6647 323.062 54.108 319.958 55.3666 318.197C60.2706 311.334 66.3747 306.836 73.4495 305.083C80.3908 303.363 87.0496 304.586 92.6535 306.851C103.334 311.168 112.306 320.087 117.462 326.751C119.174 328.72 120.208 330.984 120.841 332.444C121.473 333.903 122.163 335.712 122.881 337.594C123.04 338.012 123.201 338.434 123.363 338.857C125.221 343.702 127.897 350.463 132.532 359.719C135.51 365.665 141.997 370.347 150.852 373.622C159.533 376.833 169.002 378.119 175.45 378.314C181.836 378.507 187.136 383.711 187.136 390.341V399.274C187.136 405.902 181.764 411.274 175.136 411.274H129.345C127.124 411.274 124.883 410.657 122.914 409.402Z" fill="#EC9EBA" stroke="black" stroke-width="20" stroke-linecap="round"/>
<mask id="path-7-outside-1_1_1013" maskUnits="userSpaceOnUse" x="127.651" y="75.1381" width="283" height="440" fill="black">
<rect fill="white" x="127.651" y="75.1381" width="283" height="440"/>
<path fill-rule="evenodd" clip-rule="evenodd" d="M251.542 135.637C251.889 135.794 252.271 135.846 252.648 135.793C289.526 130.609 326.658 138.258 340.825 151.335C368.148 176.557 407.439 261.064 382.888 463.362C381.913 471.396 376.494 478.433 368.856 481.109C351.281 487.265 322.106 495.161 311.19 479.943C311.124 479.85 311.051 479.765 310.975 479.68C308.166 476.57 307.347 464.703 305.817 442.555C305.3 435.068 304.702 426.407 303.919 416.512C303.83 415.387 302.827 414.559 301.706 414.684L282.823 416.782L262.419 419.792C261.57 419.918 260.895 420.572 260.743 421.418L250.401 479.031C250.312 479.526 250.035 479.975 249.63 480.275C218.711 503.127 181.908 494.665 161.048 484.673C155.279 481.91 151.758 476.162 151.133 469.796C143.987 397.103 148.217 279.271 160.378 219.07C160.426 218.835 160.43 218.608 160.392 218.371C154.532 181.409 148.085 125.884 150.043 97.043C150.088 96.3887 150.723 95.9794 151.341 96.1968C171.794 103.382 217.677 120.35 251.542 135.637Z"/>
</mask>
<path fill-rule="evenodd" clip-rule="evenodd" d="M251.542 135.637C251.889 135.794 252.271 135.846 252.648 135.793C289.526 130.609 326.658 138.258 340.825 151.335C368.148 176.557 407.439 261.064 382.888 463.362C381.913 471.396 376.494 478.433 368.856 481.109C351.281 487.265 322.106 495.161 311.19 479.943C311.124 479.85 311.051 479.765 310.975 479.68C308.166 476.57 307.347 464.703 305.817 442.555C305.3 435.068 304.702 426.407 303.919 416.512C303.83 415.387 302.827 414.559 301.706 414.684L282.823 416.782L262.419 419.792C261.57 419.918 260.895 420.572 260.743 421.418L250.401 479.031C250.312 479.526 250.035 479.975 249.63 480.275C218.711 503.127 181.908 494.665 161.048 484.673C155.279 481.91 151.758 476.162 151.133 469.796C143.987 397.103 148.217 279.271 160.378 219.07C160.426 218.835 160.43 218.608 160.392 218.371C154.532 181.409 148.085 125.884 150.043 97.043C150.088 96.3887 150.723 95.9794 151.341 96.1968C171.794 103.382 217.677 120.35 251.542 135.637Z" fill="#FCCDD5"/>
<path d="M340.825 151.335L327.26 166.031H327.26L340.825 151.335ZM382.888 463.362L402.742 465.772L382.888 463.362ZM368.856 481.109L362.244 462.234L362.244 462.234L368.856 481.109ZM305.817 442.555L285.865 443.933L305.817 442.555ZM282.823 416.782L280.614 396.904L280.258 396.944L279.904 396.996L282.823 416.782ZM161.048 484.673L169.688 466.636L169.688 466.636L161.048 484.673ZM151.133 469.796L171.037 467.84H171.037L151.133 469.796ZM150.043 97.043L169.997 98.3977V98.3977L150.043 97.043ZM151.341 96.1968L157.971 77.3274H157.971L151.341 96.1968ZM262.419 419.792L265.339 439.578L262.419 419.792ZM260.743 421.418L241.057 417.884L260.743 421.418ZM250.401 479.031L270.086 482.564L250.401 479.031ZM249.63 480.275L261.517 496.358L249.63 480.275ZM311.19 479.943L294.939 491.6L311.19 479.943ZM310.975 479.68L296.131 493.084L310.975 479.68ZM303.919 416.512L323.856 414.933L303.919 416.512ZM301.706 414.684L303.914 434.562L301.706 414.684ZM160.378 219.07L140.774 215.11L160.378 219.07ZM160.392 218.371L180.146 215.24L160.392 218.371ZM252.648 135.793L249.864 115.988L252.648 135.793ZM251.542 135.637L243.313 153.866L251.542 135.637ZM354.391 136.639C343.191 126.301 325.928 120.203 308.893 117.05C291.109 113.759 270.437 113.096 249.864 115.988L255.433 155.599C271.737 153.306 288.07 153.876 301.614 156.382C315.906 159.027 324.292 163.292 327.26 166.031L354.391 136.639ZM402.742 465.772C415.198 363.137 411.62 289.17 400.901 236.925C390.258 185.046 372.244 153.119 354.391 136.639L327.26 166.031C336.73 174.773 352.023 197.71 361.717 244.964C371.337 291.853 375.129 361.289 363.033 460.953L402.742 465.772ZM375.468 499.984C390.644 494.668 400.895 480.994 402.742 465.772L363.033 460.953C362.994 461.278 362.853 461.622 362.637 461.897C362.43 462.161 362.266 462.226 362.244 462.234L375.468 499.984ZM294.939 491.6C306.863 508.224 326.653 509.444 339.071 508.482C352.599 507.433 366.283 503.202 375.468 499.984L362.244 462.234C353.854 465.172 344.163 467.967 335.981 468.601C326.689 469.321 326.433 466.88 327.441 468.286L294.939 491.6ZM285.865 443.933C286.613 454.765 287.237 463.905 288.064 470.679C288.477 474.064 289.018 477.561 289.849 480.741C290.521 483.311 292.065 488.582 296.131 493.084L325.819 466.277C328.48 469.224 328.868 471.845 328.549 470.623C328.389 470.011 328.103 468.574 327.769 465.835C327.101 460.36 326.551 452.493 325.77 441.177L285.865 443.933ZM283.981 418.09C284.756 427.873 285.348 436.443 285.865 443.933L325.77 441.177C325.253 433.693 324.649 424.94 323.856 414.933L283.981 418.09ZM285.032 436.66L303.914 434.562L299.497 394.806L280.614 396.904L285.032 436.66ZM265.339 439.578L285.742 436.568L279.904 396.996L259.5 400.006L265.339 439.578ZM270.086 482.564L280.428 424.951L241.057 417.884L230.716 475.497L270.086 482.564ZM152.408 502.711C176.004 514.013 221.805 525.71 261.517 496.358L237.742 464.191C215.617 480.544 187.811 475.317 169.688 466.636L152.408 502.711ZM131.228 471.753C132.435 484.025 139.429 496.495 152.408 502.711L169.688 466.636C170.317 466.938 170.726 467.372 170.919 467.669C171.087 467.926 171.053 468.003 171.037 467.84L131.228 471.753ZM140.774 215.11C128.148 277.613 123.927 397.48 131.228 471.753L171.037 467.84C164.046 396.726 168.286 280.929 179.982 223.03L140.774 215.11ZM180.146 215.24C174.265 178.144 168.212 124.699 169.997 98.3977L130.089 95.6884C127.959 127.069 134.8 184.674 140.639 221.503L180.146 215.24ZM169.997 98.3977C169.127 111.216 156.295 119.136 144.712 115.066L157.971 77.3274C145.15 72.8233 131.048 81.5612 130.089 95.6884L169.997 98.3977ZM144.712 115.066C164.981 122.187 210.231 138.932 243.313 153.866L259.77 117.408C225.123 101.768 178.607 84.5774 157.971 77.3274L144.712 115.066ZM259.5 400.006C250.151 401.386 242.727 408.582 241.057 417.884L280.428 424.951C279.062 432.562 272.988 438.449 265.339 439.578L259.5 400.006ZM230.716 475.497C231.523 471.001 234.014 466.947 237.742 464.191L261.517 496.358C266.055 493.004 269.101 488.052 270.086 482.564L230.716 475.497ZM327.441 468.286C326.762 467.339 326.141 466.633 325.819 466.277L296.131 493.084C295.961 492.896 295.485 492.362 294.939 491.6L327.441 468.286ZM323.856 414.933C322.875 402.536 311.83 393.436 299.497 394.806L303.914 434.562C293.824 435.683 284.785 428.237 283.981 418.09L323.856 414.933ZM179.982 223.03C180.509 220.424 180.55 217.794 180.146 215.24L140.639 221.503C140.309 219.422 140.342 217.247 140.774 215.11L179.982 223.03ZM249.864 115.988C253.151 115.526 256.595 115.975 259.77 117.408L243.313 153.866C247.183 155.613 251.391 156.167 255.433 155.599L249.864 115.988Z" fill="black" mask="url(#path-7-outside-1_1_1013)"/>
<mask id="mask1_1_1013" style="mask-type:alpha" maskUnits="userSpaceOnUse" x="127" y="76" width="284" height="439">
<mask id="path-9-outside-2_1_1013" maskUnits="userSpaceOnUse" x="127.651" y="75.1381" width="283" height="440" fill="black">
<rect fill="white" x="127.651" y="75.1381" width="283" height="440"/>
<path fill-rule="evenodd" clip-rule="evenodd" d="M251.542 135.637C251.889 135.794 252.271 135.846 252.648 135.793C289.526 130.609 326.658 138.258 340.825 151.335C368.148 176.557 407.439 261.064 382.888 463.362C381.913 471.396 376.494 478.433 368.856 481.109C351.281 487.265 322.106 495.161 311.19 479.943C311.124 479.85 311.051 479.765 310.975 479.68C308.166 476.57 307.347 464.703 305.817 442.555C305.3 435.068 304.702 426.407 303.919 416.512C303.83 415.387 302.827 414.559 301.706 414.684L282.823 416.782L262.419 419.792C261.57 419.918 260.895 420.572 260.743 421.418L250.401 479.031C250.312 479.526 250.035 479.975 249.63 480.275C218.711 503.127 181.908 494.665 161.048 484.673C155.279 481.91 151.758 476.162 151.133 469.796C143.987 397.103 148.217 279.271 160.378 219.07C160.426 218.835 160.43 218.608 160.392 218.371C154.532 181.409 148.085 125.884 150.043 97.043C150.088 96.3887 150.723 95.9794 151.341 96.1968C171.794 103.382 217.677 120.35 251.542 135.637Z"/>
</mask>
<path fill-rule="evenodd" clip-rule="evenodd" d="M251.542 135.637C251.889 135.794 252.271 135.846 252.648 135.793C289.526 130.609 326.658 138.258 340.825 151.335C368.148 176.557 407.439 261.064 382.888 463.362C381.913 471.396 376.494 478.433 368.856 481.109C351.281 487.265 322.106 495.161 311.19 479.943C311.124 479.85 311.051 479.765 310.975 479.68C308.166 476.57 307.347 464.703 305.817 442.555C305.3 435.068 304.702 426.407 303.919 416.512C303.83 415.387 302.827 414.559 301.706 414.684L282.823 416.782L262.419 419.792C261.57 419.918 260.895 420.572 260.743 421.418L250.401 479.031C250.312 479.526 250.035 479.975 249.63 480.275C218.711 503.127 181.908 494.665 161.048 484.673C155.279 481.91 151.758 476.162 151.133 469.796C143.987 397.103 148.217 279.271 160.378 219.07C160.426 218.835 160.43 218.608 160.392 218.371C154.532 181.409 148.085 125.884 150.043 97.043C150.088 96.3887 150.723 95.9794 151.341 96.1968C171.794 103.382 217.677 120.35 251.542 135.637Z" fill="#FCCDD5"/>
<path d="M340.825 151.335L327.26 166.031H327.26L340.825 151.335ZM382.888 463.362L402.742 465.772L382.888 463.362ZM368.856 481.109L362.244 462.234L362.244 462.234L368.856 481.109ZM305.817 442.555L285.865 443.933L305.817 442.555ZM282.823 416.782L280.614 396.904L280.258 396.944L279.904 396.996L282.823 416.782ZM161.048 484.673L169.688 466.636L169.688 466.636L161.048 484.673ZM151.133 469.796L171.037 467.84H171.037L151.133 469.796ZM150.043 97.043L169.997 98.3977V98.3977L150.043 97.043ZM151.341 96.1968L157.971 77.3274H157.971L151.341 96.1968ZM262.419 419.792L265.339 439.578L262.419 419.792ZM260.743 421.418L241.057 417.884L260.743 421.418ZM250.401 479.031L270.086 482.564L250.401 479.031ZM249.63 480.275L261.517 496.358L249.63 480.275ZM311.19 479.943L294.939 491.6L311.19 479.943ZM310.975 479.68L296.131 493.084L310.975 479.68ZM303.919 416.512L323.856 414.933L303.919 416.512ZM301.706 414.684L303.914 434.562L301.706 414.684ZM160.378 219.07L140.774 215.11L160.378 219.07ZM160.392 218.371L180.146 215.24L160.392 218.371ZM252.648 135.793L249.864 115.988L252.648 135.793ZM251.542 135.637L243.313 153.866L251.542 135.637ZM354.391 136.639C343.191 126.301 325.928 120.203 308.893 117.05C291.109 113.759 270.437 113.096 249.864 115.988L255.433 155.599C271.737 153.306 288.07 153.876 301.614 156.382C315.906 159.027 324.292 163.292 327.26 166.031L354.391 136.639ZM402.742 465.772C415.198 363.137 411.62 289.17 400.901 236.925C390.258 185.046 372.244 153.119 354.391 136.639L327.26 166.031C336.73 174.773 352.023 197.71 361.717 244.964C371.337 291.853 375.129 361.289 363.033 460.953L402.742 465.772ZM375.468 499.984C390.644 494.668 400.895 480.994 402.742 465.772L363.033 460.953C362.994 461.278 362.853 461.622 362.637 461.897C362.43 462.161 362.266 462.226 362.244 462.234L375.468 499.984ZM294.939 491.6C306.863 508.224 326.653 509.444 339.071 508.482C352.599 507.433 366.283 503.202 375.468 499.984L362.244 462.234C353.854 465.172 344.163 467.967 335.981 468.601C326.689 469.321 326.433 466.88 327.441 468.286L294.939 491.6ZM285.865 443.933C286.613 454.765 287.237 463.905 288.064 470.679C288.477 474.064 289.018 477.561 289.849 480.741C290.521 483.311 292.065 488.582 296.131 493.084L325.819 466.277C328.48 469.224 328.868 471.845 328.549 470.623C328.389 470.011 328.103 468.574 327.769 465.835C327.101 460.36 326.551 452.493 325.77 441.177L285.865 443.933ZM283.981 418.09C284.756 427.873 285.348 436.443 285.865 443.933L325.77 441.177C325.253 433.693 324.649 424.94 323.856 414.933L283.981 418.09ZM285.032 436.66L303.914 434.562L299.497 394.806L280.614 396.904L285.032 436.66ZM265.339 439.578L285.742 436.568L279.904 396.996L259.5 400.006L265.339 439.578ZM270.086 482.564L280.428 424.951L241.057 417.884L230.716 475.497L270.086 482.564ZM152.408 502.711C176.004 514.013 221.805 525.71 261.517 496.358L237.742 464.191C215.617 480.544 187.811 475.317 169.688 466.636L152.408 502.711ZM131.228 471.753C132.435 484.025 139.429 496.495 152.408 502.711L169.688 466.636C170.317 466.938 170.726 467.372 170.919 467.669C171.087 467.926 171.053 468.003 171.037 467.84L131.228 471.753ZM140.774 215.11C128.148 277.613 123.927 397.48 131.228 471.753L171.037 467.84C164.046 396.726 168.286 280.929 179.982 223.03L140.774 215.11ZM180.146 215.24C174.265 178.144 168.212 124.699 169.997 98.3977L130.089 95.6884C127.959 127.069 134.8 184.674 140.639 221.503L180.146 215.24ZM169.997 98.3977C169.127 111.216 156.295 119.136 144.712 115.066L157.971 77.3274C145.15 72.8233 131.048 81.5612 130.089 95.6884L169.997 98.3977ZM144.712 115.066C164.981 122.187 210.231 138.932 243.313 153.866L259.77 117.408C225.123 101.768 178.607 84.5774 157.971 77.3274L144.712 115.066ZM259.5 400.006C250.151 401.386 242.727 408.582 241.057 417.884L280.428 424.951C279.062 432.562 272.988 438.449 265.339 439.578L259.5 400.006ZM230.716 475.497C231.523 471.001 234.014 466.947 237.742 464.191L261.517 496.358C266.055 493.004 269.101 488.052 270.086 482.564L230.716 475.497ZM327.441 468.286C326.762 467.339 326.141 466.633 325.819 466.277L296.131 493.084C295.961 492.896 295.485 492.362 294.939 491.6L327.441 468.286ZM323.856 414.933C322.875 402.536 311.83 393.436 299.497 394.806L303.914 434.562C293.824 435.683 284.785 428.237 283.981 418.09L323.856 414.933ZM179.982 223.03C180.509 220.424 180.55 217.794 180.146 215.24L140.639 221.503C140.309 219.422 140.342 217.247 140.774 215.11L179.982 223.03ZM249.864 115.988C253.151 115.526 256.595 115.975 259.77 117.408L243.313 153.866C247.183 155.613 251.391 156.167 255.433 155.599L249.864 115.988Z" fill="black" mask="url(#path-9-outside-2_1_1013)"/>
</mask>
<g mask="url(#mask1_1_1013)">
<path d="M343.714 376.35C368.904 366.045 385.22 324.11 389.514 293.339L397.385 546.666H142.627V90.2744L205.002 141.837C205.677 142.394 205.907 143.333 205.578 144.145C170.456 230.98 180.026 316.493 215.62 364.9C238.389 395.867 312.227 389.231 343.714 376.35Z" fill="#DE79A3" fill-opacity="0.55"/>
<path d="M144.136 91.7744L196.648 138.807C199.138 141.037 198.779 145.01 196.018 146.894C180.098 157.754 153.657 181.953 146.136 244.774" stroke="black" stroke-width="20" stroke-linecap="round"/>
<mask id="path-13-outside-3_1_1013" maskUnits="userSpaceOnUse" x="127.651" y="75.1381" width="283" height="440" fill="black">
<rect fill="white" x="127.651" y="75.1381" width="283" height="440"/>
<path fill-rule="evenodd" clip-rule="evenodd" d="M251.542 135.637C251.889 135.794 252.271 135.846 252.648 135.793C289.526 130.609 326.658 138.258 340.825 151.335C368.148 176.557 407.439 261.064 382.888 463.362C381.913 471.396 376.494 478.433 368.856 481.109C351.281 487.265 322.106 495.161 311.19 479.943C311.124 479.85 311.051 479.765 310.975 479.68C308.166 476.57 307.347 464.703 305.817 442.555C305.3 435.068 304.702 426.407 303.919 416.512C303.83 415.387 302.827 414.559 301.706 414.684L282.823 416.782L262.419 419.792C261.57 419.918 260.895 420.572 260.743 421.418L250.401 479.031C250.312 479.526 250.035 479.975 249.63 480.275C218.711 503.127 181.908 494.665 161.048 484.673C155.279 481.91 151.758 476.162 151.133 469.796C143.987 397.103 148.217 279.271 160.378 219.07C160.426 218.835 160.43 218.608 160.392 218.371C154.532 181.409 148.085 125.884 150.043 97.043C150.088 96.3887 150.723 95.9794 151.341 96.1968C171.794 103.382 217.677 120.35 251.542 135.637Z"/>
</mask>
<path d="M340.825 151.335L327.26 166.031H327.26L340.825 151.335ZM382.888 463.362L402.742 465.772L382.888 463.362ZM368.856 481.109L362.244 462.234L362.244 462.234L368.856 481.109ZM305.817 442.555L285.865 443.933L305.817 442.555ZM282.823 416.782L280.614 396.904L280.258 396.944L279.904 396.996L282.823 416.782ZM161.048 484.673L169.688 466.636L169.688 466.636L161.048 484.673ZM151.133 469.796L171.037 467.84H171.037L151.133 469.796ZM150.043 97.043L169.997 98.3977V98.3977L150.043 97.043ZM151.341 96.1968L157.971 77.3274H157.971L151.341 96.1968ZM262.419 419.792L265.339 439.578L262.419 419.792ZM260.743 421.418L241.057 417.884L260.743 421.418ZM250.401 479.031L270.086 482.564L250.401 479.031ZM249.63 480.275L261.517 496.358L249.63 480.275ZM311.19 479.943L294.939 491.6L311.19 479.943ZM310.975 479.68L296.131 493.084L310.975 479.68ZM303.919 416.512L323.856 414.933L303.919 416.512ZM301.706 414.684L303.914 434.562L301.706 414.684ZM160.378 219.07L140.774 215.11L160.378 219.07ZM160.392 218.371L180.146 215.24L160.392 218.371ZM252.648 135.793L249.864 115.988L252.648 135.793ZM251.542 135.637L243.313 153.866L251.542 135.637ZM354.391 136.639C343.191 126.301 325.928 120.203 308.893 117.05C291.109 113.759 270.437 113.096 249.864 115.988L255.433 155.599C271.737 153.306 288.07 153.876 301.614 156.382C315.906 159.027 324.292 163.292 327.26 166.031L354.391 136.639ZM402.742 465.772C415.198 363.137 411.62 289.17 400.901 236.925C390.258 185.046 372.244 153.119 354.391 136.639L327.26 166.031C336.73 174.773 352.023 197.71 361.717 244.964C371.337 291.853 375.129 361.289 363.033 460.953L402.742 465.772ZM375.468 499.984C390.644 494.668 400.895 480.994 402.742 465.772L363.033 460.953C362.994 461.278 362.853 461.622 362.637 461.897C362.43 462.161 362.266 462.226 362.244 462.234L375.468 499.984ZM294.939 491.6C306.863 508.224 326.653 509.444 339.071 508.482C352.599 507.433 366.283 503.202 375.468 499.984L362.244 462.234C353.854 465.172 344.163 467.967 335.981 468.601C326.689 469.321 326.433 466.88 327.441 468.286L294.939 491.6ZM285.865 443.933C286.613 454.765 287.237 463.905 288.064 470.679C288.477 474.064 289.018 477.561 289.849 480.741C290.521 483.311 292.065 488.582 296.131 493.084L325.819 466.277C328.48 469.224 328.868 471.845 328.549 470.623C328.389 470.011 328.103 468.574 327.769 465.835C327.101 460.36 326.551 452.493 325.77 441.177L285.865 443.933ZM283.981 418.09C284.756 427.873 285.348 436.443 285.865 443.933L325.77 441.177C325.253 433.693 324.649 424.94 323.856 414.933L283.981 418.09ZM285.032 436.66L303.914 434.562L299.497 394.806L280.614 396.904L285.032 436.66ZM265.339 439.578L285.742 436.568L279.904 396.996L259.5 400.006L265.339 439.578ZM270.086 482.564L280.428 424.951L241.057 417.884L230.716 475.497L270.086 482.564ZM152.408 502.711C176.004 514.013 221.805 525.71 261.517 496.358L237.742 464.191C215.617 480.544 187.811 475.317 169.688 466.636L152.408 502.711ZM131.228 471.753C132.435 484.025 139.429 496.495 152.408 502.711L169.688 466.636C170.317 466.938 170.726 467.372 170.919 467.669C171.087 467.926 171.053 468.003 171.037 467.84L131.228 471.753ZM140.774 215.11C128.148 277.613 123.927 397.48 131.228 471.753L171.037 467.84C164.046 396.726 168.286 280.929 179.982 223.03L140.774 215.11ZM180.146 215.24C174.265 178.144 168.212 124.699 169.997 98.3977L130.089 95.6884C127.959 127.069 134.8 184.674 140.639 221.503L180.146 215.24ZM169.997 98.3977C169.127 111.216 156.295 119.136 144.712 115.066L157.971 77.3274C145.15 72.8233 131.048 81.5612 130.089 95.6884L169.997 98.3977ZM144.712 115.066C164.981 122.187 210.231 138.932 243.313 153.866L259.77 117.408C225.123 101.768 178.607 84.5774 157.971 77.3274L144.712 115.066ZM259.5 400.006C250.151 401.386 242.727 408.582 241.057 417.884L280.428 424.951C279.062 432.562 272.988 438.449 265.339 439.578L259.5 400.006ZM230.716 475.497C231.523 471.001 234.014 466.947 237.742 464.191L261.517 496.358C266.055 493.004 269.101 488.052 270.086 482.564L230.716 475.497ZM327.441 468.286C326.762 467.339 326.141 466.633 325.819 466.277L296.131 493.084C295.961 492.896 295.485 492.362 294.939 491.6L327.441 468.286ZM323.856 414.933C322.875 402.536 311.83 393.436 299.497 394.806L303.914 434.562C293.824 435.683 284.785 428.237 283.981 418.09L323.856 414.933ZM179.982 223.03C180.509 220.424 180.55 217.794 180.146 215.24L140.639 221.503C140.309 219.422 140.342 217.247 140.774 215.11L179.982 223.03ZM249.864 115.988C253.151 115.526 256.595 115.975 259.77 117.408L243.313 153.866C247.183 155.613 251.391 156.167 255.433 155.599L249.864 115.988Z" fill="black" mask="url(#path-13-outside-3_1_1013)"/>
</g>
<path d="M399.11 289.045C373.975 315.338 317.53 314.475 290.898 306.044C249.003 292.782 243.994 239.11 250.434 214.064C257.025 188.432 294.751 188.124 339.865 190.528C384.979 192.933 430.529 256.179 399.11 289.045Z" fill="#98C7DD" stroke="black" stroke-width="20"/>
<mask id="mask2_1_1013" style="mask-type:alpha" maskUnits="userSpaceOnUse" x="238" y="179" width="182" height="143">
<path d="M399.11 289.045C373.975 315.338 317.53 314.475 290.898 306.044C249.003 292.782 243.994 239.11 250.434 214.064C257.025 188.432 294.751 188.124 339.865 190.528C384.979 192.933 430.529 256.179 399.11 289.045Z" fill="#98C7DD" stroke="#3D3436" stroke-width="20"/>
</mask>
<g mask="url(#mask2_1_1013)">
<path d="M365.476 223.924C359.752 214.192 326.73 212.474 311.225 212.474C307.886 212.474 301.493 214.907 302.638 224.64C304.069 236.805 337.703 243.246 352.731 243.246C367.759 243.246 372.633 236.09 365.476 223.924Z" fill="#FBFDFD" fill-opacity="0.85"/>
<path d="M298.924 264.714C277.44 260.686 268.343 218.233 266.316 192.909C266.085 190.026 264.232 187.507 261.51 186.53L247.671 181.562C243.009 179.888 238.097 183.329 238.097 188.283V349.872C238.097 356.501 339.369 353.003 395.337 350.177C398.778 350.004 401.586 347.396 402.04 343.981L412.326 266.563C413.199 259.996 404.511 254.689 398.351 257.127C367.47 269.353 317.638 268.223 298.924 264.714Z" fill="#4B646E" fill-opacity="0.55"/>
<path d="M399.11 289.045C373.975 315.338 317.53 314.475 290.898 306.044C249.003 292.782 243.994 239.11 250.434 214.064C257.025 188.432 294.751 188.124 339.865 190.528C384.979 192.933 430.529 256.179 399.11 289.045Z" stroke="black" stroke-width="20"/>
</g>
<circle cx="303.192" cy="342.136" r="31.1389" fill="#FCD716" stroke="black" stroke-width="6.55556"/>
<path d="M288.197 354.946C289.099 356.299 302.185 368.483 318.43 354.946" stroke="black" stroke-width="7.21989" stroke-linecap="round"/>
<ellipse cx="286.843" cy="352.689" rx="6.31741" ry="5.41492" fill="black"/>
<ellipse cx="318.43" cy="352.689" rx="6.31741" ry="5.41492" fill="black"/>
<path d="M272.636 340.774C284.136 335.774 307.636 326.774 333.636 340.774" stroke="black" stroke-width="8"/>
</svg>
