<svg width="501" height="551" viewBox="0 0 501 551" fill="none" xmlns="http://www.w3.org/2000/svg">
<path d="M104.964 420.571C118.928 425.442 133.706 423.384 145.797 420.038C159.141 416.344 168.213 403.855 169.765 390.096L185.249 252.835C187.643 231.62 171.227 210.128 149.903 209.088C134.086 208.316 117.433 209.196 107.443 215.19C71.1505 236.965 74.1929 409.837 104.964 420.571Z" fill="#D6002D" stroke="black" stroke-width="21.4684"/>
<mask id="mask0_1_491" style="mask-type:alpha" maskUnits="userSpaceOnUse" x="70" y="198" width="127" height="237">
<path d="M104.964 420.571C118.928 425.442 133.706 423.384 145.797 420.038C159.141 416.344 168.213 403.855 169.765 390.096L185.249 252.835C187.643 231.62 171.227 210.128 149.903 209.088C134.086 208.316 117.433 209.196 107.443 215.19C71.1505 236.965 74.1929 409.837 104.964 420.571Z" fill="#E453BD" stroke="#63114C" stroke-width="21.4684"/>
</mask>
<g mask="url(#mask0_1_491)">
<path d="M164.692 260.274C119.465 246.534 61.8821 271.724 38.7439 286.036C38.7439 359.315 72.1392 437.269 88.8368 467.086H164.692V260.274Z" fill="#A80023" fill-opacity="0.55"/>
<path d="M104.964 420.571C118.928 425.442 133.706 423.384 145.797 420.038C159.141 416.344 168.213 403.855 169.765 390.096L185.249 252.835C187.643 231.62 171.227 210.128 149.903 209.088C134.086 208.316 117.433 209.196 107.443 215.19C71.1505 236.965 74.1929 409.837 104.964 420.571Z" stroke="black" stroke-width="21.4684"/>
</g>
<mask id="path-5-outside-1_1_491" maskUnits="userSpaceOnUse" x="128.651" y="48" width="283" height="452" fill="black">
<rect fill="white" x="128.651" y="48" width="283" height="452"/>
<path fill-rule="evenodd" clip-rule="evenodd" d="M305.592 121.595C305.059 121.499 304.59 121.203 304.284 120.757C289.211 98.7913 260.859 66.6547 236.406 69.1355C215.03 71.304 218.263 83.8589 228.291 99.2451C229.113 100.506 228.34 102.199 226.842 102.337C224.925 102.513 222.718 102.693 220.319 102.888C206.217 104.034 185.456 105.721 177.636 110.5C167.13 116.92 159.811 134.132 193.008 140.617C194.78 140.963 195.379 143.334 193.963 144.454C182.884 153.221 173.867 164.55 168.252 178.868C150.984 222.902 143.772 369.745 152.133 454.796C152.758 461.162 156.279 466.91 162.048 469.673C182.908 479.665 219.711 488.127 250.63 465.275C251.035 464.975 251.312 464.526 251.401 464.031L261.743 406.417C261.895 405.572 262.57 404.918 263.419 404.792L283.823 401.782L302.706 399.684C303.827 399.559 304.83 400.387 304.919 401.512C305.702 411.407 306.3 420.068 306.817 427.555C308.347 449.703 309.166 461.57 311.975 464.68C312.051 464.765 312.124 464.85 312.19 464.943C323.106 480.161 352.281 472.265 369.856 466.109C377.494 463.433 382.913 456.396 383.888 448.362C408.439 246.064 369.148 161.557 341.825 136.335C334.642 129.705 321.556 124.47 305.592 121.595Z"/>
</mask>
<path fill-rule="evenodd" clip-rule="evenodd" d="M305.592 121.595C305.059 121.499 304.59 121.203 304.284 120.757C289.211 98.7913 260.859 66.6547 236.406 69.1355C215.03 71.304 218.263 83.8589 228.291 99.2451C229.113 100.506 228.34 102.199 226.842 102.337C224.925 102.513 222.718 102.693 220.319 102.888C206.217 104.034 185.456 105.721 177.636 110.5C167.13 116.92 159.811 134.132 193.008 140.617C194.78 140.963 195.379 143.334 193.963 144.454C182.884 153.221 173.867 164.55 168.252 178.868C150.984 222.902 143.772 369.745 152.133 454.796C152.758 461.162 156.279 466.91 162.048 469.673C182.908 479.665 219.711 488.127 250.63 465.275C251.035 464.975 251.312 464.526 251.401 464.031L261.743 406.417C261.895 405.572 262.57 404.918 263.419 404.792L283.823 401.782L302.706 399.684C303.827 399.559 304.83 400.387 304.919 401.512C305.702 411.407 306.3 420.068 306.817 427.555C308.347 449.703 309.166 461.57 311.975 464.68C312.051 464.765 312.124 464.85 312.19 464.943C323.106 480.161 352.281 472.265 369.856 466.109C377.494 463.433 382.913 456.396 383.888 448.362C408.439 246.064 369.148 161.557 341.825 136.335C334.642 129.705 321.556 124.47 305.592 121.595Z" fill="#D6002D"/>
<path d="M236.406 69.1355L234.387 49.2376L236.406 69.1355ZM220.319 102.888L221.939 122.822L220.319 102.888ZM177.636 110.5L167.207 93.4342L167.207 93.4342L177.636 110.5ZM168.252 178.868L149.632 171.567H149.632L168.252 178.868ZM152.133 454.796L172.037 452.84H172.037L152.133 454.796ZM162.048 469.673L170.688 451.636L170.688 451.636L162.048 469.673ZM283.823 401.782L281.614 381.904C281.377 381.931 281.14 381.961 280.904 381.996L283.823 401.782ZM306.817 427.555L286.865 428.933L306.817 427.555ZM369.856 466.109L363.244 447.234L363.244 447.234L369.856 466.109ZM383.888 448.362L403.742 450.772L383.888 448.362ZM341.825 136.335L355.391 121.639V121.639L341.825 136.335ZM311.975 464.68L326.819 451.277L311.975 464.68ZM312.19 464.943L295.939 476.6L312.19 464.943ZM250.63 465.275L262.517 481.358L250.63 465.275ZM251.401 464.031L271.086 467.564L251.401 464.031ZM261.743 406.417L242.057 402.884L261.743 406.417ZM263.419 404.792L266.339 424.578L263.419 404.792ZM193.008 140.617L196.842 120.988L193.008 140.617ZM193.963 144.454L181.553 128.77L193.963 144.454ZM228.291 99.2451L245.047 88.3247L228.291 99.2451ZM226.842 102.337L225.011 82.4211L226.842 102.337ZM302.706 399.684L304.914 419.561L302.706 399.684ZM304.919 401.512L324.856 399.933L304.919 401.512ZM304.284 120.757L287.793 132.072L304.284 120.757ZM305.592 121.595L309.136 101.912L305.592 121.595ZM238.424 89.0333C241.854 88.6854 249.438 91.0342 260.732 100.865C271.063 109.857 280.833 121.93 287.793 132.072L320.774 109.441C312.662 97.6177 300.719 82.64 286.993 70.6928C274.23 59.5839 255.411 47.1047 234.387 49.2376L238.424 89.0333ZM245.047 88.3247C242.866 84.9791 241.537 82.5033 240.836 80.7875C240.502 79.9704 240.427 79.6043 240.432 79.6268C240.436 79.648 240.576 80.3404 240.443 81.5072C240.299 82.7631 239.857 84.3635 238.877 85.9703C237.901 87.5705 236.748 88.5941 235.916 89.157C235.153 89.6732 234.795 89.7155 235.252 89.5785C235.704 89.4429 236.699 89.2084 238.424 89.0333L234.387 49.2376C227.477 49.9387 219.935 51.6751 213.504 56.0255C206.185 60.9767 201.679 68.4186 200.702 76.9601C199.85 84.4022 201.846 91.1178 203.809 95.9213C205.867 100.955 208.702 105.818 211.536 110.166L245.047 88.3247ZM221.939 122.822C224.308 122.629 226.628 122.441 228.672 122.253L225.011 82.4211C223.221 82.5856 221.128 82.7559 218.699 82.9534L221.939 122.822ZM188.065 127.566C187.524 127.896 188.058 127.486 190.648 126.814C192.954 126.215 195.946 125.644 199.522 125.12C206.705 124.067 214.77 123.405 221.939 122.822L218.699 82.9534C211.765 83.5169 202.399 84.271 193.721 85.543C189.367 86.1813 184.821 87.0002 180.595 88.0976C176.652 89.1213 171.658 90.7143 167.207 93.4342L188.065 127.566ZM196.842 120.988C190.049 119.661 187.2 118.111 186.457 117.6C186.023 117.301 188.05 118.654 188.65 122.18C189.188 125.342 188.064 127.337 187.872 127.643C187.689 127.933 187.762 127.751 188.065 127.566L167.207 93.4342C162.257 96.4594 157.475 100.836 154.003 106.362C150.521 111.904 147.672 119.81 149.217 128.889C152.523 148.323 171.454 156.785 189.173 160.246L196.842 120.988ZM181.553 128.77C167.96 139.526 156.655 153.657 149.632 171.567L186.871 186.17C191.078 175.443 197.807 166.916 206.374 160.138L181.553 128.77ZM149.632 171.567C144.409 184.885 140.475 204.279 137.465 225.831C134.394 247.816 132.091 273.536 130.612 300.348C127.659 353.846 127.918 412.9 132.228 456.753L172.037 452.84C167.987 411.641 167.671 354.747 170.551 302.552C171.988 276.518 174.204 251.956 177.08 231.365C180.017 210.342 183.46 194.868 186.871 186.17L149.632 171.567ZM132.228 456.753C133.435 469.025 140.429 481.495 153.408 487.711L170.688 451.636C171.317 451.937 171.726 452.372 171.919 452.669C172.087 452.926 172.053 453.003 172.037 452.84L132.228 456.753ZM153.408 487.711C177.004 499.013 222.805 510.71 262.517 481.358L238.742 449.191C216.617 465.544 188.811 460.317 170.688 451.636L153.408 487.711ZM271.086 467.564L281.428 409.951L242.057 402.884L231.716 460.497L271.086 467.564ZM266.339 424.578L286.742 421.568L280.904 381.996L260.5 385.006L266.339 424.578ZM286.032 421.66L304.914 419.561L300.497 379.806L281.614 381.904L286.032 421.66ZM284.981 403.09C285.756 412.873 286.348 421.443 286.865 428.933L326.77 426.177C326.253 418.693 325.649 409.94 324.856 399.933L284.981 403.09ZM286.865 428.933C287.613 439.765 288.237 448.905 289.064 455.679C289.477 459.064 290.018 462.561 290.849 465.741C291.521 468.311 293.065 473.581 297.131 478.084L326.819 451.277C329.48 454.224 329.868 456.845 329.549 455.623C329.389 455.011 329.103 453.574 328.769 450.835C328.101 445.36 327.551 437.493 326.77 426.177L286.865 428.933ZM295.939 476.6C307.863 493.224 327.653 494.444 340.071 493.482C353.599 492.433 367.283 488.202 376.468 484.984L363.244 447.234C354.854 450.172 345.163 452.967 336.981 453.601C327.689 454.321 327.433 451.88 328.441 453.285L295.939 476.6ZM376.468 484.984C391.644 479.668 401.895 465.994 403.742 450.772L364.033 445.953C363.994 446.278 363.853 446.622 363.637 446.897C363.43 447.161 363.266 447.226 363.244 447.234L376.468 484.984ZM403.742 450.772C416.198 348.137 412.62 274.17 401.901 221.925C391.258 170.046 373.244 138.119 355.391 121.639L328.26 151.031C337.73 159.773 353.023 182.71 362.717 229.964C372.337 276.853 376.129 346.289 364.033 445.953L403.742 450.772ZM355.391 121.639C344.048 111.169 326.467 105.033 309.136 101.912L302.048 141.279C316.644 143.907 325.237 148.241 328.26 151.031L355.391 121.639ZM297.131 478.084C296.961 477.896 296.485 477.362 295.939 476.6L328.441 453.285C327.762 452.339 327.141 451.633 326.819 451.277L297.131 478.084ZM262.517 481.358C267.055 478.004 270.101 473.052 271.086 467.564L231.716 460.497C232.523 456.001 235.014 451.947 238.742 449.191L262.517 481.358ZM281.428 409.951C280.062 417.562 273.988 423.449 266.339 424.578L260.5 385.006C251.151 386.386 243.727 393.582 242.057 402.884L281.428 409.951ZM189.173 160.246C174.628 157.405 169.211 138.536 181.553 128.77L206.374 160.138C221.547 148.131 214.931 124.522 196.842 120.988L189.173 160.246ZM211.536 110.166C204.586 99.5023 210.691 83.7373 225.011 82.4211L228.672 122.253C245.989 120.661 253.64 101.51 245.047 88.3247L211.536 110.166ZM304.914 419.561C294.824 420.683 285.785 413.237 284.981 403.09L324.856 399.933C323.875 387.536 312.83 378.436 300.497 379.806L304.914 419.561ZM287.793 132.072C291.208 137.05 296.404 140.263 302.048 141.279L309.136 101.912C313.713 102.736 317.972 105.356 320.774 109.441L287.793 132.072Z" fill="black" mask="url(#path-5-outside-1_1_491)"/>
<mask id="mask1_1_491" style="mask-type:alpha" maskUnits="userSpaceOnUse" x="128" y="48" width="284" height="452">
<mask id="path-7-outside-2_1_491" maskUnits="userSpaceOnUse" x="128.651" y="48" width="283" height="452" fill="black">
<rect fill="white" x="128.651" y="48" width="283" height="452"/>
<path fill-rule="evenodd" clip-rule="evenodd" d="M305.592 121.595C305.059 121.499 304.59 121.203 304.284 120.757C289.211 98.7913 260.859 66.6547 236.406 69.1355C215.03 71.304 218.263 83.8589 228.291 99.2451C229.113 100.506 228.34 102.199 226.842 102.337C224.925 102.513 222.718 102.693 220.319 102.888C206.217 104.034 185.456 105.721 177.636 110.5C167.13 116.92 159.811 134.132 193.008 140.617C194.78 140.963 195.379 143.334 193.963 144.454C182.884 153.221 173.867 164.55 168.252 178.868C150.984 222.902 143.772 369.745 152.133 454.796C152.758 461.162 156.279 466.91 162.048 469.673C182.908 479.665 219.711 488.127 250.63 465.275C251.035 464.975 251.312 464.526 251.401 464.031L261.743 406.417C261.895 405.572 262.57 404.918 263.419 404.792L283.823 401.782L302.706 399.684C303.827 399.559 304.83 400.387 304.919 401.512C305.702 411.407 306.3 420.068 306.817 427.555C308.347 449.703 309.166 461.57 311.975 464.68C312.051 464.765 312.124 464.85 312.19 464.943C323.106 480.161 352.281 472.265 369.856 466.109C377.494 463.433 382.913 456.396 383.888 448.362C408.439 246.064 369.148 161.557 341.825 136.335C334.642 129.705 321.556 124.47 305.592 121.595Z"/>
</mask>
<path fill-rule="evenodd" clip-rule="evenodd" d="M305.592 121.595C305.059 121.499 304.59 121.203 304.284 120.757C289.211 98.7913 260.859 66.6547 236.406 69.1355C215.03 71.304 218.263 83.8589 228.291 99.2451C229.113 100.506 228.34 102.199 226.842 102.337C224.925 102.513 222.718 102.693 220.319 102.888C206.217 104.034 185.456 105.721 177.636 110.5C167.13 116.92 159.811 134.132 193.008 140.617C194.78 140.963 195.379 143.334 193.963 144.454C182.884 153.221 173.867 164.55 168.252 178.868C150.984 222.902 143.772 369.745 152.133 454.796C152.758 461.162 156.279 466.91 162.048 469.673C182.908 479.665 219.711 488.127 250.63 465.275C251.035 464.975 251.312 464.526 251.401 464.031L261.743 406.417C261.895 405.572 262.57 404.918 263.419 404.792L283.823 401.782L302.706 399.684C303.827 399.559 304.83 400.387 304.919 401.512C305.702 411.407 306.3 420.068 306.817 427.555C308.347 449.703 309.166 461.57 311.975 464.68C312.051 464.765 312.124 464.85 312.19 464.943C323.106 480.161 352.281 472.265 369.856 466.109C377.494 463.433 382.913 456.396 383.888 448.362C408.439 246.064 369.148 161.557 341.825 136.335C334.642 129.705 321.556 124.47 305.592 121.595Z" fill="#D6002D"/>
<path d="M236.406 69.1355L234.387 49.2376L236.406 69.1355ZM220.319 102.888L221.939 122.822L220.319 102.888ZM177.636 110.5L167.207 93.4342L167.207 93.4342L177.636 110.5ZM168.252 178.868L149.632 171.567H149.632L168.252 178.868ZM152.133 454.796L172.037 452.84H172.037L152.133 454.796ZM162.048 469.673L170.688 451.636L170.688 451.636L162.048 469.673ZM283.823 401.782L281.614 381.904C281.377 381.931 281.14 381.961 280.904 381.996L283.823 401.782ZM306.817 427.555L286.865 428.933L306.817 427.555ZM369.856 466.109L363.244 447.234L363.244 447.234L369.856 466.109ZM383.888 448.362L403.742 450.772L383.888 448.362ZM341.825 136.335L355.391 121.639V121.639L341.825 136.335ZM311.975 464.68L326.819 451.277L311.975 464.68ZM312.19 464.943L295.939 476.6L312.19 464.943ZM250.63 465.275L262.517 481.358L250.63 465.275ZM251.401 464.031L271.086 467.564L251.401 464.031ZM261.743 406.417L242.057 402.884L261.743 406.417ZM263.419 404.792L266.339 424.578L263.419 404.792ZM193.008 140.617L196.842 120.988L193.008 140.617ZM193.963 144.454L181.553 128.77L193.963 144.454ZM228.291 99.2451L245.047 88.3247L228.291 99.2451ZM226.842 102.337L225.011 82.4211L226.842 102.337ZM302.706 399.684L304.914 419.561L302.706 399.684ZM304.919 401.512L324.856 399.933L304.919 401.512ZM304.284 120.757L287.793 132.072L304.284 120.757ZM305.592 121.595L309.136 101.912L305.592 121.595ZM238.424 89.0333C241.854 88.6854 249.438 91.0342 260.732 100.865C271.063 109.857 280.833 121.93 287.793 132.072L320.774 109.441C312.662 97.6177 300.719 82.64 286.993 70.6928C274.23 59.5839 255.411 47.1047 234.387 49.2376L238.424 89.0333ZM245.047 88.3247C242.866 84.9791 241.537 82.5033 240.836 80.7875C240.502 79.9704 240.427 79.6043 240.432 79.6268C240.436 79.648 240.576 80.3404 240.443 81.5072C240.299 82.7631 239.857 84.3635 238.877 85.9703C237.901 87.5705 236.748 88.5941 235.916 89.157C235.153 89.6732 234.795 89.7155 235.252 89.5785C235.704 89.4429 236.699 89.2084 238.424 89.0333L234.387 49.2376C227.477 49.9387 219.935 51.6751 213.504 56.0255C206.185 60.9767 201.679 68.4186 200.702 76.9601C199.85 84.4022 201.846 91.1178 203.809 95.9213C205.867 100.955 208.702 105.818 211.536 110.166L245.047 88.3247ZM221.939 122.822C224.308 122.629 226.628 122.441 228.672 122.253L225.011 82.4211C223.221 82.5856 221.128 82.7559 218.699 82.9534L221.939 122.822ZM188.065 127.566C187.524 127.896 188.058 127.486 190.648 126.814C192.954 126.215 195.946 125.644 199.522 125.12C206.705 124.067 214.77 123.405 221.939 122.822L218.699 82.9534C211.765 83.5169 202.399 84.271 193.721 85.543C189.367 86.1813 184.821 87.0002 180.595 88.0976C176.652 89.1213 171.658 90.7143 167.207 93.4342L188.065 127.566ZM196.842 120.988C190.049 119.661 187.2 118.111 186.457 117.6C186.023 117.301 188.05 118.654 188.65 122.18C189.188 125.342 188.064 127.337 187.872 127.643C187.689 127.933 187.762 127.751 188.065 127.566L167.207 93.4342C162.257 96.4594 157.475 100.836 154.003 106.362C150.521 111.904 147.672 119.81 149.217 128.889C152.523 148.323 171.454 156.785 189.173 160.246L196.842 120.988ZM181.553 128.77C167.96 139.526 156.655 153.657 149.632 171.567L186.871 186.17C191.078 175.443 197.807 166.916 206.374 160.138L181.553 128.77ZM149.632 171.567C144.409 184.885 140.475 204.279 137.465 225.831C134.394 247.816 132.091 273.536 130.612 300.348C127.659 353.846 127.918 412.9 132.228 456.753L172.037 452.84C167.987 411.641 167.671 354.747 170.551 302.552C171.988 276.518 174.204 251.956 177.08 231.365C180.017 210.342 183.46 194.868 186.871 186.17L149.632 171.567ZM132.228 456.753C133.435 469.025 140.429 481.495 153.408 487.711L170.688 451.636C171.317 451.937 171.726 452.372 171.919 452.669C172.087 452.926 172.053 453.003 172.037 452.84L132.228 456.753ZM153.408 487.711C177.004 499.013 222.805 510.71 262.517 481.358L238.742 449.191C216.617 465.544 188.811 460.317 170.688 451.636L153.408 487.711ZM271.086 467.564L281.428 409.951L242.057 402.884L231.716 460.497L271.086 467.564ZM266.339 424.578L286.742 421.568L280.904 381.996L260.5 385.006L266.339 424.578ZM286.032 421.66L304.914 419.561L300.497 379.806L281.614 381.904L286.032 421.66ZM284.981 403.09C285.756 412.873 286.348 421.443 286.865 428.933L326.77 426.177C326.253 418.693 325.649 409.94 324.856 399.933L284.981 403.09ZM286.865 428.933C287.613 439.765 288.237 448.905 289.064 455.679C289.477 459.064 290.018 462.561 290.849 465.741C291.521 468.311 293.065 473.581 297.131 478.084L326.819 451.277C329.48 454.224 329.868 456.845 329.549 455.623C329.389 455.011 329.103 453.574 328.769 450.835C328.101 445.36 327.551 437.493 326.77 426.177L286.865 428.933ZM295.939 476.6C307.863 493.224 327.653 494.444 340.071 493.482C353.599 492.433 367.283 488.202 376.468 484.984L363.244 447.234C354.854 450.172 345.163 452.967 336.981 453.601C327.689 454.321 327.433 451.88 328.441 453.285L295.939 476.6ZM376.468 484.984C391.644 479.668 401.895 465.994 403.742 450.772L364.033 445.953C363.994 446.278 363.853 446.622 363.637 446.897C363.43 447.161 363.266 447.226 363.244 447.234L376.468 484.984ZM403.742 450.772C416.198 348.137 412.62 274.17 401.901 221.925C391.258 170.046 373.244 138.119 355.391 121.639L328.26 151.031C337.73 159.773 353.023 182.71 362.717 229.964C372.337 276.853 376.129 346.289 364.033 445.953L403.742 450.772ZM355.391 121.639C344.048 111.169 326.467 105.033 309.136 101.912L302.048 141.279C316.644 143.907 325.237 148.241 328.26 151.031L355.391 121.639ZM297.131 478.084C296.961 477.896 296.485 477.362 295.939 476.6L328.441 453.285C327.762 452.339 327.141 451.633 326.819 451.277L297.131 478.084ZM262.517 481.358C267.055 478.004 270.101 473.052 271.086 467.564L231.716 460.497C232.523 456.001 235.014 451.947 238.742 449.191L262.517 481.358ZM281.428 409.951C280.062 417.562 273.988 423.449 266.339 424.578L260.5 385.006C251.151 386.386 243.727 393.582 242.057 402.884L281.428 409.951ZM189.173 160.246C174.628 157.405 169.211 138.536 181.553 128.77L206.374 160.138C221.547 148.131 214.931 124.522 196.842 120.988L189.173 160.246ZM211.536 110.166C204.586 99.5023 210.691 83.7373 225.011 82.4211L228.672 122.253C245.989 120.661 253.64 101.51 245.047 88.3247L211.536 110.166ZM304.914 419.561C294.824 420.683 285.785 413.237 284.981 403.09L324.856 399.933C323.875 387.536 312.83 378.436 300.497 379.806L304.914 419.561ZM287.793 132.072C291.208 137.05 296.404 140.263 302.048 141.279L309.136 101.912C313.713 102.736 317.972 105.356 320.774 109.441L287.793 132.072Z" fill="black" mask="url(#path-7-outside-2_1_491)"/>
</mask>
<g mask="url(#mask1_1_491)">
<path d="M202.61 307.351C204.822 309.023 207.083 308.048 207.936 307.351L207.945 307.345C208.39 306.981 209.052 306.441 209.134 304.202C209.236 301.386 206.4 297.176 202.61 298.539C198.819 299.902 199.844 305.262 202.61 307.351Z" fill="#A80023"/>
<path d="M212.779 302.521C215.125 308.551 220.108 308.348 221.84 307.922C225 306.693 226.928 304.331 226.709 299.704C226.49 295.077 220.351 286.668 215.525 287.678C210.698 288.688 210.432 296.49 212.779 302.521Z" fill="#A80023"/>
<path d="M259.618 122.7C263.443 123.262 266.999 120.618 267.562 116.793C268.124 112.968 265.48 109.411 261.655 108.849L259.618 122.7ZM210.636 95.7744C209.198 95.7744 208.171 95.3137 207.806 95.1366C207.366 94.9235 207.084 94.7188 207.006 94.6614C206.854 94.5499 206.862 94.5363 207.132 94.7937C207.684 95.3207 208.343 96.0125 209.543 97.2216C211.772 99.4661 215.023 102.621 219.381 105.957C228.13 112.656 241.218 119.994 259.618 122.7L261.655 108.849C246.054 106.555 235.142 100.393 227.892 94.8414C224.249 92.0527 221.501 89.3952 219.479 87.3585C218.554 86.4269 217.526 85.3609 216.797 84.6653C216.426 84.3113 215.895 83.8202 215.302 83.384C215.003 83.1642 214.525 82.8354 213.913 82.5388C213.375 82.2781 212.199 81.7744 210.636 81.7744V95.7744Z" fill="black"/>
<path d="M340.714 378.35C365.904 368.045 382.22 326.11 386.514 295.339L394.385 548.666H139.627V140.05C139.627 131.871 141.633 125.792 142.636 123.774C150.136 120.774 168.136 117.274 187.136 121.774C202.336 125.374 205.136 135.774 203.317 140.05C167.536 227.355 176.839 318.238 212.62 366.9C235.389 397.867 309.227 391.231 340.714 378.35Z" fill="#A80023" fill-opacity="0.55"/>
<path d="M390.636 440.774C315.636 299.274 204.136 334.274 144.636 407.274L140.636 525.274L390.636 523.189V440.774Z" fill="#E2C4A8"/>
<mask id="mask2_1_491" style="mask-type:alpha" maskUnits="userSpaceOnUse" x="140" y="343" width="251" height="183">
<path d="M390.636 440.774C315.636 299.274 204.136 334.274 144.636 407.274L140.636 525.274L390.636 523.189V440.774Z" fill="#E2C4A8"/>
</mask>
<g mask="url(#mask2_1_491)">
<path d="M340.714 378.35C365.904 368.045 382.22 326.11 386.514 295.339L394.385 548.666H139.627V140.05C139.627 131.871 141.633 125.792 142.636 123.774C150.136 120.774 168.136 117.274 187.136 121.774C202.336 125.374 205.136 135.774 203.317 140.05C167.536 227.355 176.839 318.238 212.62 366.9C235.389 397.867 309.227 391.231 340.714 378.35Z" fill="#C0A790" fill-opacity="0.55"/>
</g>
<mask id="path-16-outside-3_1_491" maskUnits="userSpaceOnUse" x="128.651" y="48" width="283" height="452" fill="black">
<rect fill="white" x="128.651" y="48" width="283" height="452"/>
<path fill-rule="evenodd" clip-rule="evenodd" d="M305.592 121.595C305.059 121.499 304.59 121.203 304.284 120.757C289.211 98.7913 260.859 66.6547 236.406 69.1355C215.03 71.304 218.263 83.8589 228.291 99.2451C229.113 100.506 228.34 102.199 226.842 102.337C224.925 102.513 222.718 102.693 220.319 102.888C206.217 104.034 185.456 105.721 177.636 110.5C167.13 116.92 159.811 134.132 193.008 140.617C194.78 140.963 195.379 143.334 193.963 144.454C182.884 153.221 173.867 164.55 168.252 178.868C150.984 222.902 143.772 369.745 152.133 454.796C152.758 461.162 156.279 466.91 162.048 469.673C182.908 479.665 219.711 488.127 250.63 465.275C251.035 464.975 251.312 464.526 251.401 464.031L261.743 406.417C261.895 405.572 262.57 404.918 263.419 404.792L283.823 401.782L302.706 399.684C303.827 399.559 304.83 400.387 304.919 401.512C305.702 411.407 306.3 420.068 306.817 427.555C308.347 449.703 309.166 461.57 311.975 464.68C312.051 464.765 312.124 464.85 312.19 464.943C323.106 480.161 352.281 472.265 369.856 466.109C377.494 463.433 382.913 456.396 383.888 448.362C408.439 246.064 369.148 161.557 341.825 136.335C334.642 129.705 321.556 124.47 305.592 121.595Z"/>
</mask>
<path d="M236.406 69.1355L234.387 49.2376L236.406 69.1355ZM220.319 102.888L221.939 122.822L220.319 102.888ZM177.636 110.5L167.207 93.4342L167.207 93.4342L177.636 110.5ZM168.252 178.868L149.632 171.567H149.632L168.252 178.868ZM152.133 454.796L172.037 452.84H172.037L152.133 454.796ZM162.048 469.673L170.688 451.636L170.688 451.636L162.048 469.673ZM283.823 401.782L281.614 381.904C281.377 381.931 281.14 381.961 280.904 381.996L283.823 401.782ZM306.817 427.555L286.865 428.933L306.817 427.555ZM369.856 466.109L363.244 447.234L363.244 447.234L369.856 466.109ZM383.888 448.362L403.742 450.772L383.888 448.362ZM341.825 136.335L355.391 121.639V121.639L341.825 136.335ZM311.975 464.68L326.819 451.277L311.975 464.68ZM312.19 464.943L295.939 476.6L312.19 464.943ZM250.63 465.275L262.517 481.358L250.63 465.275ZM251.401 464.031L271.086 467.564L251.401 464.031ZM261.743 406.417L242.057 402.884L261.743 406.417ZM263.419 404.792L266.339 424.578L263.419 404.792ZM193.008 140.617L196.842 120.988L193.008 140.617ZM193.963 144.454L181.553 128.77L193.963 144.454ZM228.291 99.2451L245.047 88.3247L228.291 99.2451ZM226.842 102.337L225.011 82.4211L226.842 102.337ZM302.706 399.684L304.914 419.561L302.706 399.684ZM304.919 401.512L324.856 399.933L304.919 401.512ZM304.284 120.757L287.793 132.072L304.284 120.757ZM305.592 121.595L309.136 101.912L305.592 121.595ZM238.424 89.0333C241.854 88.6854 249.438 91.0342 260.732 100.865C271.063 109.857 280.833 121.93 287.793 132.072L320.774 109.441C312.662 97.6177 300.719 82.64 286.993 70.6928C274.23 59.5839 255.411 47.1047 234.387 49.2376L238.424 89.0333ZM245.047 88.3247C242.866 84.9791 241.537 82.5033 240.836 80.7875C240.502 79.9704 240.427 79.6043 240.432 79.6268C240.436 79.648 240.576 80.3404 240.443 81.5072C240.299 82.7631 239.857 84.3635 238.877 85.9703C237.901 87.5705 236.748 88.5941 235.916 89.157C235.153 89.6732 234.795 89.7155 235.252 89.5785C235.704 89.4429 236.699 89.2084 238.424 89.0333L234.387 49.2376C227.477 49.9387 219.935 51.6751 213.504 56.0255C206.185 60.9767 201.679 68.4186 200.702 76.9601C199.85 84.4022 201.846 91.1178 203.809 95.9213C205.867 100.955 208.702 105.818 211.536 110.166L245.047 88.3247ZM221.939 122.822C224.308 122.629 226.628 122.441 228.672 122.253L225.011 82.4211C223.221 82.5856 221.128 82.7559 218.699 82.9534L221.939 122.822ZM188.065 127.566C187.524 127.896 188.058 127.486 190.648 126.814C192.954 126.215 195.946 125.644 199.522 125.12C206.705 124.067 214.77 123.405 221.939 122.822L218.699 82.9534C211.765 83.5169 202.399 84.271 193.721 85.543C189.367 86.1813 184.821 87.0002 180.595 88.0976C176.652 89.1213 171.658 90.7143 167.207 93.4342L188.065 127.566ZM196.842 120.988C190.049 119.661 187.2 118.111 186.457 117.6C186.023 117.301 188.05 118.654 188.65 122.18C189.188 125.342 188.064 127.337 187.872 127.643C187.689 127.933 187.762 127.751 188.065 127.566L167.207 93.4342C162.257 96.4594 157.475 100.836 154.003 106.362C150.521 111.904 147.672 119.81 149.217 128.889C152.523 148.323 171.454 156.785 189.173 160.246L196.842 120.988ZM181.553 128.77C167.96 139.526 156.655 153.657 149.632 171.567L186.871 186.17C191.078 175.443 197.807 166.916 206.374 160.138L181.553 128.77ZM149.632 171.567C144.409 184.885 140.475 204.279 137.465 225.831C134.394 247.816 132.091 273.536 130.612 300.348C127.659 353.846 127.918 412.9 132.228 456.753L172.037 452.84C167.987 411.641 167.671 354.747 170.551 302.552C171.988 276.518 174.204 251.956 177.08 231.365C180.017 210.342 183.46 194.868 186.871 186.17L149.632 171.567ZM132.228 456.753C133.435 469.025 140.429 481.495 153.408 487.711L170.688 451.636C171.317 451.937 171.726 452.372 171.919 452.669C172.087 452.926 172.053 453.003 172.037 452.84L132.228 456.753ZM153.408 487.711C177.004 499.013 222.805 510.71 262.517 481.358L238.742 449.191C216.617 465.544 188.811 460.317 170.688 451.636L153.408 487.711ZM271.086 467.564L281.428 409.951L242.057 402.884L231.716 460.497L271.086 467.564ZM266.339 424.578L286.742 421.568L280.904 381.996L260.5 385.006L266.339 424.578ZM286.032 421.66L304.914 419.561L300.497 379.806L281.614 381.904L286.032 421.66ZM284.981 403.09C285.756 412.873 286.348 421.443 286.865 428.933L326.77 426.177C326.253 418.693 325.649 409.94 324.856 399.933L284.981 403.09ZM286.865 428.933C287.613 439.765 288.237 448.905 289.064 455.679C289.477 459.064 290.018 462.561 290.849 465.741C291.521 468.311 293.065 473.581 297.131 478.084L326.819 451.277C329.48 454.224 329.868 456.845 329.549 455.623C329.389 455.011 329.103 453.574 328.769 450.835C328.101 445.36 327.551 437.493 326.77 426.177L286.865 428.933ZM295.939 476.6C307.863 493.224 327.653 494.444 340.071 493.482C353.599 492.433 367.283 488.202 376.468 484.984L363.244 447.234C354.854 450.172 345.163 452.967 336.981 453.601C327.689 454.321 327.433 451.88 328.441 453.285L295.939 476.6ZM376.468 484.984C391.644 479.668 401.895 465.994 403.742 450.772L364.033 445.953C363.994 446.278 363.853 446.622 363.637 446.897C363.43 447.161 363.266 447.226 363.244 447.234L376.468 484.984ZM403.742 450.772C416.198 348.137 412.62 274.17 401.901 221.925C391.258 170.046 373.244 138.119 355.391 121.639L328.26 151.031C337.73 159.773 353.023 182.71 362.717 229.964C372.337 276.853 376.129 346.289 364.033 445.953L403.742 450.772ZM355.391 121.639C344.048 111.169 326.467 105.033 309.136 101.912L302.048 141.279C316.644 143.907 325.237 148.241 328.26 151.031L355.391 121.639ZM297.131 478.084C296.961 477.896 296.485 477.362 295.939 476.6L328.441 453.285C327.762 452.339 327.141 451.633 326.819 451.277L297.131 478.084ZM262.517 481.358C267.055 478.004 270.101 473.052 271.086 467.564L231.716 460.497C232.523 456.001 235.014 451.947 238.742 449.191L262.517 481.358ZM281.428 409.951C280.062 417.562 273.988 423.449 266.339 424.578L260.5 385.006C251.151 386.386 243.727 393.582 242.057 402.884L281.428 409.951ZM189.173 160.246C174.628 157.405 169.211 138.536 181.553 128.77L206.374 160.138C221.547 148.131 214.931 124.522 196.842 120.988L189.173 160.246ZM211.536 110.166C204.586 99.5023 210.691 83.7373 225.011 82.4211L228.672 122.253C245.989 120.661 253.64 101.51 245.047 88.3247L211.536 110.166ZM304.914 419.561C294.824 420.683 285.785 413.237 284.981 403.09L324.856 399.933C323.875 387.536 312.83 378.436 300.497 379.806L304.914 419.561ZM287.793 132.072C291.208 137.05 296.404 140.263 302.048 141.279L309.136 101.912C313.713 102.736 317.972 105.356 320.774 109.441L287.793 132.072Z" fill="black" mask="url(#path-16-outside-3_1_491)"/>
</g>
<path d="M400.11 291.045C374.975 317.338 318.53 316.475 291.898 308.044C250.003 294.782 244.994 241.11 251.434 216.064C258.025 190.432 295.751 190.124 340.865 192.528C385.979 194.933 431.529 258.179 400.11 291.045Z" fill="#98C7DD" stroke="black" stroke-width="20"/>
<mask id="mask3_1_491" style="mask-type:alpha" maskUnits="userSpaceOnUse" x="239" y="181" width="182" height="143">
<path d="M400.11 291.045C374.975 317.338 318.53 316.475 291.898 308.044C250.003 294.782 244.994 241.11 251.434 216.064C258.025 190.432 295.751 190.124 340.865 192.528C385.979 194.933 431.529 258.179 400.11 291.045Z" fill="#98C7DD" stroke="#3D3436" stroke-width="20"/>
</mask>
<g mask="url(#mask3_1_491)">
<path d="M366.476 225.924C360.751 216.192 327.73 214.474 312.225 214.474C308.886 214.474 302.493 216.907 303.638 226.64C305.069 238.805 338.703 245.246 353.731 245.246C368.759 245.246 373.632 238.09 366.476 225.924Z" fill="#FBFDFD" fill-opacity="0.85"/>
<path d="M299.924 266.714C278.44 262.686 269.343 220.233 267.316 194.909C267.085 192.026 265.232 189.507 262.51 188.53L248.671 183.562C244.009 181.888 239.097 185.329 239.097 190.283V351.872C239.097 358.501 340.369 355.003 396.337 352.177C399.778 352.004 402.586 349.396 403.04 345.981L413.326 268.563C414.199 261.996 405.511 256.689 399.351 259.127C368.47 271.353 318.638 270.223 299.924 266.714Z" fill="#4B646E" fill-opacity="0.55"/>
<path d="M400.11 291.045C374.975 317.338 318.53 316.475 291.898 308.044C250.003 294.782 244.994 241.11 251.434 216.064C258.025 190.432 295.751 190.124 340.865 192.528C385.979 194.933 431.529 258.179 400.11 291.045Z" stroke="black" stroke-width="20"/>
</g>
<path d="M323.136 302C301.136 294.8 268.636 322.333 255.136 337C252.136 340 247.936 345.3 255.136 350.5C260.715 354.529 309.636 366.5 356.136 360.612C366.185 359.339 374.848 357.683 383.157 356.095L383.159 356.094C384.92 355.758 386.665 355.424 388.403 355.098C389.87 354.823 390.541 353.096 389.585 351.949C375.386 334.932 344.06 308.848 323.136 302Z" fill="#FBBA1E"/>
<path d="M356.136 360.612C309.636 366.5 260.715 354.529 255.136 350.5L297.548 392.912C298.19 393.553 299.182 393.683 299.967 393.227L356.136 360.612Z" fill="#F59C1E"/>
<path d="M255.136 350.5C247.936 345.3 252.136 340 255.136 337C268.636 322.333 301.136 294.8 323.136 302C344.06 308.848 375.386 334.932 389.585 351.949V351.949C390.541 353.096 389.871 354.823 388.403 355.098V355.098C386.665 355.424 384.92 355.758 383.159 356.094L383.157 356.095C374.848 357.683 366.185 359.339 356.136 360.612M255.136 350.5C260.715 354.529 309.636 366.5 356.136 360.612M255.136 350.5L297.548 392.912V392.912C298.19 393.553 299.182 393.683 299.967 393.227V393.227L356.136 360.612" stroke="black" stroke-width="12"/>
</svg>
