<svg width="501" height="551" viewBox="0 0 501 551" fill="none" xmlns="http://www.w3.org/2000/svg">
<path d="M136.965 410.571C150.929 415.442 165.706 413.384 177.797 410.038C191.142 406.344 200.213 393.855 201.765 380.096L217.25 242.835C219.643 221.62 203.227 200.128 181.903 199.088C166.086 198.316 149.433 199.196 139.443 205.19C103.151 226.965 106.193 399.837 136.965 410.571Z" fill="#7E778A" stroke="black" stroke-width="21.4684"/>
<mask id="mask0_1_565" style="mask-type:alpha" maskUnits="userSpaceOnUse" x="102" y="188" width="127" height="237">
<path d="M136.965 410.571C150.929 415.442 165.706 413.384 177.797 410.038C191.142 406.344 200.213 393.855 201.765 380.096L217.25 242.835C219.643 221.62 203.227 200.128 181.903 199.088C166.086 198.316 149.433 199.196 139.443 205.19C103.151 226.965 106.193 399.837 136.965 410.571Z" fill="#E453BD" stroke="#63114C" stroke-width="21.4684"/>
</mask>
<g mask="url(#mask0_1_565)">
<path d="M196.692 250.274C151.465 236.534 93.8823 261.724 70.7441 276.036C70.7441 349.315 104.139 427.269 120.837 457.086H196.692V250.274Z" fill="#625B6F" fill-opacity="0.55"/>
<path d="M136.965 410.571C150.929 415.442 165.706 413.384 177.797 410.038C191.142 406.344 200.213 393.855 201.765 380.096L217.25 242.835C219.643 221.62 203.227 200.128 181.903 199.088C166.086 198.316 149.433 199.196 139.443 205.19C103.151 226.965 106.193 399.837 136.965 410.571Z" stroke="black" stroke-width="21.4684"/>
</g>
<mask id="path-5-outside-1_1_565" maskUnits="userSpaceOnUse" x="45.0935" y="106.155" width="409" height="401" fill="black">
<rect fill="white" x="45.0935" y="106.155" width="409" height="401"/>
<path fill-rule="evenodd" clip-rule="evenodd" d="M252.725 140.65C235.962 129.805 203.252 117.832 160.605 135.125C159.295 135.656 158.928 137.347 159.912 138.362C171.458 150.261 190.817 172.943 206.074 198.14C197.598 230.233 192.201 288.683 190.761 347.322C168.939 342.877 149.571 332.449 144.136 310.274C137.515 283.262 144.22 269.715 151.026 255.964C156.679 244.543 162.401 232.981 160.617 213.447C160.464 211.771 158.443 211.132 157.356 212.417C155.391 214.74 153.349 217.336 151.221 220.043C138.078 236.754 121.62 257.68 99.3576 244.774C96.1355 242.87 78.2673 232.344 69.096 227.104C67.7112 226.313 65.9975 227.394 66.0977 228.986C66.9379 242.337 69.5472 271.096 99.3576 278.774C118.797 283.782 122.599 307.937 126.263 331.22C128.859 347.715 131.387 363.773 139.358 372.274C147.662 382.314 166.342 398.311 190.687 405.755C191.17 425.989 192.211 445.085 193.854 461.796C194.48 468.162 198 473.91 203.769 476.673C224.772 486.733 261.936 495.243 292.984 471.802L303.718 412.002L325.544 408.782L346.476 406.456C347.341 417.212 347.986 426.554 348.539 434.555C350.089 457.002 350.91 468.889 353.811 471.802C364.648 487.21 393.949 479.284 411.577 473.109C419.215 470.433 424.634 463.396 425.609 455.362C450.16 253.064 410.87 168.557 383.547 143.335C363.713 125.027 298.864 117.357 252.725 140.65Z"/>
</mask>
<path fill-rule="evenodd" clip-rule="evenodd" d="M252.725 140.65C235.962 129.805 203.252 117.832 160.605 135.125C159.295 135.656 158.928 137.347 159.912 138.362C171.458 150.261 190.817 172.943 206.074 198.14C197.598 230.233 192.201 288.683 190.761 347.322C168.939 342.877 149.571 332.449 144.136 310.274C137.515 283.262 144.22 269.715 151.026 255.964C156.679 244.543 162.401 232.981 160.617 213.447C160.464 211.771 158.443 211.132 157.356 212.417C155.391 214.74 153.349 217.336 151.221 220.043C138.078 236.754 121.62 257.68 99.3576 244.774C96.1355 242.87 78.2673 232.344 69.096 227.104C67.7112 226.313 65.9975 227.394 66.0977 228.986C66.9379 242.337 69.5472 271.096 99.3576 278.774C118.797 283.782 122.599 307.937 126.263 331.22C128.859 347.715 131.387 363.773 139.358 372.274C147.662 382.314 166.342 398.311 190.687 405.755C191.17 425.989 192.211 445.085 193.854 461.796C194.48 468.162 198 473.91 203.769 476.673C224.772 486.733 261.936 495.243 292.984 471.802L303.718 412.002L325.544 408.782L346.476 406.456C347.341 417.212 347.986 426.554 348.539 434.555C350.089 457.002 350.91 468.889 353.811 471.802C364.648 487.21 393.949 479.284 411.577 473.109C419.215 470.433 424.634 463.396 425.609 455.362C450.16 253.064 410.87 168.557 383.547 143.335C363.713 125.027 298.864 117.357 252.725 140.65Z" fill="#7E778A"/>
<path d="M252.725 140.65L241.861 157.442C247.827 161.302 255.394 161.706 261.738 158.504L252.725 140.65ZM160.605 135.125L153.09 116.591L153.089 116.591L160.605 135.125ZM159.912 138.362L174.267 124.435L174.266 124.435L159.912 138.362ZM206.074 198.14L225.411 203.247C226.796 198.003 225.991 192.421 223.182 187.781L206.074 198.14ZM190.761 347.322L186.769 366.92C192.568 368.101 198.593 366.653 203.222 362.966C207.851 359.278 210.609 353.73 210.755 347.813L190.761 347.322ZM144.136 310.274L124.711 315.035L124.711 315.035L144.136 310.274ZM151.026 255.964L168.951 264.836L168.951 264.836L151.026 255.964ZM160.617 213.447L140.7 215.266L140.7 215.266L160.617 213.447ZM157.356 212.417L142.085 199.502L142.085 199.502L157.356 212.417ZM151.221 220.043L166.941 232.406L151.221 220.043ZM99.3576 244.774L89.183 261.993C89.2309 262.021 89.2789 262.049 89.327 262.077L99.3576 244.774ZM69.096 227.104L79.0163 209.738L79.0162 209.738L69.096 227.104ZM66.0977 228.986L46.1372 230.242L66.0977 228.986ZM99.3576 278.774L104.346 259.407L99.3576 278.774ZM126.263 331.22L106.507 334.329L126.263 331.22ZM139.358 372.274L154.769 359.527C154.505 359.208 154.231 358.897 153.947 358.595L139.358 372.274ZM190.687 405.755L210.682 405.279C210.476 396.664 204.776 389.149 196.535 386.629L190.687 405.755ZM193.854 461.796L173.95 463.753L173.95 463.753L193.854 461.796ZM203.769 476.673L212.409 458.636L212.409 458.636L203.769 476.673ZM292.984 471.802L305.035 487.763C309.054 484.729 311.78 480.291 312.669 475.335L292.984 471.802ZM303.718 412.002L300.799 392.216C292.3 393.47 285.551 400.012 284.033 408.469L303.718 412.002ZM325.544 408.782L323.336 388.904C323.098 388.931 322.862 388.961 322.625 388.996L325.544 408.782ZM346.476 406.456L366.412 404.853C365.978 399.461 363.379 394.474 359.206 391.031C355.034 387.587 349.644 385.981 344.268 386.578L346.476 406.456ZM348.539 434.555L328.586 435.933L348.539 434.555ZM353.811 471.802L370.17 460.296C369.516 459.366 368.783 458.493 367.981 457.687L353.811 471.802ZM411.577 473.109L404.965 454.234L404.965 454.234L411.577 473.109ZM425.609 455.362L445.463 457.772V457.772L425.609 455.362ZM383.547 143.335L397.112 128.639V128.639L383.547 143.335ZM263.588 123.858C242.528 110.233 202.974 96.363 153.09 116.591L168.121 153.66C203.531 139.301 229.396 149.378 241.861 157.442L263.588 123.858ZM153.089 116.591C138.821 122.377 134.552 140.945 145.558 152.289L174.266 124.435C183.304 133.749 179.77 148.936 168.121 153.66L153.089 116.591ZM145.558 152.289C156.333 163.394 174.672 184.894 188.965 208.499L223.182 187.781C206.961 160.993 186.583 137.129 174.267 124.435L145.558 152.289ZM186.737 193.033C177.627 227.528 172.213 287.96 170.767 346.831L210.755 347.813C212.19 289.405 217.569 232.938 225.411 203.247L186.737 193.033ZM194.752 327.725C175.641 323.832 166.21 316.321 163.561 305.513L124.711 315.035C132.932 348.578 162.237 361.923 186.769 366.92L194.752 327.725ZM163.561 305.513C160.843 294.421 161.115 287.274 162.156 282.075C163.27 276.52 165.455 271.898 168.951 264.836L133.101 247.092C129.791 253.781 125.222 262.809 122.936 274.217C120.579 285.983 120.809 299.115 124.711 315.035L163.561 305.513ZM168.951 264.836C174.934 252.747 182.848 236.958 180.534 211.627L140.7 215.266C141.955 229.005 138.423 236.34 133.101 247.092L168.951 264.836ZM180.534 211.628C178.77 192.319 154.655 184.639 142.085 199.502L172.627 225.332C162.231 237.625 142.157 231.222 140.7 215.266L180.534 211.628ZM142.085 199.502C139.847 202.148 137.576 205.039 135.5 207.679L166.941 232.406C169.122 229.633 170.935 227.332 172.627 225.332L142.085 199.502ZM135.5 207.679C128.411 216.693 122.98 223.288 117.596 226.886C115.278 228.436 113.934 228.724 113.338 228.774C112.978 228.804 111.82 228.881 109.388 227.472L89.327 262.077C98.0266 267.12 107.274 269.421 116.672 268.635C125.834 267.869 133.6 264.301 139.822 260.143C151.518 252.327 160.888 240.103 166.941 232.406L135.5 207.679ZM109.532 227.556C106.328 225.663 88.3356 215.062 79.0163 209.738L59.1756 244.471C68.199 249.625 85.9427 260.078 89.183 261.993L109.532 227.556ZM79.0162 209.738C63.6188 200.943 45.051 212.983 46.1372 230.242L86.0582 227.73C86.944 241.805 71.8037 251.684 59.1757 244.471L79.0162 209.738ZM46.1372 230.242C46.567 237.072 47.5275 250.862 53.671 264.315C60.2424 278.705 72.7067 292.563 94.3689 298.142L104.346 259.407C96.1981 257.308 92.4526 252.946 90.0567 247.699C87.2328 241.516 86.4686 234.251 86.0582 227.73L46.1372 230.242ZM94.3689 298.142C95.4791 298.428 97.5633 299.102 100.162 305.585C102.991 312.641 104.576 322.063 106.507 334.329L146.02 328.11C144.286 317.094 142.138 302.796 137.29 290.702C132.212 278.035 122.676 264.128 104.346 259.407L94.3689 298.142ZM106.507 334.329C107.761 342.302 109.202 351.605 111.504 360.022C113.75 368.236 117.445 378.144 124.768 385.954L153.947 358.595C153.3 357.904 151.745 355.533 150.086 349.468C148.483 343.606 147.361 336.633 146.02 328.11L106.507 334.329ZM123.946 385.022C134.245 397.472 156.064 416.083 184.84 424.881L196.535 386.629C176.619 380.54 161.079 367.156 154.769 359.527L123.946 385.022ZM170.693 406.232C171.184 426.818 172.247 446.427 173.95 463.753L213.758 459.84C212.176 443.744 211.156 425.159 210.682 405.279L170.693 406.232ZM173.95 463.753C175.156 476.025 182.151 488.495 195.13 494.711L212.409 458.636C213.039 458.937 213.447 459.372 213.641 459.669C213.808 459.926 213.774 460.003 213.758 459.84L173.95 463.753ZM195.129 494.711C218.877 506.086 265.16 517.869 305.035 487.763L280.933 455.84C258.712 472.617 230.667 467.381 212.409 458.636L195.129 494.711ZM312.669 475.335L323.404 415.536L284.033 408.469L273.299 468.268L312.669 475.335ZM306.637 431.788L328.464 428.568L322.625 388.996L300.799 392.216L306.637 431.788ZM327.753 428.66L348.685 426.334L344.268 386.578L323.336 388.904L327.753 428.66ZM326.541 408.059C327.395 418.69 328.034 427.93 328.586 435.933L368.491 433.177C367.939 425.179 367.287 415.734 366.412 404.853L326.541 408.059ZM328.586 435.933C329.344 446.903 329.975 456.149 330.82 462.965C331.242 466.366 331.802 469.919 332.681 473.152C333.374 475.703 335.057 481.314 339.642 485.917L367.981 457.687C371.115 460.833 371.607 463.866 371.282 462.667C371.142 462.151 370.856 460.784 370.516 458.042C369.838 452.575 369.284 444.654 368.491 433.177L328.586 435.933ZM337.452 483.308C349.302 500.156 369.193 501.44 381.663 500.492C395.237 499.46 408.979 495.211 418.189 491.984L404.965 454.234C396.547 457.183 386.824 459.984 378.631 460.607C369.335 461.313 369.157 458.855 370.17 460.296L337.452 483.308ZM418.189 491.984C433.366 486.668 443.616 472.994 445.463 457.772L405.755 452.953C405.715 453.278 405.575 453.622 405.358 453.897C405.151 454.161 404.988 454.226 404.965 454.234L418.189 491.984ZM445.463 457.772C457.919 355.137 454.341 281.17 443.623 228.925C432.979 177.046 414.965 145.119 397.112 128.639L369.981 158.031C379.451 166.773 394.744 189.71 404.439 236.964C414.058 283.853 417.85 353.289 405.755 452.953L445.463 457.772ZM397.112 128.639C389.055 121.201 378.091 116.156 367.07 112.789C355.707 109.317 342.665 107.14 329.057 106.42C302.074 104.992 270.654 109.195 243.712 122.796L261.738 158.504C280.935 148.813 305.009 145.204 326.943 146.364C337.794 146.939 347.568 148.656 355.383 151.044C363.542 153.536 368.122 156.315 369.981 158.031L397.112 128.639Z" fill="black" mask="url(#path-5-outside-1_1_565)"/>
<mask id="mask1_1_565" style="mask-type:alpha" maskUnits="userSpaceOnUse" x="46" y="106" width="408" height="401">
<mask id="path-7-outside-2_1_565" maskUnits="userSpaceOnUse" x="45.0935" y="106.155" width="409" height="401" fill="black">
<rect fill="white" x="45.0935" y="106.155" width="409" height="401"/>
<path fill-rule="evenodd" clip-rule="evenodd" d="M252.725 140.65C235.962 129.805 203.252 117.832 160.605 135.125C159.295 135.656 158.928 137.347 159.912 138.362C171.458 150.261 190.817 172.943 206.074 198.14C197.598 230.233 192.201 288.683 190.761 347.322C168.939 342.877 149.571 332.449 144.136 310.274C137.515 283.262 144.22 269.715 151.026 255.964C156.679 244.543 162.401 232.981 160.617 213.447C160.464 211.771 158.443 211.132 157.356 212.417C155.391 214.74 153.349 217.336 151.221 220.043C138.078 236.754 121.62 257.68 99.3576 244.774C96.1355 242.87 78.2673 232.344 69.096 227.104C67.7112 226.313 65.9975 227.394 66.0977 228.986C66.9379 242.337 69.5472 271.096 99.3576 278.774C118.797 283.782 122.599 307.937 126.263 331.22C128.859 347.715 131.387 363.773 139.358 372.274C147.662 382.314 166.342 398.311 190.687 405.755C191.17 425.989 192.211 445.085 193.854 461.796C194.48 468.162 198 473.91 203.769 476.673C224.772 486.733 261.936 495.243 292.984 471.802L303.718 412.002L325.544 408.782L346.476 406.456C347.341 417.212 347.986 426.554 348.539 434.555C350.089 457.002 350.91 468.889 353.811 471.802C364.648 487.21 393.949 479.284 411.577 473.109C419.215 470.433 424.634 463.396 425.609 455.362C450.16 253.064 410.87 168.557 383.547 143.335C363.713 125.027 298.864 117.357 252.725 140.65Z"/>
</mask>
<path fill-rule="evenodd" clip-rule="evenodd" d="M252.725 140.65C235.962 129.805 203.252 117.832 160.605 135.125C159.295 135.656 158.928 137.347 159.912 138.362C171.458 150.261 190.817 172.943 206.074 198.14C197.598 230.233 192.201 288.683 190.761 347.322C168.939 342.877 149.571 332.449 144.136 310.274C137.515 283.262 144.22 269.715 151.026 255.964C156.679 244.543 162.401 232.981 160.617 213.447C160.464 211.771 158.443 211.132 157.356 212.417C155.391 214.74 153.349 217.336 151.221 220.043C138.078 236.754 121.62 257.68 99.3576 244.774C96.1355 242.87 78.2673 232.344 69.096 227.104C67.7112 226.313 65.9975 227.394 66.0977 228.986C66.9379 242.337 69.5472 271.096 99.3576 278.774C118.797 283.782 122.599 307.937 126.263 331.22C128.859 347.715 131.387 363.773 139.358 372.274C147.662 382.314 166.342 398.311 190.687 405.755C191.17 425.989 192.211 445.085 193.854 461.796C194.48 468.162 198 473.91 203.769 476.673C224.772 486.733 261.936 495.243 292.984 471.802L303.718 412.002L325.544 408.782L346.476 406.456C347.341 417.212 347.986 426.554 348.539 434.555C350.089 457.002 350.91 468.889 353.811 471.802C364.648 487.21 393.949 479.284 411.577 473.109C419.215 470.433 424.634 463.396 425.609 455.362C450.16 253.064 410.87 168.557 383.547 143.335C363.713 125.027 298.864 117.357 252.725 140.65Z" fill="#7E778A"/>
<path d="M252.725 140.65L241.861 157.442C247.827 161.302 255.394 161.706 261.738 158.504L252.725 140.65ZM160.605 135.125L153.09 116.591L153.089 116.591L160.605 135.125ZM159.912 138.362L174.267 124.435L174.266 124.435L159.912 138.362ZM206.074 198.14L225.411 203.247C226.796 198.003 225.991 192.421 223.182 187.781L206.074 198.14ZM190.761 347.322L186.769 366.92C192.568 368.101 198.593 366.653 203.222 362.966C207.851 359.278 210.609 353.73 210.755 347.813L190.761 347.322ZM144.136 310.274L124.711 315.035L124.711 315.035L144.136 310.274ZM151.026 255.964L168.951 264.836L168.951 264.836L151.026 255.964ZM160.617 213.447L140.7 215.266L140.7 215.266L160.617 213.447ZM157.356 212.417L142.085 199.502L142.085 199.502L157.356 212.417ZM151.221 220.043L166.941 232.406L151.221 220.043ZM99.3576 244.774L89.183 261.993C89.2309 262.021 89.2789 262.049 89.327 262.077L99.3576 244.774ZM69.096 227.104L79.0163 209.738L79.0162 209.738L69.096 227.104ZM66.0977 228.986L46.1372 230.242L66.0977 228.986ZM99.3576 278.774L104.346 259.407L99.3576 278.774ZM126.263 331.22L106.507 334.329L126.263 331.22ZM139.358 372.274L154.769 359.527C154.505 359.208 154.231 358.897 153.947 358.595L139.358 372.274ZM190.687 405.755L210.682 405.279C210.476 396.664 204.776 389.149 196.535 386.629L190.687 405.755ZM193.854 461.796L173.95 463.753L173.95 463.753L193.854 461.796ZM203.769 476.673L212.409 458.636L212.409 458.636L203.769 476.673ZM292.984 471.802L305.035 487.763C309.054 484.729 311.78 480.291 312.669 475.335L292.984 471.802ZM303.718 412.002L300.799 392.216C292.3 393.47 285.551 400.012 284.033 408.469L303.718 412.002ZM325.544 408.782L323.336 388.904C323.098 388.931 322.862 388.961 322.625 388.996L325.544 408.782ZM346.476 406.456L366.412 404.853C365.978 399.461 363.379 394.474 359.206 391.031C355.034 387.587 349.644 385.981 344.268 386.578L346.476 406.456ZM348.539 434.555L328.586 435.933L348.539 434.555ZM353.811 471.802L370.17 460.296C369.516 459.366 368.783 458.493 367.981 457.687L353.811 471.802ZM411.577 473.109L404.965 454.234L404.965 454.234L411.577 473.109ZM425.609 455.362L445.463 457.772V457.772L425.609 455.362ZM383.547 143.335L397.112 128.639V128.639L383.547 143.335ZM263.588 123.858C242.528 110.233 202.974 96.363 153.09 116.591L168.121 153.66C203.531 139.301 229.396 149.378 241.861 157.442L263.588 123.858ZM153.089 116.591C138.821 122.377 134.552 140.945 145.558 152.289L174.266 124.435C183.304 133.749 179.77 148.936 168.121 153.66L153.089 116.591ZM145.558 152.289C156.333 163.394 174.672 184.894 188.965 208.499L223.182 187.781C206.961 160.993 186.583 137.129 174.267 124.435L145.558 152.289ZM186.737 193.033C177.627 227.528 172.213 287.96 170.767 346.831L210.755 347.813C212.19 289.405 217.569 232.938 225.411 203.247L186.737 193.033ZM194.752 327.725C175.641 323.832 166.21 316.321 163.561 305.513L124.711 315.035C132.932 348.578 162.237 361.923 186.769 366.92L194.752 327.725ZM163.561 305.513C160.843 294.421 161.115 287.274 162.156 282.075C163.27 276.52 165.455 271.898 168.951 264.836L133.101 247.092C129.791 253.781 125.222 262.809 122.936 274.217C120.579 285.983 120.809 299.115 124.711 315.035L163.561 305.513ZM168.951 264.836C174.934 252.747 182.848 236.958 180.534 211.627L140.7 215.266C141.955 229.005 138.423 236.34 133.101 247.092L168.951 264.836ZM180.534 211.628C178.77 192.319 154.655 184.639 142.085 199.502L172.627 225.332C162.231 237.625 142.157 231.222 140.7 215.266L180.534 211.628ZM142.085 199.502C139.847 202.148 137.576 205.039 135.5 207.679L166.941 232.406C169.122 229.633 170.935 227.332 172.627 225.332L142.085 199.502ZM135.5 207.679C128.411 216.693 122.98 223.288 117.596 226.886C115.278 228.436 113.934 228.724 113.338 228.774C112.978 228.804 111.82 228.881 109.388 227.472L89.327 262.077C98.0266 267.12 107.274 269.421 116.672 268.635C125.834 267.869 133.6 264.301 139.822 260.143C151.518 252.327 160.888 240.103 166.941 232.406L135.5 207.679ZM109.532 227.556C106.328 225.663 88.3356 215.062 79.0163 209.738L59.1756 244.471C68.199 249.625 85.9427 260.078 89.183 261.993L109.532 227.556ZM79.0162 209.738C63.6188 200.943 45.051 212.983 46.1372 230.242L86.0582 227.73C86.944 241.805 71.8037 251.684 59.1757 244.471L79.0162 209.738ZM46.1372 230.242C46.567 237.072 47.5275 250.862 53.671 264.315C60.2424 278.705 72.7067 292.563 94.3689 298.142L104.346 259.407C96.1981 257.308 92.4526 252.946 90.0567 247.699C87.2328 241.516 86.4686 234.251 86.0582 227.73L46.1372 230.242ZM94.3689 298.142C95.4791 298.428 97.5633 299.102 100.162 305.585C102.991 312.641 104.576 322.063 106.507 334.329L146.02 328.11C144.286 317.094 142.138 302.796 137.29 290.702C132.212 278.035 122.676 264.128 104.346 259.407L94.3689 298.142ZM106.507 334.329C107.761 342.302 109.202 351.605 111.504 360.022C113.75 368.236 117.445 378.144 124.768 385.954L153.947 358.595C153.3 357.904 151.745 355.533 150.086 349.468C148.483 343.606 147.361 336.633 146.02 328.11L106.507 334.329ZM123.946 385.022C134.245 397.472 156.064 416.083 184.84 424.881L196.535 386.629C176.619 380.54 161.079 367.156 154.769 359.527L123.946 385.022ZM170.693 406.232C171.184 426.818 172.247 446.427 173.95 463.753L213.758 459.84C212.176 443.744 211.156 425.159 210.682 405.279L170.693 406.232ZM173.95 463.753C175.156 476.025 182.151 488.495 195.13 494.711L212.409 458.636C213.039 458.937 213.447 459.372 213.641 459.669C213.808 459.926 213.774 460.003 213.758 459.84L173.95 463.753ZM195.129 494.711C218.877 506.086 265.16 517.869 305.035 487.763L280.933 455.84C258.712 472.617 230.667 467.381 212.409 458.636L195.129 494.711ZM312.669 475.335L323.404 415.536L284.033 408.469L273.299 468.268L312.669 475.335ZM306.637 431.788L328.464 428.568L322.625 388.996L300.799 392.216L306.637 431.788ZM327.753 428.66L348.685 426.334L344.268 386.578L323.336 388.904L327.753 428.66ZM326.541 408.059C327.395 418.69 328.034 427.93 328.586 435.933L368.491 433.177C367.939 425.179 367.287 415.734 366.412 404.853L326.541 408.059ZM328.586 435.933C329.344 446.903 329.975 456.149 330.82 462.965C331.242 466.366 331.802 469.919 332.681 473.152C333.374 475.703 335.057 481.314 339.642 485.917L367.981 457.687C371.115 460.833 371.607 463.866 371.282 462.667C371.142 462.151 370.856 460.784 370.516 458.042C369.838 452.575 369.284 444.654 368.491 433.177L328.586 435.933ZM337.452 483.308C349.302 500.156 369.193 501.44 381.663 500.492C395.237 499.46 408.979 495.211 418.189 491.984L404.965 454.234C396.547 457.183 386.824 459.984 378.631 460.607C369.335 461.313 369.157 458.855 370.17 460.296L337.452 483.308ZM418.189 491.984C433.366 486.668 443.616 472.994 445.463 457.772L405.755 452.953C405.715 453.278 405.575 453.622 405.358 453.897C405.151 454.161 404.988 454.226 404.965 454.234L418.189 491.984ZM445.463 457.772C457.919 355.137 454.341 281.17 443.623 228.925C432.979 177.046 414.965 145.119 397.112 128.639L369.981 158.031C379.451 166.773 394.744 189.71 404.439 236.964C414.058 283.853 417.85 353.289 405.755 452.953L445.463 457.772ZM397.112 128.639C389.055 121.201 378.091 116.156 367.07 112.789C355.707 109.317 342.665 107.14 329.057 106.42C302.074 104.992 270.654 109.195 243.712 122.796L261.738 158.504C280.935 148.813 305.009 145.204 326.943 146.364C337.794 146.939 347.568 148.656 355.383 151.044C363.542 153.536 368.122 156.315 369.981 158.031L397.112 128.639Z" fill="black" mask="url(#path-7-outside-2_1_565)"/>
</mask>
<g mask="url(#mask1_1_565)">
<path d="M386.214 368.35C411.404 358.045 427.72 316.11 432.014 285.339L439.885 538.666H185.127L182.322 418.274C178.094 416.941 162.536 409.274 134.136 389.274C105.736 369.274 55.4696 274.274 44.6362 222.774L177.465 209.774L156.136 145.274C211.049 136.604 240.226 168.77 244.869 181.867C245.192 182.778 245.115 183.774 244.795 184.687C218.442 260.022 225.419 312.427 258.12 356.9C280.889 387.867 354.727 381.231 386.214 368.35Z" fill="#625B6F" fill-opacity="0.55"/>
<path d="M218.297 288.452C223.367 296.207 238.317 312.141 257.555 313.831" stroke="black" stroke-width="15" stroke-linecap="round"/>
<path d="M209.766 314.913C214.836 322.669 229.786 338.602 249.024 340.292" stroke="black" stroke-width="15" stroke-linecap="round"/>
<mask id="path-12-outside-3_1_565" maskUnits="userSpaceOnUse" x="45.0935" y="106.155" width="409" height="401" fill="black">
<rect fill="white" x="45.0935" y="106.155" width="409" height="401"/>
<path fill-rule="evenodd" clip-rule="evenodd" d="M252.725 140.65C235.962 129.805 203.252 117.832 160.605 135.125C159.295 135.656 158.928 137.347 159.912 138.362C171.458 150.261 190.817 172.943 206.074 198.14C197.598 230.233 192.201 288.683 190.761 347.322C168.939 342.877 149.571 332.449 144.136 310.274C137.515 283.262 144.22 269.715 151.026 255.964C156.679 244.543 162.401 232.981 160.617 213.447C160.464 211.771 158.443 211.132 157.356 212.417C155.391 214.74 153.349 217.336 151.221 220.043C138.078 236.754 121.62 257.68 99.3576 244.774C96.1355 242.87 78.2673 232.344 69.096 227.104C67.7112 226.313 65.9975 227.394 66.0977 228.986C66.9379 242.337 69.5472 271.096 99.3576 278.774C118.797 283.782 122.599 307.937 126.263 331.22C128.859 347.715 131.387 363.773 139.358 372.274C147.662 382.314 166.342 398.311 190.687 405.755C191.17 425.989 192.211 445.085 193.854 461.796C194.48 468.162 198 473.91 203.769 476.673C224.772 486.733 261.936 495.243 292.984 471.802L303.718 412.002L325.544 408.782L346.476 406.456C347.341 417.212 347.986 426.554 348.539 434.555C350.089 457.002 350.91 468.889 353.811 471.802C364.648 487.21 393.949 479.284 411.577 473.109C419.215 470.433 424.634 463.396 425.609 455.362C450.16 253.064 410.87 168.557 383.547 143.335C363.713 125.027 298.864 117.357 252.725 140.65Z"/>
</mask>
<path d="M252.725 140.65L241.861 157.442C247.827 161.302 255.394 161.706 261.738 158.504L252.725 140.65ZM160.605 135.125L153.09 116.591L153.089 116.591L160.605 135.125ZM159.912 138.362L174.267 124.435L174.266 124.435L159.912 138.362ZM206.074 198.14L225.411 203.247C226.796 198.003 225.991 192.421 223.182 187.781L206.074 198.14ZM190.761 347.322L186.769 366.92C192.568 368.101 198.593 366.653 203.222 362.966C207.851 359.278 210.609 353.73 210.755 347.813L190.761 347.322ZM144.136 310.274L124.711 315.035L124.711 315.035L144.136 310.274ZM151.026 255.964L168.951 264.836L168.951 264.836L151.026 255.964ZM160.617 213.447L140.7 215.266L140.7 215.266L160.617 213.447ZM157.356 212.417L142.085 199.502L142.085 199.502L157.356 212.417ZM151.221 220.043L166.941 232.406L151.221 220.043ZM99.3576 244.774L89.183 261.993C89.2309 262.021 89.2789 262.049 89.327 262.077L99.3576 244.774ZM69.096 227.104L79.0163 209.738L79.0162 209.738L69.096 227.104ZM66.0977 228.986L46.1372 230.242L66.0977 228.986ZM99.3576 278.774L104.346 259.407L99.3576 278.774ZM126.263 331.22L106.507 334.329L126.263 331.22ZM139.358 372.274L154.769 359.527C154.505 359.208 154.231 358.897 153.947 358.595L139.358 372.274ZM190.687 405.755L210.682 405.279C210.476 396.664 204.776 389.149 196.535 386.629L190.687 405.755ZM193.854 461.796L173.95 463.753L173.95 463.753L193.854 461.796ZM203.769 476.673L212.409 458.636L212.409 458.636L203.769 476.673ZM292.984 471.802L305.035 487.763C309.054 484.729 311.78 480.291 312.669 475.335L292.984 471.802ZM303.718 412.002L300.799 392.216C292.3 393.47 285.551 400.012 284.033 408.469L303.718 412.002ZM325.544 408.782L323.336 388.904C323.098 388.931 322.862 388.961 322.625 388.996L325.544 408.782ZM346.476 406.456L366.412 404.853C365.978 399.461 363.379 394.474 359.206 391.031C355.034 387.587 349.644 385.981 344.268 386.578L346.476 406.456ZM348.539 434.555L328.586 435.933L348.539 434.555ZM353.811 471.802L370.17 460.296C369.516 459.366 368.783 458.493 367.981 457.687L353.811 471.802ZM411.577 473.109L404.965 454.234L404.965 454.234L411.577 473.109ZM425.609 455.362L445.463 457.772V457.772L425.609 455.362ZM383.547 143.335L397.112 128.639V128.639L383.547 143.335ZM263.588 123.858C242.528 110.233 202.974 96.363 153.09 116.591L168.121 153.66C203.531 139.301 229.396 149.378 241.861 157.442L263.588 123.858ZM153.089 116.591C138.821 122.377 134.552 140.945 145.558 152.289L174.266 124.435C183.304 133.749 179.77 148.936 168.121 153.66L153.089 116.591ZM145.558 152.289C156.333 163.394 174.672 184.894 188.965 208.499L223.182 187.781C206.961 160.993 186.583 137.129 174.267 124.435L145.558 152.289ZM186.737 193.033C177.627 227.528 172.213 287.96 170.767 346.831L210.755 347.813C212.19 289.405 217.569 232.938 225.411 203.247L186.737 193.033ZM194.752 327.725C175.641 323.832 166.21 316.321 163.561 305.513L124.711 315.035C132.932 348.578 162.237 361.923 186.769 366.92L194.752 327.725ZM163.561 305.513C160.843 294.421 161.115 287.274 162.156 282.075C163.27 276.52 165.455 271.898 168.951 264.836L133.101 247.092C129.791 253.781 125.222 262.809 122.936 274.217C120.579 285.983 120.809 299.115 124.711 315.035L163.561 305.513ZM168.951 264.836C174.934 252.747 182.848 236.958 180.534 211.627L140.7 215.266C141.955 229.005 138.423 236.34 133.101 247.092L168.951 264.836ZM180.534 211.628C178.77 192.319 154.655 184.639 142.085 199.502L172.627 225.332C162.231 237.625 142.157 231.222 140.7 215.266L180.534 211.628ZM142.085 199.502C139.847 202.148 137.576 205.039 135.5 207.679L166.941 232.406C169.122 229.633 170.935 227.332 172.627 225.332L142.085 199.502ZM135.5 207.679C128.411 216.693 122.98 223.288 117.596 226.886C115.278 228.436 113.934 228.724 113.338 228.774C112.978 228.804 111.82 228.881 109.388 227.472L89.327 262.077C98.0266 267.12 107.274 269.421 116.672 268.635C125.834 267.869 133.6 264.301 139.822 260.143C151.518 252.327 160.888 240.103 166.941 232.406L135.5 207.679ZM109.532 227.556C106.328 225.663 88.3356 215.062 79.0163 209.738L59.1756 244.471C68.199 249.625 85.9427 260.078 89.183 261.993L109.532 227.556ZM79.0162 209.738C63.6188 200.943 45.051 212.983 46.1372 230.242L86.0582 227.73C86.944 241.805 71.8037 251.684 59.1757 244.471L79.0162 209.738ZM46.1372 230.242C46.567 237.072 47.5275 250.862 53.671 264.315C60.2424 278.705 72.7067 292.563 94.3689 298.142L104.346 259.407C96.1981 257.308 92.4526 252.946 90.0567 247.699C87.2328 241.516 86.4686 234.251 86.0582 227.73L46.1372 230.242ZM94.3689 298.142C95.4791 298.428 97.5633 299.102 100.162 305.585C102.991 312.641 104.576 322.063 106.507 334.329L146.02 328.11C144.286 317.094 142.138 302.796 137.29 290.702C132.212 278.035 122.676 264.128 104.346 259.407L94.3689 298.142ZM106.507 334.329C107.761 342.302 109.202 351.605 111.504 360.022C113.75 368.236 117.445 378.144 124.768 385.954L153.947 358.595C153.3 357.904 151.745 355.533 150.086 349.468C148.483 343.606 147.361 336.633 146.02 328.11L106.507 334.329ZM123.946 385.022C134.245 397.472 156.064 416.083 184.84 424.881L196.535 386.629C176.619 380.54 161.079 367.156 154.769 359.527L123.946 385.022ZM170.693 406.232C171.184 426.818 172.247 446.427 173.95 463.753L213.758 459.84C212.176 443.744 211.156 425.159 210.682 405.279L170.693 406.232ZM173.95 463.753C175.156 476.025 182.151 488.495 195.13 494.711L212.409 458.636C213.039 458.937 213.447 459.372 213.641 459.669C213.808 459.926 213.774 460.003 213.758 459.84L173.95 463.753ZM195.129 494.711C218.877 506.086 265.16 517.869 305.035 487.763L280.933 455.84C258.712 472.617 230.667 467.381 212.409 458.636L195.129 494.711ZM312.669 475.335L323.404 415.536L284.033 408.469L273.299 468.268L312.669 475.335ZM306.637 431.788L328.464 428.568L322.625 388.996L300.799 392.216L306.637 431.788ZM327.753 428.66L348.685 426.334L344.268 386.578L323.336 388.904L327.753 428.66ZM326.541 408.059C327.395 418.69 328.034 427.93 328.586 435.933L368.491 433.177C367.939 425.179 367.287 415.734 366.412 404.853L326.541 408.059ZM328.586 435.933C329.344 446.903 329.975 456.149 330.82 462.965C331.242 466.366 331.802 469.919 332.681 473.152C333.374 475.703 335.057 481.314 339.642 485.917L367.981 457.687C371.115 460.833 371.607 463.866 371.282 462.667C371.142 462.151 370.856 460.784 370.516 458.042C369.838 452.575 369.284 444.654 368.491 433.177L328.586 435.933ZM337.452 483.308C349.302 500.156 369.193 501.44 381.663 500.492C395.237 499.46 408.979 495.211 418.189 491.984L404.965 454.234C396.547 457.183 386.824 459.984 378.631 460.607C369.335 461.313 369.157 458.855 370.17 460.296L337.452 483.308ZM418.189 491.984C433.366 486.668 443.616 472.994 445.463 457.772L405.755 452.953C405.715 453.278 405.575 453.622 405.358 453.897C405.151 454.161 404.988 454.226 404.965 454.234L418.189 491.984ZM445.463 457.772C457.919 355.137 454.341 281.17 443.623 228.925C432.979 177.046 414.965 145.119 397.112 128.639L369.981 158.031C379.451 166.773 394.744 189.71 404.439 236.964C414.058 283.853 417.85 353.289 405.755 452.953L445.463 457.772ZM397.112 128.639C389.055 121.201 378.091 116.156 367.07 112.789C355.707 109.317 342.665 107.14 329.057 106.42C302.074 104.992 270.654 109.195 243.712 122.796L261.738 158.504C280.935 148.813 305.009 145.204 326.943 146.364C337.794 146.939 347.568 148.656 355.383 151.044C363.542 153.536 368.122 156.315 369.981 158.031L397.112 128.639Z" fill="black" mask="url(#path-12-outside-3_1_565)"/>
</g>
<path d="M422.11 281.045C396.975 307.338 340.53 306.475 313.898 298.044C272.003 284.782 266.994 231.11 273.434 206.064C280.025 180.432 317.751 180.124 362.865 182.528C407.979 184.933 453.529 248.179 422.11 281.045Z" fill="#98C7DD" stroke="black" stroke-width="20"/>
<mask id="mask2_1_565" style="mask-type:alpha" maskUnits="userSpaceOnUse" x="261" y="171" width="182" height="143">
<path d="M422.11 281.045C396.975 307.338 340.53 306.475 313.898 298.044C272.003 284.782 266.994 231.11 273.434 206.064C280.025 180.432 317.751 180.124 362.865 182.528C407.979 184.933 453.529 248.179 422.11 281.045Z" fill="#98C7DD" stroke="#3D3436" stroke-width="20"/>
</mask>
<g mask="url(#mask2_1_565)">
<path d="M388.476 215.924C382.752 206.192 349.73 204.474 334.225 204.474C330.886 204.474 324.493 206.907 325.638 216.64C327.069 228.805 360.703 235.246 375.731 235.246C390.759 235.246 395.633 228.09 388.476 215.924Z" fill="#FBFDFD" fill-opacity="0.85"/>
<path d="M321.924 256.714C300.44 252.686 291.343 210.233 289.316 184.909C289.085 182.026 287.232 179.507 284.51 178.53L270.671 173.562C266.009 171.888 261.097 175.329 261.097 180.283V341.872C261.097 348.501 362.369 345.003 418.337 342.177C421.778 342.004 424.586 339.396 425.04 335.981L435.326 258.563C436.199 251.996 427.511 246.689 421.351 249.127C390.47 261.353 340.638 260.223 321.924 256.714Z" fill="#4B646E" fill-opacity="0.55"/>
<path d="M422.11 281.045C396.975 307.338 340.53 306.475 313.898 298.044C272.003 284.782 266.994 231.11 273.434 206.064C280.025 180.432 317.751 180.124 362.865 182.528C407.979 184.933 453.529 248.179 422.11 281.045Z" stroke="black" stroke-width="20"/>
</g>
<path d="M176.136 232.774C175.42 229.551 174.65 214.86 174.258 205.72C174.197 204.307 175.586 203.289 176.919 203.762L187.592 207.549C188.693 207.94 189.226 209.187 188.748 210.253L178.636 232.774" stroke="black" stroke-width="15" stroke-linecap="round"/>
</svg>
