<svg width="501" height="551" viewBox="0 0 501 551" fill="none" xmlns="http://www.w3.org/2000/svg">
<path d="M211 69.4966L256.252 109.123C257.77 110.452 258.64 112.371 258.64 114.389V129.019V138.858C258.64 145.967 264.403 151.73 271.512 151.73C278.621 151.73 284.383 145.967 284.383 138.858V129.019V113.875C284.383 112.033 285.109 110.265 286.404 108.955L327.639 67.2232C338.338 56.3952 330.506 38.043 315.286 38.2766L221.938 39.709C206.374 39.9479 199.289 59.242 211 69.4966Z" stroke="black" stroke-width="10"/>
<path fill-rule="evenodd" clip-rule="evenodd" d="M259.546 105.361L214.293 65.7349C206.027 58.4964 211.029 44.877 222.015 44.7084L315.362 43.276C326.106 43.1111 331.634 56.0656 324.082 63.7089L282.847 105.441C280.628 107.687 279.383 110.717 279.383 113.875V129.019V138.858C279.383 143.206 275.859 146.73 271.512 146.73C267.164 146.73 263.64 143.206 263.64 138.858V129.019V114.389C263.64 110.93 262.148 107.64 259.546 105.361ZM241.155 67.2763L267.336 86.8863C269.201 88.2837 271.785 88.2066 273.564 86.7003L296.724 67.0903C300.278 64.081 298.15 58.2744 293.493 58.2744H244.152C239.345 58.2744 237.307 64.3947 241.155 67.2763Z" fill="#4B61A5"/>
<path d="M240.975 70.514L264.865 88.1584C268.204 90.6238 272.795 90.4871 275.98 87.8275L297.114 70.1831C303.572 64.7909 299.759 54.2744 291.346 54.2744H246.322C237.64 54.2744 233.991 65.3556 240.975 70.514Z" stroke="black" stroke-width="8"/>
<path d="M113.964 418.571C127.928 423.442 142.706 421.384 154.797 418.038C168.141 414.344 177.213 401.855 178.765 388.096L194.249 250.835C196.643 229.62 180.227 208.128 158.903 207.088C143.086 206.315 126.433 207.196 116.443 213.19C80.1505 234.965 83.1929 407.837 113.964 418.571Z" fill="#4B61A5" stroke="black" stroke-width="21.4684"/>
<mask id="mask0_1_983" style="mask-type:alpha" maskUnits="userSpaceOnUse" x="79" y="196" width="127" height="237">
<path d="M113.964 418.571C127.928 423.442 142.706 421.384 154.797 418.038C168.141 414.344 177.213 401.855 178.765 388.096L194.249 250.835C196.643 229.62 180.227 208.128 158.903 207.088C143.086 206.315 126.433 207.196 116.443 213.19C80.1505 234.965 83.1929 407.837 113.964 418.571Z" fill="#E453BD" stroke="#63114C" stroke-width="21.4684"/>
</mask>
<g mask="url(#mask0_1_983)">
<path d="M173.692 258.274C128.465 244.534 70.8821 269.723 47.7439 284.036C47.7439 357.315 81.1392 435.269 97.8368 465.086H173.692V258.274Z" fill="#2D3F75" fill-opacity="0.55"/>
<path d="M113.964 418.571C127.928 423.442 142.706 421.384 154.797 418.038C168.141 414.344 177.213 401.855 178.765 388.096L194.249 250.835C196.643 229.62 180.227 208.128 158.903 207.088C143.086 206.315 126.433 207.196 116.443 213.19C80.1505 234.965 83.1929 407.837 113.964 418.571Z" stroke="black" stroke-width="21.4684"/>
</g>
<path d="M167.252 193.868C149.984 237.902 142.772 384.745 151.133 469.796C151.758 476.162 155.279 481.91 161.048 484.673C182.05 494.733 219.215 503.243 250.263 479.802L260.997 420.002L282.823 416.782L303.755 414.456C307.047 455.389 307.154 475.851 311.09 479.802C321.927 495.21 351.227 487.284 368.856 481.109C376.494 478.433 381.913 471.396 382.888 463.362C407.439 261.064 368.148 176.557 340.825 151.335C312.916 125.573 195.876 120.876 167.252 193.868Z" fill="#4B61A5"/>
<path d="M324.687 412.13L303.755 414.456M303.755 414.456L282.823 416.782L260.997 420.002L250.263 479.802C219.215 503.243 182.05 494.733 161.048 484.673C155.279 481.91 151.758 476.162 151.133 469.796C142.772 384.745 149.984 237.902 167.252 193.868C195.876 120.876 312.916 125.573 340.825 151.335C368.148 176.557 407.439 261.064 382.888 463.362C381.913 471.396 376.494 478.433 368.856 481.109C351.227 487.284 321.927 495.21 311.09 479.802C307.154 475.851 307.047 455.389 303.755 414.456Z" stroke="black" stroke-width="21.4684" stroke-linecap="round" stroke-linejoin="round"/>
<mask id="mask1_1_983" style="mask-type:alpha" maskUnits="userSpaceOnUse" x="136" y="123" width="266" height="383">
<path d="M167.252 193.868C149.984 237.902 142.772 384.745 151.133 469.796C151.758 476.162 155.279 481.91 161.048 484.673C182.05 494.733 219.215 503.243 250.263 479.802L260.997 420.002L282.823 416.782L303.755 414.456C307.047 455.389 307.154 475.851 311.09 479.802C321.927 495.21 351.227 487.284 368.856 481.109C376.494 478.433 381.913 471.396 382.888 463.362C407.439 261.064 368.148 176.557 340.825 151.335C312.916 125.573 195.876 120.876 167.252 193.868Z" fill="#E752BE"/>
<path d="M324.687 412.13L303.755 414.456M303.755 414.456L282.823 416.782L260.997 420.002L250.263 479.802C219.215 503.243 182.05 494.733 161.048 484.673C155.279 481.91 151.758 476.162 151.133 469.796C142.772 384.745 149.984 237.902 167.252 193.868C195.876 120.876 312.916 125.573 340.825 151.335C368.148 176.557 407.439 261.064 382.888 463.362C381.913 471.396 376.494 478.433 368.856 481.109C351.227 487.284 321.927 495.21 311.09 479.802C307.154 475.851 307.047 455.389 303.755 414.456Z" stroke="#63114C" stroke-width="21.4684" stroke-linecap="round" stroke-linejoin="round"/>
</mask>
<g mask="url(#mask1_1_983)">
<path d="M339.714 376.35C364.904 366.045 381.22 324.11 385.514 293.339L393.385 546.666H138.627V138.051H202.317C166.536 225.355 175.839 316.238 211.62 364.9C234.389 395.867 308.227 389.231 339.714 376.35Z" fill="#2D3F75" fill-opacity="0.55"/>
<path d="M324.687 412.13L303.755 414.456M303.755 414.456L282.823 416.782L260.997 420.002L250.263 479.802C219.215 503.243 182.05 494.733 161.048 484.673C155.279 481.91 151.758 476.162 151.133 469.796C142.772 384.745 149.984 237.902 167.252 193.868C195.876 120.876 312.916 125.573 340.825 151.335C368.148 176.557 407.439 261.064 382.888 463.362C381.913 471.396 376.494 478.433 368.856 481.109C351.227 487.284 321.927 495.21 311.09 479.802C307.154 475.851 307.047 455.389 303.755 414.456Z" stroke="black" stroke-width="21.4684" stroke-linecap="round" stroke-linejoin="round"/>
</g>
<path d="M399.11 289.045C373.975 315.338 317.53 314.475 290.898 306.044C249.003 292.782 243.994 239.11 250.434 214.064C257.025 188.432 294.751 188.124 339.865 190.528C384.979 192.933 430.529 256.179 399.11 289.045Z" fill="#98C7DD" stroke="black" stroke-width="20"/>
<mask id="mask2_1_983" style="mask-type:alpha" maskUnits="userSpaceOnUse" x="238" y="179" width="182" height="143">
<path d="M399.11 289.045C373.975 315.338 317.53 314.475 290.898 306.044C249.003 292.782 243.994 239.11 250.434 214.064C257.025 188.432 294.751 188.124 339.865 190.528C384.979 192.933 430.529 256.179 399.11 289.045Z" fill="#98C7DD" stroke="#3D3436" stroke-width="20"/>
</mask>
<g mask="url(#mask2_1_983)">
<path d="M365.476 223.924C359.752 214.192 326.73 212.474 311.225 212.474C307.886 212.474 301.493 214.907 302.638 224.64C304.069 236.805 337.703 243.246 352.731 243.246C367.759 243.246 372.633 236.09 365.476 223.924Z" fill="#FBFDFD" fill-opacity="0.85"/>
<path d="M298.924 264.714C277.44 260.686 268.343 218.233 266.316 192.909C266.085 190.026 264.232 187.507 261.51 186.53L247.671 181.562C243.009 179.888 238.097 183.329 238.097 188.283V349.872C238.097 356.501 339.369 353.002 395.337 350.177C398.778 350.004 401.586 347.396 402.04 343.981L412.326 266.563C413.199 259.996 404.511 254.689 398.351 257.127C367.47 269.353 317.638 268.223 298.924 264.714Z" fill="#4B646E" fill-opacity="0.55"/>
<path d="M399.11 289.045C373.975 315.338 317.53 314.475 290.898 306.044C249.003 292.782 243.994 239.11 250.434 214.064C257.025 188.432 294.751 188.124 339.865 190.528C384.979 192.933 430.529 256.179 399.11 289.045Z" stroke="black" stroke-width="20"/>
</g>
<path d="M287.136 345.303V380.025C287.136 386.882 292.872 392.344 299.721 392.01L325.977 390.73L352.721 389.426C359.103 389.115 364.136 383.856 364.136 377.446V346.782C364.136 340.609 359.435 335.422 353.254 334.865C323.821 332.208 303.891 333.409 295.976 334.663C290.068 335.599 287.136 340.713 287.136 345.303Z" fill="#BCC0DD" stroke="black" stroke-width="14"/>
</svg>
