<svg width="500" height="501" viewBox="0 0 500 501" fill="none" xmlns="http://www.w3.org/2000/svg">
<path d="M113.828 355.571C127.792 360.442 142.57 358.384 154.66 355.038C168.005 351.344 177.077 338.855 178.629 325.096L194.113 187.835C196.506 166.62 180.091 145.128 158.767 144.088C142.95 143.316 126.296 144.196 116.306 150.19C80.0142 171.965 83.0567 344.837 113.828 355.571Z" fill="#207B13" stroke="black" stroke-width="21.4684"/>
<mask id="mask0_1_268" style="mask-type:alpha" maskUnits="userSpaceOnUse" x="79" y="133" width="127" height="237">
<path d="M113.828 355.571C127.792 360.442 142.57 358.384 154.66 355.038C168.005 351.344 177.077 338.855 178.629 325.096L194.113 187.835C196.506 166.62 180.091 145.128 158.767 144.088C142.95 143.316 126.296 144.196 116.306 150.19C80.0142 171.965 83.0567 344.837 113.828 355.571Z" fill="#E453BD" stroke="#63114C" stroke-width="21.4684"/>
</mask>
<g mask="url(#mask0_1_268)">
<path d="M173.556 195.274C128.329 181.534 70.7458 206.723 47.6077 221.036C47.6077 294.315 81.003 372.269 97.7006 402.086H173.556V195.274Z" fill="#0F4B29" fill-opacity="0.55"/>
<path d="M113.828 355.571C127.792 360.442 142.57 358.384 154.66 355.038C168.005 351.344 177.077 338.855 178.629 325.096L194.113 187.835C196.506 166.62 180.091 145.128 158.767 144.088C142.95 143.316 126.296 144.196 116.306 150.19C80.0142 171.965 83.0567 344.837 113.828 355.571Z" stroke="black" stroke-width="21.4684"/>
</g>
<path d="M167.115 130.868C149.847 174.902 142.636 321.745 150.996 406.796C151.622 413.162 155.143 418.91 160.912 421.673C181.914 431.733 219.078 440.243 250.126 416.802L260.861 357.002L282.687 353.782L303.619 351.456C306.91 392.389 307.018 412.851 310.954 416.802C321.791 432.21 351.091 424.284 368.719 418.109C376.357 415.433 381.776 408.396 382.751 400.362C407.303 198.064 368.012 113.557 340.689 88.3352C312.78 62.5731 195.74 57.8757 167.115 130.868Z" fill="#207B13"/>
<path d="M324.55 349.13L303.619 351.456M303.619 351.456L282.687 353.782L260.861 357.002L250.126 416.802C219.078 440.243 181.914 431.733 160.912 421.673C155.143 418.91 151.622 413.162 150.996 406.796C142.636 321.745 149.847 174.902 167.115 130.868C195.74 57.8757 312.78 62.5731 340.689 88.3352C368.012 113.557 407.303 198.064 382.751 400.362C381.776 408.396 376.357 415.433 368.719 418.109C351.091 424.284 321.791 432.21 310.954 416.802C307.018 412.851 306.91 392.389 303.619 351.456Z" stroke="black" stroke-width="21.4684" stroke-linecap="round" stroke-linejoin="round"/>
<mask id="mask1_1_268" style="mask-type:alpha" maskUnits="userSpaceOnUse" x="136" y="60" width="266" height="383">
<path d="M167.115 130.868C149.847 174.902 142.636 321.745 150.996 406.796C151.622 413.162 155.143 418.91 160.912 421.673C181.914 431.733 219.078 440.243 250.126 416.802L260.861 357.002L282.687 353.782L303.619 351.456C306.91 392.389 307.018 412.851 310.954 416.802C321.791 432.21 351.091 424.284 368.719 418.109C376.357 415.433 381.776 408.396 382.751 400.362C407.303 198.064 368.012 113.557 340.689 88.3352C312.78 62.5731 195.74 57.8757 167.115 130.868Z" fill="#E752BE"/>
<path d="M324.55 349.13L303.619 351.456M303.619 351.456L282.687 353.782L260.861 357.002L250.126 416.802C219.078 440.243 181.914 431.733 160.912 421.673C155.143 418.91 151.622 413.162 150.996 406.796C142.636 321.745 149.847 174.902 167.115 130.868C195.74 57.8757 312.78 62.5731 340.689 88.3352C368.012 113.557 407.303 198.064 382.751 400.362C381.776 408.396 376.357 415.433 368.719 418.109C351.091 424.284 321.791 432.21 310.954 416.802C307.018 412.851 306.91 392.389 303.619 351.456Z" stroke="#63114C" stroke-width="21.4684" stroke-linecap="round" stroke-linejoin="round"/>
</mask>
<g mask="url(#mask1_1_268)">
<path d="M339.578 313.35C364.768 303.045 381.084 261.11 385.377 230.339L393.249 483.666H138.491V75.0505H202.18C166.4 162.355 175.703 253.238 211.483 301.9C234.253 332.867 308.091 326.231 339.578 313.35Z" fill="#0F4B29" fill-opacity="0.55"/>
<path d="M324.55 349.13L303.619 351.456M303.619 351.456L282.687 353.782L260.861 357.002L250.126 416.802C219.078 440.243 181.914 431.733 160.912 421.673C155.143 418.91 151.622 413.162 150.996 406.796C142.636 321.745 149.847 174.902 167.115 130.868C195.74 57.8757 312.78 62.5731 340.689 88.3352C368.012 113.557 407.303 198.064 382.751 400.362C381.776 408.396 376.357 415.433 368.719 418.109C351.091 424.284 321.791 432.21 310.954 416.802C307.018 412.851 306.91 392.389 303.619 351.456Z" stroke="black" stroke-width="21.4684" stroke-linecap="round" stroke-linejoin="round"/>
</g>
<path d="M398.974 226.045C373.839 252.338 317.394 251.475 290.762 243.044C248.867 229.782 243.858 176.11 250.298 151.064C256.889 125.432 294.615 125.124 339.729 127.528C384.843 129.933 430.393 193.179 398.974 226.045Z" fill="#98C7DD" stroke="black" stroke-width="21.4684"/>
<mask id="mask2_1_268" style="mask-type:alpha" maskUnits="userSpaceOnUse" x="237" y="115" width="184" height="145">
<path d="M398.974 226.045C373.839 252.338 317.394 251.475 290.762 243.044C248.867 229.782 243.858 176.11 250.298 151.064C256.889 125.432 294.615 125.124 339.729 127.528C384.843 129.933 430.393 193.179 398.974 226.045Z" fill="#98C7DD" stroke="#3D3436" stroke-width="21.4684"/>
</mask>
<g mask="url(#mask2_1_268)">
<path d="M365.34 160.924C359.615 151.192 326.594 149.474 311.089 149.474C307.75 149.474 301.357 151.907 302.502 161.64C303.933 173.805 337.567 180.246 352.595 180.246C367.623 180.246 372.496 173.09 365.34 160.924Z" fill="#FBFDFD" fill-opacity="0.85"/>
<path d="M298.788 201.714C277.304 197.686 268.207 155.233 266.18 129.909C265.949 127.026 264.096 124.507 261.374 123.53L247.535 118.562C242.873 116.888 237.961 120.329 237.961 125.283V286.872C237.961 293.501 339.233 290.003 395.201 287.177C398.642 287.004 401.45 284.396 401.904 280.981L412.19 203.563C413.062 196.996 404.375 191.689 398.215 194.127C367.334 206.353 317.502 205.223 298.788 201.714Z" fill="#4B646E" fill-opacity="0.55"/>
<path d="M398.974 226.045C373.839 252.338 317.394 251.475 290.762 243.044C248.867 229.782 243.858 176.11 250.298 151.064C256.889 125.432 294.615 125.124 339.729 127.528C384.843 129.933 430.393 193.179 398.974 226.045Z" stroke="black" stroke-width="21.4684"/>
</g>
</svg>
