<svg width="500" height="501" viewBox="0 0 500 501" fill="none" xmlns="http://www.w3.org/2000/svg">
<path d="M248 398.049V244.549L110.5 186.549V334.904V341.049L248 398.049Z" fill="#834B21"/>
<path d="M248 244.549V398.049L402.5 341.212V314.549V186.549L248 244.549Z" fill="#BC732E"/>
<path d="M110.5 186.549L248 244.549L402.5 186.549L265 120.049L110.5 186.549Z" fill="#E0A86D"/>
<path d="M240.5 403.059V408.799L247.837 406.1L255.5 409.277V403.281L405.089 348.25L410 346.444V341.212V314.549V191.744L421.524 187.418L410 181.845V175.722L402.873 178.398L268.265 113.297L265.181 111.805L262.035 113.16L110.47 178.396L103 175.245V181.612L91.3678 186.618L103 191.525V334.904V341.049V346.059L107.628 347.977L240.5 403.059Z" stroke="black" stroke-width="15"/>
<path d="M248 398.049V244.549L110.5 186.549V334.904V341.049L248 398.049Z" fill="#834B21"/>
<path d="M248 244.549V398.049L402.5 341.212V314.549V186.549L248 244.549Z" fill="#BC732E"/>
<path d="M110.5 186.549L248 244.549L402.5 186.549L265 120.049L110.5 186.549Z" fill="#E0A86D"/>
<path fill-rule="evenodd" clip-rule="evenodd" d="M248 244.549L110.5 186.549L187.75 153.299L306.5 222.588L248 244.549ZM354.5 204.568L402.5 186.549L265 120.049L234 133.392L354.5 204.568Z" fill="#E0A86D"/>
<path d="M187.75 153.299L306.5 222.588L354.5 204.568L234 133.392L187.75 153.299Z" fill="#0CA6DF"/>
<path fill-rule="evenodd" clip-rule="evenodd" d="M248 321.299V244.549L306.5 222.588V274.549L356.5 258.049L354.5 204.568L402.5 186.549V314.549V341.212L248 398.049V321.299Z" fill="#BC732E"/>
<path d="M354.5 204.568L306.5 222.588V274.549L356.5 258.049L354.5 204.568Z" fill="#0E6A9A"/>
<path d="M380.48 265.186C375.628 262.275 367.276 270.018 363.279 274.729C362.98 275.081 362.805 275.526 362.748 275.984C362.731 276.127 362.722 276.256 362.74 276.36C362.763 276.49 362.876 276.58 363 276.624C365.116 277.365 371.798 270.23 376.696 270.23C381.741 270.23 378.588 284.734 381.11 284.734C381.741 284.734 386.786 268.969 380.48 265.186Z" fill="#1B233B"/>
<path d="M372.447 275.753C334.781 314.197 295.244 312.747 285.967 312.012C284.866 311.925 284.521 312.585 285.475 313.14C289.756 315.63 303.43 319.889 327.51 313.741C357.148 306.174 372.913 282.211 374.805 278.428C376.076 275.885 374.766 275.241 373.567 275.225C373.14 275.219 372.745 275.448 372.447 275.753Z" fill="#1B233B"/>
</svg>
