<svg width="500" height="501" viewBox="0 0 500 501" fill="none" xmlns="http://www.w3.org/2000/svg">
<path d="M277.674 373.813C282.535 365.858 294.777 354.721 304.853 373.813" stroke="black" stroke-width="1.98872" stroke-linecap="round"/>
<path d="M284.07 378.91C269.534 365.279 259.846 371.111 256.792 375.801C252.152 383.425 257.842 388.397 261.101 389.391C276.047 393.951 282.704 385.563 284.425 380.181C284.569 379.729 284.416 379.235 284.07 378.91Z" fill="black" stroke="black" stroke-width="1.98872"/>
<ellipse cx="245.812" cy="385.636" rx="11.2694" ry="7.29196" transform="rotate(-12.1666 245.812 385.636)" fill="black"/>
<ellipse cx="218.431" cy="380.764" rx="21.2572" ry="13.7546" transform="rotate(16.4622 218.431 380.764)" fill="black"/>
<path d="M239.225 391.048V398.234C239.225 398.872 239.68 399.42 240.307 399.537L243.693 400.172C244.202 400.268 244.609 400.651 244.735 401.154L247.592 412.583C247.739 413.173 248.27 413.587 248.878 413.587H254.803" stroke="black" stroke-width="1.98872" stroke-linecap="round"/>
<path d="M249.5 390.054L252.462 396.568C252.677 397.042 253.149 397.346 253.668 397.346H260.203C260.746 397.346 261.233 397.676 261.434 398.179L266.734 411.428C266.935 411.931 267.423 412.261 267.965 412.261H271.708" stroke="black" stroke-width="1.98872" stroke-linecap="round"/>
<path d="M236.242 389.391L231 397.408C230.755 397.783 230.338 398.009 229.89 398.009H225.908C225.347 398.009 224.847 398.362 224.659 398.89L219.983 412.042C219.795 412.571 219.295 412.924 218.734 412.924H214.366" stroke="black" stroke-width="1.98872" stroke-linecap="round"/>
<path d="M278.668 377.127C281.32 374.144 287.75 368.841 292.258 371.492C296.765 374.144 300.765 380.552 302.201 383.425" stroke="black" stroke-width="1.98872" stroke-linecap="round"/>
<mask id="path-9-outside-1_1_1187" maskUnits="userSpaceOnUse" x="172.492" y="85.5488" width="156" height="191" fill="black">
<rect fill="white" x="172.492" y="85.5488" width="156" height="191"/>
<path fill-rule="evenodd" clip-rule="evenodd" d="M257.886 249.204C257.167 247.96 257.956 246.382 259.371 246.133C289.448 240.838 312.508 210.447 312.508 173.749C312.508 133.322 284.522 100.549 250 100.549C215.478 100.549 187.492 133.322 187.492 173.749C187.492 210.739 210.92 241.321 241.348 246.254C242.778 246.486 243.588 248.076 242.863 249.331L237.541 258.549C236.772 259.882 237.734 261.549 239.273 261.549H261.549C263.089 261.549 264.051 259.882 263.281 258.549L257.886 249.204Z"/>
</mask>
<path fill-rule="evenodd" clip-rule="evenodd" d="M257.886 249.204C257.167 247.96 257.956 246.382 259.371 246.133C289.448 240.838 312.508 210.447 312.508 173.749C312.508 133.322 284.522 100.549 250 100.549C215.478 100.549 187.492 133.322 187.492 173.749C187.492 210.739 210.92 241.321 241.348 246.254C242.778 246.486 243.588 248.076 242.863 249.331L237.541 258.549C236.772 259.882 237.734 261.549 239.273 261.549H261.549C263.089 261.549 264.051 259.882 263.281 258.549L257.886 249.204Z" fill="#C51110"/>
<path d="M237.541 258.549L224.551 251.049L224.551 251.049L237.541 258.549ZM263.281 258.549L276.271 251.049L276.271 251.049L263.281 258.549ZM241.348 246.254L243.749 231.448L241.348 246.254ZM242.863 249.331L229.873 241.831L242.863 249.331ZM259.371 246.133L256.77 231.36L259.371 246.133ZM257.886 249.204L244.895 256.704L257.886 249.204ZM297.508 173.749C297.508 204.796 278.183 227.59 256.77 231.36L261.972 260.906C300.713 254.085 327.508 216.098 327.508 173.749H297.508ZM250 115.549C274.104 115.549 297.508 139.297 297.508 173.749H327.508C327.508 127.346 294.941 85.5488 250 85.5488V115.549ZM202.492 173.749C202.492 139.297 225.896 115.549 250 115.549V85.5488C205.059 85.5488 172.492 127.346 172.492 173.749H202.492ZM243.749 231.448C222.125 227.941 202.492 205.06 202.492 173.749H172.492C172.492 216.418 199.716 254.7 238.947 261.061L243.749 231.448ZM250.532 266.049L255.854 256.831L229.873 241.831L224.551 251.049L250.532 266.049ZM239.273 246.549C249.281 246.549 255.535 257.382 250.532 266.049L224.551 251.049C218.008 262.382 226.187 276.549 239.273 276.549V246.549ZM261.549 246.549H239.273V276.549H261.549V246.549ZM250.291 266.049C245.287 257.382 251.542 246.549 261.549 246.549V276.549C274.636 276.549 282.815 262.382 276.271 251.049L250.291 266.049ZM244.895 256.704L250.291 266.049L276.271 251.049L270.876 241.704L244.895 256.704ZM238.947 261.061C230.675 259.72 225.017 250.241 229.873 241.831L255.854 256.831C262.158 245.912 254.882 233.253 243.749 231.448L238.947 261.061ZM256.77 231.36C245.744 233.301 238.648 245.883 244.895 256.704L270.876 241.704C275.687 250.036 270.169 259.462 261.972 260.906L256.77 231.36Z" fill="black" mask="url(#path-9-outside-1_1_1187)"/>
<mask id="mask0_1_1187" style="mask-type:alpha" maskUnits="userSpaceOnUse" x="172" y="85" width="156" height="192">
<mask id="path-11-outside-2_1_1187" maskUnits="userSpaceOnUse" x="172.492" y="85.5488" width="156" height="191" fill="black">
<rect fill="white" x="172.492" y="85.5488" width="156" height="191"/>
<path fill-rule="evenodd" clip-rule="evenodd" d="M257.886 249.204C257.167 247.96 257.956 246.382 259.371 246.133C289.448 240.838 312.508 210.447 312.508 173.749C312.508 133.322 284.522 100.549 250 100.549C215.478 100.549 187.492 133.322 187.492 173.749C187.492 210.739 210.92 241.321 241.348 246.254C242.778 246.486 243.588 248.076 242.863 249.331L237.541 258.549C236.772 259.882 237.734 261.549 239.273 261.549H261.549C263.089 261.549 264.051 259.882 263.281 258.549L257.886 249.204Z"/>
</mask>
<path fill-rule="evenodd" clip-rule="evenodd" d="M257.886 249.204C257.167 247.96 257.956 246.382 259.371 246.133C289.448 240.838 312.508 210.447 312.508 173.749C312.508 133.322 284.522 100.549 250 100.549C215.478 100.549 187.492 133.322 187.492 173.749C187.492 210.739 210.92 241.321 241.348 246.254C242.778 246.486 243.588 248.076 242.863 249.331L237.541 258.549C236.772 259.882 237.734 261.549 239.273 261.549H261.549C263.089 261.549 264.051 259.882 263.281 258.549L257.886 249.204Z" fill="#C51110"/>
<path d="M237.541 258.549L224.551 251.049L224.551 251.049L237.541 258.549ZM263.281 258.549L276.271 251.049L276.271 251.049L263.281 258.549ZM241.348 246.254L243.749 231.448L241.348 246.254ZM242.863 249.331L229.873 241.831L242.863 249.331ZM259.371 246.133L256.77 231.36L259.371 246.133ZM257.886 249.204L244.895 256.704L257.886 249.204ZM297.508 173.749C297.508 204.796 278.183 227.59 256.77 231.36L261.972 260.906C300.713 254.085 327.508 216.098 327.508 173.749H297.508ZM250 115.549C274.104 115.549 297.508 139.297 297.508 173.749H327.508C327.508 127.346 294.941 85.5488 250 85.5488V115.549ZM202.492 173.749C202.492 139.297 225.896 115.549 250 115.549V85.5488C205.059 85.5488 172.492 127.346 172.492 173.749H202.492ZM243.749 231.448C222.125 227.941 202.492 205.06 202.492 173.749H172.492C172.492 216.418 199.716 254.7 238.947 261.061L243.749 231.448ZM250.532 266.049L255.854 256.831L229.873 241.831L224.551 251.049L250.532 266.049ZM239.273 246.549C249.281 246.549 255.535 257.382 250.532 266.049L224.551 251.049C218.008 262.382 226.187 276.549 239.273 276.549V246.549ZM261.549 246.549H239.273V276.549H261.549V246.549ZM250.291 266.049C245.287 257.382 251.542 246.549 261.549 246.549V276.549C274.636 276.549 282.815 262.382 276.271 251.049L250.291 266.049ZM244.895 256.704L250.291 266.049L276.271 251.049L270.876 241.704L244.895 256.704ZM238.947 261.061C230.675 259.72 225.017 250.241 229.873 241.831L255.854 256.831C262.158 245.912 254.882 233.253 243.749 231.448L238.947 261.061ZM256.77 231.36C245.744 233.301 238.648 245.883 244.895 256.704L270.876 241.704C275.687 250.036 270.169 259.462 261.972 260.906L256.77 231.36Z" fill="black" mask="url(#path-11-outside-2_1_1187)"/>
</mask>
<g mask="url(#mask0_1_1187)">
<path d="M290.503 206.198C306.224 200.852 316.407 179.099 319.087 163.136L324 294.549H165L168.433 68.5488C185.81 73.0379 200.868 83.5396 206.75 88.4405C207.35 88.9403 207.508 89.7927 207.167 90.4955C185.472 135.299 188.422 175.238 210.556 200.258C224.767 216.322 270.851 212.88 290.503 206.198Z" fill="#7B0939" fill-opacity="0.55"/>
<mask id="path-14-outside-3_1_1187" maskUnits="userSpaceOnUse" x="172.492" y="85.5488" width="156" height="191" fill="black">
<rect fill="white" x="172.492" y="85.5488" width="156" height="191"/>
<path fill-rule="evenodd" clip-rule="evenodd" d="M257.886 249.204C257.167 247.96 257.956 246.382 259.371 246.133C289.448 240.838 312.508 210.447 312.508 173.749C312.508 133.322 284.522 100.549 250 100.549C215.478 100.549 187.492 133.322 187.492 173.749C187.492 210.739 210.92 241.321 241.348 246.254C242.778 246.486 243.588 248.076 242.863 249.331L237.541 258.549C236.772 259.882 237.734 261.549 239.273 261.549H261.549C263.089 261.549 264.051 259.882 263.281 258.549L257.886 249.204Z"/>
</mask>
<path d="M237.541 258.549L224.551 251.049L224.551 251.049L237.541 258.549ZM263.281 258.549L276.271 251.049L276.271 251.049L263.281 258.549ZM241.348 246.254L243.749 231.448L241.348 246.254ZM242.863 249.331L229.873 241.831L242.863 249.331ZM259.371 246.133L256.77 231.36L259.371 246.133ZM257.886 249.204L244.895 256.704L257.886 249.204ZM297.508 173.749C297.508 204.796 278.183 227.59 256.77 231.36L261.972 260.906C300.713 254.085 327.508 216.098 327.508 173.749H297.508ZM250 115.549C274.104 115.549 297.508 139.297 297.508 173.749H327.508C327.508 127.346 294.941 85.5488 250 85.5488V115.549ZM202.492 173.749C202.492 139.297 225.896 115.549 250 115.549V85.5488C205.059 85.5488 172.492 127.346 172.492 173.749H202.492ZM243.749 231.448C222.125 227.941 202.492 205.06 202.492 173.749H172.492C172.492 216.418 199.716 254.7 238.947 261.061L243.749 231.448ZM250.532 266.049L255.854 256.831L229.873 241.831L224.551 251.049L250.532 266.049ZM239.273 246.549C249.281 246.549 255.535 257.382 250.532 266.049L224.551 251.049C218.008 262.382 226.187 276.549 239.273 276.549V246.549ZM261.549 246.549H239.273V276.549H261.549V246.549ZM250.291 266.049C245.287 257.382 251.542 246.549 261.549 246.549V276.549C274.636 276.549 282.815 262.382 276.271 251.049L250.291 266.049ZM244.895 256.704L250.291 266.049L276.271 251.049L270.876 241.704L244.895 256.704ZM238.947 261.061C230.675 259.72 225.017 250.241 229.873 241.831L255.854 256.831C262.158 245.912 254.882 233.253 243.749 231.448L238.947 261.061ZM256.77 231.36C245.744 233.301 238.648 245.883 244.895 256.704L270.876 241.704C275.687 250.036 270.169 259.462 261.972 260.906L256.77 231.36Z" fill="black" mask="url(#path-14-outside-3_1_1187)"/>
</g>
<path d="M251.742 270.549C247.742 280.382 242.142 303.449 251.742 317.049C263.742 334.049 264.742 354.549 251.742 370.049C247.014 375.687 245.689 381.676 246.058 387.049" stroke="black" stroke-width="5" stroke-linecap="round"/>
<path d="M288.5 151.049C291.609 162.049 296.375 162.049 299 159.049C302.5 155.049 289.571 128.23 282.551 121.084C280.701 118.739 276.4 115.249 274 120.049C271 126.049 282 128.049 288.5 151.049Z" fill="#FFD6EA" fill-opacity="0.55"/>
</svg>
