<svg width="500" height="501" viewBox="0 0 500 501" fill="none" xmlns="http://www.w3.org/2000/svg">
<path d="M262.585 428.192C276.385 424.707 270.4 399.63 264.431 384.074C263.458 381.537 260.575 380.369 258.059 381.395L242.471 387.755C240.414 388.594 239.145 390.684 239.462 392.882C241.649 408.063 248.554 431.736 262.585 428.192Z" fill="#5AC9E7" stroke="black" stroke-width="10"/>
<path d="M294.152 428.192C280.819 424.717 286.551 399.763 292.317 384.197C293.277 381.608 296.215 380.418 298.76 381.49L313.597 387.738C315.62 388.589 316.862 390.655 316.56 392.828C314.45 408.007 307.76 431.74 294.152 428.192Z" fill="#5AC9E7" stroke="black" stroke-width="10"/>
<path d="M244.549 141.465C228.666 149.386 215.736 187.566 214.161 217.58C213.998 220.689 216.814 223.046 219.879 222.499L309.49 206.499C312.427 205.975 314.262 203.007 313.257 200.198C299.834 162.687 264.797 131.367 244.549 141.465Z" fill="#5AC9E7" stroke="black" stroke-width="15"/>
<path d="M414.249 157.884C394 154.269 351.304 180.659 330.319 200.639C327.71 203.123 328.819 207.367 332.183 208.653C364.673 221.077 401.292 245.7 417.172 261.211C419.905 263.881 424.777 263.238 426.113 259.659C441.298 219.008 440.218 162.519 414.249 157.884Z" fill="#5AC9E7" stroke="black" stroke-width="15"/>
<mask id="path-5-outside-1_1_1266" maskUnits="userSpaceOnUse" x="60" y="170.2" width="380" height="260" fill="black">
<rect fill="white" x="60" y="170.2" width="380" height="260"/>
<path fill-rule="evenodd" clip-rule="evenodd" d="M202.035 255.571C243.156 177.889 367.097 139.339 417.264 275.547C437.661 330.926 414.903 363.812 373.459 381.553C371.677 382.316 370.661 384.219 370.971 386.133C372.805 397.439 371.56 407.661 362.595 409.826C353.731 411.967 347.496 404.505 343.371 394.799C342.581 392.941 340.603 391.848 338.628 392.269C300.63 400.363 255.247 400.591 213.638 396.303C211.787 396.112 210.056 397.218 209.365 398.946C205.24 409.253 199.086 417.033 190.419 414.735C183.194 412.82 180.982 405.162 181.356 395.767C181.44 393.656 180.001 391.748 177.919 391.386C154.844 387.377 134.328 382.095 118.794 376.268C116.811 375.524 114.598 376.419 113.539 378.253C109.617 385.054 104.412 389.317 97.7009 387.538C87.9962 384.966 87.3373 372.032 89.8384 358.443C89.8433 358.416 89.8386 358.388 89.8251 358.364C65.6849 315.962 74.9696 258.322 89.8251 258.322H197.543C199.439 258.322 201.148 257.247 202.035 255.571Z"/>
</mask>
<path fill-rule="evenodd" clip-rule="evenodd" d="M202.035 255.571C243.156 177.889 367.097 139.339 417.264 275.547C437.661 330.926 414.903 363.812 373.459 381.553C371.677 382.316 370.661 384.219 370.971 386.133C372.805 397.439 371.56 407.661 362.595 409.826C353.731 411.967 347.496 404.505 343.371 394.799C342.581 392.941 340.603 391.848 338.628 392.269C300.63 400.363 255.247 400.591 213.638 396.303C211.787 396.112 210.056 397.218 209.365 398.946C205.24 409.253 199.086 417.033 190.419 414.735C183.194 412.82 180.982 405.162 181.356 395.767C181.44 393.656 180.001 391.748 177.919 391.386C154.844 387.377 134.328 382.095 118.794 376.268C116.811 375.524 114.598 376.419 113.539 378.253C109.617 385.054 104.412 389.317 97.7009 387.538C87.9962 384.966 87.3373 372.032 89.8384 358.443C89.8433 358.416 89.8386 358.388 89.8251 358.364C65.6849 315.962 74.9696 258.322 89.8251 258.322H197.543C199.439 258.322 201.148 257.247 202.035 255.571Z" fill="#5AC9E7"/>
<path d="M417.264 275.547L403.189 280.732V280.732L417.264 275.547ZM202.035 255.571L215.292 262.588L215.292 262.588L202.035 255.571ZM362.595 409.826L366.116 424.407L362.595 409.826ZM190.419 414.735L186.575 429.235H186.575L190.419 414.735ZM97.7009 387.538L93.8577 402.037L93.8577 402.037L97.7009 387.538ZM89.8384 358.443L104.591 361.158L89.8384 358.443ZM118.794 376.268L124.062 362.223L118.794 376.268ZM113.539 378.253L126.533 385.748L113.539 378.253ZM213.638 396.303L212.1 411.224L213.638 396.303ZM209.365 398.946L195.439 393.373L209.365 398.946ZM343.371 394.799L329.566 400.666L343.371 394.799ZM338.628 392.269L335.503 377.598L338.628 392.269ZM181.356 395.767L166.368 395.171L181.356 395.767ZM177.919 391.386L175.351 406.165L177.919 391.386ZM373.459 381.553L367.556 367.764L373.459 381.553ZM370.971 386.133L385.778 383.731L370.971 386.133ZM431.34 270.363C418.037 234.246 399.367 208.44 377.189 191.991C354.902 175.462 329.927 169.031 305.437 170.372C257.127 173.018 211.475 205.675 188.778 248.553L215.292 262.588C233.716 227.785 270.595 202.325 307.077 200.328C324.984 199.347 342.97 203.963 359.317 216.087C375.772 228.291 391.408 248.745 403.189 280.732L431.34 270.363ZM379.363 395.343C402.07 385.622 421.648 370.911 432.079 349.147C442.632 327.127 442.501 300.667 431.34 270.363L403.189 280.732C412.424 305.806 411.113 323.478 405.025 336.182C398.815 349.14 386.293 359.743 367.556 367.764L379.363 395.343ZM366.116 424.407C376.984 421.783 382.928 413.734 385.263 405.502C387.348 398.154 386.83 390.22 385.778 383.731L356.165 388.535C356.529 390.777 356.696 392.713 356.697 394.307C356.697 395.934 356.523 396.888 356.402 397.313C356.29 397.708 356.344 397.242 356.998 396.544C357.753 395.739 358.622 395.354 359.073 395.245L366.116 424.407ZM329.566 400.666C332.017 406.434 335.685 413.059 341.275 417.997C347.44 423.443 356.097 426.827 366.116 424.407L359.073 395.245C359.292 395.193 359.899 395.134 360.613 395.341C361.24 395.523 361.408 395.753 361.136 395.513C360.836 395.248 360.254 394.628 359.493 393.443C358.745 392.276 357.958 390.772 357.176 388.933L329.566 400.666ZM212.1 411.224C254.639 415.608 301.709 415.47 341.753 406.94L335.503 377.598C299.551 385.257 255.855 385.574 215.176 381.382L212.1 411.224ZM195.439 393.373C194.632 395.389 193.817 397.046 193.039 398.337C192.245 399.653 191.636 400.342 191.327 400.632C191.043 400.9 191.278 400.584 192.08 400.339C193.001 400.058 193.841 400.124 194.262 400.236L186.575 429.235C196.94 431.982 205.797 428.198 211.863 422.502C217.327 417.371 220.895 410.506 223.291 404.52L195.439 393.373ZM194.262 400.236C194.763 400.369 195.481 400.708 196.126 401.309C196.718 401.86 196.888 402.295 196.851 402.208C196.799 402.087 196.613 401.571 196.475 400.501C196.338 399.447 196.276 398.073 196.344 396.363L166.368 395.171C166.14 400.896 166.589 407.678 169.225 413.905C172.125 420.754 177.75 426.895 186.575 429.235L194.262 400.236ZM113.526 390.312C130.189 396.563 151.669 402.05 175.351 406.165L180.487 376.608C158.019 372.704 138.466 367.626 124.062 362.223L113.526 390.312ZM93.8577 402.037C101.564 404.08 108.857 402.542 114.786 398.725C120.198 395.241 123.942 390.24 126.533 385.748L100.546 370.759C99.9303 371.826 99.3968 372.56 98.9898 373.032C98.5801 373.508 98.4111 373.588 98.5459 373.501C98.7176 373.39 99.1933 373.134 99.9226 373.01C100.675 372.881 101.267 372.965 101.544 373.039L93.8577 402.037ZM75.0862 355.727C73.7095 363.207 72.8615 372.062 74.4916 380.102C76.2096 388.576 81.4849 398.758 93.8577 402.037L101.544 373.039C102.336 373.249 103.272 373.843 103.874 374.618C104.309 375.178 104.119 375.253 103.893 374.141C103.393 371.673 103.466 367.267 104.591 361.158L75.0862 355.727ZM89.8251 243.322C82.728 243.322 77.3324 246.841 73.8653 250.373C70.4684 253.834 68.0794 258.08 66.3616 262.115C62.8971 270.254 60.8725 280.61 60.2277 291.56C58.9356 313.503 62.9863 341.54 76.7896 365.785L102.861 350.943C92.5237 332.786 89.1466 310.802 90.1758 293.324C90.6916 284.564 92.2648 277.859 93.9648 273.865C94.8293 271.835 95.4143 271.246 95.2743 271.389C95.0641 271.603 93.2083 273.322 89.8251 273.322V243.322ZM197.543 243.322H89.8251V273.322H197.543V243.322ZM188.778 248.553C190.372 245.543 193.634 243.322 197.543 243.322V273.322C205.245 273.322 211.924 268.951 215.292 262.588L188.778 248.553ZM104.591 361.158C105.237 357.646 104.618 354.031 102.863 350.946L76.7875 365.782C75.0597 362.745 74.4497 359.186 75.0862 355.727L104.591 361.158ZM124.062 362.223C114.635 358.687 104.955 363.115 100.546 370.759L126.533 385.748C124.24 389.723 118.987 392.361 113.526 390.312L124.062 362.223ZM215.176 381.382C206.301 380.467 198.482 385.768 195.439 393.373L223.291 404.52C221.63 408.669 217.273 411.757 212.1 411.224L215.176 381.382ZM357.176 388.933C353.729 380.822 344.873 375.602 335.503 377.598L341.753 406.94C336.333 408.095 331.433 405.06 329.566 400.666L357.176 388.933ZM196.344 396.363C196.706 387.275 190.495 378.347 180.487 376.608L175.351 406.165C169.508 405.15 166.174 400.036 166.368 395.171L196.344 396.363ZM367.556 367.764C359.274 371.309 354.78 379.999 356.165 388.535L385.778 383.731C386.541 388.44 384.081 393.323 379.363 395.343L367.556 367.764Z" fill="black" mask="url(#path-5-outside-1_1_1266)"/>
<mask id="mask0_1_1266" style="mask-type:alpha" maskUnits="userSpaceOnUse" x="60" y="170" width="380" height="261">
<mask id="path-7-outside-2_1_1266" maskUnits="userSpaceOnUse" x="60" y="170.2" width="380" height="260" fill="black">
<rect fill="white" x="60" y="170.2" width="380" height="260"/>
<path fill-rule="evenodd" clip-rule="evenodd" d="M202.035 255.571C243.156 177.889 367.097 139.339 417.264 275.547C437.661 330.926 414.903 363.812 373.459 381.553C371.677 382.316 370.661 384.219 370.971 386.133C372.805 397.439 371.56 407.661 362.595 409.826C353.731 411.967 347.496 404.505 343.371 394.799C342.581 392.941 340.603 391.848 338.628 392.269C300.63 400.363 255.247 400.591 213.638 396.303C211.787 396.112 210.056 397.218 209.365 398.946C205.24 409.253 199.086 417.033 190.419 414.735C183.194 412.82 180.982 405.162 181.356 395.767C181.44 393.656 180.001 391.748 177.919 391.386C154.844 387.377 134.328 382.095 118.794 376.268C116.811 375.524 114.598 376.419 113.539 378.253C109.617 385.054 104.412 389.317 97.7009 387.538C87.9962 384.966 87.3373 372.032 89.8384 358.443C89.8433 358.416 89.8386 358.388 89.8251 358.364C65.6849 315.962 74.9696 258.322 89.8251 258.322H197.543C199.439 258.322 201.148 257.247 202.035 255.571Z"/>
</mask>
<path fill-rule="evenodd" clip-rule="evenodd" d="M202.035 255.571C243.156 177.889 367.097 139.339 417.264 275.547C437.661 330.926 414.903 363.812 373.459 381.553C371.677 382.316 370.661 384.219 370.971 386.133C372.805 397.439 371.56 407.661 362.595 409.826C353.731 411.967 347.496 404.505 343.371 394.799C342.581 392.941 340.603 391.848 338.628 392.269C300.63 400.363 255.247 400.591 213.638 396.303C211.787 396.112 210.056 397.218 209.365 398.946C205.24 409.253 199.086 417.033 190.419 414.735C183.194 412.82 180.982 405.162 181.356 395.767C181.44 393.656 180.001 391.748 177.919 391.386C154.844 387.377 134.328 382.095 118.794 376.268C116.811 375.524 114.598 376.419 113.539 378.253C109.617 385.054 104.412 389.317 97.7009 387.538C87.9962 384.966 87.3373 372.032 89.8384 358.443C89.8433 358.416 89.8386 358.388 89.8251 358.364C65.6849 315.962 74.9696 258.322 89.8251 258.322H197.543C199.439 258.322 201.148 257.247 202.035 255.571Z" fill="#5AC9E7"/>
<path d="M417.264 275.547L403.189 280.732V280.732L417.264 275.547ZM202.035 255.571L215.292 262.588L215.292 262.588L202.035 255.571ZM362.595 409.826L366.116 424.407L362.595 409.826ZM190.419 414.735L186.575 429.235H186.575L190.419 414.735ZM97.7009 387.538L93.8577 402.037L93.8577 402.037L97.7009 387.538ZM89.8384 358.443L104.591 361.158L89.8384 358.443ZM118.794 376.268L124.062 362.223L118.794 376.268ZM113.539 378.253L126.533 385.748L113.539 378.253ZM213.638 396.303L212.1 411.224L213.638 396.303ZM209.365 398.946L195.439 393.373L209.365 398.946ZM343.371 394.799L329.566 400.666L343.371 394.799ZM338.628 392.269L335.503 377.598L338.628 392.269ZM181.356 395.767L166.368 395.171L181.356 395.767ZM177.919 391.386L175.351 406.165L177.919 391.386ZM373.459 381.553L367.556 367.764L373.459 381.553ZM370.971 386.133L385.778 383.731L370.971 386.133ZM431.34 270.363C418.037 234.246 399.367 208.44 377.189 191.991C354.902 175.462 329.927 169.031 305.437 170.372C257.127 173.018 211.475 205.675 188.778 248.553L215.292 262.588C233.716 227.785 270.595 202.325 307.077 200.328C324.984 199.347 342.97 203.963 359.317 216.087C375.772 228.291 391.408 248.745 403.189 280.732L431.34 270.363ZM379.363 395.343C402.07 385.622 421.648 370.911 432.079 349.147C442.632 327.127 442.501 300.667 431.34 270.363L403.189 280.732C412.424 305.806 411.113 323.478 405.025 336.182C398.815 349.14 386.293 359.743 367.556 367.764L379.363 395.343ZM366.116 424.407C376.984 421.783 382.928 413.734 385.263 405.502C387.348 398.154 386.83 390.22 385.778 383.731L356.165 388.535C356.529 390.777 356.696 392.713 356.697 394.307C356.697 395.934 356.523 396.888 356.402 397.313C356.29 397.708 356.344 397.242 356.998 396.544C357.753 395.739 358.622 395.354 359.073 395.245L366.116 424.407ZM329.566 400.666C332.017 406.434 335.685 413.059 341.275 417.997C347.44 423.443 356.097 426.827 366.116 424.407L359.073 395.245C359.292 395.193 359.899 395.134 360.613 395.341C361.24 395.523 361.408 395.753 361.136 395.513C360.836 395.248 360.254 394.628 359.493 393.443C358.745 392.276 357.958 390.772 357.176 388.933L329.566 400.666ZM212.1 411.224C254.639 415.608 301.709 415.47 341.753 406.94L335.503 377.598C299.551 385.257 255.855 385.574 215.176 381.382L212.1 411.224ZM195.439 393.373C194.632 395.389 193.817 397.046 193.039 398.337C192.245 399.653 191.636 400.342 191.327 400.632C191.043 400.9 191.278 400.584 192.08 400.339C193.001 400.058 193.841 400.124 194.262 400.236L186.575 429.235C196.94 431.982 205.797 428.198 211.863 422.502C217.327 417.371 220.895 410.506 223.291 404.52L195.439 393.373ZM194.262 400.236C194.763 400.369 195.481 400.708 196.126 401.309C196.718 401.86 196.888 402.295 196.851 402.208C196.799 402.087 196.613 401.571 196.475 400.501C196.338 399.447 196.276 398.073 196.344 396.363L166.368 395.171C166.14 400.896 166.589 407.678 169.225 413.905C172.125 420.754 177.75 426.895 186.575 429.235L194.262 400.236ZM113.526 390.312C130.189 396.563 151.669 402.05 175.351 406.165L180.487 376.608C158.019 372.704 138.466 367.626 124.062 362.223L113.526 390.312ZM93.8577 402.037C101.564 404.08 108.857 402.542 114.786 398.725C120.198 395.241 123.942 390.24 126.533 385.748L100.546 370.759C99.9303 371.826 99.3968 372.56 98.9898 373.032C98.5801 373.508 98.4111 373.588 98.5459 373.501C98.7176 373.39 99.1933 373.134 99.9226 373.01C100.675 372.881 101.267 372.965 101.544 373.039L93.8577 402.037ZM75.0862 355.727C73.7095 363.207 72.8615 372.062 74.4916 380.102C76.2096 388.576 81.4849 398.758 93.8577 402.037L101.544 373.039C102.336 373.249 103.272 373.843 103.874 374.618C104.309 375.178 104.119 375.253 103.893 374.141C103.393 371.673 103.466 367.267 104.591 361.158L75.0862 355.727ZM89.8251 243.322C82.728 243.322 77.3324 246.841 73.8653 250.373C70.4684 253.834 68.0794 258.08 66.3616 262.115C62.8971 270.254 60.8725 280.61 60.2277 291.56C58.9356 313.503 62.9863 341.54 76.7896 365.785L102.861 350.943C92.5237 332.786 89.1466 310.802 90.1758 293.324C90.6916 284.564 92.2648 277.859 93.9648 273.865C94.8293 271.835 95.4143 271.246 95.2743 271.389C95.0641 271.603 93.2083 273.322 89.8251 273.322V243.322ZM197.543 243.322H89.8251V273.322H197.543V243.322ZM188.778 248.553C190.372 245.543 193.634 243.322 197.543 243.322V273.322C205.245 273.322 211.924 268.951 215.292 262.588L188.778 248.553ZM104.591 361.158C105.237 357.646 104.618 354.031 102.863 350.946L76.7875 365.782C75.0597 362.745 74.4497 359.186 75.0862 355.727L104.591 361.158ZM124.062 362.223C114.635 358.687 104.955 363.115 100.546 370.759L126.533 385.748C124.24 389.723 118.987 392.361 113.526 390.312L124.062 362.223ZM215.176 381.382C206.301 380.467 198.482 385.768 195.439 393.373L223.291 404.52C221.63 408.669 217.273 411.757 212.1 411.224L215.176 381.382ZM357.176 388.933C353.729 380.822 344.873 375.602 335.503 377.598L341.753 406.94C336.333 408.095 331.433 405.06 329.566 400.666L357.176 388.933ZM196.344 396.363C196.706 387.275 190.495 378.347 180.487 376.608L175.351 406.165C169.508 405.15 166.174 400.036 166.368 395.171L196.344 396.363ZM367.556 367.764C359.274 371.309 354.78 379.999 356.165 388.535L385.778 383.731C386.541 388.44 384.081 393.323 379.363 395.343L367.556 367.764Z" fill="black" mask="url(#path-7-outside-2_1_1266)"/>
</mask>
<g mask="url(#mask0_1_1266)">
<path d="M287 360.049C246.69 353.819 221.767 387.401 212.231 409.353C210.97 412.257 212.94 415.436 216.079 415.849L344.045 432.699C347.303 433.128 350.071 430.355 349.382 427.143C344.429 404.05 327.021 366.234 287 360.049Z" fill="#F3F3F2"/>
<path d="M103.062 285.043C94.4208 277.89 109.546 228.671 112.88 221.642L133.086 235.718C122.822 272.482 111.703 292.195 103.062 285.043Z" fill="#219BC2"/>
<path d="M134.193 283.068C125.552 275.915 140.677 226.696 144.011 219.667L164.218 233.743C153.953 270.507 142.835 290.22 134.193 283.068Z" fill="#219BC2"/>
<path d="M170.193 280.068C161.552 272.915 176.677 223.696 180.011 216.667L200.218 230.743C189.953 267.507 178.835 287.22 170.193 280.068Z" fill="#219BC2"/>
<mask id="path-13-outside-3_1_1266" maskUnits="userSpaceOnUse" x="60" y="170.2" width="380" height="260" fill="black">
<rect fill="white" x="60" y="170.2" width="380" height="260"/>
<path fill-rule="evenodd" clip-rule="evenodd" d="M202.035 255.571C243.156 177.889 367.097 139.339 417.264 275.547C437.661 330.926 414.903 363.812 373.459 381.553C371.677 382.316 370.661 384.219 370.971 386.133C372.805 397.439 371.56 407.661 362.595 409.826C353.731 411.967 347.496 404.505 343.371 394.799C342.581 392.941 340.603 391.848 338.628 392.269C300.63 400.363 255.247 400.591 213.638 396.303C211.787 396.112 210.056 397.218 209.365 398.946C205.24 409.253 199.086 417.033 190.419 414.735C183.194 412.82 180.982 405.162 181.356 395.767C181.44 393.656 180.001 391.748 177.919 391.386C154.844 387.377 134.328 382.095 118.794 376.268C116.811 375.524 114.598 376.419 113.539 378.253C109.617 385.054 104.412 389.317 97.7009 387.538C87.9962 384.966 87.3373 372.032 89.8384 358.443C89.8433 358.416 89.8386 358.388 89.8251 358.364C65.6849 315.962 74.9696 258.322 89.8251 258.322H197.543C199.439 258.322 201.148 257.247 202.035 255.571Z"/>
</mask>
<path d="M417.264 275.547L403.189 280.732V280.732L417.264 275.547ZM202.035 255.571L215.292 262.588L215.292 262.588L202.035 255.571ZM362.595 409.826L366.116 424.407L362.595 409.826ZM190.419 414.735L186.575 429.235H186.575L190.419 414.735ZM97.7009 387.538L93.8577 402.037L93.8577 402.037L97.7009 387.538ZM89.8384 358.443L104.591 361.158L89.8384 358.443ZM118.794 376.268L124.062 362.223L118.794 376.268ZM113.539 378.253L126.533 385.748L113.539 378.253ZM213.638 396.303L212.1 411.224L213.638 396.303ZM209.365 398.946L195.439 393.373L209.365 398.946ZM343.371 394.799L329.566 400.666L343.371 394.799ZM338.628 392.269L335.503 377.598L338.628 392.269ZM181.356 395.767L166.368 395.171L181.356 395.767ZM177.919 391.386L175.351 406.165L177.919 391.386ZM373.459 381.553L367.556 367.764L373.459 381.553ZM370.971 386.133L385.778 383.731L370.971 386.133ZM431.34 270.363C418.037 234.246 399.367 208.44 377.189 191.991C354.902 175.462 329.927 169.031 305.437 170.372C257.127 173.018 211.475 205.675 188.778 248.553L215.292 262.588C233.716 227.785 270.595 202.325 307.077 200.328C324.984 199.347 342.97 203.963 359.317 216.087C375.772 228.291 391.408 248.745 403.189 280.732L431.34 270.363ZM379.363 395.343C402.07 385.622 421.648 370.911 432.079 349.147C442.632 327.127 442.501 300.667 431.34 270.363L403.189 280.732C412.424 305.806 411.113 323.478 405.025 336.182C398.815 349.14 386.293 359.743 367.556 367.764L379.363 395.343ZM366.116 424.407C376.984 421.783 382.928 413.734 385.263 405.502C387.348 398.154 386.83 390.22 385.778 383.731L356.165 388.535C356.529 390.777 356.696 392.713 356.697 394.307C356.697 395.934 356.523 396.888 356.402 397.313C356.29 397.708 356.344 397.242 356.998 396.544C357.753 395.739 358.622 395.354 359.073 395.245L366.116 424.407ZM329.566 400.666C332.017 406.434 335.685 413.059 341.275 417.997C347.44 423.443 356.097 426.827 366.116 424.407L359.073 395.245C359.292 395.193 359.899 395.134 360.613 395.341C361.24 395.523 361.408 395.753 361.136 395.513C360.836 395.248 360.254 394.628 359.493 393.443C358.745 392.276 357.958 390.772 357.176 388.933L329.566 400.666ZM212.1 411.224C254.639 415.608 301.709 415.47 341.753 406.94L335.503 377.598C299.551 385.257 255.855 385.574 215.176 381.382L212.1 411.224ZM195.439 393.373C194.632 395.389 193.817 397.046 193.039 398.337C192.245 399.653 191.636 400.342 191.327 400.632C191.043 400.9 191.278 400.584 192.08 400.339C193.001 400.058 193.841 400.124 194.262 400.236L186.575 429.235C196.94 431.982 205.797 428.198 211.863 422.502C217.327 417.371 220.895 410.506 223.291 404.52L195.439 393.373ZM194.262 400.236C194.763 400.369 195.481 400.708 196.126 401.309C196.718 401.86 196.888 402.295 196.851 402.208C196.799 402.087 196.613 401.571 196.475 400.501C196.338 399.447 196.276 398.073 196.344 396.363L166.368 395.171C166.14 400.896 166.589 407.678 169.225 413.905C172.125 420.754 177.75 426.895 186.575 429.235L194.262 400.236ZM113.526 390.312C130.189 396.563 151.669 402.05 175.351 406.165L180.487 376.608C158.019 372.704 138.466 367.626 124.062 362.223L113.526 390.312ZM93.8577 402.037C101.564 404.08 108.857 402.542 114.786 398.725C120.198 395.241 123.942 390.24 126.533 385.748L100.546 370.759C99.9303 371.826 99.3968 372.56 98.9898 373.032C98.5801 373.508 98.4111 373.588 98.5459 373.501C98.7176 373.39 99.1933 373.134 99.9226 373.01C100.675 372.881 101.267 372.965 101.544 373.039L93.8577 402.037ZM75.0862 355.727C73.7095 363.207 72.8615 372.062 74.4916 380.102C76.2096 388.576 81.4849 398.758 93.8577 402.037L101.544 373.039C102.336 373.249 103.272 373.843 103.874 374.618C104.309 375.178 104.119 375.253 103.893 374.141C103.393 371.673 103.466 367.267 104.591 361.158L75.0862 355.727ZM89.8251 243.322C82.728 243.322 77.3324 246.841 73.8653 250.373C70.4684 253.834 68.0794 258.08 66.3616 262.115C62.8971 270.254 60.8725 280.61 60.2277 291.56C58.9356 313.503 62.9863 341.54 76.7896 365.785L102.861 350.943C92.5237 332.786 89.1466 310.802 90.1758 293.324C90.6916 284.564 92.2648 277.859 93.9648 273.865C94.8293 271.835 95.4143 271.246 95.2743 271.389C95.0641 271.603 93.2083 273.322 89.8251 273.322V243.322ZM197.543 243.322H89.8251V273.322H197.543V243.322ZM188.778 248.553C190.372 245.543 193.634 243.322 197.543 243.322V273.322C205.245 273.322 211.924 268.951 215.292 262.588L188.778 248.553ZM104.591 361.158C105.237 357.646 104.618 354.031 102.863 350.946L76.7875 365.782C75.0597 362.745 74.4497 359.186 75.0862 355.727L104.591 361.158ZM124.062 362.223C114.635 358.687 104.955 363.115 100.546 370.759L126.533 385.748C124.24 389.723 118.987 392.361 113.526 390.312L124.062 362.223ZM215.176 381.382C206.301 380.467 198.482 385.768 195.439 393.373L223.291 404.52C221.63 408.669 217.273 411.757 212.1 411.224L215.176 381.382ZM357.176 388.933C353.729 380.822 344.873 375.602 335.503 377.598L341.753 406.94C336.333 408.095 331.433 405.06 329.566 400.666L357.176 388.933ZM196.344 396.363C196.706 387.275 190.495 378.347 180.487 376.608L175.351 406.165C169.508 405.15 166.174 400.036 166.368 395.171L196.344 396.363ZM367.556 367.764C359.274 371.309 354.78 379.999 356.165 388.535L385.778 383.731C386.541 388.44 384.081 393.323 379.363 395.343L367.556 367.764Z" fill="black" mask="url(#path-13-outside-3_1_1266)"/>
</g>
<path d="M309.424 287.245C301.273 292.665 294.321 291.351 289.137 287.778C284.872 299.521 282.989 323.862 309.579 327.286C336.168 330.71 340.628 306.7 339.534 294.268C332.017 297.557 325.008 293.526 320.105 288.413C317.375 285.566 312.708 285.061 309.424 287.245Z" fill="#F55757"/>
<path d="M280.666 277.761C282.322 281.105 285.227 285.084 289.137 287.778M348.617 286.511C345.576 290.507 342.515 292.963 339.534 294.268M289.137 287.778C294.321 291.351 301.273 292.665 309.424 287.245C312.708 285.061 317.375 285.566 320.105 288.413C325.008 293.526 332.017 297.557 339.534 294.268M289.137 287.778C284.872 299.521 282.989 323.862 309.579 327.286C336.168 330.71 340.628 306.7 339.534 294.268" stroke="black" stroke-width="9.98544" stroke-linecap="round"/>
<path d="M167.5 320.549C167.5 324.691 170.858 328.049 175 328.049C179.142 328.049 182.5 324.691 182.5 320.549H167.5ZM182.5 320.549C182.5 300.937 192.756 254.986 235.146 215.005L224.854 204.093C179.244 247.111 167.5 297.112 167.5 320.549H182.5Z" fill="black"/>
<ellipse cx="380.5" cy="274.549" rx="16.5" ry="20" fill="black"/>
<ellipse cx="246.161" cy="258.617" rx="16.407" ry="20.3979" transform="rotate(12.1759 246.161 258.617)" fill="black"/>
</svg>
