<svg width="500" height="501" viewBox="0 0 500 501" fill="none" xmlns="http://www.w3.org/2000/svg">
<path fill-rule="evenodd" clip-rule="evenodd" d="M66 246.401C66 249.163 68.2386 251.401 71 251.401H85.9533H111.26H133.45C136.417 251.401 138.732 248.832 138.423 245.882L135.055 213.648C134.804 211.237 132.859 209.354 130.441 209.18L71.3584 204.934C68.4633 204.726 66 207.018 66 209.921V246.401Z" fill="#C51110"/>
<path d="M85.9533 251.401L106.915 294.61C107.781 296.396 109.621 297.5 111.604 297.424L127.983 296.8C131.7 296.659 133.966 292.652 132.172 289.393L111.26 251.401H85.9533Z" fill="#DDDDDD"/>
<path d="M85.9533 251.401L106.915 294.61C107.781 296.396 109.621 297.5 111.604 297.424L127.983 296.801C131.7 296.659 133.966 292.652 132.172 289.393L111.26 251.401M85.9533 251.401H71C68.2386 251.401 66 249.163 66 246.401V209.921C66 207.018 68.4633 204.726 71.3584 204.934L130.441 209.18C132.859 209.354 134.804 211.237 135.055 213.648L138.423 245.882C138.732 248.832 136.417 251.401 133.45 251.401H111.26M85.9533 251.401H111.26" stroke="black" stroke-width="15"/>
<path d="M400.874 413.049H78C71.0964 413.049 65.5 407.452 65.5 400.549V298.757C65.5 291.854 71.0965 286.257 78 286.257H163.631L192.455 267.991C194.456 266.722 196.777 266.049 199.146 266.049H264.215C266.722 266.049 269.171 266.803 271.244 268.213L267.027 274.414L271.244 268.213L310.421 294.857H359.531C361.836 294.857 364.097 295.494 366.062 296.699L429.314 335.46C434.517 338.648 436.657 345.126 434.379 350.785L412.47 405.216M400.874 413.049L412.47 405.216M400.874 413.049C405.975 413.049 410.565 409.949 412.47 405.216M400.874 413.049L405.512 402.416L412.47 405.216" fill="#C51110" stroke="black" stroke-width="15"/>
<mask id="mask0_1_1326" style="mask-type:alpha" maskUnits="userSpaceOnUse" x="58" y="258" width="385" height="163">
<path d="M400.874 413.049H78C71.0964 413.049 65.5 407.452 65.5 400.549V298.757C65.5 291.854 71.0965 286.257 78 286.257H163.631L192.455 267.991C194.456 266.722 196.777 266.049 199.146 266.049H264.215C266.722 266.049 269.171 266.803 271.244 268.213L267.027 274.414L271.244 268.213L310.421 294.857H359.531C361.836 294.857 364.097 295.494 366.062 296.699L429.314 335.46C434.517 338.648 436.657 345.126 434.379 350.785L412.47 405.216M400.874 413.049L412.47 405.216M400.874 413.049C405.975 413.049 410.565 409.949 412.47 405.216M400.874 413.049L405.512 402.416L412.47 405.216" fill="#C51110" stroke="black" stroke-width="15"/>
</mask>
<g mask="url(#mask0_1_1326)">
<path d="M198.511 343.875L157.375 283.826C156.805 282.994 156.5 282.009 156.5 281V260.549C156.5 257.787 158.739 255.549 161.5 255.549H304C306.761 255.549 309 257.787 309 260.549V290.791C309 291.617 308.796 292.429 308.405 293.157L281.415 343.414C280.544 345.037 278.851 346.049 277.01 346.049H202.635C200.986 346.049 199.443 345.235 198.511 343.875Z" fill="#98C7DD" stroke="black" stroke-width="15"/>
<mask id="mask1_1_1326" style="mask-type:alpha" maskUnits="userSpaceOnUse" x="149" y="248" width="168" height="106">
<path d="M198.511 343.875L157.375 283.826C156.805 282.994 156.5 282.009 156.5 281V260.549C156.5 257.787 158.739 255.549 161.5 255.549H304C306.761 255.549 309 257.787 309 260.549V290.791C309 291.617 308.796 292.429 308.405 293.157L281.415 343.414C280.544 345.037 278.851 346.049 277.01 346.049H202.635C200.986 346.049 199.443 345.235 198.511 343.875Z" fill="#128DAA" stroke="black" stroke-width="15"/>
</mask>
<g mask="url(#mask1_1_1326)">
<path d="M226 267.049V344.861C226 348.045 223.063 350.418 219.95 349.749L162.29 337.363C160.059 336.884 158.436 334.955 158.344 332.676L155.709 267.25C155.595 264.412 157.865 262.049 160.705 262.049H189.5H221C223.761 262.049 226 264.287 226 267.049Z" fill="#4B646E" fill-opacity="0.5"/>
<path d="M198.511 343.875L157.375 283.826C156.805 282.994 156.5 282.009 156.5 281V260.549C156.5 257.787 158.739 255.549 161.5 255.549H304C306.761 255.549 309 257.787 309 260.549V290.791C309 291.617 308.796 292.429 308.405 293.157L281.415 343.414C280.544 345.037 278.851 346.049 277.01 346.049H202.635C200.986 346.049 199.443 345.235 198.511 343.875Z" stroke="black" stroke-width="15"/>
</g>
<path d="M237.5 377.549C321.699 387.026 391.532 359.856 422.938 341.212C426.415 339.149 431 341.599 431 345.642V449.549C431 452.31 428.761 454.549 426 454.549H27C24.2386 454.549 22 452.31 22 449.549V276.549C22 273.787 24.2386 271.549 27 271.549H100.831C103.246 271.549 105.296 273.256 105.863 275.603C113.645 307.851 148.96 367.583 237.5 377.549Z" fill="#7B0939" fill-opacity="0.55"/>
<path d="M400.874 413.049H78C71.0964 413.049 65.5 407.452 65.5 400.549V298.757C65.5 291.854 71.0965 286.257 78 286.257H163.631L192.455 267.991C194.456 266.722 196.777 266.049 199.146 266.049H264.215C266.722 266.049 269.171 266.803 271.244 268.213L267.027 274.414L271.244 268.213L310.421 294.857H359.531C361.836 294.857 364.097 295.494 366.062 296.699L429.314 335.46C434.517 338.648 436.657 345.126 434.379 350.785L412.47 405.216M400.874 413.049L412.47 405.216M400.874 413.049C405.975 413.049 410.565 409.949 412.47 405.216M400.874 413.049L405.512 402.416L412.47 405.216" stroke="black" stroke-width="15"/>
</g>
<circle cx="149" cy="401.549" r="34.5" fill="black" stroke="black" stroke-width="15"/>
<circle cx="148.5" cy="402.049" r="15.5" fill="#DDDDDD"/>
<circle cx="334" cy="401.549" r="34.5" fill="black" stroke="black" stroke-width="15"/>
<circle cx="333.5" cy="402.049" r="15.5" fill="#DDDDDD"/>
</svg>
