<svg width="500" height="501" viewBox="0 0 500 501" fill="none" xmlns="http://www.w3.org/2000/svg">
<path d="M191.938 259.268L164.174 236.775C158.121 231.872 149.03 234.64 146.737 242.084L138.218 269.736C135.843 277.443 142.295 285 150.279 283.865L186.562 278.706C196.073 277.353 199.402 265.315 191.938 259.268Z" fill="#E53C3C" stroke="black" stroke-width="12"/>
<path d="M139.938 275.268L112.174 252.775C106.121 247.872 97.0301 250.64 94.7368 258.084L86.2176 285.736C83.8432 293.443 90.2945 301 98.2786 299.865L134.562 294.706C144.073 293.353 147.402 281.315 139.938 275.268Z" fill="#E53C3C" stroke="black" stroke-width="12"/>
<path d="M69.7551 281.784C120.687 267.74 206.696 243.658 241.214 232.788C245.864 231.324 252.256 237.72 250.572 242.295L214.582 340.078C213.89 341.958 212.108 343.249 210.106 343.328C124.902 346.682 81.1789 311.076 66.9012 288.565C65.2332 285.935 66.753 282.612 69.7551 281.784Z" fill="#EFB126" stroke="black" stroke-width="15" stroke-linecap="round"/>
<path d="M218.928 351.424L224.69 353.099L218.928 351.424C217.405 356.662 215.217 366.29 215.092 374.759C215.031 378.89 215.436 383.549 217.271 387.339C218.233 389.327 219.697 391.298 221.895 392.702C224.141 394.137 226.709 394.694 229.352 394.539C233.657 394.286 237.509 393.027 240.462 390.18C243.322 387.423 244.599 383.874 245.28 380.6C245.954 377.357 246.18 373.643 246.376 370.03C246.396 369.668 246.416 369.304 246.435 368.939C246.619 365.516 246.81 361.953 247.258 358.131C247.921 352.484 244.241 346.863 238.254 345.747L230.706 344.34C225.863 343.438 220.516 345.962 218.928 351.424Z" fill="#EFB126" stroke="black" stroke-width="12" stroke-linecap="round"/>
<path d="M256.406 350.524C255.015 355.476 253.071 364.321 253.002 372.083C252.968 375.861 253.359 380.18 255.087 383.718C255.995 385.578 257.383 387.446 259.475 388.781C261.617 390.147 264.057 390.673 266.547 390.524C270.536 390.286 274.164 389.103 276.96 386.397C279.66 383.786 280.858 380.443 281.493 377.412C282.123 374.409 282.334 370.986 282.513 367.689C282.535 367.276 282.557 366.861 282.579 366.444C282.74 363.391 282.907 360.232 283.286 356.842C283.914 351.226 280.26 345.638 274.299 344.51L268.228 343.361C263.339 342.435 257.954 345.011 256.406 350.524Z" fill="#EFB126" stroke="black" stroke-width="12" stroke-linecap="round"/>
<path d="M398.362 354.85L392.415 355.645L398.362 354.85C399.085 360.257 399.811 370.105 398.669 378.497C398.112 382.591 397.015 387.137 394.635 390.609C393.386 392.431 391.644 394.162 389.261 395.222C386.826 396.305 384.203 396.472 381.613 395.923C377.394 395.03 373.773 393.21 371.279 389.954C368.863 386.8 368.13 383.1 367.947 379.762C367.765 376.454 368.097 372.748 368.442 369.146C368.477 368.785 368.512 368.422 368.547 368.058C368.877 364.646 369.22 361.095 369.348 357.249C369.537 351.566 374.015 346.558 380.102 346.35L387.775 346.086C392.699 345.917 397.609 349.213 398.362 354.85Z" fill="#EFB126" stroke="black" stroke-width="12" stroke-linecap="round"/>
<path d="M358.031 358.927C358.665 363.903 359.269 372.666 358.201 380.119C357.682 383.745 356.666 387.86 354.437 391.031C353.262 392.702 351.619 394.298 349.374 395.272C347.083 396.265 344.634 396.405 342.243 395.898C338.42 395.089 335.058 393.433 332.709 390.424C330.429 387.503 329.727 384.093 329.539 381.074C329.354 378.091 329.64 374.778 329.941 371.613C329.982 371.174 330.025 370.734 330.068 370.291C330.348 367.398 330.636 364.416 330.761 361.187C330.98 355.532 335.442 350.534 341.529 350.325L347.458 350.122C352.392 349.952 357.309 353.267 358.031 358.927Z" fill="#EFB126" stroke="black" stroke-width="12" stroke-linecap="round"/>
<path d="M259.588 194.062L235.267 167.884C229.965 162.178 220.575 163.638 217.257 170.685L204.929 196.862C201.494 204.158 206.817 212.549 214.881 212.549H251.53C261.136 212.549 266.127 201.099 259.588 194.062Z" fill="#E53C3C" stroke="black" stroke-width="12"/>
<path d="M307.824 191.145L288.661 170.09C283.36 164.266 273.836 165.735 270.537 172.886L260.824 193.941C257.462 201.23 262.786 209.549 270.813 209.549H299.689C309.241 209.549 314.253 198.209 307.824 191.145Z" fill="#E53C3C" stroke="black" stroke-width="12"/>
<path d="M196.324 357.757C205.245 361.905 219.312 364.302 232.34 365.742C245.492 367.196 258.72 367.782 267.088 367.88C296.266 370.952 364.519 375.238 411.125 368.362C416.571 367.558 420.824 363.257 421.552 357.789C427.083 316.255 423.585 245.561 421.099 214.619C420.928 209.304 417.156 206.145 414.579 204.62C411.807 202.98 408.464 201.979 405.459 201.318C399.407 199.989 392.427 199.567 387.782 199.556C270.89 193.735 217.555 196.327 201.438 198.997C195.89 199.916 192.277 204.385 191.605 209.251C188.407 232.392 184.732 266.095 183.752 294.996C183.263 309.402 183.431 322.921 184.747 333.432C185.402 338.659 186.382 343.504 187.886 347.46C189.277 351.12 191.71 355.612 196.324 357.757Z" fill="#EFB126" stroke="black" stroke-width="15"/>
<mask id="mask0_1_1301" style="mask-type:alpha" maskUnits="userSpaceOnUse" x="175" y="188" width="257" height="192">
<path d="M196.324 357.757C205.245 361.905 219.312 364.302 232.34 365.742C245.492 367.196 258.72 367.782 267.088 367.88C296.266 370.952 364.519 375.238 411.125 368.362C416.571 367.558 420.824 363.257 421.552 357.789C427.083 316.255 423.585 245.561 421.099 214.619C420.928 209.304 417.156 206.145 414.579 204.62C411.807 202.98 408.464 201.979 405.459 201.318C399.407 199.989 392.427 199.567 387.782 199.556C270.89 193.735 217.555 196.327 201.438 198.997C195.89 199.916 192.277 204.385 191.605 209.251C188.407 232.392 184.732 266.095 183.752 294.996C183.263 309.402 183.431 322.921 184.747 333.432C185.402 338.659 186.382 343.504 187.886 347.46C189.277 351.12 191.71 355.612 196.324 357.757Z" fill="#EFB126" stroke="black" stroke-width="15"/>
</mask>
<g mask="url(#mask0_1_1301)">
<path d="M241.5 329.549C204.3 314.749 184 262.715 178.5 238.549L160 409.549H422V315.049C410.5 328.049 288 348.049 241.5 329.549Z" fill="#A27513" fill-opacity="0.55"/>
<path d="M196.324 357.757C205.245 361.905 219.312 364.302 232.34 365.742C245.492 367.196 258.72 367.782 267.088 367.88C296.266 370.952 364.519 375.238 411.125 368.362C416.571 367.558 420.824 363.257 421.552 357.789C427.083 316.255 423.585 245.561 421.099 214.619C420.928 209.304 417.156 206.145 414.579 204.62C411.807 202.98 408.464 201.979 405.459 201.318C399.407 199.989 392.427 199.567 387.782 199.556C270.89 193.735 217.555 196.327 201.438 198.997C195.89 199.916 192.277 204.385 191.605 209.251C188.407 232.392 184.732 266.095 183.752 294.996C183.263 309.402 183.431 322.921 184.747 333.432C185.402 338.659 186.382 343.504 187.886 347.46C189.277 351.12 191.71 355.612 196.324 357.757Z" stroke="black" stroke-width="15"/>
</g>
<path d="M300 223.549C300 236.549 293 310.049 300 348.049" stroke="black" stroke-width="15" stroke-linecap="round"/>
<ellipse cx="337.5" cy="248.549" rx="8.5" ry="9" fill="black"/>
<ellipse cx="384.5" cy="248.549" rx="8.5" ry="9" fill="black"/>
<path d="M369.155 217.117C371.258 217.305 390.767 216.408 399.839 221.623M353.579 217.486L342.935 218.002" stroke="#F2D041" stroke-width="12" stroke-linecap="round"/>
</svg>
