<svg width="500" height="501" viewBox="0 0 500 501" fill="none" xmlns="http://www.w3.org/2000/svg">
<mask id="path-1-outside-1_1_1217" maskUnits="userSpaceOnUse" x="73" y="85.5488" width="355" height="330" fill="black">
<rect fill="white" x="73" y="85.5488" width="355" height="330"/>
<path fill-rule="evenodd" clip-rule="evenodd" d="M204.42 121.106C205.641 122.711 207.637 123.564 209.624 123.221C238.11 118.302 268.232 120.393 296.214 127.698C298.481 128.29 300.85 127.261 302.115 125.289C311.27 111.011 327.28 101.549 345.5 101.549C373.943 101.549 397 124.606 397 153.049C397 162.159 394.634 170.717 390.484 178.142C389.401 180.078 389.535 182.495 390.912 184.235C392.444 186.17 393.893 188.136 395.256 190.129C426.148 235.312 408.972 293.74 390.161 329.653C389.889 330.174 389.712 330.733 389.629 331.315C385.727 358.67 373.937 378.549 360 378.549C354.695 378.549 349.702 375.669 345.336 370.594C343.79 368.797 341.289 368.044 339.095 368.941C336.119 370.156 333.153 371.304 330.197 372.387C328.68 372.942 327.526 374.189 327.008 375.719C322.028 390.401 311.359 400.549 299 400.549C290.614 400.549 283.005 395.876 277.424 388.284C276.27 386.714 274.395 385.795 272.458 386.008C247.285 388.782 223.707 387.355 202.72 383.441C200.53 383.032 198.344 384.101 197.149 385.982C191.471 394.92 183.204 400.549 174 400.549C159.059 400.549 146.587 385.717 143.653 365.973C143.407 364.318 142.427 362.85 140.96 362.046C133.039 357.704 126.416 353.2 121.292 348.881C104.496 334.726 58.8402 257.482 115.624 180.669C116.816 179.057 116.983 176.871 116.114 175.064C112.836 168.251 111 160.614 111 152.549C111 123.83 134.281 100.549 163 100.549C179.903 100.549 194.923 108.614 204.42 121.106Z"/>
</mask>
<path fill-rule="evenodd" clip-rule="evenodd" d="M204.42 121.106C205.641 122.711 207.637 123.564 209.624 123.221C238.11 118.302 268.232 120.393 296.214 127.698C298.481 128.29 300.85 127.261 302.115 125.289C311.27 111.011 327.28 101.549 345.5 101.549C373.943 101.549 397 124.606 397 153.049C397 162.159 394.634 170.717 390.484 178.142C389.401 180.078 389.535 182.495 390.912 184.235C392.444 186.17 393.893 188.136 395.256 190.129C426.148 235.312 408.972 293.74 390.161 329.653C389.889 330.174 389.712 330.733 389.629 331.315C385.727 358.67 373.937 378.549 360 378.549C354.695 378.549 349.702 375.669 345.336 370.594C343.79 368.797 341.289 368.044 339.095 368.941C336.119 370.156 333.153 371.304 330.197 372.387C328.68 372.942 327.526 374.189 327.008 375.719C322.028 390.401 311.359 400.549 299 400.549C290.614 400.549 283.005 395.876 277.424 388.284C276.27 386.714 274.395 385.795 272.458 386.008C247.285 388.782 223.707 387.355 202.72 383.441C200.53 383.032 198.344 384.101 197.149 385.982C191.471 394.92 183.204 400.549 174 400.549C159.059 400.549 146.587 385.717 143.653 365.973C143.407 364.318 142.427 362.85 140.96 362.046C133.039 357.704 126.416 353.2 121.292 348.881C104.496 334.726 58.8402 257.482 115.624 180.669C116.816 179.057 116.983 176.871 116.114 175.064C112.836 168.251 111 160.614 111 152.549C111 123.83 134.281 100.549 163 100.549C179.903 100.549 194.923 108.614 204.42 121.106Z" fill="#AEFC89"/>
<path d="M395.256 190.129L407.639 181.663L407.639 181.663L395.256 190.129ZM121.292 348.881L130.958 337.411L130.958 337.411L121.292 348.881ZM143.653 365.973L158.49 363.768L143.653 365.973ZM140.96 362.046L133.75 375.199L140.96 362.046ZM330.197 372.387L335.356 386.472L330.197 372.387ZM327.008 375.719L312.802 370.901L327.008 375.719ZM345.336 370.594L356.708 360.812L345.336 370.594ZM339.095 368.941L333.42 355.055L339.095 368.941ZM390.484 178.142L377.391 170.822L390.484 178.142ZM390.912 184.235L402.674 174.926L390.912 184.235ZM390.161 329.653L376.874 322.693L390.161 329.653ZM389.629 331.315L404.479 333.434L389.629 331.315ZM202.72 383.441L205.471 368.695L202.72 383.441ZM197.149 385.982L184.487 377.939L197.149 385.982ZM277.424 388.284L265.338 397.168L277.424 388.284ZM272.458 386.008L270.815 371.098L272.458 386.008ZM302.115 125.289L289.488 117.192L302.115 125.289ZM300.003 113.184C270.237 105.414 237.94 103.109 207.072 108.44L212.177 138.002C238.28 133.494 266.227 135.373 292.426 142.212L300.003 113.184ZM345.5 86.5488C321.957 86.5488 301.284 98.7941 289.488 117.192L314.742 133.385C321.255 123.227 332.603 116.549 345.5 116.549V86.5488ZM412 153.049C412 116.322 382.227 86.5488 345.5 86.5488V116.549C365.658 116.549 382 132.89 382 153.049H412ZM403.577 185.461C408.946 175.857 412 164.787 412 153.049H382C382 159.531 380.323 165.577 377.391 170.822L403.577 185.461ZM407.639 181.663C406.072 179.371 404.415 177.125 402.674 174.926L379.15 193.543C380.473 195.215 381.715 196.9 382.874 198.595L407.639 181.663ZM403.449 336.613C413.446 317.527 423.206 292.136 426.254 265.044C429.314 237.844 425.67 208.036 407.639 181.663L382.874 198.595C395.734 217.405 398.949 239.403 396.442 261.69C393.922 284.086 385.688 305.866 376.874 322.693L403.449 336.613ZM374.779 329.197C373.025 341.495 369.602 351.172 365.813 357.312C361.721 363.942 359.258 363.549 360 363.549V393.549C374.68 393.549 385.079 383.217 391.342 373.068C397.907 362.43 402.331 348.49 404.479 333.434L374.779 329.197ZM360 363.549C360.162 363.549 360.057 363.614 359.557 363.338C358.988 363.025 357.992 362.305 356.708 360.812L333.965 380.376C340.041 387.44 348.839 393.549 360 393.549V363.549ZM335.356 386.472C338.485 385.326 341.623 384.112 344.769 382.826L333.42 355.055C330.616 356.201 327.822 357.283 325.039 358.302L335.356 386.472ZM299 415.549C320.349 415.549 335.134 398.462 341.213 380.536L312.802 370.901C308.923 382.339 302.369 385.549 299 385.549V415.549ZM265.338 397.168C272.94 407.51 284.628 415.549 299 415.549V385.549C296.599 385.549 293.069 384.242 289.51 379.4L265.338 397.168ZM199.97 398.187C222.295 402.351 247.356 403.865 274.101 400.918L270.815 371.098C247.214 373.699 225.119 372.36 205.471 368.695L199.97 398.187ZM174 415.549C189.809 415.549 202.276 405.887 209.811 394.025L184.487 377.939C180.667 383.954 176.599 385.549 174 385.549V415.549ZM128.816 368.177C132.234 391.179 148.13 415.549 174 415.549V385.549C169.988 385.549 160.94 380.255 158.49 363.768L128.816 368.177ZM111.625 360.351C117.645 365.424 125.126 370.471 133.75 375.199L148.171 348.893C140.953 344.936 135.187 340.975 130.958 337.411L111.625 360.351ZM103.562 171.753C72.2627 214.091 69.0262 257.114 76.1831 291.342C79.7295 308.302 85.8079 323.084 92.2011 334.673C98.4304 345.966 105.49 355.18 111.625 360.351L130.958 337.411C128.696 335.505 123.75 329.755 118.469 320.183C113.353 310.907 108.417 298.923 105.548 285.202C99.8739 258.065 102.201 224.06 127.685 189.586L103.562 171.753ZM96 152.549C96 162.914 98.3641 172.769 102.597 181.567L129.631 168.561C127.309 163.734 126 158.315 126 152.549H96ZM163 85.5488C125.997 85.5488 96 115.546 96 152.549H126C126 132.114 142.565 115.549 163 115.549V85.5488ZM216.361 112.028C204.149 95.9654 184.788 85.5488 163 85.5488V115.549C175.018 115.549 185.696 121.263 192.48 130.185L216.361 112.028ZM127.685 189.586C132.32 183.317 132.81 175.17 129.631 168.561L102.597 181.567C101.156 178.572 101.311 174.797 103.562 171.753L127.685 189.586ZM158.49 363.768C157.59 357.712 153.961 352.066 148.171 348.893L133.75 375.199C130.893 373.633 129.224 370.924 128.816 368.177L158.49 363.768ZM325.039 358.302C318.968 360.525 314.676 365.375 312.802 370.901L341.213 380.536C340.377 383.002 338.393 385.36 335.356 386.472L325.039 358.302ZM356.708 360.812C351.486 354.741 342.31 351.423 333.42 355.055L344.769 382.826C340.268 384.665 336.095 382.852 333.965 380.376L356.708 360.812ZM377.391 170.822C373.511 177.764 373.798 186.781 379.15 193.543L402.674 174.926C405.272 178.209 405.292 182.393 403.577 185.461L377.391 170.822ZM376.874 322.693C375.78 324.782 375.095 326.986 374.779 329.197L404.479 333.434C404.329 334.48 403.998 335.565 403.449 336.613L376.874 322.693ZM205.471 368.695C196.667 367.053 188.635 371.411 184.487 377.939L209.811 394.025C208.053 396.791 204.392 399.012 199.97 398.187L205.471 368.695ZM207.072 108.44C210.967 107.767 214.424 109.479 216.361 112.028L192.48 130.185C196.858 135.943 204.307 139.361 212.177 138.002L207.072 108.44ZM289.51 379.4C285.511 373.959 278.603 370.24 270.815 371.098L274.101 400.918C270.187 401.349 267.029 399.469 265.338 397.168L289.51 379.4ZM292.426 142.212C301.48 144.575 310.261 140.374 314.742 133.385L289.488 117.192C291.439 114.148 295.482 112.004 300.003 113.184L292.426 142.212Z" fill="black" mask="url(#path-1-outside-1_1_1217)"/>
<mask id="mask0_1_1217" style="mask-type:alpha" maskUnits="userSpaceOnUse" x="73" y="85" width="355" height="331">
<mask id="path-3-outside-2_1_1217" maskUnits="userSpaceOnUse" x="73" y="85.5488" width="355" height="330" fill="black">
<rect fill="white" x="73" y="85.5488" width="355" height="330"/>
<path fill-rule="evenodd" clip-rule="evenodd" d="M204.42 121.106C205.641 122.711 207.637 123.564 209.624 123.221C238.11 118.302 268.232 120.393 296.214 127.698C298.481 128.29 300.85 127.261 302.115 125.289C311.27 111.011 327.28 101.549 345.5 101.549C373.943 101.549 397 124.606 397 153.049C397 162.159 394.634 170.717 390.484 178.142C389.401 180.078 389.535 182.495 390.912 184.235C392.444 186.17 393.893 188.136 395.256 190.129C426.148 235.312 408.972 293.74 390.161 329.653C389.889 330.174 389.712 330.733 389.629 331.315C385.727 358.67 373.937 378.549 360 378.549C354.695 378.549 349.702 375.669 345.336 370.594C343.79 368.797 341.289 368.044 339.095 368.941C336.119 370.156 333.153 371.304 330.197 372.387C328.68 372.942 327.526 374.189 327.008 375.719C322.028 390.401 311.359 400.549 299 400.549C290.614 400.549 283.005 395.876 277.424 388.284C276.27 386.714 274.395 385.795 272.458 386.008C247.285 388.782 223.707 387.355 202.72 383.441C200.53 383.032 198.344 384.101 197.149 385.982C191.471 394.92 183.204 400.549 174 400.549C159.059 400.549 146.587 385.717 143.653 365.973C143.407 364.318 142.427 362.85 140.96 362.046C133.039 357.704 126.416 353.2 121.292 348.881C104.496 334.726 58.8402 257.482 115.624 180.669C116.816 179.057 116.983 176.871 116.114 175.064C112.836 168.251 111 160.614 111 152.549C111 123.83 134.281 100.549 163 100.549C179.903 100.549 194.923 108.614 204.42 121.106Z"/>
</mask>
<path fill-rule="evenodd" clip-rule="evenodd" d="M204.42 121.106C205.641 122.711 207.637 123.564 209.624 123.221C238.11 118.302 268.232 120.393 296.214 127.698C298.481 128.29 300.85 127.261 302.115 125.289C311.27 111.011 327.28 101.549 345.5 101.549C373.943 101.549 397 124.606 397 153.049C397 162.159 394.634 170.717 390.484 178.142C389.401 180.078 389.535 182.495 390.912 184.235C392.444 186.17 393.893 188.136 395.256 190.129C426.148 235.312 408.972 293.74 390.161 329.653C389.889 330.174 389.712 330.733 389.629 331.315C385.727 358.67 373.937 378.549 360 378.549C354.695 378.549 349.702 375.669 345.336 370.594C343.79 368.797 341.289 368.044 339.095 368.941C336.119 370.156 333.153 371.304 330.197 372.387C328.68 372.942 327.526 374.189 327.008 375.719C322.028 390.401 311.359 400.549 299 400.549C290.614 400.549 283.005 395.876 277.424 388.284C276.27 386.714 274.395 385.795 272.458 386.008C247.285 388.782 223.707 387.355 202.72 383.441C200.53 383.032 198.344 384.101 197.149 385.982C191.471 394.92 183.204 400.549 174 400.549C159.059 400.549 146.587 385.717 143.653 365.973C143.407 364.318 142.427 362.85 140.96 362.046C133.039 357.704 126.416 353.2 121.292 348.881C104.496 334.726 58.8402 257.482 115.624 180.669C116.816 179.057 116.983 176.871 116.114 175.064C112.836 168.251 111 160.614 111 152.549C111 123.83 134.281 100.549 163 100.549C179.903 100.549 194.923 108.614 204.42 121.106Z" fill="#AEFC89"/>
<path d="M395.256 190.129L407.639 181.663L407.639 181.663L395.256 190.129ZM121.292 348.881L130.958 337.411L130.958 337.411L121.292 348.881ZM143.653 365.973L158.49 363.768L143.653 365.973ZM140.96 362.046L133.75 375.199L140.96 362.046ZM330.197 372.387L335.356 386.472L330.197 372.387ZM327.008 375.719L312.802 370.901L327.008 375.719ZM345.336 370.594L356.708 360.812L345.336 370.594ZM339.095 368.941L333.42 355.055L339.095 368.941ZM390.484 178.142L377.391 170.822L390.484 178.142ZM390.912 184.235L402.674 174.926L390.912 184.235ZM390.161 329.653L376.874 322.693L390.161 329.653ZM389.629 331.315L404.479 333.434L389.629 331.315ZM202.72 383.441L205.471 368.695L202.72 383.441ZM197.149 385.982L184.487 377.939L197.149 385.982ZM277.424 388.284L265.338 397.168L277.424 388.284ZM272.458 386.008L270.815 371.098L272.458 386.008ZM302.115 125.289L289.488 117.192L302.115 125.289ZM300.003 113.184C270.237 105.414 237.94 103.109 207.072 108.44L212.177 138.002C238.28 133.494 266.227 135.373 292.426 142.212L300.003 113.184ZM345.5 86.5488C321.957 86.5488 301.284 98.7941 289.488 117.192L314.742 133.385C321.255 123.227 332.603 116.549 345.5 116.549V86.5488ZM412 153.049C412 116.322 382.227 86.5488 345.5 86.5488V116.549C365.658 116.549 382 132.89 382 153.049H412ZM403.577 185.461C408.946 175.857 412 164.787 412 153.049H382C382 159.531 380.323 165.577 377.391 170.822L403.577 185.461ZM407.639 181.663C406.072 179.371 404.415 177.125 402.674 174.926L379.15 193.543C380.473 195.215 381.715 196.9 382.874 198.595L407.639 181.663ZM403.449 336.613C413.446 317.527 423.206 292.136 426.254 265.044C429.314 237.844 425.67 208.036 407.639 181.663L382.874 198.595C395.734 217.405 398.949 239.403 396.442 261.69C393.922 284.086 385.688 305.866 376.874 322.693L403.449 336.613ZM374.779 329.197C373.025 341.495 369.602 351.172 365.813 357.312C361.721 363.942 359.258 363.549 360 363.549V393.549C374.68 393.549 385.079 383.217 391.342 373.068C397.907 362.43 402.331 348.49 404.479 333.434L374.779 329.197ZM360 363.549C360.162 363.549 360.057 363.614 359.557 363.338C358.988 363.025 357.992 362.305 356.708 360.812L333.965 380.376C340.041 387.44 348.839 393.549 360 393.549V363.549ZM335.356 386.472C338.485 385.326 341.623 384.112 344.769 382.826L333.42 355.055C330.616 356.201 327.822 357.283 325.039 358.302L335.356 386.472ZM299 415.549C320.349 415.549 335.134 398.462 341.213 380.536L312.802 370.901C308.923 382.339 302.369 385.549 299 385.549V415.549ZM265.338 397.168C272.94 407.51 284.628 415.549 299 415.549V385.549C296.599 385.549 293.069 384.242 289.51 379.4L265.338 397.168ZM199.97 398.187C222.295 402.351 247.356 403.865 274.101 400.918L270.815 371.098C247.214 373.699 225.119 372.36 205.471 368.695L199.97 398.187ZM174 415.549C189.809 415.549 202.276 405.887 209.811 394.025L184.487 377.939C180.667 383.954 176.599 385.549 174 385.549V415.549ZM128.816 368.177C132.234 391.179 148.13 415.549 174 415.549V385.549C169.988 385.549 160.94 380.255 158.49 363.768L128.816 368.177ZM111.625 360.351C117.645 365.424 125.126 370.471 133.75 375.199L148.171 348.893C140.953 344.936 135.187 340.975 130.958 337.411L111.625 360.351ZM103.562 171.753C72.2627 214.091 69.0262 257.114 76.1831 291.342C79.7295 308.302 85.8079 323.084 92.2011 334.673C98.4304 345.966 105.49 355.18 111.625 360.351L130.958 337.411C128.696 335.505 123.75 329.755 118.469 320.183C113.353 310.907 108.417 298.923 105.548 285.202C99.8739 258.065 102.201 224.06 127.685 189.586L103.562 171.753ZM96 152.549C96 162.914 98.3641 172.769 102.597 181.567L129.631 168.561C127.309 163.734 126 158.315 126 152.549H96ZM163 85.5488C125.997 85.5488 96 115.546 96 152.549H126C126 132.114 142.565 115.549 163 115.549V85.5488ZM216.361 112.028C204.149 95.9654 184.788 85.5488 163 85.5488V115.549C175.018 115.549 185.696 121.263 192.48 130.185L216.361 112.028ZM127.685 189.586C132.32 183.317 132.81 175.17 129.631 168.561L102.597 181.567C101.156 178.572 101.311 174.797 103.562 171.753L127.685 189.586ZM158.49 363.768C157.59 357.712 153.961 352.066 148.171 348.893L133.75 375.199C130.893 373.633 129.224 370.924 128.816 368.177L158.49 363.768ZM325.039 358.302C318.968 360.525 314.676 365.375 312.802 370.901L341.213 380.536C340.377 383.002 338.393 385.36 335.356 386.472L325.039 358.302ZM356.708 360.812C351.486 354.741 342.31 351.423 333.42 355.055L344.769 382.826C340.268 384.665 336.095 382.852 333.965 380.376L356.708 360.812ZM377.391 170.822C373.511 177.764 373.798 186.781 379.15 193.543L402.674 174.926C405.272 178.209 405.292 182.393 403.577 185.461L377.391 170.822ZM376.874 322.693C375.78 324.782 375.095 326.986 374.779 329.197L404.479 333.434C404.329 334.48 403.998 335.565 403.449 336.613L376.874 322.693ZM205.471 368.695C196.667 367.053 188.635 371.411 184.487 377.939L209.811 394.025C208.053 396.791 204.392 399.012 199.97 398.187L205.471 368.695ZM207.072 108.44C210.967 107.767 214.424 109.479 216.361 112.028L192.48 130.185C196.858 135.943 204.307 139.361 212.177 138.002L207.072 108.44ZM289.51 379.4C285.511 373.959 278.603 370.24 270.815 371.098L274.101 400.918C270.187 401.349 267.029 399.469 265.338 397.168L289.51 379.4ZM292.426 142.212C301.48 144.575 310.261 140.374 314.742 133.385L289.488 117.192C291.439 114.148 295.482 112.004 300.003 113.184L292.426 142.212Z" fill="black" mask="url(#path-3-outside-2_1_1217)"/>
</mask>
<g mask="url(#mask0_1_1217)">
<path d="M155.853 421.668L357.382 412.72C365.71 412.351 372.178 405.197 371.347 396.902C359.222 275.815 284.376 263.219 244 263.219C184.783 263.157 155.868 350.412 148 372.049L140.594 403.215C138.291 412.906 145.901 422.109 155.853 421.668Z" fill="#88CA69"/>
<mask id="path-6-outside-3_1_1217" maskUnits="userSpaceOnUse" x="73" y="85.5488" width="355" height="330" fill="black">
<rect fill="white" x="73" y="85.5488" width="355" height="330"/>
<path fill-rule="evenodd" clip-rule="evenodd" d="M204.42 121.106C205.641 122.711 207.637 123.564 209.624 123.221C238.11 118.302 268.232 120.393 296.214 127.698C298.481 128.29 300.85 127.261 302.115 125.289C311.27 111.011 327.28 101.549 345.5 101.549C373.943 101.549 397 124.606 397 153.049C397 162.159 394.634 170.717 390.484 178.142C389.401 180.078 389.535 182.495 390.912 184.235C392.444 186.17 393.893 188.136 395.256 190.129C426.148 235.312 408.972 293.74 390.161 329.653C389.889 330.174 389.712 330.733 389.629 331.315C385.727 358.67 373.937 378.549 360 378.549C354.695 378.549 349.702 375.669 345.336 370.594C343.79 368.797 341.289 368.044 339.095 368.941C336.119 370.156 333.153 371.304 330.197 372.387C328.68 372.942 327.526 374.189 327.008 375.719C322.028 390.401 311.359 400.549 299 400.549C290.614 400.549 283.005 395.876 277.424 388.284C276.27 386.714 274.395 385.795 272.458 386.008C247.285 388.782 223.707 387.355 202.72 383.441C200.53 383.032 198.344 384.101 197.149 385.982C191.471 394.92 183.204 400.549 174 400.549C159.059 400.549 146.587 385.717 143.653 365.973C143.407 364.318 142.427 362.85 140.96 362.046C133.039 357.704 126.416 353.2 121.292 348.881C104.496 334.726 58.8402 257.482 115.624 180.669C116.816 179.057 116.983 176.871 116.114 175.064C112.836 168.251 111 160.614 111 152.549C111 123.83 134.281 100.549 163 100.549C179.903 100.549 194.923 108.614 204.42 121.106Z"/>
</mask>
<path d="M395.256 190.129L407.639 181.663L407.639 181.663L395.256 190.129ZM121.292 348.881L130.958 337.411L130.958 337.411L121.292 348.881ZM143.653 365.973L158.49 363.768L143.653 365.973ZM140.96 362.046L133.75 375.199L140.96 362.046ZM330.197 372.387L335.356 386.472L330.197 372.387ZM327.008 375.719L312.802 370.901L327.008 375.719ZM345.336 370.594L356.708 360.812L345.336 370.594ZM339.095 368.941L333.42 355.055L339.095 368.941ZM390.484 178.142L377.391 170.822L390.484 178.142ZM390.912 184.235L402.674 174.926L390.912 184.235ZM390.161 329.653L376.874 322.693L390.161 329.653ZM389.629 331.315L404.479 333.434L389.629 331.315ZM202.72 383.441L205.471 368.695L202.72 383.441ZM197.149 385.982L184.487 377.939L197.149 385.982ZM277.424 388.284L265.338 397.168L277.424 388.284ZM272.458 386.008L270.815 371.098L272.458 386.008ZM302.115 125.289L289.488 117.192L302.115 125.289ZM300.003 113.184C270.237 105.414 237.94 103.109 207.072 108.44L212.177 138.002C238.28 133.494 266.227 135.373 292.426 142.212L300.003 113.184ZM345.5 86.5488C321.957 86.5488 301.284 98.7941 289.488 117.192L314.742 133.385C321.255 123.227 332.603 116.549 345.5 116.549V86.5488ZM412 153.049C412 116.322 382.227 86.5488 345.5 86.5488V116.549C365.658 116.549 382 132.89 382 153.049H412ZM403.577 185.461C408.946 175.857 412 164.787 412 153.049H382C382 159.531 380.323 165.577 377.391 170.822L403.577 185.461ZM407.639 181.663C406.072 179.371 404.415 177.125 402.674 174.926L379.15 193.543C380.473 195.215 381.715 196.9 382.874 198.595L407.639 181.663ZM403.449 336.613C413.446 317.527 423.206 292.136 426.254 265.044C429.314 237.844 425.67 208.036 407.639 181.663L382.874 198.595C395.734 217.405 398.949 239.403 396.442 261.69C393.922 284.086 385.688 305.866 376.874 322.693L403.449 336.613ZM374.779 329.197C373.025 341.495 369.602 351.172 365.813 357.312C361.721 363.942 359.258 363.549 360 363.549V393.549C374.68 393.549 385.079 383.217 391.342 373.068C397.907 362.43 402.331 348.49 404.479 333.434L374.779 329.197ZM360 363.549C360.162 363.549 360.057 363.614 359.557 363.338C358.988 363.025 357.992 362.305 356.708 360.812L333.965 380.376C340.041 387.44 348.839 393.549 360 393.549V363.549ZM335.356 386.472C338.485 385.326 341.623 384.112 344.769 382.826L333.42 355.055C330.616 356.201 327.822 357.283 325.039 358.302L335.356 386.472ZM299 415.549C320.349 415.549 335.134 398.462 341.213 380.536L312.802 370.901C308.923 382.339 302.369 385.549 299 385.549V415.549ZM265.338 397.168C272.94 407.51 284.628 415.549 299 415.549V385.549C296.599 385.549 293.069 384.242 289.51 379.4L265.338 397.168ZM199.97 398.187C222.295 402.351 247.356 403.865 274.101 400.918L270.815 371.098C247.214 373.699 225.119 372.36 205.471 368.695L199.97 398.187ZM174 415.549C189.809 415.549 202.276 405.887 209.811 394.025L184.487 377.939C180.667 383.954 176.599 385.549 174 385.549V415.549ZM128.816 368.177C132.234 391.179 148.13 415.549 174 415.549V385.549C169.988 385.549 160.94 380.255 158.49 363.768L128.816 368.177ZM111.625 360.351C117.645 365.424 125.126 370.471 133.75 375.199L148.171 348.893C140.953 344.936 135.187 340.975 130.958 337.411L111.625 360.351ZM103.562 171.753C72.2627 214.091 69.0262 257.114 76.1831 291.342C79.7295 308.302 85.8079 323.084 92.2011 334.673C98.4304 345.966 105.49 355.18 111.625 360.351L130.958 337.411C128.696 335.505 123.75 329.755 118.469 320.183C113.353 310.907 108.417 298.923 105.548 285.202C99.8739 258.065 102.201 224.06 127.685 189.586L103.562 171.753ZM96 152.549C96 162.914 98.3641 172.769 102.597 181.567L129.631 168.561C127.309 163.734 126 158.315 126 152.549H96ZM163 85.5488C125.997 85.5488 96 115.546 96 152.549H126C126 132.114 142.565 115.549 163 115.549V85.5488ZM216.361 112.028C204.149 95.9654 184.788 85.5488 163 85.5488V115.549C175.018 115.549 185.696 121.263 192.48 130.185L216.361 112.028ZM127.685 189.586C132.32 183.317 132.81 175.17 129.631 168.561L102.597 181.567C101.156 178.572 101.311 174.797 103.562 171.753L127.685 189.586ZM158.49 363.768C157.59 357.712 153.961 352.066 148.171 348.893L133.75 375.199C130.893 373.633 129.224 370.924 128.816 368.177L158.49 363.768ZM325.039 358.302C318.968 360.525 314.676 365.375 312.802 370.901L341.213 380.536C340.377 383.002 338.393 385.36 335.356 386.472L325.039 358.302ZM356.708 360.812C351.486 354.741 342.31 351.423 333.42 355.055L344.769 382.826C340.268 384.665 336.095 382.852 333.965 380.376L356.708 360.812ZM377.391 170.822C373.511 177.764 373.798 186.781 379.15 193.543L402.674 174.926C405.272 178.209 405.292 182.393 403.577 185.461L377.391 170.822ZM376.874 322.693C375.78 324.782 375.095 326.986 374.779 329.197L404.479 333.434C404.329 334.48 403.998 335.565 403.449 336.613L376.874 322.693ZM205.471 368.695C196.667 367.053 188.635 371.411 184.487 377.939L209.811 394.025C208.053 396.791 204.392 399.012 199.97 398.187L205.471 368.695ZM207.072 108.44C210.967 107.767 214.424 109.479 216.361 112.028L192.48 130.185C196.858 135.943 204.307 139.361 212.177 138.002L207.072 108.44ZM289.51 379.4C285.511 373.959 278.603 370.24 270.815 371.098L274.101 400.918C270.187 401.349 267.029 399.469 265.338 397.168L289.51 379.4ZM292.426 142.212C301.48 144.575 310.261 140.374 314.742 133.385L289.488 117.192C291.439 114.148 295.482 112.004 300.003 113.184L292.426 142.212Z" fill="black" mask="url(#path-6-outside-3_1_1217)"/>
</g>
<circle cx="163" cy="156.549" r="28" fill="black"/>
<circle cx="341" cy="156.549" r="28" fill="black"/>
<path d="M208 199.939C215.637 199.551 229.507 203.143 240.007 209.64C245.243 212.88 251.656 214.208 256.92 211.012C266.319 205.307 278.801 197.739 292 199.939" stroke="black" stroke-width="15" stroke-linecap="round"/>
<rect x="333.881" y="212.549" width="17" height="38" rx="8.5" transform="rotate(33.3326 333.881 212.549)" fill="#F78787"/>
<rect x="361.881" y="212.549" width="17" height="38" rx="8.5" transform="rotate(33.3326 361.881 212.549)" fill="#F78787"/>
<rect x="144.881" y="212.549" width="17" height="38" rx="8.5" transform="rotate(33.3326 144.881 212.549)" fill="#F78787"/>
<rect x="172.881" y="212.549" width="17" height="38" rx="8.5" transform="rotate(33.3326 172.881 212.549)" fill="#F78787"/>
</svg>
