<svg width="500" height="501" viewBox="0 0 500 501" fill="none" xmlns="http://www.w3.org/2000/svg">
<path d="M311.829 396.605L311.715 396.664L311.597 396.716C310.743 397.088 309.424 397.55 307.89 397.417C306.884 397.331 305.966 397.007 305.16 396.494C304.78 397.238 304.244 397.924 303.564 398.536C300.78 401.044 296.64 401.783 292.585 400.407C288.52 399.028 284.678 395.626 281.609 390.092C278.532 384.545 276.977 377.602 275.858 371.961C275.675 371.039 275.505 370.159 275.343 369.319C274.988 367.477 274.67 365.828 274.331 364.352C273.811 362.084 273.386 360.94 273.113 360.512L271.29 357.656L273.808 355.388L296.283 335.146L299.207 332.513L301.888 335.393C308.721 342.733 315.457 355.163 318.625 366.781C320.211 372.598 320.999 378.548 320.242 383.747C319.472 389.03 317.013 393.934 311.829 396.605Z" fill="#EDDAB4" stroke="black" stroke-width="8"/>
<path d="M256.869 396.601L256.741 396.62L256.613 396.631C255.685 396.71 254.287 396.723 252.877 396.105C251.953 395.7 251.187 395.099 250.589 394.354C249.99 394.936 249.262 395.414 248.421 395.775C244.979 397.256 240.821 396.627 237.423 394.022C234.016 391.409 231.47 386.954 230.341 380.728C229.209 374.487 229.965 367.412 230.717 361.71C230.84 360.778 230.962 359.89 231.078 359.043C231.333 357.184 231.561 355.521 231.715 354.014C231.95 351.7 231.915 350.48 231.794 349.986L230.985 346.696L234.098 345.357L261.883 333.405L265.497 331.85L267.111 335.438C271.225 344.584 273.613 358.519 272.882 370.539C272.517 376.557 271.351 382.445 268.965 387.125C266.54 391.881 262.636 395.736 256.869 396.601Z" fill="#EDDAB4" stroke="black" stroke-width="8"/>
<path d="M86.4443 384.78L86.317 384.76L86.1911 384.733C85.2808 384.536 83.9404 384.139 82.7735 383.135C82.0088 382.476 81.4533 381.677 81.0994 380.789C80.356 381.17 79.5197 381.414 78.6103 381.513C74.8853 381.919 71.0949 380.098 68.6102 376.611C66.1187 373.114 64.9912 368.108 65.7373 361.825C66.4853 355.526 69.2835 348.985 71.6742 343.754C72.065 342.898 72.4418 342.085 72.8014 341.31C73.5904 339.607 74.2964 338.084 74.8851 336.688C75.7888 334.545 76.1131 333.368 76.1418 332.861L76.3333 329.478L79.7018 329.111L109.77 325.832L113.682 325.405L114.173 329.309C115.424 339.259 113.62 353.282 109.397 364.559C107.282 370.205 104.441 375.493 100.788 379.267C97.0744 383.103 92.2115 385.644 86.4443 384.78Z" fill="#EDDAB4" stroke="black" stroke-width="8"/>
<path d="M143.457 386.876L143.331 386.917L143.202 386.949C142.281 387.18 140.892 387.414 139.387 387.016C138.395 386.753 137.535 386.267 136.819 385.615C136.292 386.342 135.64 386.917 134.944 387.371C131.746 389.458 127.485 389.444 123.68 387.381C119.864 385.311 116.534 381.266 114.253 375.189C111.965 369.089 111.38 361.837 111.049 355.938C110.995 354.977 110.948 354.06 110.903 353.184C110.805 351.259 110.718 349.534 110.585 347.98C110.382 345.605 110.116 344.338 109.882 343.812L108.497 340.699L111.351 338.837L136.681 322.307L139.978 320.156L142.182 323.418C147.965 331.98 152.958 345.669 154.5 357.929C155.271 364.063 155.228 370.192 153.746 375.3C152.24 380.489 149.081 385.062 143.457 386.876Z" fill="#EDDAB4" stroke="black" stroke-width="8"/>
<path d="M327.814 195.877L319.337 197.279L323.663 189.987C323.663 189.987 323.663 189.987 323.662 189.987C323.651 189.983 323.768 189.63 323.85 188.608C323.944 187.435 323.963 185.926 323.974 184.011C323.975 183.803 323.977 183.592 323.978 183.377C323.996 179.745 324.02 175.096 324.641 170.285C325.959 160.087 330.123 148.103 343.607 142.42C357.191 136.695 372.944 143.013 380.708 154.379C384.676 160.187 386.68 167.448 385.29 175.283C383.904 183.101 379.218 191.074 370.577 198.538L368.385 200.432L365.901 198.939C362.11 196.66 355.227 195.375 347.491 194.989C339.94 194.611 332.381 195.121 327.814 195.877Z" fill="#6AD7E5" stroke="black" stroke-width="8"/>
<path d="M366.412 166.491C371.012 173.558 362.186 190.887 359.868 192.89L338.857 183.21C343.477 153.412 361.774 159.365 366.412 166.491Z" fill="black"/>
<path d="M318.014 202.38L311.452 207.928L311.432 199.449C311.432 199.449 311.432 199.449 311.432 199.449C311.42 199.452 311.339 199.088 310.886 198.169C310.366 197.113 309.609 195.807 308.638 194.157C308.532 193.978 308.425 193.796 308.316 193.611C306.471 190.482 304.11 186.478 302.179 182.027C298.087 172.594 295.524 160.168 304.193 148.38C312.926 136.505 329.691 133.861 342.182 139.645C348.565 142.6 354.005 147.809 356.826 155.251C359.64 162.674 359.7 171.922 356.103 182.759L355.19 185.509L352.293 185.499C347.87 185.484 341.3 187.906 334.458 191.538C327.78 195.082 321.549 199.392 318.014 202.38Z" fill="#6AD7E5" stroke="black" stroke-width="8"/>
<path d="M336.108 157.371C343.679 161.084 344.977 180.488 344.012 183.395L321.008 185.846C309.711 157.888 328.475 153.626 336.108 157.371Z" fill="black"/>
<circle cx="38.9408" cy="38.9408" r="34.9408" transform="matrix(-1 0 0 1 427 217.658)" fill="white" stroke="black" stroke-width="8"/>
<circle cx="15.5763" cy="15.5763" r="15.5763" transform="matrix(-1 0 0 1 409.347 241.542)" fill="black"/>
<circle cx="3.11527" cy="3.11527" r="3.11527" transform="matrix(-1 0 0 1 402.078 247.772)" fill="white"/>
<path d="M88.158 352.299L87.7822 352.243L87.414 352.148C73.001 348.467 63.2416 337.761 57.3492 324.593C51.4894 311.498 49.1255 295.375 49.5476 279.072C49.9713 262.711 53.2116 245.681 59.0038 230.558C64.7671 215.509 73.265 201.818 84.5781 192.746L85.0798 192.344L85.6426 192.033C95.4445 186.616 109.064 182.635 124.121 179.632C139.317 176.601 156.559 174.458 173.963 172.972C208.725 170.005 244.628 169.621 267.17 170.179C270.351 170.177 273.566 170.093 276.851 170.007C286.931 169.744 297.673 169.463 310.127 171.49C326.993 174.235 347.083 181.106 375.4 197.053C391.72 206.245 400.049 221.563 403.037 238.537C405.994 255.337 403.835 274.141 399.034 291.717C394.218 309.35 386.596 326.291 378.086 339.532C373.83 346.153 369.256 351.999 364.57 356.576C359.975 361.065 354.813 364.786 349.323 366.411C331.523 371.68 314.799 365.629 301.756 360.911L301.213 360.714C294.285 358.209 288.519 356.135 283.209 355.263C278.104 354.425 274.145 354.837 270.665 356.732C267.261 358.585 262.55 359.651 257.716 360.369C252.641 361.124 246.507 361.616 239.676 361.903C225.997 362.479 208.998 362.256 191.029 361.495C155.096 359.974 114.704 356.279 88.158 352.299Z" fill="#69D7E4" stroke="black" stroke-width="15"/>
<circle cx="38.9408" cy="38.9408" r="34.9408" transform="matrix(-1 0 0 1 387.54 220.774)" fill="white" stroke="black" stroke-width="8"/>
<circle cx="15.5763" cy="15.5763" r="15.5763" transform="matrix(-1 0 0 1 369.887 244.657)" fill="black"/>
<circle cx="3.11527" cy="3.11527" r="3.11527" transform="matrix(-1 0 0 1 362.618 250.888)" fill="white"/>
<path d="M396.339 360.404C399.347 354.828 397.592 339.035 396.339 332.549L377.959 333.815L376 344.902C376 366.103 385.023 367.893 388.212 367.506C390.605 367.409 393.332 365.98 396.339 360.404Z" fill="white" stroke="black" stroke-width="8"/>
<path d="M387.339 360.404C390.347 354.828 388.592 339.035 387.339 332.549L368.959 333.815L367 344.902C367 366.103 376.023 367.893 379.212 367.506C381.605 367.409 384.332 365.98 387.339 360.404Z" fill="white" stroke="black" stroke-width="8"/>
<path d="M396.039 334.648C405.805 328.926 402.394 314.489 394.256 310.198C372.368 299.231 348.586 314.621 356.584 334.648C364.582 354.675 373 334.648 380.577 334.648C388.154 334.648 383.832 341.8 396.039 334.648Z" fill="#EDDAB4" stroke="black" stroke-width="8"/>
<ellipse cx="22.6659" cy="12.2774" rx="22.6659" ry="12.2774" transform="matrix(-1 0 0 1 406.793 290.347)" fill="black"/>
</svg>
