<svg width="500" height="501" viewBox="0 0 500 501" fill="none" xmlns="http://www.w3.org/2000/svg">
<circle cx="249.5" cy="286.5" r="149" fill="#98C7DD" stroke="black" stroke-width="15"/>
<mask id="mask0_1_1350" style="mask-type:alpha" maskUnits="userSpaceOnUse" x="93" y="130" width="313" height="313">
<circle cx="249.5" cy="286.5" r="149" fill="#98C7DD" stroke="black" stroke-width="15"/>
</mask>
<g mask="url(#mask0_1_1350)">
<path d="M410.557 345.377C237.652 478.91 134.131 349.133 93.4281 253.446C91.1014 247.976 80.4516 250.011 80.6814 255.951L88.314 453.193C88.4179 455.878 90.6241 458 93.3103 458H423.991C426.944 458 429.253 455.456 428.968 452.517L418.896 348.734C418.512 344.772 413.708 342.944 410.557 345.377Z" fill="#4B646E" fill-opacity="0.55"/>
<circle cx="249.5" cy="286.5" r="149" stroke="black" stroke-width="15"/>
</g>
<path d="M285.711 307.976C291.02 306.399 294.503 302.197 296.194 297.566C297.885 292.934 297.979 287.496 296.422 282.253C294.864 277.01 291.817 272.505 287.871 269.548C283.926 266.591 278.713 264.972 273.404 266.55C268.095 268.127 264.612 272.329 262.921 276.96C261.229 281.592 261.136 287.03 262.693 292.273C264.251 297.516 267.298 302.021 271.244 304.978C275.189 307.935 280.402 309.553 285.711 307.976Z" fill="#D25920" stroke="black" stroke-width="12"/>
<mask id="path-6-outside-1_1_1350" maskUnits="userSpaceOnUse" x="134.41" y="273" width="203" height="110" fill="black">
<rect fill="white" x="134.41" y="273" width="203" height="110"/>
<path fill-rule="evenodd" clip-rule="evenodd" d="M171.336 352.508C173.088 352.334 174.797 353.432 175.255 355.132C177.601 363.833 182.895 368.675 188.212 368.675L299.289 371C311.407 371 319.373 368.122 321.841 366.682C329.253 361.346 323.194 340.601 308.134 321.528C306.564 319.54 307.872 316.287 310.254 315.426C311.434 314.999 312.606 314.461 313.754 313.811C322.256 308.987 326.133 299.76 322.412 293.202C318.692 286.645 308.783 285.239 300.281 290.063C296.447 292.238 293.554 295.308 291.873 298.625C290.816 300.711 287.929 301.859 286.01 300.523C279.974 296.321 273.372 292.788 266.303 290.296C227.836 276.741 190.476 297.337 178.586 323.092C177.826 324.737 175.845 325.499 174.153 324.851C166.354 321.865 152.475 319.531 148.5 327.918C143.558 338.344 156.168 354.017 171.336 352.508Z"/>
</mask>
<path fill-rule="evenodd" clip-rule="evenodd" d="M171.336 352.508C173.088 352.334 174.797 353.432 175.255 355.132C177.601 363.833 182.895 368.675 188.212 368.675L299.289 371C311.407 371 319.373 368.122 321.841 366.682C329.253 361.346 323.194 340.601 308.134 321.528C306.564 319.54 307.872 316.287 310.254 315.426C311.434 314.999 312.606 314.461 313.754 313.811C322.256 308.987 326.133 299.76 322.412 293.202C318.692 286.645 308.783 285.239 300.281 290.063C296.447 292.238 293.554 295.308 291.873 298.625C290.816 300.711 287.929 301.859 286.01 300.523C279.974 296.321 273.372 292.788 266.303 290.296C227.836 276.741 190.476 297.337 178.586 323.092C177.826 324.737 175.845 325.499 174.153 324.851C166.354 321.865 152.475 319.531 148.5 327.918C143.558 338.344 156.168 354.017 171.336 352.508Z" fill="#EE7D07"/>
<path d="M188.212 368.675L188.463 356.678L188.337 356.675H188.212V368.675ZM299.289 371L299.038 382.997L299.164 383H299.289V371ZM321.841 366.682L327.886 377.049L328.385 376.758L328.853 376.421L321.841 366.682ZM313.754 313.811L307.832 303.373V303.373L313.754 313.811ZM322.412 293.202L311.975 299.124L322.412 293.202ZM300.281 290.063L294.359 279.626V279.626L300.281 290.063ZM266.303 290.296L262.314 301.614L266.303 290.296ZM148.5 327.918L137.656 322.778L148.5 327.918ZM174.153 324.851L178.444 313.645L174.153 324.851ZM291.873 298.625L302.578 304.048L291.873 298.625ZM286.01 300.523L292.865 290.673L286.01 300.523ZM308.134 321.528L298.716 328.964L308.134 321.528ZM310.254 315.426L306.172 304.141L310.254 315.426ZM175.255 355.132L186.841 352.008L175.255 355.132ZM171.336 352.508L170.148 340.567L171.336 352.508ZM188.212 356.675C189.366 356.675 189.638 357.218 189.136 356.712C188.61 356.183 187.588 354.778 186.841 352.008L163.669 358.256C166.656 369.335 174.991 380.675 188.212 380.675V356.675ZM299.54 359.003L188.463 356.678L187.961 380.673L299.038 382.997L299.54 359.003ZM315.797 356.316C315.933 356.237 314.554 356.964 311.43 357.701C308.5 358.392 304.403 359 299.289 359V383C312.962 383 323.147 379.812 327.886 377.049L315.797 356.316ZM298.716 328.964C305.516 337.577 309.971 346.205 311.921 352.704C312.91 356.003 313.061 358.116 312.982 359.103C312.9 360.134 312.765 358.431 314.83 356.944L328.853 376.421C334.624 372.266 336.511 365.969 336.906 361.013C337.305 356.014 336.39 350.747 334.909 345.809C331.916 335.833 325.811 324.552 317.552 314.091L298.716 328.964ZM307.832 303.373C307.271 303.691 306.714 303.945 306.172 304.141L314.335 326.71C316.153 326.053 317.941 325.232 319.675 324.248L307.832 303.373ZM311.975 299.124C311.624 298.506 312.052 298.441 311.603 299.508C311.148 300.592 309.974 302.158 307.832 303.373L319.675 324.248C331.259 317.676 341.178 301.961 332.85 287.281L311.975 299.124ZM306.202 300.5C308.344 299.285 310.291 299.081 311.454 299.246C312.601 299.408 312.326 299.742 311.975 299.124L332.85 287.281C324.521 272.6 305.943 273.054 294.359 279.626L306.202 300.5ZM302.578 304.048C303.124 302.97 304.287 301.587 306.202 300.5L294.359 279.626C288.607 282.889 283.984 287.646 281.169 293.201L302.578 304.048ZM262.314 301.614C268.242 303.703 273.888 306.706 279.154 310.372L292.865 290.673C286.059 285.937 278.502 281.872 270.291 278.979L262.314 301.614ZM189.481 328.122C198.809 307.916 229.764 290.144 262.314 301.614L270.291 278.979C225.908 263.339 182.143 286.758 167.691 318.062L189.481 328.122ZM159.344 333.057C158.972 333.841 158.324 334.281 158.113 334.378C158.11 334.379 158.681 334.144 160.115 334.118C163.064 334.063 166.911 334.928 169.862 336.058L178.444 313.645C173.596 311.788 166.603 309.993 159.67 310.122C153.127 310.243 142.601 312.346 137.656 322.778L159.344 333.057ZM170.148 340.567C167.071 340.873 163.734 339.429 161.384 336.76C158.701 333.712 159.711 332.282 159.344 333.057L137.656 322.778C132.347 333.98 137.191 345.6 143.369 352.618C149.881 360.014 160.432 365.652 172.524 364.449L170.148 340.567ZM167.691 318.062C169.686 313.74 174.479 312.126 178.444 313.645L169.862 336.058C177.211 338.871 185.967 335.733 189.481 328.122L167.691 318.062ZM281.169 293.201C282.168 291.23 283.75 290.07 285.321 289.524C286.947 288.958 289.955 288.648 292.865 290.673L279.154 310.372C283.984 313.733 289.395 313.518 293.209 312.191C296.967 310.883 300.522 308.106 302.578 304.048L281.169 293.201ZM317.552 314.091C319.965 317.148 319.607 320.47 318.979 322.183C318.37 323.845 316.949 325.765 314.335 326.71L306.172 304.141C301.177 305.948 297.91 309.925 296.445 313.926C294.96 317.978 294.732 323.919 298.716 328.964L317.552 314.091ZM186.841 352.008C184.748 344.243 177.323 339.853 170.148 340.567L172.524 364.449C168.853 364.814 164.846 362.621 163.669 358.256L186.841 352.008Z" fill="black" mask="url(#path-6-outside-1_1_1350)"/>
<mask id="mask1_1_1350" style="mask-type:alpha" maskUnits="userSpaceOnUse" x="135" y="273" width="202" height="110">
<mask id="path-8-outside-2_1_1350" maskUnits="userSpaceOnUse" x="134.41" y="273" width="203" height="110" fill="black">
<rect fill="white" x="134.41" y="273" width="203" height="110"/>
<path fill-rule="evenodd" clip-rule="evenodd" d="M171.336 352.508C173.088 352.334 174.797 353.432 175.255 355.132C177.601 363.833 182.895 368.675 188.212 368.675L299.289 371C311.407 371 319.373 368.122 321.841 366.682C329.253 361.346 323.194 340.601 308.134 321.528C306.564 319.54 307.872 316.287 310.254 315.426C311.434 314.999 312.606 314.461 313.754 313.811C322.256 308.987 326.133 299.76 322.412 293.202C318.692 286.645 308.783 285.239 300.281 290.063C296.447 292.238 293.554 295.308 291.873 298.625C290.816 300.711 287.929 301.859 286.01 300.523C279.974 296.321 273.372 292.788 266.303 290.296C227.836 276.741 190.476 297.337 178.586 323.092C177.826 324.737 175.845 325.499 174.153 324.851C166.354 321.865 152.475 319.531 148.5 327.918C143.558 338.344 156.168 354.017 171.336 352.508Z"/>
</mask>
<path fill-rule="evenodd" clip-rule="evenodd" d="M171.336 352.508C173.088 352.334 174.797 353.432 175.255 355.132C177.601 363.833 182.895 368.675 188.212 368.675L299.289 371C311.407 371 319.373 368.122 321.841 366.682C329.253 361.346 323.194 340.601 308.134 321.528C306.564 319.54 307.872 316.287 310.254 315.426C311.434 314.999 312.606 314.461 313.754 313.811C322.256 308.987 326.133 299.76 322.412 293.202C318.692 286.645 308.783 285.239 300.281 290.063C296.447 292.238 293.554 295.308 291.873 298.625C290.816 300.711 287.929 301.859 286.01 300.523C279.974 296.321 273.372 292.788 266.303 290.296C227.836 276.741 190.476 297.337 178.586 323.092C177.826 324.737 175.845 325.499 174.153 324.851C166.354 321.865 152.475 319.531 148.5 327.918C143.558 338.344 156.168 354.017 171.336 352.508Z" fill="#EE7D07"/>
<path d="M188.212 368.675L188.463 356.678L188.337 356.675H188.212V368.675ZM299.289 371L299.038 382.997L299.164 383H299.289V371ZM321.841 366.682L327.886 377.049L328.385 376.758L328.853 376.421L321.841 366.682ZM313.754 313.811L307.832 303.373V303.373L313.754 313.811ZM322.412 293.202L311.975 299.124L322.412 293.202ZM300.281 290.063L294.359 279.626V279.626L300.281 290.063ZM266.303 290.296L262.314 301.614L266.303 290.296ZM148.5 327.918L137.656 322.778L148.5 327.918ZM174.153 324.851L178.444 313.645L174.153 324.851ZM291.873 298.625L302.578 304.048L291.873 298.625ZM286.01 300.523L292.865 290.673L286.01 300.523ZM308.134 321.528L298.716 328.964L308.134 321.528ZM310.254 315.426L306.172 304.141L310.254 315.426ZM175.255 355.132L186.841 352.008L175.255 355.132ZM171.336 352.508L170.148 340.567L171.336 352.508ZM188.212 356.675C189.366 356.675 189.638 357.218 189.136 356.712C188.61 356.183 187.588 354.778 186.841 352.008L163.669 358.256C166.656 369.335 174.991 380.675 188.212 380.675V356.675ZM299.54 359.003L188.463 356.678L187.961 380.673L299.038 382.997L299.54 359.003ZM315.797 356.316C315.933 356.237 314.554 356.964 311.43 357.701C308.5 358.392 304.403 359 299.289 359V383C312.962 383 323.147 379.812 327.886 377.049L315.797 356.316ZM298.716 328.964C305.516 337.577 309.971 346.205 311.921 352.704C312.91 356.003 313.061 358.116 312.982 359.103C312.9 360.134 312.765 358.431 314.83 356.944L328.853 376.421C334.624 372.266 336.511 365.969 336.906 361.013C337.305 356.014 336.39 350.747 334.909 345.809C331.916 335.833 325.811 324.552 317.552 314.091L298.716 328.964ZM307.832 303.373C307.271 303.691 306.714 303.945 306.172 304.141L314.335 326.71C316.153 326.053 317.941 325.232 319.675 324.248L307.832 303.373ZM311.975 299.124C311.624 298.506 312.052 298.441 311.603 299.508C311.148 300.592 309.974 302.158 307.832 303.373L319.675 324.248C331.259 317.676 341.178 301.961 332.85 287.281L311.975 299.124ZM306.202 300.5C308.344 299.285 310.291 299.081 311.454 299.246C312.601 299.408 312.326 299.742 311.975 299.124L332.85 287.281C324.521 272.6 305.943 273.054 294.359 279.626L306.202 300.5ZM302.578 304.048C303.124 302.97 304.287 301.587 306.202 300.5L294.359 279.626C288.607 282.889 283.984 287.646 281.169 293.201L302.578 304.048ZM262.314 301.614C268.242 303.703 273.888 306.706 279.154 310.372L292.865 290.673C286.059 285.937 278.502 281.872 270.291 278.979L262.314 301.614ZM189.481 328.122C198.809 307.916 229.764 290.144 262.314 301.614L270.291 278.979C225.908 263.339 182.143 286.758 167.691 318.062L189.481 328.122ZM159.344 333.057C158.972 333.841 158.324 334.281 158.113 334.378C158.11 334.379 158.681 334.144 160.115 334.118C163.064 334.063 166.911 334.928 169.862 336.058L178.444 313.645C173.596 311.788 166.603 309.993 159.67 310.122C153.127 310.243 142.601 312.346 137.656 322.778L159.344 333.057ZM170.148 340.567C167.071 340.873 163.734 339.429 161.384 336.76C158.701 333.712 159.711 332.282 159.344 333.057L137.656 322.778C132.347 333.98 137.191 345.6 143.369 352.618C149.881 360.014 160.432 365.652 172.524 364.449L170.148 340.567ZM167.691 318.062C169.686 313.74 174.479 312.126 178.444 313.645L169.862 336.058C177.211 338.871 185.967 335.733 189.481 328.122L167.691 318.062ZM281.169 293.201C282.168 291.23 283.75 290.07 285.321 289.524C286.947 288.958 289.955 288.648 292.865 290.673L279.154 310.372C283.984 313.733 289.395 313.518 293.209 312.191C296.967 310.883 300.522 308.106 302.578 304.048L281.169 293.201ZM317.552 314.091C319.965 317.148 319.607 320.47 318.979 322.183C318.37 323.845 316.949 325.765 314.335 326.71L306.172 304.141C301.177 305.948 297.91 309.925 296.445 313.926C294.96 317.978 294.732 323.919 298.716 328.964L317.552 314.091ZM186.841 352.008C184.748 344.243 177.323 339.853 170.148 340.567L172.524 364.449C168.853 364.814 164.846 362.621 163.669 358.256L186.841 352.008Z" fill="black" mask="url(#path-8-outside-2_1_1350)"/>
</mask>
<g mask="url(#mask1_1_1350)">
<path d="M216 349.673C233.566 357.648 323.849 367 329.172 367L337 406H119.819C107.469 406 114.673 327.242 119.819 287.862C143.24 285.702 190.083 282.678 190.083 287.862C190.083 294.343 198.434 341.697 216 349.673Z" fill="#BC3C34" fill-opacity="0.55"/>
<mask id="path-11-outside-3_1_1350" maskUnits="userSpaceOnUse" x="134.41" y="273" width="203" height="110" fill="black">
<rect fill="white" x="134.41" y="273" width="203" height="110"/>
<path fill-rule="evenodd" clip-rule="evenodd" d="M171.336 352.508C173.088 352.334 174.797 353.432 175.255 355.132C177.601 363.833 182.895 368.675 188.212 368.675L299.289 371C311.407 371 319.373 368.122 321.841 366.682C329.253 361.346 323.194 340.601 308.134 321.528C306.564 319.54 307.872 316.287 310.254 315.426C311.434 314.999 312.606 314.461 313.754 313.811C322.256 308.987 326.133 299.76 322.412 293.202C318.692 286.645 308.783 285.239 300.281 290.063C296.447 292.238 293.554 295.308 291.873 298.625C290.816 300.711 287.929 301.859 286.01 300.523C279.974 296.321 273.372 292.788 266.303 290.296C227.836 276.741 190.476 297.337 178.586 323.092C177.826 324.737 175.845 325.499 174.153 324.851C166.354 321.865 152.475 319.531 148.5 327.918C143.558 338.344 156.168 354.017 171.336 352.508Z"/>
</mask>
<path d="M188.212 368.675L188.463 356.678L188.337 356.675H188.212V368.675ZM299.289 371L299.038 382.997L299.164 383H299.289V371ZM321.841 366.682L327.886 377.049L328.385 376.758L328.853 376.421L321.841 366.682ZM313.754 313.811L307.832 303.373V303.373L313.754 313.811ZM322.412 293.202L311.975 299.124L322.412 293.202ZM300.281 290.063L294.359 279.626V279.626L300.281 290.063ZM266.303 290.296L262.314 301.614L266.303 290.296ZM148.5 327.918L137.656 322.778L148.5 327.918ZM174.153 324.851L178.444 313.645L174.153 324.851ZM291.873 298.625L302.578 304.048L291.873 298.625ZM286.01 300.523L292.865 290.673L286.01 300.523ZM308.134 321.528L298.716 328.964L308.134 321.528ZM310.254 315.426L306.172 304.141L310.254 315.426ZM175.255 355.132L186.841 352.008L175.255 355.132ZM171.336 352.508L170.148 340.567L171.336 352.508ZM188.212 356.675C189.366 356.675 189.638 357.218 189.136 356.712C188.61 356.183 187.588 354.778 186.841 352.008L163.669 358.256C166.656 369.335 174.991 380.675 188.212 380.675V356.675ZM299.54 359.003L188.463 356.678L187.961 380.673L299.038 382.997L299.54 359.003ZM315.797 356.316C315.933 356.237 314.554 356.964 311.43 357.701C308.5 358.392 304.403 359 299.289 359V383C312.962 383 323.147 379.812 327.886 377.049L315.797 356.316ZM298.716 328.964C305.516 337.577 309.971 346.205 311.921 352.704C312.91 356.003 313.061 358.116 312.982 359.103C312.9 360.134 312.765 358.431 314.83 356.944L328.853 376.421C334.624 372.266 336.511 365.969 336.906 361.013C337.305 356.014 336.39 350.747 334.909 345.809C331.916 335.833 325.811 324.552 317.552 314.091L298.716 328.964ZM307.832 303.373C307.271 303.691 306.714 303.945 306.172 304.141L314.335 326.71C316.153 326.053 317.941 325.232 319.675 324.248L307.832 303.373ZM311.975 299.124C311.624 298.506 312.052 298.441 311.603 299.508C311.148 300.592 309.974 302.158 307.832 303.373L319.675 324.248C331.259 317.676 341.178 301.961 332.85 287.281L311.975 299.124ZM306.202 300.5C308.344 299.285 310.291 299.081 311.454 299.246C312.601 299.408 312.326 299.742 311.975 299.124L332.85 287.281C324.521 272.6 305.943 273.054 294.359 279.626L306.202 300.5ZM302.578 304.048C303.124 302.97 304.287 301.587 306.202 300.5L294.359 279.626C288.607 282.889 283.984 287.646 281.169 293.201L302.578 304.048ZM262.314 301.614C268.242 303.703 273.888 306.706 279.154 310.372L292.865 290.673C286.059 285.937 278.502 281.872 270.291 278.979L262.314 301.614ZM189.481 328.122C198.809 307.916 229.764 290.144 262.314 301.614L270.291 278.979C225.908 263.339 182.143 286.758 167.691 318.062L189.481 328.122ZM159.344 333.057C158.972 333.841 158.324 334.281 158.113 334.378C158.11 334.379 158.681 334.144 160.115 334.118C163.064 334.063 166.911 334.928 169.862 336.058L178.444 313.645C173.596 311.788 166.603 309.993 159.67 310.122C153.127 310.243 142.601 312.346 137.656 322.778L159.344 333.057ZM170.148 340.567C167.071 340.873 163.734 339.429 161.384 336.76C158.701 333.712 159.711 332.282 159.344 333.057L137.656 322.778C132.347 333.98 137.191 345.6 143.369 352.618C149.881 360.014 160.432 365.652 172.524 364.449L170.148 340.567ZM167.691 318.062C169.686 313.74 174.479 312.126 178.444 313.645L169.862 336.058C177.211 338.871 185.967 335.733 189.481 328.122L167.691 318.062ZM281.169 293.201C282.168 291.23 283.75 290.07 285.321 289.524C286.947 288.958 289.955 288.648 292.865 290.673L279.154 310.372C283.984 313.733 289.395 313.518 293.209 312.191C296.967 310.883 300.522 308.106 302.578 304.048L281.169 293.201ZM317.552 314.091C319.965 317.148 319.607 320.47 318.979 322.183C318.37 323.845 316.949 325.765 314.335 326.71L306.172 304.141C301.177 305.948 297.91 309.925 296.445 313.926C294.96 317.978 294.732 323.919 298.716 328.964L317.552 314.091ZM186.841 352.008C184.748 344.243 177.323 339.853 170.148 340.567L172.524 364.449C168.853 364.814 164.846 362.621 163.669 358.256L186.841 352.008Z" fill="black" mask="url(#path-11-outside-3_1_1350)"/>
</g>
<circle cx="293" cy="338" r="9" fill="black"/>
<path d="M226 342C232.5 347.833 242.5 362.2 230.5 373" stroke="black" stroke-width="15" stroke-linecap="round"/>
</svg>
