<svg width="500" height="501" viewBox="0 0 500 501" fill="none" xmlns="http://www.w3.org/2000/svg">
<mask id="path-1-outside-1_1_1172" maskUnits="userSpaceOnUse" x="74.8384" y="82.5488" width="326" height="354" fill="black">
<rect fill="white" x="74.8384" y="82.5488" width="326" height="354"/>
<path fill-rule="evenodd" clip-rule="evenodd" d="M354.227 282.451C354.957 278.803 358.658 269.944 362.344 269.437C368.158 268.636 372.229 267.482 373.9 265.89C383.574 256.676 372.732 247.463 364.11 244.199C361.501 243.212 359.544 240.19 360.4 237.536C375.648 190.214 374.31 103.772 256.199 97.6141C220.42 96.7127 183.964 105.063 163.577 127.591C130.308 164.353 132.364 209.233 142.027 233.308C143.155 236.12 141.175 239.241 138.152 239.034C132.051 238.616 127.543 238.759 123.786 246.543C116.035 262.6 134.151 266.01 142.845 265.89H153.561C156.696 265.89 159.058 268.742 158.474 271.822L155.913 285.325C151.601 313.109 132.934 356.094 120 368.549C112.813 375.47 112.426 375.33 110.13 374.496C108.295 373.83 105.24 372.721 96.5139 374.423C76.874 378.256 112.41 414.708 128.608 391.189C143.737 369.224 155.765 330.689 165.303 300.133L165.303 300.133C169.093 287.993 172.489 277.113 175.53 269.032C176.248 267.124 178.087 265.89 180.126 265.89H202.198C205.965 265.89 208.531 269.974 207.324 273.542C202.359 288.218 198.871 311.86 195.876 332.164L195.876 332.165L195.875 332.165C193.969 345.089 192.261 356.661 190.5 363.706C184.752 386.699 177.783 416.311 218.5 418.706C259.217 421.101 229.598 395.171 209 386.549C188.444 377.944 228.56 275.207 236.341 267.171C236.38 267.131 236.407 267.097 236.439 267.052C236.718 266.658 237.155 266.378 237.636 266.418C247.468 267.233 259.031 268.083 271.202 268.823C273.765 268.979 275.222 271.097 273.491 272.994C271.461 275.217 268.357 278.618 265.13 286.283C257.465 304.486 264.71 327.178 269.5 341.549C270.225 343.723 270.861 345.422 271.383 346.817C272.322 349.328 272.894 350.856 272.956 352.404C273.051 354.811 271.913 357.268 269.004 363.543L269.004 363.544L269.002 363.548C267.951 365.817 266.668 368.584 265.13 372.028C257.78 388.477 274.907 407.243 286.812 416.577C288.855 418.231 296.899 422.326 306 416.577C314.822 411.005 303.696 400.483 294.716 391.989L294.687 391.961C294.412 391.702 294.14 391.444 293.871 391.189C284.769 382.567 287.644 367.357 293.871 351.549C297.381 342.638 294.691 333.129 291.676 322.468C289.342 314.216 286.812 305.274 286.812 295.385C286.812 282.891 292.976 277.084 299.54 270.901L299.54 270.9C299.957 270.508 300.514 270.299 301.085 270.321C311.033 270.7 320.794 270.936 329.79 270.954C329.793 270.954 329.795 270.954 329.797 270.954C332.153 271.489 333.629 273.549 333.629 290.594C334.961 308.542 343.04 331.435 349.651 350.166C354.81 364.784 359.074 376.867 358.539 382.088C357.46 392.604 352.194 398.082 347.797 402.655C344.383 406.206 341.493 409.212 341.493 413.608C341.493 430.209 374.357 416.231 382.5 397.549C389.222 382.127 380.172 362.824 371.5 344.327C369.666 340.417 367.85 336.542 366.203 332.748C364.105 327.917 362.093 323.919 360.293 320.343C354.194 308.226 350.529 300.944 354.227 282.451Z"/>
</mask>
<path fill-rule="evenodd" clip-rule="evenodd" d="M354.227 282.451C354.957 278.803 358.658 269.944 362.344 269.437C368.158 268.636 372.229 267.482 373.9 265.89C383.574 256.676 372.732 247.463 364.11 244.199C361.501 243.212 359.544 240.19 360.4 237.536C375.648 190.214 374.31 103.772 256.199 97.6141C220.42 96.7127 183.964 105.063 163.577 127.591C130.308 164.353 132.364 209.233 142.027 233.308C143.155 236.12 141.175 239.241 138.152 239.034C132.051 238.616 127.543 238.759 123.786 246.543C116.035 262.6 134.151 266.01 142.845 265.89H153.561C156.696 265.89 159.058 268.742 158.474 271.822L155.913 285.325C151.601 313.109 132.934 356.094 120 368.549C112.813 375.47 112.426 375.33 110.13 374.496C108.295 373.83 105.24 372.721 96.5139 374.423C76.874 378.256 112.41 414.708 128.608 391.189C143.737 369.224 155.765 330.689 165.303 300.133L165.303 300.133C169.093 287.993 172.489 277.113 175.53 269.032C176.248 267.124 178.087 265.89 180.126 265.89H202.198C205.965 265.89 208.531 269.974 207.324 273.542C202.359 288.218 198.871 311.86 195.876 332.164L195.876 332.165L195.875 332.165C193.969 345.089 192.261 356.661 190.5 363.706C184.752 386.699 177.783 416.311 218.5 418.706C259.217 421.101 229.598 395.171 209 386.549C188.444 377.944 228.56 275.207 236.341 267.171C236.38 267.131 236.407 267.097 236.439 267.052C236.718 266.658 237.155 266.378 237.636 266.418C247.468 267.233 259.031 268.083 271.202 268.823C273.765 268.979 275.222 271.097 273.491 272.994C271.461 275.217 268.357 278.618 265.13 286.283C257.465 304.486 264.71 327.178 269.5 341.549C270.225 343.723 270.861 345.422 271.383 346.817C272.322 349.328 272.894 350.856 272.956 352.404C273.051 354.811 271.913 357.268 269.004 363.543L269.004 363.544L269.002 363.548C267.951 365.817 266.668 368.584 265.13 372.028C257.78 388.477 274.907 407.243 286.812 416.577C288.855 418.231 296.899 422.326 306 416.577C314.822 411.005 303.696 400.483 294.716 391.989L294.687 391.961C294.412 391.702 294.14 391.444 293.871 391.189C284.769 382.567 287.644 367.357 293.871 351.549C297.381 342.638 294.691 333.129 291.676 322.468C289.342 314.216 286.812 305.274 286.812 295.385C286.812 282.891 292.976 277.084 299.54 270.901L299.54 270.9C299.957 270.508 300.514 270.299 301.085 270.321C311.033 270.7 320.794 270.936 329.79 270.954C329.793 270.954 329.795 270.954 329.797 270.954C332.153 271.489 333.629 273.549 333.629 290.594C334.961 308.542 343.04 331.435 349.651 350.166C354.81 364.784 359.074 376.867 358.539 382.088C357.46 392.604 352.194 398.082 347.797 402.655C344.383 406.206 341.493 409.212 341.493 413.608C341.493 430.209 374.357 416.231 382.5 397.549C389.222 382.127 380.172 362.824 371.5 344.327C369.666 340.417 367.85 336.542 366.203 332.748C364.105 327.917 362.093 323.919 360.293 320.343C354.194 308.226 350.529 300.944 354.227 282.451Z" fill="#FFB0D6"/>
<path d="M373.9 265.89L363.554 255.029L363.554 255.029L373.9 265.89ZM364.11 244.199L358.8 258.228H358.8L364.11 244.199ZM360.4 237.536L346.123 232.935L360.4 237.536ZM256.199 97.6141L256.577 82.6189L256.779 82.624L256.98 82.6345L256.199 97.6141ZM163.577 127.591L174.698 137.656L163.577 127.591ZM142.027 233.308L128.106 238.896V238.896L142.027 233.308ZM138.152 239.034L139.178 224.069H139.178L138.152 239.034ZM123.786 246.543L137.294 253.064L123.786 246.543ZM142.845 265.89L142.639 250.892L142.742 250.89H142.845V265.89ZM155.913 285.325L141.09 283.025L141.128 282.777L141.175 282.53L155.913 285.325ZM120 368.549L130.405 379.354H130.405L120 368.549ZM110.13 374.496L115.249 360.397L115.249 360.397L110.13 374.496ZM96.5139 374.423L99.3865 389.146H99.3865L96.5139 374.423ZM128.608 391.189L140.962 399.698L128.608 391.189ZM165.303 300.133L150.985 295.664L151.028 295.527L151.073 295.39L165.303 300.133ZM165.303 300.133L179.622 304.603L179.579 304.74L179.534 304.877L165.303 300.133ZM195.876 332.164L181.026 330.043L181.031 330.009L181.036 329.975L195.876 332.164ZM195.876 332.165L180.967 330.508L180.993 330.275L181.026 330.043L195.876 332.165ZM195.875 332.165L210.784 333.822L210.754 334.089L210.715 334.354L195.875 332.165ZM190.5 363.706L205.052 367.344L190.5 363.706ZM218.5 418.706L217.619 433.68H217.619L218.5 418.706ZM209 386.549L203.208 400.385H203.208L209 386.549ZM265.13 286.283L278.954 292.104L265.13 286.283ZM269.5 341.549L283.73 336.805H283.73L269.5 341.549ZM271.383 346.817L285.431 341.56L285.431 341.56L271.383 346.817ZM272.956 352.404L257.967 352.999L272.956 352.404ZM269.004 363.543L255.326 357.388L255.36 357.312L255.395 357.236L269.004 363.543ZM269.004 363.544L282.683 369.699L282.642 369.789L282.601 369.879L269.004 363.544ZM269.002 363.548L255.393 357.241L255.399 357.227L255.406 357.213L269.002 363.548ZM265.13 372.028L278.825 378.147L278.825 378.147L265.13 372.028ZM286.812 416.577L296.068 404.773L296.16 404.846L296.251 404.919L286.812 416.577ZM306 416.577L314.01 429.26L314.01 429.26L306 416.577ZM294.716 391.989L305.018 381.086L305.023 381.091L294.716 391.989ZM294.687 391.961L284.385 402.864L284.379 402.858L294.687 391.961ZM293.871 391.189L283.555 402.079L283.555 402.078L293.871 391.189ZM293.871 351.549L307.827 357.047L307.827 357.047L293.871 351.549ZM291.676 322.468L306.11 318.386L306.11 318.386L291.676 322.468ZM299.54 270.901L310.147 281.507L309.989 281.666L309.826 281.819L299.54 270.901ZM333.629 290.594L318.67 291.704L318.629 291.15V290.594H333.629ZM349.651 350.166L335.506 355.158L349.651 350.166ZM358.539 382.088L373.46 383.618L358.539 382.088ZM347.797 402.655L358.61 413.051L358.61 413.051L347.797 402.655ZM382.5 397.549L396.251 403.542H396.251L382.5 397.549ZM371.5 344.327L385.081 337.96H385.081L371.5 344.327ZM366.203 332.748L352.443 338.721L366.203 332.748ZM360.293 320.343L373.692 313.599L373.692 313.599L360.293 320.343ZM271.202 268.823L272.113 253.851L271.202 268.823ZM329.79 270.954L329.82 255.954L329.79 270.954ZM237.636 266.418L236.397 281.367L237.636 266.418ZM207.324 273.542L193.114 268.736L207.324 273.542ZM175.53 269.032L189.569 274.315L175.53 269.032ZM158.474 271.822L143.736 269.027L158.474 271.822ZM301.085 270.321L301.656 255.332L301.085 270.321ZM236.341 267.171L225.565 256.737L236.341 267.171ZM362.344 269.437L360.297 254.577L362.344 269.437ZM384.245 276.752C380.78 280.052 376.538 281.56 373.997 282.324C371.013 283.222 367.701 283.841 364.39 284.297L360.297 254.577C362.801 254.232 364.431 253.874 365.355 253.596C365.802 253.461 365.852 253.414 365.639 253.517C365.481 253.595 364.607 254.026 363.554 255.029L384.245 276.752ZM369.419 230.17C375.429 232.445 383.418 237.11 388.341 244.485C390.987 248.448 393.215 253.959 392.597 260.487C391.969 267.119 388.614 272.591 384.245 276.752L363.554 255.029C364.022 254.583 362.94 255.448 362.73 257.659C362.531 259.765 363.323 261.042 363.39 261.142C363.41 261.171 363.047 260.672 361.987 259.924C360.983 259.216 359.818 258.614 358.8 258.228L369.419 230.17ZM374.677 242.136C375.843 238.517 374.832 235.506 373.902 233.918C372.994 232.365 371.532 230.97 369.419 230.17L358.8 258.228C354.079 256.441 350.334 253.042 348.009 249.068C345.663 245.058 344.101 239.209 346.123 232.935L374.677 242.136ZM256.98 82.6345C320.075 85.9241 355.794 111.246 371.904 145.8C387.303 178.828 382.929 216.527 374.677 242.136L346.123 232.935C353.119 211.223 355.7 182.04 344.714 158.477C334.44 136.44 310.434 115.462 255.418 112.594L256.98 82.6345ZM152.455 117.526C177.271 90.1042 219.309 81.6799 256.577 82.6189L255.821 112.609C221.532 111.745 190.656 120.022 174.698 137.656L152.455 117.526ZM128.106 238.896C116.747 210.593 114.604 159.351 152.455 117.526L174.698 137.656C146.012 169.354 147.981 207.874 155.947 227.721L128.106 238.896ZM139.178 224.069C134.864 223.774 131.134 226.008 129.137 229.025C127.231 231.906 126.781 235.594 128.106 238.896L155.947 227.721C160.569 239.237 152.819 255.074 137.127 253.999L139.178 224.069ZM110.277 240.022C113.193 233.981 117.582 228.598 124.454 225.812C130.427 223.39 136.386 223.878 139.178 224.069L137.127 253.999C136.438 253.952 135.925 253.923 135.499 253.911C135.078 253.899 134.837 253.905 134.715 253.912C134.476 253.926 134.949 253.929 135.726 253.614C136.116 253.456 136.505 253.249 136.866 253.001C137.224 252.755 137.478 252.521 137.633 252.358C137.922 252.054 137.749 252.121 137.294 253.064L110.277 240.022ZM143.051 280.889C137.569 280.964 127.507 280.089 119.317 275.076C114.856 272.345 109.943 267.727 107.861 260.521C105.784 253.333 107.288 246.214 110.277 240.022L137.294 253.064C136.408 254.9 137.27 254.229 136.682 252.193C136.088 250.138 134.795 249.376 134.98 249.489C135.269 249.667 136.24 250.109 138.02 250.461C139.702 250.793 141.414 250.909 142.639 250.892L143.051 280.889ZM153.561 280.89H142.845V250.89H153.561V280.89ZM141.175 282.53L143.736 269.027L173.211 274.617L170.65 288.12L141.175 282.53ZM109.596 357.744C111.348 356.057 114.117 352.431 117.514 346.624C120.782 341.038 124.196 334.19 127.422 326.731C133.947 311.643 139.196 295.23 141.09 283.025L170.735 287.625C168.318 303.204 162.077 322.176 154.958 338.639C151.361 346.957 147.414 354.927 143.409 361.772C139.534 368.396 135.119 374.814 130.405 379.354L109.596 357.744ZM115.249 360.397C115.657 360.545 115.403 360.445 115.054 360.345C114.603 360.216 113.631 359.97 112.336 359.908C110.963 359.844 109.606 360.004 108.341 360.356C107.156 360.686 106.303 361.116 105.841 361.377C105.394 361.63 105.172 361.807 105.24 361.756C105.296 361.713 105.49 361.56 105.874 361.224C106.666 360.531 107.817 359.457 109.596 357.744L130.405 379.354C127.38 382.266 123.941 385.604 120.621 387.484C118.244 388.83 114.954 390.065 110.924 389.875C107.741 389.725 105.035 388.604 105.012 388.596L115.249 360.397ZM93.6412 359.701C98.8745 358.68 103.196 358.342 106.967 358.609C111.078 358.901 113.812 359.875 115.249 360.397L105.012 388.596C104.575 388.438 104.67 388.48 104.8 388.512C104.964 388.553 105.005 388.545 104.845 388.534C104.448 388.506 102.879 388.464 99.3865 389.146L93.6412 359.701ZM140.962 399.698C133.982 409.831 123.863 414.354 113.517 414.023C104.117 413.721 95.7745 409.516 89.8458 404.851C84.2194 400.423 78.2337 393.56 76.3444 385.319C75.319 380.846 75.2817 374.643 79.0998 368.902C82.8985 363.19 88.7018 360.665 93.6412 359.701L99.3865 389.146C99.4159 389.14 102.034 388.592 104.08 385.516C106.145 382.41 105.789 379.499 105.586 378.615C105.402 377.813 105.232 377.887 105.84 378.712C106.377 379.44 107.241 380.365 108.398 381.275C110.923 383.262 113.273 383.999 114.479 384.038C114.922 384.052 115.04 383.974 115.044 383.972C115.073 383.958 115.181 383.901 115.365 383.737C115.553 383.568 115.865 383.247 116.255 382.681L140.962 399.698ZM179.622 304.603C174.875 319.811 169.359 337.495 163.093 354.162C156.89 370.659 149.589 387.172 140.962 399.698L116.255 382.681C122.756 373.242 129.034 359.505 135.012 343.604C140.926 327.873 146.194 311.012 150.985 295.664L179.622 304.603ZM179.534 304.877L179.534 304.877L151.073 295.39L151.073 295.39L179.534 304.877ZM189.569 274.315C186.715 281.9 183.462 292.302 179.622 304.603L150.985 295.664C154.724 283.685 158.264 272.326 161.492 263.749L189.569 274.315ZM202.198 280.89H180.126V250.89H202.198V280.89ZM221.533 278.349C217.106 291.434 213.798 313.458 210.715 334.354L181.036 329.975C183.945 310.263 187.612 285.002 193.114 268.736L221.533 278.349ZM210.725 334.286L210.725 334.286L181.026 330.043L181.026 330.043L210.725 334.286ZM210.784 333.821L210.784 333.822L180.967 330.509L180.967 330.508L210.784 333.821ZM210.715 334.354C208.864 346.897 207.04 359.395 205.052 367.344L175.948 360.068C177.483 353.926 179.073 343.282 181.036 329.976L210.715 334.354ZM205.052 367.344C203.595 373.174 202.285 378.575 201.586 383.692C200.881 388.862 200.971 392.651 201.633 395.312C202.192 397.561 203.099 398.902 204.715 400.029C206.674 401.394 210.875 403.232 219.381 403.732L217.619 433.68C205.767 432.983 195.57 430.221 187.563 424.642C179.215 418.824 174.589 410.876 172.519 402.549C170.551 394.633 170.917 386.558 171.862 379.634C172.815 372.657 174.531 365.734 175.948 360.068L205.052 367.344ZM219.381 403.732C223.842 403.994 226.64 403.818 228.214 403.561C230.022 403.266 229.043 403.06 227.386 404.466C226.422 405.284 225.358 406.551 224.635 408.293C223.916 410.024 223.767 411.659 223.856 412.911C224.008 415.077 224.829 415.921 224.302 415.138C223.317 413.677 220.623 410.934 216.169 407.745C211.941 404.718 207.206 402.059 203.208 400.385L214.792 372.712C221.093 375.35 227.785 379.165 233.632 383.351C239.251 387.374 245.279 392.581 249.185 398.38C251.103 401.228 253.41 405.529 253.781 410.804C254.219 417.012 251.831 423.069 246.794 427.343C242.509 430.978 237.325 432.472 233.04 433.17C228.521 433.907 223.338 434.017 217.619 433.68L219.381 403.732ZM203.208 400.385C194.243 396.633 190.706 388.489 189.35 382.701C187.962 376.781 188.011 370.19 188.567 364.045C189.696 351.556 193.373 336.508 197.691 322.288C202.062 307.895 207.336 293.562 212.047 282.241C214.399 276.588 216.671 271.541 218.678 267.535C219.678 265.54 220.682 263.663 221.657 262.035C222.476 260.668 223.814 258.545 225.565 256.737L247.117 277.605C247.896 276.801 248.008 276.423 247.395 277.448C246.937 278.212 246.302 279.374 245.5 280.974C243.904 284.158 241.926 288.523 239.745 293.766C235.387 304.238 230.458 317.634 226.397 331.005C222.284 344.549 219.299 357.301 218.445 366.747C218.009 371.569 218.236 374.479 218.558 375.855C218.912 377.365 218.618 374.314 214.792 372.712L203.208 400.385ZM270.291 283.796C258.005 283.048 246.333 282.19 236.397 281.367L238.875 251.469C248.603 252.276 260.057 253.117 272.113 253.851L270.291 283.796ZM251.305 280.463C255.43 270.666 259.719 265.831 262.412 262.881L284.569 283.106C283.63 284.135 282.937 284.906 282.123 286.091C281.302 287.287 280.198 289.15 278.954 292.104L251.305 280.463ZM255.27 346.292C252.88 339.122 249.474 328.741 247.808 317.564C246.152 306.451 245.978 293.115 251.305 280.463L278.954 292.104C276.617 297.655 276.233 304.766 277.481 313.143C278.719 321.454 281.33 329.605 283.73 336.805L255.27 346.292ZM257.334 352.075C256.806 350.664 256.088 348.745 255.27 346.292L283.73 336.805C284.362 338.701 284.915 340.18 285.431 341.56L257.334 352.075ZM257.967 352.999C258.004 353.924 258.19 354.476 258.137 354.301C258.107 354.201 258.04 353.993 257.897 353.596C257.752 353.191 257.578 352.727 257.334 352.075L285.431 341.56C286.07 343.266 287.766 347.324 287.944 351.809L257.967 352.999ZM255.395 357.236C256.136 355.638 256.704 354.41 257.168 353.373C257.635 352.329 257.901 351.685 258.058 351.264C258.36 350.459 257.903 351.38 257.967 352.999L287.944 351.809C288.104 355.835 287.125 359.188 286.154 361.782C285.27 364.145 283.958 366.95 282.614 369.851L255.395 357.236ZM255.325 357.388L255.326 357.388L282.683 369.699L282.683 369.699L255.325 357.388ZM255.406 357.213L255.407 357.209L282.601 369.879L282.599 369.883L255.406 357.213ZM251.434 365.909C253.019 362.363 254.339 359.514 255.393 357.241L282.612 369.855C281.563 372.119 280.318 374.805 278.825 378.147L251.434 365.909ZM277.557 428.381C270.763 423.054 262.058 414.754 255.962 404.81C250 395.083 244.813 380.728 251.434 365.909L278.825 378.147C278.097 379.777 277.799 383.029 281.539 389.131C285.146 395.015 290.957 400.766 296.068 404.773L277.557 428.381ZM314.01 429.26C297.71 439.554 282.573 432.445 277.374 428.236L296.251 404.919C295.86 404.603 295.607 404.449 295.548 404.414C295.462 404.363 295.445 404.359 295.49 404.379C295.591 404.424 295.775 404.488 295.99 404.52C296.18 404.549 296.377 404.551 296.607 404.507C296.816 404.467 297.275 404.347 297.99 403.895L314.01 429.26ZM305.023 381.091C309.039 384.889 315.664 391.019 319.678 397.309C321.668 400.426 324.407 405.644 324.215 412.03C323.982 419.768 319.657 425.693 314.01 429.26L297.99 403.895C297.598 404.143 296.598 404.875 295.69 406.33C294.731 407.868 294.275 409.577 294.229 411.128C294.151 413.709 295.202 414.721 294.39 413.449C293.76 412.461 292.574 410.992 290.666 408.996C288.804 407.048 286.705 405.058 284.409 402.887L305.023 381.091ZM304.988 381.058L305.018 381.086L284.415 402.892L284.385 402.864L304.988 381.058ZM304.187 380.3C304.451 380.55 304.719 380.804 304.994 381.064L284.379 402.858C284.106 402.6 283.829 402.339 283.555 402.079L304.187 380.3ZM307.827 357.047C304.923 364.418 303.335 370.397 303.102 374.848C302.881 379.063 303.906 380.034 304.187 380.3L283.555 402.078C274.734 393.722 272.646 382.776 273.143 373.279C273.628 364.017 276.591 354.488 279.915 346.051L307.827 357.047ZM306.11 318.386C308.752 327.729 313.54 342.544 307.827 357.047L279.915 346.051C281.222 342.733 280.63 338.53 277.242 326.551L306.11 318.386ZM301.812 295.385C301.812 302.894 303.714 309.916 306.11 318.386L277.242 326.551C274.97 318.516 271.812 307.654 271.812 295.385H301.812ZM309.826 281.819C306.308 285.133 304.607 286.848 303.442 288.714C302.592 290.078 301.812 291.896 301.812 295.385H271.812C271.812 286.38 274.115 279.047 277.987 272.839C281.546 267.133 286.208 262.852 289.255 259.983L309.826 281.819ZM310.147 281.507L310.147 281.507L288.933 260.294L288.934 260.294L310.147 281.507ZM329.76 285.954C320.537 285.935 310.589 285.694 300.514 285.31L301.656 255.332C311.478 255.706 321.051 255.936 329.82 255.954L329.76 285.954ZM333.118 256.327C335.696 256.912 339.47 258.322 342.659 261.952C345.4 265.072 346.568 268.57 347.167 271.018C348.313 275.702 348.629 282.162 348.629 290.594H318.629C318.629 286.514 318.54 283.556 318.396 281.419C318.246 279.199 318.063 278.298 318.026 278.148C317.962 277.883 318.319 279.7 320.12 281.752C321.102 282.869 322.296 283.808 323.617 284.508C324.868 285.171 325.936 285.459 326.476 285.582L333.118 256.327ZM348.588 289.485C349.739 305.001 356.954 325.788 363.796 345.174L335.506 355.158C329.126 337.081 320.182 312.083 318.67 291.704L348.588 289.485ZM363.796 345.174C366.333 352.365 368.83 359.427 370.602 365.355C371.492 368.335 372.29 371.321 372.828 374.106C373.322 376.659 373.82 380.11 373.46 383.618L343.617 380.557C343.525 381.455 343.69 381.438 343.374 379.8C343.102 378.394 342.612 376.467 341.858 373.946C340.342 368.873 338.127 362.585 335.506 355.158L363.796 345.174ZM373.46 383.618C371.831 399.506 363.323 408.149 358.61 413.051L336.984 392.259C339.271 389.88 340.591 388.44 341.633 386.746C342.524 385.296 343.321 383.444 343.617 380.557L373.46 383.618ZM358.61 413.051C357.711 413.986 357.116 414.608 356.611 415.179C356.126 415.728 355.939 415.993 355.892 416.065C355.86 416.113 356.032 415.864 356.202 415.362C356.386 414.821 356.493 414.207 356.493 413.608H326.493C326.493 402.124 334.582 394.757 336.984 392.259L358.61 413.051ZM356.493 413.608C356.493 413.204 356.364 411.292 354.739 409.213C353.092 407.106 351.085 406.332 350.092 406.105C348.867 405.826 349.764 406.349 353.293 404.914C356.313 403.686 359.777 401.599 362.81 398.959C365.897 396.272 367.852 393.615 368.75 391.555L396.251 403.542C390.158 417.519 376.24 427.968 364.593 432.705C358.887 435.025 351.059 437.097 343.418 435.353C339.217 434.395 334.579 432.135 331.103 427.688C327.648 423.269 326.493 418.162 326.493 413.608H356.493ZM368.75 391.555C370.138 388.37 370.407 383.653 368.315 376.088C366.211 368.477 362.385 360.221 357.918 350.695L385.081 337.96C389.287 346.93 394.322 357.574 397.231 368.094C400.152 378.661 401.584 391.306 396.251 403.542L368.75 391.555ZM357.918 350.695C356.103 346.823 354.192 342.749 352.443 338.721L379.962 326.775C381.508 330.336 383.23 334.011 385.081 337.96L357.918 350.695ZM352.443 338.721C350.534 334.324 348.698 330.669 346.895 327.086L373.692 313.599C375.489 317.169 377.677 321.51 379.962 326.775L352.443 338.721ZM346.895 327.087C344.007 321.35 340.612 314.788 338.923 306.947C337.151 298.722 337.399 290.109 339.519 279.509L368.936 285.393C367.358 293.286 367.589 297.56 368.25 300.629C368.993 304.081 370.481 307.219 373.692 313.599L346.895 327.087ZM272.113 253.851C276.965 254.146 283.202 256.464 286.845 262.581C291.198 269.892 289.192 278.043 284.569 283.106L262.412 262.881C261.197 264.213 259.808 266.412 259.375 269.442C258.931 272.544 259.642 275.534 261.069 277.931C263.775 282.475 268.002 283.656 270.291 283.796L272.113 253.851ZM329.82 255.954C330.98 255.956 332.061 256.092 333.04 256.309L326.554 285.6C327.529 285.816 328.605 285.951 329.76 285.954L329.82 255.954ZM224.185 258.402C226.495 255.129 231.528 250.86 238.875 251.469L236.397 281.367C242.783 281.896 246.941 278.186 248.694 275.702L224.185 258.402ZM202.198 250.89C217.655 250.89 225.559 266.446 221.533 278.349L193.114 268.736C192.111 271.703 192.745 274.563 194.08 276.601C195.467 278.716 198.296 280.89 202.198 280.89V250.89ZM161.492 263.749C164.48 255.808 172.043 250.89 180.126 250.89V280.89C184.132 280.89 188.017 278.44 189.569 274.315L161.492 263.749ZM153.561 250.89C166.101 250.89 175.547 262.297 173.211 274.617L143.736 269.027C142.568 275.187 147.291 280.89 153.561 280.89V250.89ZM289.255 259.982C292.599 256.832 297.067 255.157 301.656 255.332L300.514 285.31C303.96 285.442 307.315 284.184 309.826 281.819L289.255 259.982ZM225.565 256.737C225.358 256.95 225.106 257.225 224.833 257.555C224.561 257.884 224.344 258.176 224.185 258.402L248.694 275.702C248.228 276.362 247.709 276.994 247.117 277.605L225.565 256.737ZM364.39 284.297C366.681 283.981 368.305 283.117 369.179 282.544C370.055 281.971 370.546 281.455 370.694 281.293C370.952 281.011 370.794 281.12 370.374 281.896C370.005 282.58 369.632 283.412 369.329 284.22C368.998 285.102 368.909 285.526 368.936 285.393L339.519 279.509C340.224 275.982 341.92 271.449 343.98 267.636C345.038 265.678 346.541 263.25 348.553 261.05C350.236 259.209 354.158 255.423 360.297 254.577L364.39 284.297Z" fill="black" mask="url(#path-1-outside-1_1_1172)"/>
<path d="M161.608 205.456C158.806 181.032 168.345 159.29 178.927 147.571C187.276 138.325 201.033 132.755 207.389 130.958C209 130.471 209 129.729 209 124.323C209 118.916 205.241 115.726 178.927 128.161C151.285 141.224 139.429 188.235 149.607 207.541C149.817 207.938 150.09 208.294 150.417 208.601C156.325 214.143 159.92 210.738 161.345 207.591C161.646 206.927 161.691 206.181 161.608 205.456Z" fill="#FFD6EA"/>
<path d="M331.079 243.594C322.766 249.09 310.586 242.1 304.814 233.736C301.928 228.857 306.603 216.65 320.688 218.8C338.294 221.489 341.469 236.723 331.079 243.594Z" fill="#F267A9"/>
<path d="M300.195 125.627C325.055 127.415 341 146.726 341 168.684C341 194.539 319.656 191.347 300.195 180.494C280.734 169.641 269.12 123.393 300.195 125.627Z" fill="#F267A9"/>
<path d="M232.328 153.162C243.713 142.657 255.803 157.539 260.424 166.292C264.782 174.546 260.424 180.549 243.275 180.549C226.125 180.549 218.098 166.292 232.328 153.162Z" fill="#F267A9"/>
</svg>
