<svg width="500" height="501" viewBox="0 0 500 501" fill="none" xmlns="http://www.w3.org/2000/svg">
<path d="M121.708 362.012C135.915 366.967 150.477 364.75 161.506 361.697C176.507 357.545 186.072 343.795 187.695 329.405L201.091 210.651C203.59 188.497 186.687 165.606 163.424 164.47C156.356 164.125 148.88 164.136 141.92 164.958C135.066 165.767 128.096 167.43 122.464 170.81C116.747 174.24 112.546 180.126 109.382 186.618C106.157 193.234 103.629 201.268 101.678 210.013C97.7703 227.521 95.9615 248.854 95.9926 269.679C96.0236 290.499 97.8944 311.229 101.548 327.537C103.369 335.663 105.702 343.014 108.658 348.81C111.47 354.321 115.577 359.873 121.708 362.012Z" fill="#C51110" stroke="black" stroke-width="15"/>
<mask id="mask0_1_1108" style="mask-type:alpha" maskUnits="userSpaceOnUse" x="88" y="156" width="121" height="217">
<path d="M121.708 362.012C135.915 366.967 150.477 364.75 161.506 361.697C176.507 357.545 186.072 343.795 187.695 329.405L201.091 210.651C203.59 188.497 186.687 165.606 163.424 164.47C156.356 164.125 148.88 164.136 141.92 164.958C135.066 165.767 128.096 167.43 122.464 170.81C116.747 174.24 112.546 180.126 109.382 186.618C106.157 193.234 103.629 201.268 101.678 210.013C97.7703 227.521 95.9615 248.854 95.9926 269.679C96.0236 290.499 97.8944 311.229 101.548 327.537C103.369 335.663 105.702 343.014 108.658 348.81C111.47 354.321 115.577 359.873 121.708 362.012Z" fill="#E453BD" stroke="#63114C" stroke-width="15"/>
</mask>
<g mask="url(#mask0_1_1108)">
<path d="M175.854 216.245C136.725 204.358 86.9064 226.151 66.8879 238.534C66.8879 301.932 95.7805 369.376 110.227 395.172H175.854V216.245Z" fill="#7B0939" fill-opacity="0.55"/>
<path d="M121.708 362.012C135.915 366.967 150.477 364.75 161.506 361.697C176.507 357.545 186.072 343.795 187.695 329.405L201.091 210.651C203.59 188.497 186.687 165.606 163.424 164.47C156.356 164.125 148.88 164.136 141.92 164.958C135.066 165.767 128.096 167.43 122.464 170.81C116.747 174.24 112.546 180.126 109.382 186.618C106.157 193.234 103.629 201.268 101.678 210.013C97.7703 227.521 95.9615 248.854 95.9926 269.679C96.0236 290.499 97.8944 311.229 101.548 327.537C103.369 335.663 105.702 343.014 108.658 348.81C111.47 354.321 115.577 359.873 121.708 362.012Z" stroke="black" stroke-width="15"/>
</g>
<path d="M170.282 160.525C155.342 198.621 149.103 325.665 156.336 399.249C156.877 404.757 159.923 409.729 164.914 412.12C183.085 420.824 215.238 428.185 242.1 407.905L251.387 356.168L270.27 353.382L288.38 351.37C291.228 386.784 291.321 404.487 294.726 407.905C304.102 421.236 329.452 414.379 344.703 409.036C351.311 406.721 356 400.633 356.843 393.682C378.084 218.66 344.091 145.547 320.452 123.726C296.306 101.438 195.047 97.3736 170.282 160.525Z" fill="#C51110"/>
<path d="M306.489 349.358L288.38 351.37M288.38 351.37L270.27 353.382L251.387 356.168L242.1 407.905C215.238 428.185 183.085 420.824 164.914 412.12C159.923 409.729 156.877 404.756 156.336 399.249C149.103 325.665 155.342 198.621 170.282 160.525C195.047 97.3736 296.306 101.438 320.452 123.726C344.091 145.547 378.084 218.66 356.843 393.682C356 400.633 351.311 406.721 344.703 409.036C329.452 414.379 304.102 421.236 294.726 407.905C291.321 404.487 291.228 386.784 288.38 351.37Z" stroke="black" stroke-width="15" stroke-linecap="round" stroke-linejoin="round"/>
<mask id="mask1_1_1108" style="mask-type:alpha" maskUnits="userSpaceOnUse" x="145" y="101" width="227" height="328">
<path d="M170.282 160.525C155.342 198.621 149.103 325.665 156.336 399.249C156.877 404.757 159.923 409.729 164.914 412.12C183.085 420.824 215.238 428.185 242.1 407.905L251.387 356.168L270.27 353.382L288.38 351.37C291.228 386.784 291.321 404.487 294.726 407.905C304.102 421.236 329.452 414.379 344.703 409.036C351.311 406.721 356 400.633 356.843 393.682C378.084 218.66 344.091 145.547 320.452 123.726C296.306 101.438 195.047 97.3736 170.282 160.525Z" fill="#C51110"/>
<path d="M306.489 349.358L288.38 351.37M288.38 351.37L270.27 353.382L251.387 356.168L242.1 407.905C215.238 428.185 183.085 420.824 164.914 412.12C159.923 409.729 156.877 404.756 156.336 399.249C149.103 325.665 155.342 198.621 170.282 160.525C195.047 97.3736 296.306 101.438 320.452 123.726C344.091 145.547 378.084 218.66 356.843 393.682C356 400.633 351.311 406.721 344.703 409.036C329.452 414.379 304.102 421.236 294.726 407.905C291.321 404.487 291.228 386.784 288.38 351.37Z" stroke="black" stroke-width="15" stroke-linecap="round" stroke-linejoin="round"/>
</mask>
<g mask="url(#mask1_1_1108)">
<path d="M322.528 318.402C344.321 309.486 358.437 273.206 362.152 246.583L368.962 465.754H148.553L153.312 88.8296C178.039 96.5152 199.379 114.768 207.05 122.636C207.523 123.121 207.649 123.846 207.394 124.475C176.897 199.588 180.89 266.588 211.704 308.496C231.404 335.287 295.286 329.546 322.528 318.402Z" fill="#7B0939" fill-opacity="0.55"/>
<path d="M306.489 349.358L288.38 351.37M288.38 351.37L270.27 353.382L251.387 356.168L242.1 407.905C215.238 428.185 183.085 420.824 164.914 412.12C159.923 409.729 156.877 404.756 156.336 399.249C149.103 325.665 155.342 198.621 170.282 160.525C195.047 97.3736 296.306 101.438 320.452 123.726C344.091 145.547 378.084 218.66 356.843 393.682C356 400.633 351.311 406.721 344.703 409.036C329.452 414.379 304.102 421.236 294.726 407.905C291.321 404.487 291.228 386.784 288.38 351.37Z" stroke="black" stroke-width="15" stroke-linecap="round" stroke-linejoin="round"/>
</g>
<rect x="242.278" y="132.375" width="147.371" height="149.101" rx="63.7359" fill="#98C7DD" stroke="black" stroke-width="15"/>
<mask id="mask2_1_1108" style="mask-type:alpha" maskUnits="userSpaceOnUse" x="234" y="124" width="164" height="165">
<rect x="242.278" y="132.375" width="147.371" height="149.101" rx="63.7359" fill="#98C7DD" stroke="black" stroke-width="15"/>
</mask>
<g mask="url(#mask2_1_1108)">
<path d="M220.794 187.892C265.35 267.488 351.002 259.124 382.581 239.37V302.527H220.794V187.892Z" fill="#4B646E" fill-opacity="0.55"/>
<path d="M293.14 156.453C290.764 138.368 329.731 132.18 338.285 132.18C350.64 130.679 383.43 147.886 375.826 166.448C368.223 185.009 295.516 174.539 293.14 156.453Z" fill="#FBFDFD" fill-opacity="0.85"/>
<rect x="242.278" y="132.375" width="147.371" height="149.101" rx="63.7359" stroke="black" stroke-width="15"/>
</g>
</svg>
