<svg width="500" height="501" viewBox="0 0 500 501" fill="none" xmlns="http://www.w3.org/2000/svg">
<path d="M271.269 151.491L269.538 150.5H267.543H256.789H244.211H233.457H231.462L229.731 151.491C181.909 178.866 146.998 215.786 124.24 252.439C101.583 288.929 90.6309 325.728 91.5538 353.031C93.1006 398.791 131.211 420.388 167.17 430.514C203.522 440.75 241.546 440.55 250.5 440.488C259.454 440.55 297.478 440.75 333.83 430.514C369.789 420.388 407.899 398.791 409.446 353.031C410.369 325.728 399.417 288.929 376.76 252.439C354.002 215.786 319.091 178.866 271.269 151.491Z" fill="#D3A35B" stroke="black" stroke-width="15"/>
<path d="M191.286 209.067C223.075 209.067 247.072 179.681 247.072 145.784C247.072 111.886 223.075 82.5 191.286 82.5C159.497 82.5 135.5 111.886 135.5 145.784C135.5 179.681 159.497 209.067 191.286 209.067Z" fill="#D9D9D9" stroke="black" stroke-width="15"/>
<circle cx="191.286" cy="145.484" r="17.6948" fill="black"/>
<path d="M308.286 209.067C340.075 209.067 364.072 179.681 364.072 145.784C364.072 111.886 340.075 82.5 308.286 82.5C276.497 82.5 252.5 111.886 252.5 145.784C252.5 179.681 276.497 209.067 308.286 209.067Z" fill="#D9D9D9" stroke="black" stroke-width="15"/>
<circle cx="308.286" cy="145.484" r="17.6948" fill="black"/>
<path d="M181.968 267C174.296 278.337 160.457 304.358 166.476 317.746C172.496 331.135 186.836 331.783 201 328.004" stroke="black" stroke-width="15" stroke-linecap="round"/>
</svg>
