<svg width="500" height="501" viewBox="0 0 500 501" fill="none" xmlns="http://www.w3.org/2000/svg">
<path fill-rule="evenodd" clip-rule="evenodd" d="M425.047 184.817C441.287 202.762 443.386 273.162 382.974 304.304C353.207 319.65 315.226 322.057 278.612 319.11C268.525 335.139 250.861 355.452 228.982 359.635C208.264 363.596 211.72 335.991 219.661 310.369C202.421 306.829 187.145 302.978 175.328 299.998C168.294 298.225 162.486 296.76 158.219 295.855C155.893 295.361 153.706 296.726 152.725 298.892C136.318 335.107 79.084 363.633 72.8274 359.452C68.288 356.419 70.494 309.629 99.7962 289.376C103.801 286.608 104.972 276.574 101.642 273.022C80.3905 250.353 50.6853 196.712 72.8274 196.712C90.9426 196.712 111.133 211.408 127.445 223.281C134.529 228.438 140.882 233.062 146.016 235.719C147.17 236.316 148.502 236.352 149.725 235.913C165.837 230.128 185.567 224.19 203.323 218.846C226.4 211.901 246.145 205.959 250.285 202.659C252.794 200.66 245.847 179.028 239.963 160.705C238.533 156.255 237.167 152 236.014 148.269C235.227 145.723 236.617 143.008 239.224 142.458C272.639 135.406 318.62 171.096 338.205 190.71C346.207 189.837 355.746 187.349 365.622 184.774C388.727 178.749 413.669 172.245 425.047 184.817Z" fill="#7E778A"/>
<path d="M382.974 304.304L386.411 310.971L382.974 304.304ZM425.047 184.817L430.607 179.784V179.784L425.047 184.817ZM278.612 319.11L279.214 311.634L274.685 311.269L272.265 315.115L278.612 319.11ZM228.982 359.635L227.574 352.268H227.574L228.982 359.635ZM219.661 310.369L226.825 312.589L229.274 304.687L221.169 303.022L219.661 310.369ZM175.328 299.998L177.162 292.726L175.328 299.998ZM158.219 295.855L159.776 288.518L159.776 288.518L158.219 295.855ZM152.725 298.892L145.893 295.797L145.893 295.797L152.725 298.892ZM72.8274 359.452L68.6604 365.688H68.6604L72.8274 359.452ZM99.7962 289.376L95.5317 283.206H95.5317L99.7962 289.376ZM101.642 273.022L96.1708 278.152H96.1708L101.642 273.022ZM127.445 223.281L123.032 229.345L127.445 223.281ZM146.016 235.719L142.569 242.38L142.569 242.38L146.016 235.719ZM149.725 235.913L147.19 228.854L147.19 228.854L149.725 235.913ZM203.323 218.846L201.162 211.664L203.323 218.846ZM250.285 202.659L254.959 208.525L254.959 208.525L250.285 202.659ZM239.963 160.705L247.103 158.412V158.412L239.963 160.705ZM236.014 148.269L228.848 150.483V150.483L236.014 148.269ZM239.224 142.458L240.773 149.796L239.224 142.458ZM338.205 190.71L332.898 196.009L335.441 198.556L339.019 198.166L338.205 190.71ZM365.622 184.774L363.729 177.517V177.517L365.622 184.774ZM386.411 310.971C418.914 294.215 434.705 266.756 440.094 241.157C442.778 228.409 442.91 216.029 441.226 205.494C439.576 195.175 436.04 185.787 430.607 179.784L419.486 189.85C422.174 192.82 424.99 198.961 426.414 207.862C427.803 216.548 427.729 227.079 425.416 238.067C420.811 259.94 407.446 283.251 379.538 297.638L386.411 310.971ZM278.011 326.585C315.108 329.571 354.781 327.276 386.411 310.971L379.538 297.638C351.633 312.023 315.344 314.542 279.214 311.634L278.011 326.585ZM272.265 315.115C267.48 322.719 260.962 331.224 253.189 338.251C245.385 345.307 236.706 350.522 227.574 352.268L230.39 367.001C243.137 364.564 254.23 357.532 263.249 349.378C272.3 341.196 279.658 331.53 284.96 323.104L272.265 315.115ZM227.574 352.268C223.974 352.956 223.11 352.044 222.935 351.871C222.366 351.31 221.365 349.612 221.053 345.525C220.435 337.425 222.893 325.277 226.825 312.589L212.497 308.149C208.489 321.082 205.248 335.548 206.096 346.666C206.517 352.187 208.04 358.249 212.402 362.551C217.157 367.24 223.631 368.294 230.39 367.001L227.574 352.268ZM173.494 307.271C185.308 310.249 200.731 314.139 218.152 317.716L221.169 303.022C204.111 299.52 188.982 295.706 177.162 292.726L173.494 307.271ZM156.662 303.191C160.756 304.06 166.4 305.482 173.494 307.271L177.162 292.726C170.188 290.968 164.216 289.46 159.776 288.518L156.662 303.191ZM159.556 301.987C159.436 302.252 159.184 302.604 158.697 302.883C158.166 303.188 157.422 303.353 156.662 303.191L159.776 288.518C153.37 287.158 148.042 291.053 145.893 295.797L159.556 301.987ZM68.6604 365.688C70.8202 367.132 73.132 367.338 74.4592 367.358C75.9658 367.382 77.4914 367.17 78.8916 366.883C81.7136 366.304 84.9995 365.209 88.4765 363.791C95.4867 360.931 104.159 356.39 113.056 350.61C130.607 339.208 150.466 322.053 159.556 301.987L145.893 295.797C138.577 311.946 121.616 327.162 104.884 338.031C96.6396 343.387 88.8045 347.457 82.8109 349.902C79.786 351.136 77.4459 351.867 75.8762 352.189C75.5018 352.266 75.2105 352.311 74.9959 352.336C74.7761 352.361 74.6818 352.36 74.6918 352.36C74.7003 352.36 74.7514 352.361 74.8388 352.371C74.9253 352.38 75.0659 352.4 75.249 352.442C75.5895 352.521 76.2471 352.717 76.9945 353.217L68.6604 365.688ZM95.5317 283.206C78.778 294.786 70.2155 313.549 66.3445 329.055C64.3874 336.895 63.5353 344.258 63.5057 350.033C63.491 352.894 63.6764 355.585 64.1224 357.85C64.3432 358.972 64.6713 360.216 65.1943 361.406C65.643 362.427 66.6263 364.329 68.6604 365.688L76.9945 353.217C77.789 353.747 78.2673 354.324 78.5116 354.664C78.7629 355.013 78.8864 355.279 78.9263 355.37C78.9972 355.531 78.9358 355.44 78.8398 354.952C78.652 353.998 78.4939 352.379 78.5055 350.11C78.5285 345.625 79.2082 339.457 80.8979 332.688C84.3206 318.978 91.5122 304.219 104.061 295.545L95.5317 283.206ZM96.1708 278.152C95.7086 277.659 95.8287 277.462 95.9666 278.154C96.0866 278.755 96.1332 279.635 96.0182 280.641C95.9033 281.645 95.6581 282.505 95.3983 283.085C95.1005 283.749 95.0088 283.567 95.5317 283.206L104.061 295.545C106.586 293.8 108.142 291.326 109.086 289.22C110.068 287.029 110.659 284.639 110.921 282.345C111.183 280.052 111.149 277.585 110.677 275.22C110.223 272.945 109.241 270.162 107.114 267.893L96.1708 278.152ZM72.8274 189.212C68.4883 189.212 64.1463 190.592 61.0865 194.246C58.2352 197.651 57.4979 201.867 57.5 205.452C57.5042 212.507 60.3832 221.139 64.1236 229.445C71.7597 246.402 84.9493 266.182 96.1708 278.152L107.114 267.893C97.0837 257.193 84.7947 238.817 77.8008 223.286C74.2261 215.348 72.5022 209.154 72.5 205.443C72.4989 203.644 72.9076 203.493 72.5869 203.876C72.0577 204.508 71.631 204.212 72.8274 204.212V189.212ZM131.859 217.218C123.772 211.331 114.268 204.401 104.435 198.977C94.6857 193.599 83.7712 189.212 72.8274 189.212V204.212C79.9988 204.212 88.2369 207.172 97.1897 212.111C106.059 217.003 114.806 223.358 123.032 229.345L131.859 217.218ZM149.463 229.058C144.955 226.725 139.134 222.513 131.859 217.218L123.032 229.345C129.925 234.362 136.809 239.399 142.569 242.38L149.463 229.058ZM147.19 228.854C147.711 228.667 148.568 228.595 149.463 229.058L142.569 242.38C145.772 244.037 149.293 244.037 152.259 242.972L147.19 228.854ZM201.162 211.664C183.458 216.993 163.525 222.99 147.19 228.854L152.259 242.972C168.149 237.267 187.676 231.388 205.485 226.028L201.162 211.664ZM245.612 196.793C245.696 196.727 245.472 196.907 244.665 197.312C243.925 197.683 242.923 198.13 241.635 198.65C239.058 199.692 235.655 200.903 231.544 202.267C223.327 204.993 212.736 208.181 201.162 211.664L205.485 226.028C216.987 222.566 227.807 219.311 236.267 216.504C240.494 215.102 244.246 213.774 247.257 212.557C249.992 211.451 252.965 210.113 254.959 208.525L245.612 196.793ZM232.822 162.998C235.781 172.212 238.929 182.021 241.034 189.769C242.094 193.675 242.818 196.8 243.142 198.953C243.22 199.471 243.267 199.883 243.291 200.199C243.303 200.354 243.309 200.473 243.311 200.559C243.314 200.646 243.312 200.684 243.312 200.68C243.312 200.679 243.315 200.606 243.335 200.477C243.353 200.353 243.396 200.121 243.491 199.816C243.65 199.308 244.161 197.949 245.612 196.793L254.959 208.525C256.723 207.119 257.474 205.357 257.804 204.303C258.151 203.197 258.259 202.157 258.295 201.387C258.368 199.846 258.198 198.203 257.975 196.721C257.518 193.683 256.607 189.881 255.509 185.838C253.296 177.689 250.029 167.521 247.103 158.412L232.822 162.998ZM228.848 150.483C230.016 154.262 231.396 158.559 232.822 162.998L247.103 158.412C245.671 153.951 244.318 149.738 243.18 146.054L228.848 150.483ZM237.675 135.119C230.224 136.692 226.922 144.251 228.848 150.483L243.18 146.054C243.378 146.698 243.331 147.464 242.947 148.176C242.54 148.931 241.756 149.588 240.773 149.796L237.675 135.119ZM343.513 185.41C333.356 175.239 316.454 160.977 297.659 150.094C279.216 139.414 257.252 130.988 237.675 135.119L240.773 149.796C254.611 146.876 272.345 152.769 290.143 163.074C307.588 173.176 323.47 186.567 332.898 196.009L343.513 185.41ZM363.729 177.517C353.681 180.137 344.73 182.453 337.392 183.254L339.019 198.166C347.684 197.22 357.812 194.561 367.514 192.031L363.729 177.517ZM430.607 179.784C422.486 170.81 410.292 169.491 399.159 170.344C387.809 171.213 375.101 174.551 363.729 177.517L367.514 192.031C379.248 188.972 390.563 186.046 400.305 185.3C410.264 184.537 416.23 186.252 419.486 189.85L430.607 179.784Z" fill="black"/>
<mask id="mask0_1_1132" style="mask-type:alpha" maskUnits="userSpaceOnUse" x="57" y="134" width="386" height="234">
<path fill-rule="evenodd" clip-rule="evenodd" d="M425.047 184.817C441.287 202.762 443.386 273.162 382.974 304.304C354.515 318.975 318.548 321.82 283.446 319.466C280.473 319.267 277.636 320.698 275.958 323.16C265.577 338.386 249.053 355.798 228.982 359.635C210.544 363.16 211.252 341.683 217.229 318.854C218.426 314.281 215.645 309.548 211.026 308.538C197.315 305.542 185.131 302.47 175.328 299.998C168.294 298.225 162.486 296.76 158.219 295.855C155.893 295.361 153.706 296.726 152.725 298.892C136.318 335.107 79.084 363.633 72.8274 359.452C68.288 356.419 70.494 309.629 99.7962 289.376C103.801 286.608 104.972 276.574 101.642 273.022C80.3905 250.353 50.6853 196.712 72.8274 196.712C90.9426 196.712 111.133 211.408 127.445 223.281C134.529 228.438 140.882 233.062 146.016 235.719C147.17 236.316 148.502 236.352 149.725 235.913C165.837 230.128 185.567 224.19 203.323 218.846C226.4 211.901 246.145 205.959 250.285 202.659C252.794 200.66 245.847 179.028 239.963 160.705C238.533 156.255 237.167 152 236.014 148.269C235.227 145.723 236.617 143.008 239.224 142.458C271.172 135.715 314.606 168.043 335.476 188.038C337.228 189.717 339.612 190.575 342.009 190.197C349.155 189.068 357.268 186.952 365.622 184.774C388.727 178.749 413.669 172.245 425.047 184.817Z" fill="#7E778A"/>
<path d="M382.974 304.304L386.411 310.971L382.974 304.304ZM425.047 184.817L430.607 179.784V179.784L425.047 184.817ZM228.982 359.635L227.574 352.268H227.574L228.982 359.635ZM175.328 299.998L177.162 292.726L175.328 299.998ZM158.219 295.855L159.776 288.518L159.776 288.518L158.219 295.855ZM152.725 298.892L145.893 295.797L145.893 295.797L152.725 298.892ZM72.8274 359.452L68.6604 365.688H68.6604L72.8274 359.452ZM99.7962 289.376L95.5317 283.206H95.5317L99.7962 289.376ZM101.642 273.022L96.1708 278.152H96.1708L101.642 273.022ZM127.445 223.281L123.032 229.345L127.445 223.281ZM146.016 235.719L142.569 242.38L142.569 242.38L146.016 235.719ZM149.725 235.913L147.19 228.854L147.19 228.854L149.725 235.913ZM203.323 218.846L201.162 211.664L203.323 218.846ZM250.285 202.659L254.959 208.525L254.959 208.525L250.285 202.659ZM239.963 160.705L247.103 158.412V158.412L239.963 160.705ZM236.014 148.269L228.848 150.483V150.483L236.014 148.269ZM239.224 142.458L240.773 149.796L239.224 142.458ZM365.622 184.774L363.729 177.517V177.517L365.622 184.774ZM335.476 188.038L340.664 182.622L335.476 188.038ZM342.009 190.197L340.839 182.789L342.009 190.197ZM217.229 318.854L224.484 320.754L217.229 318.854ZM211.026 308.538L209.425 315.865L211.026 308.538ZM283.446 319.466L282.944 326.95L283.446 319.466ZM275.958 323.16L269.761 318.935L275.958 323.16ZM386.411 310.971C418.914 294.215 434.705 266.756 440.094 241.157C442.778 228.409 442.91 216.029 441.226 205.494C439.576 195.175 436.04 185.787 430.607 179.784L419.486 189.85C422.174 192.82 424.99 198.961 426.414 207.862C427.803 216.548 427.729 227.079 425.416 238.067C420.811 259.94 407.446 283.251 379.538 297.638L386.411 310.971ZM282.944 326.95C318.562 329.338 356.157 326.567 386.411 310.971L379.538 297.638C352.873 311.384 318.533 314.302 283.948 311.983L282.944 326.95ZM269.761 318.935C259.638 333.783 244.586 349.016 227.574 352.268L230.39 367.001C253.52 362.579 271.515 342.99 282.155 327.385L269.761 318.935ZM227.574 352.268C224.315 352.891 223.31 352.178 223.104 352.019C222.732 351.733 221.855 350.749 221.335 347.817C220.259 341.753 221.529 332.042 224.484 320.754L209.973 316.955C206.952 328.496 204.88 340.937 206.565 350.437C207.426 355.288 209.455 360.439 213.949 363.902C218.609 367.491 224.43 368.141 230.39 367.001L227.574 352.268ZM173.494 307.271C183.294 309.741 195.584 312.84 209.425 315.865L212.627 301.211C199.047 298.243 186.968 295.198 177.162 292.726L173.494 307.271ZM156.662 303.191C160.756 304.06 166.4 305.482 173.494 307.271L177.162 292.726C170.188 290.968 164.216 289.46 159.776 288.518L156.662 303.191ZM159.556 301.987C159.436 302.252 159.184 302.604 158.697 302.883C158.166 303.188 157.422 303.353 156.662 303.191L159.776 288.518C153.37 287.158 148.042 291.053 145.893 295.797L159.556 301.987ZM68.6604 365.688C70.8202 367.132 73.132 367.338 74.4592 367.358C75.9658 367.382 77.4914 367.17 78.8916 366.883C81.7136 366.304 84.9995 365.209 88.4765 363.791C95.4867 360.931 104.159 356.39 113.056 350.61C130.607 339.208 150.466 322.053 159.556 301.987L145.893 295.797C138.577 311.946 121.616 327.162 104.884 338.031C96.6396 343.387 88.8045 347.457 82.8109 349.902C79.786 351.136 77.4459 351.867 75.8762 352.189C75.5018 352.266 75.2105 352.311 74.9959 352.336C74.7761 352.361 74.6818 352.36 74.6918 352.36C74.7003 352.36 74.7514 352.361 74.8388 352.371C74.9253 352.38 75.0659 352.4 75.249 352.442C75.5895 352.521 76.2471 352.717 76.9945 353.217L68.6604 365.688ZM95.5317 283.206C78.778 294.786 70.2155 313.549 66.3445 329.055C64.3874 336.895 63.5353 344.258 63.5057 350.033C63.491 352.894 63.6764 355.585 64.1224 357.85C64.3432 358.972 64.6713 360.216 65.1943 361.406C65.643 362.427 66.6263 364.329 68.6604 365.688L76.9945 353.217C77.789 353.747 78.2673 354.324 78.5116 354.664C78.7629 355.013 78.8864 355.279 78.9263 355.37C78.9972 355.531 78.9358 355.44 78.8398 354.952C78.652 353.998 78.4939 352.379 78.5055 350.11C78.5285 345.625 79.2082 339.457 80.8979 332.688C84.3206 318.978 91.5122 304.219 104.061 295.545L95.5317 283.206ZM96.1708 278.152C95.7086 277.659 95.8287 277.462 95.9666 278.154C96.0866 278.755 96.1332 279.635 96.0182 280.641C95.9033 281.645 95.6581 282.505 95.3983 283.085C95.1005 283.749 95.0088 283.567 95.5317 283.206L104.061 295.545C106.586 293.8 108.142 291.326 109.086 289.22C110.068 287.029 110.659 284.639 110.921 282.345C111.183 280.052 111.149 277.585 110.677 275.22C110.223 272.945 109.241 270.162 107.114 267.893L96.1708 278.152ZM72.8274 189.212C68.4883 189.212 64.1463 190.592 61.0865 194.246C58.2352 197.651 57.4979 201.867 57.5 205.452C57.5042 212.507 60.3832 221.139 64.1236 229.445C71.7597 246.402 84.9493 266.182 96.1708 278.152L107.114 267.893C97.0837 257.193 84.7947 238.817 77.8008 223.286C74.2261 215.348 72.5022 209.154 72.5 205.443C72.4989 203.644 72.9076 203.493 72.5869 203.876C72.0577 204.508 71.631 204.212 72.8274 204.212V189.212ZM131.859 217.218C123.772 211.331 114.268 204.401 104.435 198.977C94.6857 193.599 83.7712 189.212 72.8274 189.212V204.212C79.9988 204.212 88.2369 207.172 97.1897 212.111C106.059 217.003 114.806 223.358 123.032 229.345L131.859 217.218ZM149.463 229.058C144.955 226.725 139.134 222.513 131.859 217.218L123.032 229.345C129.925 234.362 136.809 239.399 142.569 242.38L149.463 229.058ZM147.19 228.854C147.711 228.667 148.568 228.595 149.463 229.058L142.569 242.38C145.772 244.037 149.293 244.037 152.259 242.972L147.19 228.854ZM201.162 211.664C183.458 216.993 163.525 222.99 147.19 228.854L152.259 242.972C168.149 237.267 187.676 231.388 205.485 226.028L201.162 211.664ZM245.612 196.793C245.696 196.727 245.472 196.907 244.665 197.312C243.925 197.683 242.923 198.13 241.635 198.65C239.058 199.692 235.655 200.903 231.544 202.267C223.327 204.993 212.736 208.181 201.162 211.664L205.485 226.028C216.987 222.566 227.807 219.311 236.267 216.504C240.494 215.102 244.246 213.774 247.257 212.557C249.992 211.451 252.965 210.113 254.959 208.525L245.612 196.793ZM232.822 162.998C235.781 172.212 238.929 182.021 241.034 189.769C242.094 193.675 242.818 196.8 243.142 198.953C243.22 199.471 243.267 199.883 243.291 200.199C243.303 200.354 243.309 200.473 243.311 200.559C243.314 200.646 243.312 200.684 243.312 200.68C243.312 200.679 243.315 200.606 243.335 200.477C243.353 200.353 243.396 200.121 243.491 199.816C243.65 199.308 244.161 197.949 245.612 196.793L254.959 208.525C256.723 207.119 257.474 205.357 257.804 204.303C258.151 203.197 258.259 202.157 258.295 201.387C258.368 199.846 258.198 198.203 257.975 196.721C257.518 193.683 256.607 189.881 255.509 185.838C253.296 177.689 250.029 167.521 247.103 158.412L232.822 162.998ZM228.848 150.483C230.016 154.262 231.396 158.559 232.822 162.998L247.103 158.412C245.671 153.951 244.318 149.738 243.18 146.054L228.848 150.483ZM237.675 135.119C230.224 136.692 226.922 144.251 228.848 150.483L243.18 146.054C243.378 146.698 243.331 147.464 242.947 148.176C242.54 148.931 241.756 149.588 240.773 149.796L237.675 135.119ZM340.664 182.622C329.894 172.303 313.31 158.796 295.157 148.671C277.322 138.724 256.42 131.163 237.675 135.119L240.773 149.796C253.976 147.01 270.765 152.242 287.851 161.772C304.62 171.124 320.188 183.778 330.287 193.453L340.664 182.622ZM363.729 177.517C355.274 179.721 347.546 181.729 340.839 182.789L343.18 197.605C350.763 196.407 359.262 194.183 367.514 192.031L363.729 177.517ZM430.607 179.784C422.486 170.81 410.292 169.491 399.159 170.344C387.809 171.213 375.101 174.551 363.729 177.517L367.514 192.031C379.248 188.972 390.563 186.046 400.305 185.3C410.264 184.537 416.23 186.252 419.486 189.85L430.607 179.784ZM330.287 193.453C333.545 196.574 338.224 198.388 343.18 197.605L340.839 182.789C340.863 182.785 340.886 182.785 340.903 182.786C340.919 182.788 340.92 182.79 340.905 182.785C340.872 182.774 340.779 182.732 340.664 182.622L330.287 193.453ZM224.484 320.754C226.718 312.22 221.573 303.166 212.627 301.211L209.425 315.865C209.591 315.901 209.744 315.995 209.869 316.204C210 316.424 210.043 316.688 209.973 316.955L224.484 320.754ZM283.948 311.983C278.231 311.6 272.885 314.354 269.761 318.935L282.155 327.385C282.388 327.043 282.716 326.934 282.944 326.95L283.948 311.983Z" fill="black"/>
</mask>
<g mask="url(#mask0_1_1132)">
<path d="M334.333 279.598C362.794 257.202 392.127 258.753 429.643 248.09C433.323 247.044 436.899 250.235 436.145 253.985L421.809 325.231C421.508 326.726 420.567 327.991 419.204 328.676C388.092 344.3 312.454 376.593 241.333 389.098C170.093 401.623 138.689 366.334 131.285 345.917C130.971 345.051 130.948 344.127 131.16 343.23C135.097 326.595 139.943 299.876 152.833 288.598C172.833 271.098 303.833 303.598 334.333 279.598Z" fill="#D9D9D9"/>
<path d="M382.974 304.304L386.411 310.971L382.974 304.304ZM425.047 184.817L430.607 179.784V179.784L425.047 184.817ZM228.982 359.635L227.574 352.268H227.574L228.982 359.635ZM175.328 299.998L177.162 292.726L175.328 299.998ZM158.219 295.855L159.776 288.518L159.776 288.518L158.219 295.855ZM152.725 298.892L145.893 295.797L145.893 295.797L152.725 298.892ZM72.8274 359.452L68.6604 365.688H68.6604L72.8274 359.452ZM99.7962 289.376L95.5317 283.206H95.5317L99.7962 289.376ZM101.642 273.022L96.1708 278.152H96.1708L101.642 273.022ZM127.445 223.281L123.032 229.345L127.445 223.281ZM146.016 235.719L142.569 242.38L142.569 242.38L146.016 235.719ZM149.725 235.913L147.19 228.854L147.19 228.854L149.725 235.913ZM203.323 218.846L201.162 211.664L203.323 218.846ZM250.285 202.659L254.959 208.525L254.959 208.525L250.285 202.659ZM239.963 160.705L247.103 158.412V158.412L239.963 160.705ZM236.014 148.269L228.848 150.483V150.483L236.014 148.269ZM239.224 142.458L240.773 149.796L239.224 142.458ZM365.622 184.774L363.729 177.517V177.517L365.622 184.774ZM335.476 188.038L340.664 182.622L335.476 188.038ZM342.009 190.197L340.839 182.789L342.009 190.197ZM217.229 318.854L224.484 320.754L217.229 318.854ZM211.026 308.538L209.425 315.865L211.026 308.538ZM283.446 319.466L282.944 326.95L283.446 319.466ZM275.958 323.16L269.761 318.935L275.958 323.16ZM386.411 310.971C418.914 294.215 434.705 266.756 440.094 241.157C442.778 228.409 442.91 216.029 441.226 205.494C439.576 195.175 436.04 185.787 430.607 179.784L419.486 189.85C422.174 192.82 424.99 198.961 426.414 207.862C427.803 216.548 427.729 227.079 425.416 238.067C420.811 259.94 407.446 283.251 379.538 297.638L386.411 310.971ZM282.944 326.95C318.562 329.338 356.157 326.567 386.411 310.971L379.538 297.638C352.873 311.384 318.533 314.302 283.948 311.983L282.944 326.95ZM269.761 318.935C259.638 333.783 244.586 349.016 227.574 352.268L230.39 367.001C253.52 362.579 271.515 342.99 282.155 327.385L269.761 318.935ZM227.574 352.268C224.315 352.891 223.31 352.178 223.104 352.019C222.732 351.733 221.855 350.749 221.335 347.817C220.259 341.753 221.529 332.042 224.484 320.754L209.973 316.955C206.952 328.496 204.88 340.937 206.565 350.437C207.426 355.288 209.455 360.439 213.949 363.902C218.609 367.491 224.43 368.141 230.39 367.001L227.574 352.268ZM173.494 307.271C183.294 309.741 195.584 312.84 209.425 315.865L212.627 301.211C199.047 298.243 186.968 295.198 177.162 292.726L173.494 307.271ZM156.662 303.191C160.756 304.06 166.4 305.482 173.494 307.271L177.162 292.726C170.188 290.968 164.216 289.46 159.776 288.518L156.662 303.191ZM159.556 301.987C159.436 302.252 159.184 302.604 158.697 302.883C158.166 303.188 157.422 303.353 156.662 303.191L159.776 288.518C153.37 287.158 148.042 291.053 145.893 295.797L159.556 301.987ZM68.6604 365.688C70.8202 367.132 73.132 367.338 74.4592 367.358C75.9658 367.382 77.4914 367.17 78.8916 366.883C81.7136 366.304 84.9995 365.209 88.4765 363.791C95.4867 360.931 104.159 356.39 113.056 350.61C130.607 339.208 150.466 322.053 159.556 301.987L145.893 295.797C138.577 311.946 121.616 327.162 104.884 338.031C96.6396 343.387 88.8045 347.457 82.8109 349.902C79.786 351.136 77.4459 351.867 75.8762 352.189C75.5018 352.266 75.2105 352.311 74.9959 352.336C74.7761 352.361 74.6818 352.36 74.6918 352.36C74.7003 352.36 74.7514 352.361 74.8388 352.371C74.9253 352.38 75.0659 352.4 75.249 352.442C75.5895 352.521 76.2471 352.717 76.9945 353.217L68.6604 365.688ZM95.5317 283.206C78.778 294.786 70.2155 313.549 66.3445 329.055C64.3874 336.895 63.5353 344.258 63.5057 350.033C63.491 352.894 63.6764 355.585 64.1224 357.85C64.3432 358.972 64.6713 360.216 65.1943 361.406C65.643 362.427 66.6263 364.329 68.6604 365.688L76.9945 353.217C77.789 353.747 78.2673 354.324 78.5116 354.664C78.7629 355.013 78.8864 355.279 78.9263 355.37C78.9972 355.531 78.9358 355.44 78.8398 354.952C78.652 353.998 78.4939 352.379 78.5055 350.11C78.5285 345.625 79.2082 339.457 80.8979 332.688C84.3206 318.978 91.5122 304.219 104.061 295.545L95.5317 283.206ZM96.1708 278.152C95.7086 277.659 95.8287 277.462 95.9666 278.154C96.0866 278.755 96.1332 279.635 96.0182 280.641C95.9033 281.645 95.6581 282.505 95.3983 283.085C95.1005 283.749 95.0088 283.567 95.5317 283.206L104.061 295.545C106.586 293.8 108.142 291.326 109.086 289.22C110.068 287.029 110.659 284.639 110.921 282.345C111.183 280.052 111.149 277.585 110.677 275.22C110.223 272.945 109.241 270.162 107.114 267.893L96.1708 278.152ZM72.8274 189.212C68.4883 189.212 64.1463 190.592 61.0865 194.246C58.2352 197.651 57.4979 201.867 57.5 205.452C57.5042 212.507 60.3832 221.139 64.1236 229.445C71.7597 246.402 84.9493 266.182 96.1708 278.152L107.114 267.893C97.0837 257.193 84.7947 238.817 77.8008 223.286C74.2261 215.348 72.5022 209.154 72.5 205.443C72.4989 203.644 72.9076 203.493 72.5869 203.876C72.0577 204.508 71.631 204.212 72.8274 204.212V189.212ZM131.859 217.218C123.772 211.331 114.268 204.401 104.435 198.977C94.6857 193.599 83.7712 189.212 72.8274 189.212V204.212C79.9988 204.212 88.2369 207.172 97.1897 212.111C106.059 217.003 114.806 223.358 123.032 229.345L131.859 217.218ZM149.463 229.058C144.955 226.725 139.134 222.513 131.859 217.218L123.032 229.345C129.925 234.362 136.809 239.399 142.569 242.38L149.463 229.058ZM147.19 228.854C147.711 228.667 148.568 228.595 149.463 229.058L142.569 242.38C145.772 244.037 149.293 244.037 152.259 242.972L147.19 228.854ZM201.162 211.664C183.458 216.993 163.525 222.99 147.19 228.854L152.259 242.972C168.149 237.267 187.676 231.388 205.485 226.028L201.162 211.664ZM245.612 196.793C245.696 196.727 245.472 196.907 244.665 197.312C243.925 197.683 242.923 198.13 241.635 198.65C239.058 199.692 235.655 200.903 231.544 202.267C223.327 204.993 212.736 208.181 201.162 211.664L205.485 226.028C216.987 222.566 227.807 219.311 236.267 216.504C240.494 215.102 244.246 213.774 247.257 212.557C249.992 211.451 252.965 210.113 254.959 208.525L245.612 196.793ZM232.822 162.998C235.781 172.212 238.929 182.021 241.034 189.769C242.094 193.675 242.818 196.8 243.142 198.953C243.22 199.471 243.267 199.883 243.291 200.199C243.303 200.354 243.309 200.473 243.311 200.559C243.314 200.646 243.312 200.684 243.312 200.68C243.312 200.679 243.315 200.606 243.335 200.477C243.353 200.353 243.396 200.121 243.491 199.816C243.65 199.308 244.161 197.949 245.612 196.793L254.959 208.525C256.723 207.119 257.474 205.357 257.804 204.303C258.151 203.197 258.259 202.157 258.295 201.387C258.368 199.846 258.198 198.203 257.975 196.721C257.518 193.683 256.607 189.881 255.509 185.838C253.296 177.689 250.029 167.521 247.103 158.412L232.822 162.998ZM228.848 150.483C230.016 154.262 231.396 158.559 232.822 162.998L247.103 158.412C245.671 153.951 244.318 149.738 243.18 146.054L228.848 150.483ZM237.675 135.119C230.224 136.692 226.922 144.251 228.848 150.483L243.18 146.054C243.378 146.698 243.331 147.464 242.947 148.176C242.54 148.931 241.756 149.588 240.773 149.796L237.675 135.119ZM340.664 182.622C329.894 172.303 313.31 158.796 295.157 148.671C277.322 138.724 256.42 131.163 237.675 135.119L240.773 149.796C253.976 147.01 270.765 152.242 287.851 161.772C304.62 171.124 320.188 183.778 330.287 193.453L340.664 182.622ZM363.729 177.517C355.274 179.721 347.546 181.729 340.839 182.789L343.18 197.605C350.763 196.407 359.262 194.183 367.514 192.031L363.729 177.517ZM430.607 179.784C422.486 170.81 410.292 169.491 399.159 170.344C387.809 171.213 375.101 174.551 363.729 177.517L367.514 192.031C379.248 188.972 390.563 186.046 400.305 185.3C410.264 184.537 416.23 186.252 419.486 189.85L430.607 179.784ZM330.287 193.453C333.545 196.574 338.224 198.388 343.18 197.605L340.839 182.789C340.863 182.785 340.886 182.785 340.903 182.786C340.919 182.788 340.92 182.79 340.905 182.785C340.872 182.774 340.779 182.732 340.664 182.622L330.287 193.453ZM224.484 320.754C226.718 312.22 221.573 303.166 212.627 301.211L209.425 315.865C209.591 315.901 209.744 315.995 209.869 316.204C210 316.424 210.043 316.688 209.973 316.955L224.484 320.754ZM283.948 311.983C278.231 311.6 272.885 314.354 269.761 318.935L282.155 327.385C282.388 327.043 282.716 326.934 282.944 326.95L283.948 311.983Z" fill="black"/>
</g>
<circle cx="373.833" cy="228.098" r="13" fill="black"/>
<path d="M285.187 234.776C279.955 239.918 273.835 254.013 291.201 269.255" stroke="black" stroke-width="8" stroke-linecap="round"/>
<path d="M268.44 237.697C262.465 242.969 255.304 257.245 274.454 272.176" stroke="black" stroke-width="8" stroke-linecap="round"/>
<path d="M250.707 240.79C245.476 245.932 239.355 260.027 256.722 275.27" stroke="black" stroke-width="8" stroke-linecap="round"/>
</svg>
