<svg width="500" height="501" viewBox="0 0 500 501" fill="none" xmlns="http://www.w3.org/2000/svg">
<path d="M163.735 394.261L163.814 394.275L163.894 394.287C192.998 398.733 239.272 403.666 283.716 404.028C305.934 404.209 327.874 403.249 347.068 400.46C366.072 397.698 383.202 393.035 395.192 385.282C419.655 369.466 427.838 338.206 429.261 308.395C430.707 278.109 425.333 246.596 419.935 226.721L419.858 226.439L419.76 226.164C400.992 173.633 359.813 149.385 314.466 139.366C269.461 129.422 219.481 133.243 181.105 137.174C154.489 139.9 131.414 155.722 113.5 177.211C95.5571 198.735 82.2758 226.515 75.231 254.63C68.202 282.681 67.2123 311.763 74.6525 335.789C82.1824 360.104 98.5097 379.465 125.579 386.259C136.789 389.072 149.698 391.807 163.735 394.261Z" fill="#CBE9F6" stroke="black" stroke-width="15" stroke-linecap="round"/>
<path d="M131 337.549C153.8 381.549 239.5 382.93 286 375.549C317.5 370.549 408.6 343.549 383 313.549C351 276.049 316 283.049 326 256.549C336 230.049 313.222 179.049 268.5 179.049C186.5 172.549 121 199.049 146 246.549C171 294.049 102.5 282.549 131 337.549Z" fill="#93B9E8" fill-opacity="0.55"/>
<path d="M278.5 320.549L355.5 271.549" stroke="black" stroke-width="15" stroke-linecap="round"/>
<path d="M219 320.549L142 271.549" stroke="black" stroke-width="15" stroke-linecap="round"/>
<path d="M356 226.549C333.6 222.149 328.667 203.716 329 195.049C326.762 183.049 342.5 161.049 370.5 183.549C398.5 206.049 384 232.049 356 226.549Z" fill="white"/>
<path d="M391 239.049C403 244.049 405.5 261.549 394 269.049C385.719 274.45 376.547 261.08 371.88 251.549C371.503 250.913 371.209 250.284 370.992 249.665C367.962 241.04 379.804 234.384 391 239.049Z" fill="white"/>
</svg>
